<?xml version="1.0" standalone="no"?>
<!DOCTYPE svg PUBLIC "-//W3C//DTD SVG 20010904//EN"
 "http://www.w3.org/TR/2001/REC-SVG-20010904/DTD/svg10.dtd">
<svg version="1.0" xmlns="http://www.w3.org/2000/svg"
 width="493.000000pt" height="373.000000pt" viewBox="0 0 493.000000 373.000000"
 preserveAspectRatio="xMidYMid meet">
<metadata>
Created by potrace 1.16, written by Peter Selinger 2001-2019
</metadata>
<g transform="translate(0.000000,373.000000) scale(0.100000,-0.100000)"
fill="#000000" stroke="none">
<path d="M2312 3610 c0 -40 2 -47 7 -26 9 42 29 44 34 4 l5 -33 -2 35 c-1 24
-6 35 -16 35 -8 0 -18 9 -22 20 -3 11 -6 -4 -6 -35z"/>
<path d="M2498 3643 c-2 -10 -1 -34 3 -53 l6 -35 2 33 c0 18 6 32 14 32 8 0 7
4 -3 10 -13 9 -13 11 0 20 13 8 13 10 -1 10 -9 0 -18 -8 -21 -17z"/>
<path d="M1972 3608 l-2 -48 33 1 c29 2 29 2 5 6 -24 4 -27 10 -31 46 l-4 42
-1 -47z"/>
<path d="M2258 3637 c-7 -21 6 -70 20 -73 7 -1 8 0 2 3 -12 6 -13 50 -1 55 5
2 3 8 -4 15 -10 9 -14 9 -17 0z"/>
<path d="M2580 3605 c0 -40 2 -45 23 -45 29 0 47 18 47 45 0 27 -18 45 -47 45
-21 0 -23 -5 -23 -45z m50 20 c16 -19 3 -55 -21 -55 -15 0 -19 7 -19 35 0 37
18 47 40 20z"/>
<path d="M2768 3639 c-2 -6 -2 -26 0 -45 3 -24 9 -34 21 -33 10 0 11 2 4 6
-15 5 -18 50 -4 55 5 2 3 8 -4 15 -9 9 -15 9 -17 2z"/>
<path d="M2040 3615 c-18 -22 -1 -49 31 -52 19 -1 20 -1 4 4 -34 9 -41 23 -11
23 21 0 27 4 24 17 -4 24 -32 28 -48 8z m35 -5 c3 -5 -3 -10 -15 -10 -12 0
-18 5 -15 10 3 6 10 10 15 10 5 0 12 -4 15 -10z"/>
<path d="M2111 3591 c1 -35 2 -35 8 -7 9 42 29 44 34 4 l5 -33 -2 35 c-1 29
-5 35 -23 36 -20 1 -23 -3 -22 -35z"/>
<path d="M2184 3616 c-11 -27 1 -51 24 -50 29 1 28 -14 0 -26 -23 -9 -23 -9
-2 -9 25 -1 34 16 34 63 0 27 -4 32 -25 34 -15 1 -28 -4 -31 -12z m43 -12 c8
-21 -13 -42 -28 -27 -13 13 -5 43 11 43 6 0 13 -7 17 -16z"/>
<path d="M2427 3624 c-13 -13 -7 -55 9 -61 24 -9 51 23 38 45 -12 19 -36 27
-47 16z m40 -20 c8 -21 -13 -42 -28 -27 -13 13 -5 43 11 43 6 0 13 -7 17 -16z"/>
<path d="M2673 3595 c0 -22 2 -30 4 -17 2 12 2 30 0 40 -3 9 -5 -1 -4 -23z"/>
<path d="M2704 3616 c-11 -28 1 -51 26 -53 25 -3 25 -3 3 7 -13 5 -23 16 -23
25 0 9 10 20 23 25 l22 9 -23 0 c-12 1 -25 -5 -28 -13z"/>
<path d="M2823 3595 c0 -22 2 -30 4 -17 2 12 2 30 0 40 -3 9 -5 -1 -4 -23z"/>
<path d="M2854 3616 c-10 -26 0 -51 21 -51 16 0 20 7 20 30 0 33 -30 49 -41
21z m36 -21 c0 -16 -6 -25 -15 -25 -9 0 -15 9 -15 25 0 16 6 25 15 25 9 0 15
-9 15 -25z"/>
<path d="M2921 3593 c1 -36 2 -37 8 -8 3 17 13 30 21 30 8 0 18 -13 22 -30 6
-29 6 -29 5 5 -2 30 -6 35 -29 38 -26 3 -28 1 -27 -35z"/>
<path d="M3020 3618 c25 -11 25 -11 3 -15 -34 -6 -31 -43 2 -41 22 2 26 7 23
33 -2 24 -8 30 -28 32 l-25 3 25 -12z m15 -38 c-3 -5 -10 -10 -16 -10 -5 0 -9
5 -9 10 0 6 7 10 16 10 8 0 12 -4 9 -10z"/>
<path d="M3070 3595 c0 -19 5 -35 10 -35 6 0 10 13 10 29 0 16 6 32 13 34 6 3
2 6 -10 6 -20 1 -23 -4 -23 -34z"/>
<path d="M3120 3595 c0 -19 5 -35 10 -35 6 0 10 16 10 35 0 19 -4 35 -10 35
-5 0 -10 -16 -10 -35z"/>
<path d="M3160 3615 c-18 -22 -1 -49 31 -52 19 -1 20 -1 4 4 -34 9 -41 23 -11
23 21 0 27 4 24 17 -4 24 -32 28 -48 8z m40 -5 c0 -5 -7 -10 -15 -10 -8 0 -15
5 -15 10 0 6 7 10 15 10 8 0 15 -4 15 -10z"/>
<path d="M3234 3618 c-4 -6 0 -16 9 -23 22 -16 21 -22 0 -29 -11 -3 -8 -4 6
-3 31 3 40 27 12 34 -26 7 -27 20 -3 26 15 4 15 5 0 6 -9 0 -20 -4 -24 -11z"/>
<path d="M88 3513 c6 -2 12 -17 12 -33 0 -16 -6 -31 -12 -33 -7 -3 -4 -6 7 -6
18 -1 20 4 17 39 -3 29 -8 40 -21 39 -10 0 -11 -2 -3 -6z"/>
<path d="M147 3500 c-21 -30 -22 -40 -3 -40 8 0 16 -5 18 -12 8 -22 14 16 8
47 l-5 30 -18 -25z m13 -15 c0 -8 -4 -15 -10 -15 -5 0 -7 7 -4 15 4 8 8 15 10
15 2 0 4 -7 4 -15z"/>
<path d="M195 3501 c-9 -30 4 -63 23 -59 12 2 17 14 17 38 0 40 -29 55 -40 21z
m35 -21 c0 -31 -16 -41 -26 -15 -8 19 2 45 16 45 5 0 10 -13 10 -30z"/>
<path d="M267 3514 c-4 -4 -7 -12 -7 -18 0 -6 5 -4 10 4 9 13 11 13 21 0 9
-12 10 -12 7 -1 -5 17 -21 25 -31 15z"/>
<path d="M380 3490 c-10 -7 -11 -10 -2 -10 9 0 12 -53 12 -229 0 -174 -3 -231
-12 -234 -10 -4 -10 -6 0 -6 18 -1 18 -447 0 -454 -10 -4 -10 -6 0 -6 9 -1 12
-53 12 -225 0 -170 -3 -226 -12 -229 -10 -4 -10 -6 0 -6 9 -1 12 -54 12 -230
0 -174 -3 -231 -12 -234 -10 -4 -10 -6 0 -6 18 -1 18 -447 0 -454 -10 -4 -10
-6 0 -6 18 -1 18 -447 0 -454 -10 -4 -10 -6 0 -6 9 -1 12 -54 12 -230 0 -174
-3 -231 -12 -234 -7 -3 161 -6 374 -6 359 -1 387 -2 391 -18 4 -17 5 -17 6 0
1 16 43 17 740 17 696 0 740 -1 744 -17 4 -17 5 -17 6 0 1 16 43 17 735 17
691 0 735 -1 739 -17 4 -17 5 -17 6 -1 1 17 28 18 379 21 l377 2 -382 3 -383
2 0 735 0 735 -185 0 -185 0 0 -735 0 -735 -555 0 -555 0 0 1330 0 1330 -190
0 -190 0 0 -1330 0 -1330 -555 0 -555 0 0 1030 0 1030 -185 0 -185 0 0 -1030
0 -1030 -185 0 -185 0 -2 1630 c-3 1445 -5 1628 -18 1620z"/>
<path d="M263 3460 c2 -8 10 -15 17 -15 7 0 15 7 17 15 4 13 3 13 -6 0 -10
-13 -12 -13 -22 0 -9 13 -10 13 -6 0z"/>
<path d="M3672 3368 c1 -41 1 -41 5 -8 l5 35 13 -32 c19 -45 31 -41 32 10 l1
42 -7 -35 -8 -35 -12 33 c-18 45 -31 40 -29 -10z"/>
<path d="M3910 3395 c-26 -31 13 -82 44 -56 19 16 21 42 4 59 -16 16 -33 15
-48 -3z m44 -10 c8 -21 -3 -45 -20 -45 -8 0 -17 7 -20 15 -8 21 2 45 20 45 7
0 16 -7 20 -15z"/>
<path d="M3987 3403 c-4 -3 -6 -22 -6 -42 1 -28 3 -30 6 -11 3 14 10 28 17 32
7 5 6 8 -4 8 -13 0 -13 1 0 10 8 5 10 10 4 10 -6 0 -14 -3 -17 -7z"/>
<path d="M4021 3368 c1 -24 3 -35 6 -25 2 9 11 17 19 17 8 0 14 10 14 25 0 18
-5 25 -20 25 -17 0 -20 -6 -19 -42z m29 17 c0 -8 -4 -15 -10 -15 -5 0 -10 7
-10 15 0 8 5 15 10 15 6 0 10 -7 10 -15z"/>
<path d="M4406 3375 c6 -41 11 -52 19 -44 2 3 -3 23 -11 44 l-15 40 7 -40z"/>
<path d="M4437 3403 c-4 -3 -7 -16 -6 -27 0 -19 1 -19 10 3 10 24 8 36 -4 24z"/>
<path d="M4473 3380 c-5 -29 -7 -31 -14 -15 -5 13 -8 15 -8 5 0 -8 3 -21 8
-29 7 -11 12 -4 20 24 6 22 8 41 6 44 -3 2 -8 -11 -12 -29z"/>
<path d="M4628 3398 c-2 -6 -18 -11 -36 -10 -17 0 -35 -4 -38 -10 -4 -6 1 -8
14 -4 16 5 21 2 24 -16 2 -15 11 -24 26 -26 20 -3 22 1 22 37 0 41 -5 52 -12
29z m2 -39 c0 -24 -23 -21 -28 4 -2 10 3 17 12 17 10 0 16 -9 16 -21z"/>
<path d="M3380 3365 l0 -35 100 0 100 0 0 35 0 35 -100 0 -100 0 0 -35z"/>
<path d="M3743 3365 c2 -23 7 -31 25 -33 19 -3 22 1 21 30 -2 31 -2 31 -6 5
-5 -33 -24 -31 -35 4 -6 22 -7 21 -5 -6z"/>
<path d="M3811 3358 c2 -31 2 -31 6 -5 2 15 9 27 14 27 5 0 9 -12 10 -27 1
-28 1 -28 8 -4 9 34 29 37 34 6 4 -24 4 -24 3 2 -1 25 -5 28 -38 31 -37 2 -38
1 -37 -30z"/>
<path d="M4074 3376 c-9 -24 4 -48 23 -44 12 2 18 12 18 28 0 29 -32 41 -41
16z m36 -16 c0 -11 -7 -20 -15 -20 -8 0 -15 9 -15 20 0 11 7 20 15 20 8 0 15
-9 15 -20z"/>
<path d="M4134 3379 c-4 -7 1 -16 12 -22 17 -10 17 -11 -1 -18 -19 -7 -18 -8
3 -8 26 -1 30 24 5 34 -17 7 -16 8 2 15 16 7 17 9 3 9 -9 1 -20 -4 -24 -10z"/>
<path d="M4192 3360 c0 -19 2 -27 5 -17 2 9 2 25 0 35 -3 9 -5 1 -5 -18z"/>
<path d="M4210 3373 c0 -10 4 -14 8 -8 4 6 11 13 16 18 5 4 2 7 -7 7 -10 0
-17 -8 -17 -17z"/>
<path d="M4344 3376 c-9 -23 3 -46 23 -45 17 1 17 2 1 6 -25 6 -22 23 3 23 12
0 19 5 17 13 -7 18 -37 21 -44 3z m33 -2 c-3 -3 -12 -4 -19 -1 -8 3 -5 6 6 6
11 1 17 -2 13 -5z"/>
<path d="M4494 3376 c-9 -24 4 -48 23 -44 12 2 18 12 18 28 0 29 -32 41 -41
16z m36 -16 c0 -11 -7 -20 -15 -20 -15 0 -21 21 -8 33 12 13 23 7 23 -13z"/>
<path d="M4660 3376 c0 -8 8 -17 18 -21 16 -7 15 -8 -3 -15 -16 -7 -17 -9 -3
-9 24 -1 31 14 12 29 -12 11 -12 15 -2 21 10 7 9 9 -4 9 -10 0 -18 -6 -18 -14z"/>
<path d="M4310 3361 c0 -7 -4 -9 -10 -6 -5 3 -10 2 -10 -4 0 -5 4 -12 9 -15
10 -6 25 24 16 32 -3 3 -5 0 -5 -7z"/>
<path d="M4220 3340 c0 -5 5 -10 11 -10 5 0 7 5 4 10 -3 6 -8 10 -11 10 -2 0
-4 -4 -4 -10z"/>
<path d="M3672 3218 c1 -41 1 -41 5 -8 l5 35 14 -33 c8 -21 18 -31 25 -26 8 5
7 9 -4 15 -8 5 -18 20 -21 34 -10 40 -26 29 -24 -17z"/>
<path d="M3721 3244 c0 -11 3 -14 6 -6 3 7 2 16 -1 19 -3 4 -6 -2 -5 -13z"/>
<path d="M3910 3245 c-26 -31 13 -82 44 -56 19 16 21 42 4 59 -16 16 -33 15
-48 -3z m45 -15 c8 -24 -1 -40 -21 -40 -17 0 -28 24 -20 45 8 22 34 18 41 -5z"/>
<path d="M3987 3253 c-4 -3 -6 -22 -6 -42 1 -28 3 -30 6 -11 3 14 10 28 17 32
7 5 6 8 -4 8 -13 0 -13 1 0 10 8 5 10 10 4 10 -6 0 -14 -3 -17 -7z"/>
<path d="M4022 3220 c0 -41 1 -42 8 -15 4 17 8 25 9 19 0 -5 8 -19 16 -30 13
-18 14 -16 13 26 0 41 -1 42 -8 15 -4 -16 -8 -25 -9 -19 0 5 -8 19 -16 30 -13
18 -14 16 -13 -26z"/>
<path d="M4464 3245 c14 -60 18 -68 27 -54 5 8 8 21 8 29 0 10 -3 8 -9 -5 l-9
-20 0 20 c-1 11 -6 27 -12 35 -8 12 -9 11 -5 -5z"/>
<path d="M4501 3253 c0 -4 4 -17 9 -28 8 -19 9 -19 9 2 1 12 -3 25 -9 28 -5 3
-10 3 -9 -2z"/>
<path d="M4538 3238 c-3 -13 -9 -31 -13 -40 -4 -10 -3 -18 3 -18 5 0 13 16 17
36 7 39 1 59 -7 22z"/>
<path d="M4278 3244 c-3 -2 -3 -17 0 -34 3 -20 10 -30 21 -29 10 0 11 2 4 6
-16 6 -17 40 -1 45 8 3 6 6 -4 10 -9 4 -18 5 -20 2z"/>
<path d="M4674 3236 c-10 -8 -16 -18 -11 -22 4 -4 7 -2 7 4 0 7 5 12 10 12 6
0 10 -9 10 -21 0 -15 -5 -19 -16 -15 -8 3 -12 2 -9 -4 15 -24 35 -9 35 25 0
40 0 40 -26 21z"/>
<path d="M3741 3228 c-2 -28 10 -48 30 -48 15 0 19 7 18 33 -2 31 -2 31 -6 4
-5 -33 -25 -31 -34 4 -4 14 -7 17 -8 7z"/>
<path d="M3811 3208 c2 -31 2 -31 6 -5 2 15 8 27 13 27 5 0 11 -12 13 -27 4
-26 4 -26 6 5 1 26 -3 32 -19 32 -16 0 -20 -6 -19 -32z"/>
<path d="M3866 3233 c7 -4 14 -19 17 -33 4 -22 5 -21 4 4 -1 17 -9 31 -17 33
-10 3 -11 2 -4 -4z"/>
<path d="M4094 3226 c-9 -23 3 -46 23 -45 17 1 17 2 1 6 -25 6 -22 23 3 23 12
0 19 5 17 13 -7 18 -37 21 -44 3z m33 -2 c-3 -3 -12 -4 -19 -1 -8 3 -5 6 6 6
11 1 17 -2 13 -5z"/>
<path d="M4157 3233 c-15 -15 -6 -45 15 -51 21 -5 21 -6 2 -14 -18 -8 -18 -8
1 -5 29 3 36 77 7 77 -10 0 -22 -3 -25 -7z m33 -23 c0 -11 -7 -20 -15 -20 -8
0 -15 9 -15 20 0 11 7 20 15 20 8 0 15 -9 15 -20z"/>
<path d="M4235 3231 c17 -8 18 -10 3 -10 -27 -1 -24 -41 3 -41 16 0 20 5 17
27 -2 19 -9 29 -23 30 l-20 3 20 -9z m15 -31 c0 -5 -4 -10 -10 -10 -5 0 -10 5
-10 10 0 6 5 10 10 10 6 0 10 -4 10 -10z"/>
<path d="M4322 3210 c0 -19 2 -27 5 -17 2 9 2 25 0 35 -3 9 -5 1 -5 -18z"/>
<path d="M4352 3208 c10 -29 12 -30 25 -13 7 11 13 26 12 34 0 9 -5 5 -11 -9
l-10 -25 -9 23 c-13 34 -19 26 -7 -10z"/>
<path d="M4404 3226 c-10 -25 3 -46 28 -45 23 0 23 0 -2 11 l-25 11 23 5 c13
2 21 9 19 15 -6 19 -36 20 -43 3z m33 -2 c-3 -3 -12 -4 -19 -1 -8 3 -5 6 6 6
11 1 17 -2 13 -5z"/>
<path d="M4565 3231 c-3 -7 0 -8 9 -5 11 4 16 0 16 -15 0 -22 -15 -29 -23 -11
-3 6 -4 5 -3 -2 5 -24 31 -14 31 11 0 26 -19 39 -30 22z"/>
<path d="M4621 3208 c2 -28 2 -29 6 -8 3 14 10 28 17 32 7 5 5 8 -6 8 -14 0
-18 -8 -17 -32z"/>
<path d="M4724 3229 c-4 -7 1 -16 12 -22 17 -10 17 -11 -1 -18 -16 -6 -17 -8
-3 -8 25 -1 33 20 12 32 -17 10 -17 11 1 18 16 6 17 8 3 8 -9 1 -20 -4 -24
-10z"/>
<path d="M88 3053 c6 -2 12 -17 12 -33 0 -16 -6 -31 -12 -33 -7 -3 -4 -6 7 -6
18 -1 20 4 17 39 -3 29 -8 40 -21 39 -10 0 -11 -2 -3 -6z"/>
<path d="M148 3049 c24 -9 23 -18 -6 -51 -14 -17 -13 -18 14 -17 16 1 21 3 12
6 -16 4 -16 6 -2 28 19 28 11 45 -19 44 -22 0 -22 0 1 -10z"/>
<path d="M205 3051 c-3 -7 0 -8 9 -5 13 5 16 -1 16 -26 0 -26 -3 -31 -17 -25
-15 5 -16 4 -5 -6 17 -18 34 2 30 37 -3 29 -21 43 -33 25z"/>
<path d="M267 3053 c-11 -10 -8 -61 4 -69 6 -3 16 -1 22 5 9 9 8 11 -5 6 -15
-6 -18 -1 -18 25 0 25 3 31 16 26 8 -3 12 -2 9 4 -7 12 -19 13 -28 3z"/>
<path d="M2652 2910 c0 -14 2 -19 5 -12 2 6 2 18 0 25 -3 6 -5 1 -5 -13z"/>
<path d="M2655 1620 c0 -690 1 -973 2 -627 2 345 2 909 0 1255 -1 345 -2 62
-2 -628z"/>
<path d="M88 2583 c6 -2 12 -17 12 -33 0 -16 -6 -31 -12 -33 -7 -3 -4 -6 7 -6
18 -1 20 4 17 39 -3 29 -8 40 -21 39 -10 0 -11 -2 -3 -6z"/>
<path d="M134 2576 c-11 -28 0 -61 21 -61 16 0 20 7 20 35 0 25 -5 36 -18 38
-9 2 -20 -3 -23 -12z m36 -26 c0 -20 -5 -30 -15 -30 -10 0 -15 10 -15 30 0 20
5 30 15 30 10 0 15 -10 15 -30z"/>
<path d="M195 2571 c-9 -30 4 -63 23 -59 12 2 17 14 17 38 0 40 -29 55 -40 21z
m35 -21 c0 -31 -16 -41 -26 -15 -8 19 2 45 16 45 5 0 10 -13 10 -30z"/>
<path d="M267 2584 c-4 -4 -7 -12 -7 -18 0 -6 5 -4 10 4 9 13 11 13 21 0 9
-12 10 -12 7 -1 -5 17 -21 25 -31 15z"/>
<path d="M263 2530 c2 -8 10 -15 17 -15 7 0 15 7 17 15 4 13 3 13 -6 0 -10
-13 -12 -13 -22 0 -9 13 -10 13 -6 0z"/>
<path d="M157 2123 c-2 -5 -4 -23 -5 -40 -2 -27 1 -33 18 -33 11 0 20 5 20 10
0 6 8 5 20 -2 17 -11 22 -10 30 2 12 19 12 41 1 59 -12 18 -41 7 -41 -17 0
-18 -18 -42 -32 -42 -4 0 -8 7 -8 16 0 10 6 14 15 10 11 -4 15 1 15 19 0 23
-23 36 -33 18z m23 -13 c0 -5 -4 -10 -10 -10 -5 0 -10 5 -10 10 0 6 5 10 10
10 6 0 10 -4 10 -10z m55 -20 c0 -13 -6 -25 -12 -27 -9 -3 -13 6 -13 27 0 21
4 30 13 28 6 -3 12 -15 12 -28z"/>
<path d="M265 2111 c-9 -30 4 -63 23 -59 12 2 17 14 17 38 0 40 -29 55 -40 21z
m35 -21 c0 -31 -16 -41 -26 -15 -8 19 2 45 16 45 5 0 10 -13 10 -30z"/>
<path d="M154 1656 c-3 -8 -4 -25 -2 -38 3 -20 9 -23 48 -23 45 0 45 0 45 35
0 26 -5 36 -18 38 -12 2 -20 -3 -24 -16 -3 -14 -11 -18 -24 -15 -24 7 -25 20
-1 26 16 4 16 5 -1 6 -10 0 -20 -5 -23 -13z m86 -26 c0 -20 -5 -30 -15 -30
-10 0 -15 10 -15 30 0 20 5 30 15 30 10 0 15 -10 15 -30z m-58 -15 c0 -5 -5
-11 -11 -13 -6 -2 -11 4 -11 13 0 9 5 15 11 13 6 -2 11 -8 11 -13z"/>
<path d="M265 1651 c-9 -30 4 -63 23 -59 12 2 17 14 17 38 0 40 -29 55 -40 21z
m35 -21 c0 -16 -5 -30 -10 -30 -14 0 -24 26 -16 45 10 26 26 16 26 -15z"/>
<path d="M157 1170 c-18 -29 -18 -30 2 -30 12 0 21 -6 21 -12 0 -10 3 -9 9 1
6 9 11 10 15 2 21 -33 54 8 41 50 -9 27 -37 20 -46 -11 l-7 -25 -1 28 c-1 35
-12 34 -34 -3z m78 -10 c0 -13 -6 -25 -12 -27 -9 -3 -13 6 -13 27 0 21 4 30
13 28 6 -3 12 -15 12 -28z m-59 -7 c-10 -10 -19 5 -10 18 6 11 8 11 12 0 2 -7
1 -15 -2 -18z"/>
<path d="M265 1181 c-9 -30 4 -63 23 -59 12 2 17 14 17 38 0 40 -29 55 -40 21z
m35 -21 c0 -16 -5 -30 -10 -30 -14 0 -24 26 -16 45 10 26 26 16 26 -15z"/>
<path d="M4135 775 c0 -220 1 -309 2 -197 2 112 2 292 0 400 -1 108 -2 17 -2
-203z"/>
<path d="M163 733 c21 -6 22 -26 2 -43 -22 -18 -18 -30 8 -30 17 0 19 2 8 9
-12 8 -12 12 -2 25 17 20 7 46 -16 45 -17 -1 -17 -2 0 -6z"/>
<path d="M204 726 c-11 -28 0 -61 21 -61 16 0 20 7 20 35 0 25 -5 36 -18 38
-9 2 -20 -3 -23 -12z m36 -26 c0 -20 -5 -30 -15 -30 -10 0 -15 10 -15 30 0 20
5 30 15 30 10 0 15 -10 15 -30z"/>
<path d="M265 721 c-9 -30 4 -63 23 -59 12 2 17 14 17 38 0 40 -29 55 -40 21z
m35 -21 c0 -16 -5 -30 -10 -30 -14 0 -24 26 -16 45 10 26 26 16 26 -15z"/>
<path d="M2653 305 c0 -27 2 -38 4 -22 2 15 2 37 0 50 -2 12 -4 0 -4 -28z"/>
<path d="M4132 320 c0 -19 2 -27 5 -17 2 9 2 25 0 35 -3 9 -5 1 -5 -18z"/>
<path d="M287 273 c-11 -10 -8 -61 4 -69 6 -3 16 -1 22 5 9 9 8 11 -5 6 -15
-6 -18 -1 -18 25 0 25 3 31 16 26 8 -3 12 -2 9 4 -7 12 -19 13 -28 3z"/>
<path d="M1218 263 c12 -2 32 -2 45 0 12 2 2 4 -23 4 -25 0 -35 -2 -22 -4z"/>
<path d="M1468 263 c7 -3 16 -2 19 1 4 3 -2 6 -13 5 -11 0 -14 -3 -6 -6z"/>
<path d="M2688 263 c7 -3 16 -2 19 1 4 3 -2 6 -13 5 -11 0 -14 -3 -6 -6z"/>
<path d="M2888 263 c12 -2 30 -2 40 0 9 3 -1 5 -23 4 -22 0 -30 -2 -17 -4z"/>
<path d="M901 128 c1 -24 3 -35 6 -25 2 9 11 17 19 17 8 0 14 6 15 13 1 6 4 1
8 -13 4 -16 14 -25 26 -25 15 0 20 7 20 25 0 20 -5 25 -24 25 -14 0 -26 6 -29
13 -2 6 -12 12 -23 12 -16 0 -19 -7 -18 -42z m31 17 c0 -5 -5 -11 -11 -13 -6
-2 -11 4 -11 13 0 9 5 15 11 13 6 -2 11 -8 11 -13z m58 -25 c0 -11 -7 -20 -15
-20 -8 0 -15 9 -15 20 0 11 7 20 15 20 8 0 15 -9 15 -20z"/>
<path d="M1023 130 c0 -25 2 -35 4 -22 2 12 2 32 0 45 -2 12 -4 2 -4 -23z"/>
<path d="M2403 154 c-3 -9 0 -20 8 -25 22 -14 36 -10 17 5 -10 7 -18 16 -18
19 0 3 8 8 18 10 16 4 16 5 -1 6 -10 0 -20 -6 -24 -15z"/>
<path d="M3929 143 c-20 -56 -20 -54 1 -41 15 10 22 10 32 0 20 -20 33 -13 32
18 0 17 -5 29 -10 28 -5 -2 -8 -12 -7 -23 2 -12 -3 -7 -12 13 -18 39 -23 40
-36 5z m25 -8 c3 -9 0 -15 -9 -15 -9 0 -12 6 -9 15 4 8 7 15 9 15 2 0 5 -7 9
-15z"/>
<path d="M4083 130 c0 -25 2 -35 4 -22 2 12 2 32 0 45 -2 12 -4 2 -4 -23z"/>
<path d="M1072 128 c2 -17 9 -33 16 -34 7 -1 8 0 2 3 -14 7 -13 40 2 45 7 3 5
7 -6 11 -15 6 -17 2 -14 -25z"/>
<path d="M2658 154 c-3 -2 -3 -17 0 -34 3 -20 10 -30 21 -29 10 0 11 2 4 6
-16 6 -17 40 -1 45 8 3 6 6 -4 10 -9 4 -18 5 -20 2z"/>
<path d="M2778 154 c-3 -2 -3 -17 0 -34 3 -20 10 -30 21 -29 10 0 11 2 4 6
-16 6 -17 40 -1 45 8 3 6 6 -4 10 -9 4 -18 5 -20 2z"/>
<path d="M4168 154 c-3 -2 -3 -17 0 -34 3 -20 10 -30 21 -29 10 0 11 2 4 6
-16 6 -17 40 -1 45 8 3 6 6 -4 10 -9 4 -18 5 -20 2z"/>
<path d="M1112 120 c0 -19 2 -27 5 -17 2 9 2 25 0 35 -3 9 -5 1 -5 -18z"/>
<path d="M1144 135 c-9 -23 3 -45 23 -44 17 1 17 2 1 6 -10 2 -18 13 -18 23 0
10 8 21 18 23 16 4 16 5 -1 6 -10 0 -20 -6 -23 -14z"/>
<path d="M1202 120 c0 -19 2 -27 5 -17 2 9 2 25 0 35 -3 9 -5 1 -5 -18z"/>
<path d="M1244 142 c19 -8 19 -9 -3 -15 -28 -7 -23 -31 8 -35 19 -3 22 0 19
25 -2 19 -9 29 -23 30 -19 3 -19 3 -1 -5z m11 -32 c-3 -5 -10 -10 -16 -10 -5
0 -9 5 -9 10 0 6 7 10 16 10 8 0 12 -4 9 -10z"/>
<path d="M1283 128 c-2 -20 -1 -21 8 -5 14 24 27 21 32 -8 4 -23 4 -23 3 2 -1
37 -41 46 -43 11z"/>
<path d="M1350 136 c0 -8 8 -17 18 -21 16 -7 15 -8 -3 -15 -16 -7 -17 -9 -3
-9 24 -1 31 14 12 29 -12 11 -12 15 -2 21 10 7 9 9 -4 9 -10 0 -18 -6 -18 -14z"/>
<path d="M2450 129 c-6 -11 -21 -24 -33 -28 -16 -7 -9 -9 28 -8 28 1 42 3 33
5 -10 2 -18 12 -18 22 0 10 8 21 18 23 16 4 16 5 0 6 -10 0 -22 -8 -28 -20z"/>
<path d="M2512 120 c0 -19 2 -27 5 -17 2 9 2 25 0 35 -3 9 -5 1 -5 -18z"/>
<path d="M2534 136 c-10 -25 3 -46 28 -45 23 0 23 0 -2 11 l-25 11 23 5 c13 2
21 9 19 15 -6 19 -36 20 -43 3z m33 -2 c-3 -3 -12 -4 -19 -1 -8 3 -5 6 6 6 11
1 17 -2 13 -5z"/>
<path d="M2601 118 c2 -31 2 -31 6 -5 2 15 8 27 13 27 5 0 11 -12 13 -27 4
-26 4 -26 6 5 1 26 -3 32 -19 32 -16 0 -20 -6 -19 -32z"/>
<path d="M2702 120 c0 -19 2 -27 5 -17 2 9 2 25 0 35 -3 9 -5 1 -5 -18z"/>
<path d="M2738 143 c7 -3 16 -2 19 1 4 3 -2 6 -13 5 -11 0 -14 -3 -6 -6z"/>
<path d="M2820 136 c0 -8 8 -17 18 -21 16 -7 15 -8 -3 -15 -16 -7 -17 -9 -3
-9 24 -1 31 14 12 29 -12 11 -12 15 -2 21 10 7 9 9 -4 9 -10 0 -18 -6 -18 -14z"/>
<path d="M4013 123 c-2 -26 -1 -27 7 -5 12 29 28 28 33 -3 4 -23 4 -23 3 2 -1
20 -7 29 -21 31 -16 2 -21 -3 -22 -25z"/>
<path d="M4110 135 c-15 -18 3 -45 29 -44 10 0 7 4 -9 11 -25 11 -25 11 -2 15
12 3 22 11 22 19 0 18 -24 18 -40 -1z"/>
<path d="M4210 135 c-15 -18 2 -45 29 -44 10 0 7 4 -9 11 l-25 11 23 5 c13 2
21 9 19 15 -6 18 -23 19 -37 2z"/>
<path d="M4270 136 c0 -8 8 -17 18 -21 16 -7 15 -8 -3 -15 -16 -7 -17 -9 -3
-9 24 -1 31 14 12 29 -12 11 -12 15 -2 21 10 7 9 9 -4 9 -10 0 -18 -6 -18 -14z"/>
<path d="M2746 115 c19 -14 19 -14 0 -15 -11 0 -17 -3 -13 -6 3 -4 14 -4 23 0
13 5 14 9 4 21 -7 8 -17 15 -23 15 -6 0 -2 -7 9 -15z"/>
</g>
</svg>
