<?xml version="1.0" standalone="no"?>
<!DOCTYPE svg PUBLIC "-//W3C//DTD SVG 20010904//EN"
 "http://www.w3.org/TR/2001/REC-SVG-20010904/DTD/svg10.dtd">
<svg version="1.0" xmlns="http://www.w3.org/2000/svg"
 width="739.000000pt" height="595.000000pt" viewBox="0 0 739.000000 595.000000"
 preserveAspectRatio="xMidYMid meet">
<metadata>
Created by potrace 1.16, written by Peter Selinger 2001-2019
</metadata>
<g transform="translate(0.000000,595.000000) scale(0.100000,-0.100000)"
fill="#000000" stroke="none">
<path d="M3371 5835 c-1 -47 1 -51 23 -53 16 -1 27 5 31 17 9 28 -5 53 -26 48
-12 -3 -19 2 -22 17 -2 11 -5 -2 -6 -29z m46 -11 c8 -21 -13 -42 -28 -27 -13
13 -5 43 11 43 6 0 13 -7 17 -16z"/>
<path d="M4303 5830 c0 -30 2 -43 4 -27 2 15 2 39 0 55 -2 15 -4 2 -4 -28z"/>
<path d="M4410 5866 c0 -7 -9 -16 -21 -19 -16 -4 -20 -12 -17 -34 2 -22 9 -29
31 -31 26 -3 27 -2 27 47 0 28 -4 51 -10 51 -5 0 -10 -6 -10 -14z m0 -51 c0
-16 -6 -25 -15 -25 -9 0 -15 9 -15 25 0 16 6 25 15 25 9 0 15 -9 15 -25z"/>
<path d="M4681 5832 c-1 -50 0 -53 22 -50 31 4 38 57 8 65 -11 3 -22 12 -24
22 -3 9 -5 -8 -6 -37z m39 -17 c0 -16 -6 -25 -15 -25 -9 0 -15 9 -15 25 0 16
6 25 15 25 9 0 15 -9 15 -25z"/>
<path d="M2921 5823 l2 -48 7 40 c6 39 6 39 14 13 5 -16 12 -28 17 -28 5 0 12
12 16 28 7 26 8 26 14 -13 l6 -40 2 48 c1 52 -12 62 -27 20 l-9 -28 -13 28
c-20 40 -30 33 -29 -20z"/>
<path d="M3296 5830 c-19 -48 -20 -58 -4 -42 15 15 48 16 48 2 0 -5 4 -10 9
-10 5 0 1 20 -8 45 -9 25 -19 45 -22 45 -4 0 -14 -18 -23 -40z m34 -12 c0 -5
-6 -8 -14 -8 -9 0 -12 7 -9 21 4 16 8 17 14 7 5 -7 9 -16 9 -20z"/>
<path d="M3508 5857 c-7 -21 6 -70 20 -73 7 -1 8 0 2 3 -12 6 -13 50 -1 55 5
2 3 8 -4 15 -10 9 -14 9 -17 0z"/>
<path d="M3748 5859 c-2 -6 -2 -26 0 -45 3 -24 9 -34 21 -33 10 0 11 2 4 6
-15 5 -18 50 -4 55 5 2 3 8 -4 15 -9 9 -15 9 -17 2z"/>
<path d="M4022 5828 c-2 -46 -1 -48 26 -47 22 1 23 2 5 6 -18 3 -23 13 -26 46
l-4 42 -1 -47z"/>
<path d="M4545 5833 c4 -54 3 -53 23 -52 10 0 12 3 5 6 -16 6 -17 53 -2 53 6
0 4 7 -5 15 -21 22 -24 19 -21 -22z"/>
<path d="M4828 5859 c-2 -6 -2 -26 0 -45 3 -24 9 -34 21 -33 10 0 11 2 4 6
-15 5 -18 50 -4 55 5 2 3 8 -4 15 -9 9 -15 9 -17 2z"/>
<path d="M3024 5836 c-11 -28 1 -51 26 -53 l25 -3 -25 12 -25 12 28 4 c20 2
27 8 25 20 -4 22 -46 28 -54 8z m41 -6 c3 -5 -3 -10 -15 -10 -12 0 -18 5 -15
10 3 6 10 10 15 10 5 0 12 -4 15 -10z"/>
<path d="M3120 5838 c25 -11 25 -11 3 -15 -13 -3 -23 -9 -23 -14 0 -5 -1 -12
-2 -16 -2 -5 10 -8 25 -9 26 -1 28 2 25 30 -2 25 -8 31 -28 33 l-25 3 25 -12z
m15 -38 c-3 -5 -10 -10 -16 -10 -5 0 -9 5 -9 10 0 6 7 10 16 10 8 0 12 -4 9
-10z"/>
<path d="M3171 5813 c1 -36 2 -37 8 -8 3 17 13 30 21 30 8 0 18 -13 22 -30 6
-29 6 -29 5 5 -2 30 -6 35 -29 38 -26 3 -28 1 -27 -35z"/>
<path d="M3445 5840 c-8 -14 3 -30 21 -30 23 0 16 -20 -8 -21 -19 -1 -20 -2
-4 -6 10 -3 23 0 30 7 8 8 5 16 -13 30 l-25 18 25 5 c22 4 22 4 2 6 -12 0 -25
-3 -28 -9z"/>
<path d="M3561 5810 c1 -27 3 -29 6 -10 2 14 11 30 20 37 13 10 13 12 -6 10
-17 -1 -21 -7 -20 -37z"/>
<path d="M3630 5838 c25 -11 25 -11 3 -15 -13 -3 -23 -9 -23 -14 0 -5 -1 -12
-2 -16 -2 -5 10 -8 25 -9 26 -1 28 2 25 30 -2 25 -8 31 -28 33 l-25 3 25 -12z
m15 -38 c-3 -5 -10 -10 -16 -10 -5 0 -9 5 -9 10 0 6 7 10 16 10 8 0 12 -4 9
-10z"/>
<path d="M3684 5836 c-11 -28 1 -51 26 -53 25 -3 25 -3 3 7 -13 5 -23 16 -23
25 0 9 10 20 23 25 l22 9 -23 0 c-12 1 -25 -5 -28 -13z"/>
<path d="M3797 5843 c-8 -14 -5 -63 4 -63 5 0 9 16 9 35 0 34 -4 43 -13 28z"/>
<path d="M3831 5832 c-7 -14 -7 -24 3 -37 19 -27 48 -12 44 22 -4 33 -32 42
-47 15z m39 -17 c0 -16 -6 -25 -15 -25 -9 0 -15 9 -15 25 0 16 6 25 15 25 9 0
15 -9 15 -25z"/>
<path d="M3901 5810 c1 -34 1 -34 8 -6 10 47 38 46 32 -1 -1 -6 3 -14 9 -18
12 -7 14 34 2 52 -4 7 -18 11 -30 10 -18 -1 -22 -7 -21 -37z"/>
<path d="M4084 5836 c-11 -28 1 -51 26 -53 22 -1 22 -1 3 4 -31 6 -29 23 2 23
23 0 24 2 15 20 -12 23 -38 26 -46 6z m36 -6 c0 -5 -7 -10 -15 -10 -8 0 -15 5
-15 10 0 6 7 10 15 10 8 0 15 -4 15 -10z"/>
<path d="M4151 5843 c-1 -16 20 -63 29 -63 4 0 11 16 17 35 13 41 7 47 -8 8
l-11 -28 -13 30 c-7 17 -14 25 -14 18z"/>
<path d="M4230 5835 c-18 -22 -1 -49 31 -52 19 -1 20 -1 4 4 -34 9 -41 23 -11
23 21 0 27 4 24 17 -4 24 -32 28 -48 8z m35 -5 c3 -5 -3 -10 -15 -10 -12 0
-18 5 -15 10 3 6 10 10 15 10 5 0 12 -4 15 -10z"/>
<path d="M4453 5815 c0 -22 2 -30 4 -17 2 12 2 30 0 40 -3 9 -5 -1 -4 -23z"/>
<path d="M4484 5838 c-4 -6 0 -16 9 -23 22 -16 21 -22 0 -29 -11 -3 -8 -4 6
-3 31 3 40 27 12 34 -26 7 -27 20 -3 26 15 4 15 5 0 6 -9 0 -20 -4 -24 -11z"/>
<path d="M4591 5813 c1 -38 1 -38 9 -9 5 16 15 33 22 37 9 6 6 9 -9 9 -20 0
-23 -5 -22 -37z"/>
<path d="M4643 5815 c0 -22 2 -30 4 -17 2 12 2 30 0 40 -3 9 -5 -1 -4 -23z"/>
<path d="M4753 5820 c2 -30 6 -35 30 -38 25 -3 27 -1 27 33 0 22 -4 34 -10 30
-6 -4 -10 -12 -9 -18 6 -47 -22 -48 -33 -1 -6 27 -6 27 -5 -6z"/>
<path d="M4883 5815 c0 -22 2 -30 4 -17 2 12 2 30 0 40 -3 9 -5 -1 -4 -23z"/>
<path d="M4914 5836 c-10 -26 0 -51 21 -51 16 0 20 7 20 30 0 33 -30 49 -41
21z m36 -21 c0 -16 -6 -25 -15 -25 -9 0 -15 9 -15 25 0 16 6 25 15 25 9 0 15
-9 15 -25z"/>
<path d="M4981 5813 c1 -36 2 -37 8 -8 3 17 13 30 21 30 8 0 18 -13 22 -30 6
-29 6 -29 5 5 -2 30 -6 35 -29 38 -26 3 -28 1 -27 -35z"/>
<path d="M3312 5713 c-4 -10 -5 -34 -1 -53 l6 -35 2 32 c0 17 7 34 14 36 9 4
8 6 -2 6 -11 1 -11 4 -1 16 8 10 9 15 2 15 -6 0 -15 -8 -20 -17z"/>
<path d="M3713 5680 c0 -30 2 -43 4 -27 2 15 2 39 0 55 -2 15 -4 2 -4 -28z"/>
<path d="M4110 5710 c0 -13 -5 -17 -14 -14 -19 7 -38 -27 -26 -47 5 -7 18 -15
30 -15 17 -1 20 5 20 47 0 27 -2 49 -5 49 -3 0 -5 -9 -5 -20z m-5 -45 c0 -10
-6 -20 -12 -22 -8 -3 -13 5 -13 22 0 17 5 25 13 23 6 -3 12 -13 12 -23z"/>
<path d="M4190 5715 c0 -8 -5 -15 -11 -15 -8 0 -8 -4 -1 -12 5 -7 8 -23 6 -35
-2 -13 1 -23 6 -23 9 0 16 48 11 74 -1 5 4 13 11 17 10 7 9 9 -4 9 -10 0 -18
-7 -18 -15z"/>
<path d="M4493 5680 c0 -30 2 -43 4 -27 2 15 2 39 0 55 -2 15 -4 2 -4 -28z"/>
<path d="M3357 5694 c-13 -13 -7 -55 9 -61 24 -9 51 23 38 45 -12 19 -36 27
-47 16z m40 -20 c8 -21 -13 -42 -28 -27 -13 13 -5 43 11 43 6 0 13 -7 17 -16z"/>
<path d="M3432 5663 c1 -37 1 -37 5 -6 3 19 11 34 21 36 12 3 10 5 -5 6 -20 1
-23 -3 -21 -36z"/>
<path d="M3519 5692 c-6 -32 -5 -53 2 -58 5 -3 9 9 9 26 0 40 23 35 29 -6 l4
-29 6 29 c8 42 29 44 34 4 l5 -33 -2 35 c-1 33 -3 34 -43 37 -24 1 -44 -1 -44
-5z"/>
<path d="M3653 5693 c23 -6 22 -19 -4 -26 -29 -8 -19 -31 14 -35 20 -2 27 1
27 13 0 27 -20 55 -38 54 -16 -1 -16 -2 1 -6z m17 -43 c0 -5 -7 -10 -15 -10
-8 0 -15 5 -15 10 0 6 7 10 15 10 8 0 15 -4 15 -10z"/>
<path d="M3744 5686 c-11 -28 1 -51 26 -53 22 -1 22 -1 3 4 -31 6 -29 23 2 23
27 0 32 9 13 28 -16 16 -37 15 -44 -2z m41 -6 c3 -5 -3 -10 -15 -10 -12 0 -18
5 -15 10 3 6 10 10 15 10 5 0 12 -4 15 -10z"/>
<path d="M3815 5690 c-8 -14 3 -30 21 -30 23 0 16 -20 -8 -21 -19 -1 -20 -2
-4 -6 10 -3 23 0 30 7 8 8 5 16 -13 30 l-25 18 25 5 c22 4 22 4 2 6 -12 0 -25
-3 -28 -9z"/>
<path d="M3940 5688 c25 -11 25 -11 3 -15 -13 -3 -23 -9 -23 -14 0 -5 -1 -12
-2 -16 -2 -5 10 -8 25 -9 26 -1 28 2 25 30 -2 25 -8 31 -28 33 l-25 3 25 -12z
m15 -38 c-3 -5 -10 -10 -16 -10 -5 0 -9 5 -9 10 0 6 7 10 16 10 8 0 12 -4 9
-10z"/>
<path d="M3991 5663 c1 -36 2 -37 8 -8 3 17 13 30 21 30 8 0 18 -13 22 -30 6
-29 6 -29 5 5 -2 30 -6 35 -29 38 -26 3 -28 1 -27 -35z"/>
<path d="M4230 5685 c-18 -22 -1 -49 31 -52 19 -1 20 -1 4 4 -34 9 -41 23 -11
23 21 0 27 4 24 17 -4 24 -32 28 -48 8z m40 -5 c0 -5 -9 -10 -21 -10 -11 0
-17 5 -14 10 3 6 13 10 21 10 8 0 14 -4 14 -10z"/>
<path d="M4301 5661 c1 -35 2 -35 8 -7 9 43 31 45 32 4 l1 -33 7 29 c9 41 31
46 31 7 0 -17 5 -31 10 -31 12 0 13 40 2 56 -4 7 -26 11 -49 11 -43 -1 -43 -1
-42 -36z"/>
<path d="M4440 5688 c25 -11 25 -11 3 -15 -13 -3 -23 -9 -23 -14 0 -5 -1 -12
-2 -16 -2 -5 10 -8 25 -9 26 -1 28 2 25 30 -2 25 -8 31 -28 33 l-25 3 25 -12z
m15 -38 c-3 -5 -10 -10 -16 -10 -5 0 -9 5 -9 10 0 6 7 10 16 10 8 0 12 -4 9
-10z"/>
<path d="M4530 5685 c-18 -22 -1 -49 31 -52 19 -1 20 -1 4 4 -34 9 -41 23 -11
23 21 0 27 4 24 17 -4 24 -32 28 -48 8z m40 -5 c0 -5 -9 -10 -21 -10 -11 0
-17 5 -14 10 3 6 13 10 21 10 8 0 14 -4 14 -10z"/>
<path d="M4600 5685 c0 -9 7 -18 15 -21 20 -8 19 -21 -2 -28 -11 -3 -8 -4 6
-3 31 3 40 27 12 34 -26 7 -27 20 -3 26 13 4 11 5 -5 6 -15 1 -23 -5 -23 -14z"/>
<path d="M230 5590 c0 -11 7 -20 15 -20 21 0 19 -28 -2 -33 -17 -4 -17 -5 0
-6 25 -1 34 29 14 44 -22 16 -21 22 1 28 13 4 11 5 -5 6 -17 1 -23 -5 -23 -19z"/>
<path d="M284 5596 c-11 -28 0 -61 21 -61 16 0 20 7 20 35 0 25 -5 36 -18 38
-9 2 -20 -3 -23 -12z m36 -26 c0 -20 -5 -30 -15 -30 -10 0 -15 10 -15 30 0 20
5 30 15 30 10 0 15 -10 15 -30z"/>
<path d="M345 5591 c-9 -30 4 -63 23 -59 12 2 17 14 17 38 0 40 -29 55 -40 21z
m35 -21 c0 -16 -5 -30 -10 -30 -14 0 -24 26 -16 45 10 26 26 16 26 -15z"/>
<path d="M417 5604 c-4 -4 -7 -12 -7 -18 0 -6 5 -4 10 4 9 13 11 13 21 0 9
-12 10 -12 7 -1 -5 17 -21 25 -31 15z"/>
<path d="M504 5596 c-11 -28 0 -61 21 -61 16 0 20 7 20 35 0 25 -5 36 -18 38
-9 2 -20 -3 -23 -12z m36 -26 c0 -20 -5 -30 -15 -30 -10 0 -15 10 -15 30 0 20
5 30 15 30 10 0 15 -10 15 -30z"/>
<path d="M618 5563 c18 -7 18 -769 0 -776 -10 -4 -10 -6 0 -6 18 -1 18 -767 0
-774 -10 -4 -10 -6 0 -6 18 -1 18 -757 0 -764 -10 -4 -10 -6 0 -6 18 -1 18
-767 0 -774 -10 -4 -10 -6 0 -6 18 -1 18 -757 -1 -764 -9 -4 -9 -6 1 -6 9 -1
12 -85 12 -385 0 -298 -3 -385 -12 -389 -10 -4 -10 -6 0 -6 18 -1 18 -767 0
-774 -8 -3 -6 -6 5 -6 16 -1 17 43 17 779 l0 780 145 0 c131 0 145 -2 145 -17
0 -12 3 -14 8 -7 9 14 702 18 702 4 0 -5 14 -8 30 -8 17 1 30 5 30 11 0 6 46
7 123 3 67 -3 157 -6 200 -5 57 0 77 -3 77 -13 0 -9 2 -10 8 -2 4 7 35 12 77
12 39 0 111 3 161 7 81 6 93 5 101 -10 9 -15 11 -15 16 -2 5 14 52 16 381 17
297 0 376 -2 376 -12 0 -9 3 -9 9 1 15 23 337 13 353 -11 6 -10 8 -10 8 0 0
11 17 13 69 11 39 -2 73 0 77 4 4 4 13 2 21 -5 10 -8 17 -8 25 0 8 8 48 12
105 12 76 0 93 -3 93 -15 0 -8 4 -15 10 -15 5 0 9 6 7 13 -3 16 234 10 245 -7
5 -7 8 -6 8 4 0 12 2 13 9 1 7 -11 10 -11 15 0 5 11 7 11 12 2 4 -9 11 -10 25
-3 12 7 117 9 301 5 347 -7 358 -7 358 -15 0 -4 7 -7 15 -7 8 0 15 4 15 9 0 4
11 8 25 8 14 0 25 -4 25 -8 0 -5 25 -7 56 -4 41 3 59 1 66 -9 7 -11 11 -11 15
-1 5 13 35 16 47 5 4 -5 31 -9 59 -9 63 -2 127 -11 135 -19 4 -3 1 -10 -7 -14
-10 -7 -9 -10 3 -14 12 -5 16 0 16 18 0 18 5 25 20 25 11 0 24 -8 27 -17 4
-10 12 -22 20 -26 20 -12 16 -25 -9 -30 l-23 -4 23 -2 c30 -1 41 28 16 46 -16
12 -17 15 -4 23 26 16 50 12 44 -7 -5 -15 -4 -16 5 -3 10 13 12 13 21 0 9 -13
10 -13 10 1 0 11 12 16 45 18 25 1 45 -2 45 -6 0 -4 26 -8 59 -8 68 -1 159
-41 229 -100 l42 -37 0 -74 c0 -43 4 -74 10 -74 6 0 10 29 10 66 l0 66 40 -40
c22 -22 40 -45 40 -51 0 -7 4 -10 9 -7 7 5 91 -103 91 -118 0 -3 12 -18 26
-33 48 -51 62 -92 61 -171 -2 -52 2 -72 11 -72 8 0 12 19 13 58 1 31 3 50 5
42 3 -9 15 -20 27 -25 17 -8 23 -20 25 -57 3 -53 22 -67 22 -17 0 29 2 31 28
24 15 -3 29 -11 30 -16 5 -13 30 -11 35 4 3 6 6 -86 6 -205 1 -138 5 -218 11
-218 6 0 10 9 10 20 0 11 5 20 10 20 6 0 10 78 10 213 l0 213 30 34 30 34 0
-37 c0 -20 5 -37 10 -37 6 0 10 16 10 35 0 21 5 35 13 35 8 0 12 18 12 54 0
48 9 72 69 191 51 101 83 151 122 191 47 48 56 54 81 48 15 -4 31 -12 35 -18
8 -11 12 4 9 35 -1 9 7 19 18 22 16 4 20 -1 23 -27 2 -23 8 -31 23 -31 15 0
21 8 23 31 4 38 -18 59 -50 48 -13 -5 -30 -9 -38 -9 -8 0 -40 -16 -70 -35 -30
-19 -58 -34 -63 -32 -4 1 -6 -1 -5 -5 1 -5 -19 -39 -44 -78 -25 -38 -63 -105
-84 -147 -21 -43 -42 -78 -46 -78 -4 0 -8 38 -8 85 0 50 4 85 10 85 6 0 11 54
12 138 2 111 3 120 5 45 3 -75 7 -93 19 -93 8 0 12 5 9 10 -3 5 -1 10 4 10 7
0 12 32 13 83 2 76 2 77 5 20 3 -42 8 -63 16 -63 9 0 12 11 9 35 -2 20 0 35 6
35 6 0 13 12 15 28 l4 27 2 -27 c0 -16 6 -28 12 -28 6 0 9 -9 6 -20 -3 -13 0
-20 9 -20 10 0 14 14 15 48 1 26 3 39 6 29 4 -15 11 -17 31 -12 15 4 30 12 34
18 5 8 8 4 8 -10 0 -16 5 -20 19 -16 11 3 22 12 24 22 4 14 5 14 6 -1 1 -11 9
-18 20 -18 11 0 22 8 24 18 4 16 5 16 6 0 0 -10 6 -18 11 -18 6 0 10 8 11 18
1 11 4 9 9 -8 8 -24 8 -24 9 -2 1 22 2 22 153 22 83 0 149 2 147 4 -7 7 -624
16 -1009 16 -206 0 -433 0 -505 0 -178 2 -241 1 -302 -5 -31 -2 -53 0 -53 6 0
5 -18 7 -42 4 -101 -12 -118 -13 -123 -4 -4 5 0 9 7 10 7 1 36 2 63 4 28 1 88
12 135 24 55 14 127 24 204 27 112 4 122 6 167 35 26 17 65 49 86 72 20 23 39
41 40 40 2 -2 9 -3 16 -3 9 0 9 2 -1 9 -11 6 -6 16 20 39 18 18 45 36 60 42
16 5 42 15 59 22 93 34 136 231 204 923 39 399 78 715 97 793 23 94 39 41 73
-243 14 -115 30 -248 35 -295 6 -47 24 -218 41 -380 75 -743 146 -1029 265
-1072 18 -6 30 -16 27 -21 -3 -5 4 -4 15 2 11 6 44 11 73 11 29 0 49 3 45 7
-4 4 -37 6 -74 5 -87 -4 -121 16 -161 95 -85 170 -140 511 -216 1338 -38 419
-52 526 -81 601 -9 24 -20 44 -24 44 -4 0 -14 -19 -23 -42 -27 -76 -44 -206
-93 -718 -76 -808 -121 -1025 -211 -1035 -58 -6 -94 -31 -177 -127 -101 -115
-136 -132 -255 -125 -84 6 -201 -13 -242 -38 -7 -5 -51 -10 -98 -11 -47 -2
-120 -5 -161 -8 -155 -12 -940 -16 -940 -5 0 6 -5 7 -12 3 -16 -10 -76 -6
-101 7 -11 6 -17 7 -14 2 10 -16 -215 -28 -488 -26 -295 1 -236 2 -430 -3 -88
-3 -226 -1 -307 3 -81 5 -189 5 -240 2 -51 -3 -140 -3 -198 1 -58 3 -123 2
-145 -2 -22 -4 -412 -11 -867 -14 l-828 -6 0 1941 c0 1842 -1 1941 -17 1940
-11 0 -13 -3 -5 -6z m4352 -3863 c0 -5 -14 -7 -32 -3 -46 8 -48 13 -5 13 21 0
37 -4 37 -10z m140 0 c-20 -13 -40 -13 -40 0 0 6 12 10 28 10 21 0 24 -2 12
-10z m156 3 c-7 -7 -108 -5 -115 3 -2 2 24 4 59 4 35 0 60 -3 56 -7z m-2833
-10 c-7 -2 -21 -2 -30 0 -10 3 -4 5 12 5 17 0 24 -2 18 -5z m70 0 c-7 -2 -19
-2 -25 0 -7 3 -2 5 12 5 14 0 19 -2 13 -5z m254 1 c-3 -3 -12 -4 -19 -1 -8 3
-5 6 6 6 11 1 17 -2 13 -5z m111 -1 c-10 -2 -28 -2 -40 0 -13 2 -5 4 17 4 22
1 32 -1 23 -4z m1100 0 c-10 -2 -26 -2 -35 0 -10 3 -2 5 17 5 19 0 27 -2 18
-5z m90 0 c-10 -2 -28 -2 -40 0 -13 2 -5 4 17 4 22 1 32 -1 23 -4z m649 1 c-3
-3 -12 -4 -19 -1 -8 3 -5 6 6 6 11 1 17 -2 13 -5z m-340 -20 c-3 -3 -12 -4
-19 -1 -8 3 -5 6 6 6 11 1 17 -2 13 -5z m86 -1 c-7 -2 -21 -2 -30 0 -10 3 -4
5 12 5 17 0 24 -2 18 -5z m270 0 c-7 -2 -21 -2 -30 0 -10 3 -4 5 12 5 17 0 24
-2 18 -5z m247 -3 c0 -5 -4 -10 -9 -10 -6 0 -13 5 -16 10 -3 6 1 10 9 10 9 0
16 -4 16 -10z m90 0 c0 -5 -9 -10 -19 -10 -11 0 -23 5 -26 10 -4 6 5 10 19 10
14 0 26 -4 26 -10z m114 -11 c-7 -11 -41 -12 -48 0 -9 13 2 19 29 13 14 -2 22
-8 19 -13z m86 6 c0 -11 -9 -15 -30 -13 -17 1 -30 8 -30 15 0 8 12 13 30 13
20 0 30 -5 30 -15z m63 -17 c-4 -8 -33 -11 -33 -4 0 2 3 11 6 20 5 12 9 13 19
3 7 -7 11 -15 8 -19z m54 0 c-3 -7 -5 -2 -5 12 0 14 2 19 5 13 2 -7 2 -19 0
-25z m70 20 c8 20 53 15 53 -7 0 -20 -26 -36 -34 -22 -3 4 -19 6 -36 3 -30 -4
-31 -3 -19 16 10 16 16 18 22 9 7 -9 10 -9 14 1z m119 -3 c-3 -9 0 -15 9 -15
8 0 15 8 16 18 0 10 3 12 6 5 2 -7 13 -13 23 -13 10 0 21 6 23 13 3 6 6 2 6
-10 1 -13 -2 -23 -6 -24 -86 -10 -124 -8 -130 7 -7 18 12 34 41 34 12 0 16 -5
12 -15z m131 -17 c-3 -7 -5 -2 -5 12 0 14 2 19 5 13 2 -7 2 -19 0 -25z m73 7
c0 -20 -5 -25 -22 -24 -17 1 -19 2 -5 6 9 2 17 13 17 24 0 10 2 19 5 19 3 0 5
-11 5 -25z m78 12 c25 15 46 1 39 -26 -3 -14 0 -21 9 -21 8 0 14 -4 14 -10 0
-5 5 -10 10 -10 6 0 11 19 12 43 l1 42 4 -41 c3 -35 7 -41 23 -37 13 4 20 16
23 42 2 23 4 13 5 -26 1 -35 7 -63 12 -63 11 0 14 -43 4 -53 -3 -3 -27 10 -54
29 -42 30 -97 58 -155 78 -19 7 -19 8 -2 17 9 6 17 20 17 32 0 18 2 19 10 7 7
-12 13 -13 28 -3z m213 -97 c19 0 21 -5 17 -55 -2 -39 1 -55 10 -55 9 0 13 30
14 113 l2 112 3 -97 c3 -89 6 -98 23 -98 17 0 20 9 23 98 l3 97 2 -107 c2
-101 3 -108 22 -108 16 0 20 7 21 38 1 23 3 28 6 15 3 -14 12 -23 23 -23 16 0
20 9 23 58 2 31 4 -5 5 -80 1 -92 6 -138 13 -138 7 0 10 -20 7 -55 -2 -39 1
-55 10 -55 7 0 12 -14 12 -35 0 -19 -4 -35 -9 -35 -11 0 -71 92 -71 108 0 7
-4 12 -10 12 -5 0 -10 8 -10 17 0 9 -3 13 -6 10 -8 -8 -74 73 -74 90 0 6 -8
14 -19 18 -10 3 -30 19 -45 35 -25 29 -26 34 -24 132 1 65 3 82 5 46 4 -51 7
-58 24 -58z m146 63 c-3 -10 -5 -2 -5 17 0 19 2 27 5 18 2 -10 2 -26 0 -35z
m50 0 c-3 -10 -5 -2 -5 17 0 19 2 27 5 18 2 -10 2 -26 0 -35z m70 0 c-3 -10
-5 -2 -5 17 0 19 2 27 5 18 2 -10 2 -26 0 -35z m50 -425 c-1 -90 -3 -19 -3
157 0 176 2 249 3 163 2 -86 2 -230 0 -320z m73 209 c20 5 20 1 18 -207 -3
-226 -7 -241 -47 -201 -22 22 -30 101 -11 101 6 0 11 104 12 288 1 158 4 226
5 151 3 -131 4 -137 23 -132z m47 -249 c-1 -95 -3 -18 -3 172 0 190 2 267 3
173 2 -95 2 -251 0 -345z m50 40 c-1 -90 -3 -19 -3 157 0 176 2 249 3 163 2
-86 2 -230 0 -320z m50 60 c-1 -79 -3 -17 -3 137 0 154 2 218 3 143 2 -75 2
-201 0 -280z m443 312 c0 -16 -4 -30 -10 -30 -5 0 -10 14 -10 30 0 17 5 30 10
30 6 0 10 -13 10 -30z m-90 0 c0 -5 -4 -10 -10 -10 -5 0 -10 5 -10 10 0 6 5
10 10 10 6 0 10 -4 10 -10z m-623 -22 c-3 -8 -6 -5 -6 6 -1 11 2 17 5 13 3 -3
4 -12 1 -19z m0 -340 c-1 -62 -3 -14 -3 107 0 121 2 172 3 113 2 -59 2 -158 0
-220z"/>
<path d="M413 5550 c2 -8 10 -15 17 -15 7 0 15 7 17 15 4 13 3 13 -6 0 -10
-13 -12 -13 -22 0 -9 13 -10 13 -6 0z"/>
<path d="M6903 5468 c-5 -7 -6 -26 -2 -43 l7 -30 1 28 c0 15 1 30 0 33 0 4 5
11 13 15 8 5 9 9 2 9 -6 0 -16 -6 -21 -12z"/>
<path d="M7141 5464 c0 -11 3 -14 6 -6 3 7 2 16 -1 19 -3 4 -6 -2 -5 -13z"/>
<path d="M6924 5446 c-10 -25 3 -46 28 -45 23 0 23 0 -2 11 l-25 11 23 5 c13
2 21 9 19 15 -6 19 -36 20 -43 3z m33 -2 c-3 -3 -12 -4 -19 -1 -8 3 -5 6 6 6
11 1 17 -2 13 -5z"/>
<path d="M6991 5428 c2 -30 2 -31 6 -5 5 34 20 35 26 2 4 -23 4 -23 3 2 -1 18
-7 29 -18 31 -15 3 -18 -3 -17 -30z"/>
<path d="M7048 5448 c7 -7 12 -21 12 -32 0 -10 3 -17 6 -13 10 10 -5 57 -18
57 -9 0 -9 -3 0 -12z"/>
<path d="M7098 5453 c10 -4 9 -8 -4 -17 -9 -7 -14 -18 -10 -24 10 -17 46 -15
46 2 0 27 -12 46 -29 45 -11 0 -12 -2 -3 -6z m17 -33 c-3 -5 -10 -10 -16 -10
-5 0 -9 5 -9 10 0 6 7 10 16 10 8 0 12 -4 9 -10z"/>
<path d="M7174 5446 c-9 -23 3 -46 23 -45 17 1 17 2 1 6 -25 6 -22 23 3 23 12
0 19 5 17 13 -7 18 -37 21 -44 3z m33 -2 c-3 -3 -12 -4 -19 -1 -8 3 -5 6 6 6
11 1 17 -2 13 -5z"/>
<path d="M7063 5290 c0 -25 2 -35 4 -22 2 12 2 32 0 45 -2 12 -4 2 -4 -23z"/>
<path d="M6911 5277 c2 -30 2 -30 6 -4 2 15 9 27 14 27 5 0 9 -12 10 -27 1
-28 1 -28 8 -4 9 33 31 39 31 9 0 -19 6 -24 31 -26 28 -2 30 0 27 25 -2 19 -9
29 -23 30 -19 3 -19 3 -1 -5 19 -8 19 -9 -1 -14 -13 -3 -24 -1 -26 6 -3 7 -21
13 -41 14 -34 1 -36 0 -35 -31z m119 -7 c0 -5 -7 -10 -15 -10 -8 0 -15 5 -15
10 0 6 7 10 15 10 8 0 15 -4 15 -10z"/>
<path d="M7084 5296 c-10 -25 3 -46 28 -45 23 0 23 0 -2 11 l-25 11 23 5 c13
2 21 9 19 15 -6 19 -36 20 -43 3z m33 -2 c-3 -3 -12 -4 -19 -1 -8 3 -5 6 6 6
11 1 17 -2 13 -5z"/>
<path d="M237 4800 c-18 -29 -18 -30 2 -30 12 0 21 -6 21 -12 0 -10 3 -9 9 1
6 9 11 10 15 2 21 -33 54 8 41 50 -9 27 -37 20 -46 -11 l-7 -25 -1 28 c-1 35
-12 34 -34 -3z m78 -10 c0 -13 -6 -25 -12 -27 -9 -3 -13 6 -13 27 0 21 4 30
13 28 6 -3 12 -15 12 -28z m-59 -7 c-10 -10 -19 5 -10 18 6 11 8 11 12 0 2 -7
1 -15 -2 -18z"/>
<path d="M345 4811 c-9 -30 4 -63 23 -59 12 2 17 14 17 38 0 40 -29 55 -40 21z
m35 -21 c0 -16 -5 -30 -10 -30 -14 0 -24 26 -16 45 10 26 26 16 26 -15z"/>
<path d="M415 4821 c-3 -7 0 -8 9 -5 13 5 16 -1 16 -26 0 -26 -3 -31 -17 -25
-15 5 -16 4 -5 -6 17 -18 34 2 30 37 -3 29 -21 43 -33 25z"/>
<path d="M504 4816 c-10 -25 0 -61 18 -64 19 -4 32 29 23 58 -7 23 -33 27 -41
6z m31 -26 c0 -13 -6 -25 -12 -27 -9 -3 -13 6 -13 27 0 21 4 30 13 28 6 -3 12
-15 12 -28z"/>
<path d="M243 4043 c20 -5 23 -19 5 -25 -7 -3 -6 -7 5 -11 13 -5 17 -1 17 18
0 20 -5 25 -22 24 -17 -1 -19 -2 -5 -6z"/>
<path d="M284 4036 c-10 -25 0 -61 18 -64 19 -4 32 29 23 58 -7 23 -33 27 -41
6z m31 -26 c0 -13 -6 -25 -12 -27 -9 -3 -13 6 -13 27 0 21 4 30 13 28 6 -3 12
-15 12 -28z"/>
<path d="M345 4031 c-9 -30 4 -63 23 -59 12 2 17 14 17 38 0 40 -29 55 -40 21z
m35 -21 c0 -31 -16 -41 -26 -15 -8 19 2 45 16 45 5 0 10 -13 10 -30z"/>
<path d="M415 4041 c-3 -7 0 -8 9 -5 13 5 16 -1 16 -26 0 -26 -3 -31 -17 -25
-15 5 -16 4 -5 -6 17 -18 34 2 30 37 -3 29 -21 43 -33 25z"/>
<path d="M504 4036 c-10 -25 0 -61 18 -64 19 -4 32 29 23 58 -7 23 -33 27 -41
6z m31 -26 c0 -13 -6 -25 -12 -27 -9 -3 -13 6 -13 27 0 21 4 30 13 28 6 -3 12
-15 12 -28z"/>
<path d="M245 3980 c-16 -7 -17 -9 -3 -9 9 -1 20 4 23 9 7 11 7 11 -20 0z"/>
<path d="M6451 3644 c0 -11 3 -14 6 -6 3 7 2 16 -1 19 -3 4 -6 -2 -5 -13z"/>
<path d="M243 3273 c21 -6 22 -26 2 -43 -22 -18 -18 -30 8 -30 17 0 19 2 8 9
-12 8 -12 12 -2 25 17 20 7 46 -16 45 -17 -1 -17 -2 0 -6z"/>
<path d="M284 3266 c-11 -28 0 -61 21 -61 16 0 20 7 20 35 0 25 -5 36 -18 38
-9 2 -20 -3 -23 -12z m36 -26 c0 -20 -5 -30 -15 -30 -10 0 -15 10 -15 30 0 20
5 30 15 30 10 0 15 -10 15 -30z"/>
<path d="M345 3261 c-9 -30 4 -63 23 -59 12 2 17 14 17 38 0 40 -29 55 -40 21z
m35 -21 c0 -31 -16 -41 -26 -15 -8 19 2 45 16 45 5 0 10 -13 10 -30z"/>
<path d="M414 3265 c-4 -9 -4 -19 0 -22 3 -4 6 1 6 10 0 19 15 23 23 7 3 -6 4
-5 3 2 -4 19 -25 21 -32 3z"/>
<path d="M504 3266 c-11 -28 0 -61 21 -61 16 0 20 7 20 35 0 25 -5 36 -18 38
-9 2 -20 -3 -23 -12z m36 -26 c0 -20 -5 -30 -15 -30 -10 0 -15 10 -15 30 0 20
5 30 15 30 10 0 15 -10 15 -30z"/>
<path d="M413 3220 c2 -8 10 -15 17 -15 7 0 15 7 17 15 4 13 3 13 -6 0 -10
-13 -12 -13 -22 0 -9 13 -10 13 -6 0z"/>
<path d="M90 2955 c0 -8 4 -15 10 -15 5 0 7 7 4 15 -4 8 -8 15 -10 15 -2 0 -4
-7 -4 -15z"/>
<path d="M130 2955 c-11 -13 -10 -14 4 -9 9 3 16 10 16 15 0 13 -6 11 -20 -6z"/>
<path d="M97 2923 c-4 -3 -7 -15 -7 -25 0 -14 7 -18 33 -17 30 2 30 2 5 6 -16
2 -28 10 -28 18 0 8 12 16 28 18 l27 4 -26 2 c-14 0 -29 -2 -32 -6z"/>
<path d="M113 2853 c15 -2 27 -8 27 -13 0 -5 -12 -11 -27 -13 -26 -4 -26 -4 5
-6 26 -1 32 3 32 19 0 16 -6 20 -32 19 -31 -2 -31 -2 -5 -6z"/>
<path d="M93 2784 c-5 -14 11 -34 27 -34 3 0 11 4 19 9 19 12 6 41 -19 41 -11
0 -23 -7 -27 -16z m45 -6 c-3 -7 -11 -13 -18 -13 -7 0 -15 6 -17 13 -3 7 4 12
17 12 13 0 20 -5 18 -12z"/>
<path d="M74 2725 c1 -16 8 -20 36 -20 29 0 35 4 36 23 1 18 1 19 -3 2 -6 -26
-60 -28 -66 -2 -3 13 -4 12 -3 -3z"/>
<path d="M228 2493 c6 -2 12 -17 12 -33 0 -16 -6 -31 -12 -33 -7 -3 -4 -6 7
-6 18 -1 20 4 17 39 -3 29 -8 40 -21 39 -10 0 -11 -2 -3 -6z"/>
<path d="M274 2486 c-11 -28 0 -61 21 -61 16 0 20 7 20 35 0 25 -5 36 -18 38
-9 2 -20 -3 -23 -12z m36 -26 c0 -20 -5 -30 -15 -30 -10 0 -15 10 -15 30 0 20
5 30 15 30 10 0 15 -10 15 -30z"/>
<path d="M335 2481 c-9 -30 4 -63 23 -59 12 2 17 14 17 38 0 40 -29 55 -40 21z
m35 -21 c0 -31 -16 -41 -26 -15 -8 19 2 45 16 45 5 0 10 -13 10 -30z"/>
<path d="M405 2490 c-4 -6 -4 -14 -1 -17 3 -4 6 -1 6 5 0 17 18 15 23 -3 4
-12 5 -11 3 1 -1 21 -21 29 -31 14z"/>
<path d="M494 2486 c-11 -28 0 -61 21 -61 16 0 20 7 20 35 0 25 -5 36 -18 38
-9 2 -20 -3 -23 -12z m36 -26 c0 -20 -5 -30 -15 -30 -10 0 -15 10 -15 30 0 20
5 30 15 30 10 0 15 -10 15 -30z"/>
<path d="M403 2440 c2 -8 10 -15 17 -15 7 0 15 7 17 15 4 13 3 13 -6 0 -10
-13 -12 -13 -22 0 -9 13 -10 13 -6 0z"/>
<path d="M6608 2263 c7 -3 16 -2 19 1 4 3 -2 6 -13 5 -11 0 -14 -3 -6 -6z"/>
<path d="M6085 2089 c-4 -6 -5 -12 -2 -15 2 -3 7 2 10 11 7 17 1 20 -8 4z"/>
<path d="M6268 2053 c7 -3 16 -2 19 1 4 3 -2 6 -13 5 -11 0 -14 -3 -6 -6z"/>
<path d="M6218 1953 c7 -3 16 -2 19 1 4 3 -2 6 -13 5 -11 0 -14 -3 -6 -6z"/>
<path d="M6175 1840 c3 -5 8 -10 11 -10 2 0 4 5 4 10 0 6 -5 10 -11 10 -5 0
-7 -4 -4 -10z"/>
<path d="M2365 1730 c-3 -6 1 -7 9 -4 18 7 21 14 7 14 -6 0 -13 -4 -16 -10z"/>
<path d="M427 1723 c-11 -10 -8 -61 4 -69 6 -3 16 -1 22 5 9 9 8 11 -5 6 -15
-6 -18 -1 -18 25 0 25 3 31 16 26 8 -3 12 -2 9 4 -7 12 -19 13 -28 3z"/>
<path d="M505 1711 c-9 -30 4 -63 23 -59 12 2 17 14 17 38 0 40 -29 55 -40 21z
m35 -21 c0 -31 -16 -41 -26 -15 -8 19 2 45 16 45 5 0 10 -13 10 -30z"/>
<path d="M6855 1720 c3 -5 10 -10 16 -10 5 0 9 5 9 10 0 6 -7 10 -16 10 -8 0
-12 -4 -9 -10z"/>
<path d="M853 1613 c21 -6 22 -26 2 -43 -22 -18 -18 -30 8 -30 17 0 19 2 8 9
-12 8 -12 12 -2 25 17 20 7 46 -16 45 -17 -1 -17 -2 0 -6z"/>
<path d="M925 1601 c-9 -30 4 -63 23 -59 12 2 17 14 17 38 0 40 -29 55 -40 21z
m35 -21 c0 -31 -16 -41 -26 -15 -8 19 2 45 16 45 5 0 10 -13 10 -30z"/>
<path d="M997 1614 c-4 -4 -7 -12 -7 -18 0 -6 5 -4 10 4 9 13 11 13 21 0 9
-12 10 -12 7 -1 -5 17 -21 25 -31 15z"/>
<path d="M1613 1613 c21 -6 22 -26 2 -43 -22 -18 -18 -30 8 -30 17 0 19 2 8 9
-12 8 -12 12 -2 25 17 20 7 46 -16 45 -17 -1 -17 -2 0 -6z"/>
<path d="M1703 1613 c23 -6 22 -22 -5 -50 l-21 -23 29 1 c18 1 22 3 11 6 -17
4 -18 6 -2 24 20 22 13 49 -12 48 -17 -1 -17 -2 0 -6z"/>
<path d="M1750 1600 c0 -11 7 -20 15 -20 21 0 19 -28 -2 -33 -17 -4 -17 -5 0
-6 25 -1 34 29 14 44 -22 16 -21 22 1 28 13 4 11 5 -5 6 -17 1 -23 -5 -23 -19z"/>
<path d="M2373 1613 c21 -6 22 -26 2 -43 -22 -18 -18 -30 8 -30 17 0 19 2 8 9
-12 8 -12 12 -2 25 17 20 7 46 -16 45 -17 -1 -17 -2 0 -6z"/>
<path d="M2440 1600 c0 -13 7 -20 20 -20 25 0 27 -27 3 -33 -17 -4 -17 -5 0
-6 26 -2 34 29 11 46 -16 12 -17 15 -4 23 12 8 11 10 -7 10 -16 0 -23 -6 -23
-20z"/>
<path d="M2517 1613 c-11 -10 -8 -61 4 -69 6 -3 16 -1 22 5 9 9 8 11 -5 6 -15
-6 -18 -1 -18 25 0 25 3 31 16 26 8 -3 12 -2 9 4 -7 12 -19 13 -28 3z"/>
<path d="M3133 1613 c21 -6 22 -26 2 -43 -22 -18 -18 -30 8 -30 17 0 19 2 8 9
-12 8 -12 12 -2 25 17 20 7 46 -16 45 -17 -1 -17 -2 0 -6z"/>
<path d="M3222 1613 c14 -3 15 -9 8 -29 -6 -14 -10 -31 -9 -37 0 -11 27 49 28
66 1 4 -9 6 -21 6 -17 -1 -18 -3 -6 -6z"/>
<path d="M3270 1600 c0 -11 7 -20 15 -20 21 0 19 -28 -2 -33 -17 -4 -17 -5 0
-6 25 -1 34 29 14 44 -22 16 -21 22 1 28 13 4 11 5 -5 6 -17 1 -23 -5 -23 -19z"/>
<path d="M3893 1613 c20 -5 23 -19 5 -25 -7 -3 -6 -7 5 -11 13 -5 17 -1 17 18
0 20 -5 25 -22 24 -17 -1 -19 -2 -5 -6z"/>
<path d="M3965 1601 c-9 -30 4 -63 23 -59 12 2 17 14 17 38 0 40 -29 55 -40
21z m35 -21 c0 -16 -5 -30 -10 -30 -14 0 -24 26 -16 45 10 26 26 16 26 -15z"/>
<path d="M4035 1611 c-3 -7 0 -8 9 -5 13 5 16 -1 16 -26 0 -26 -3 -31 -17 -25
-15 5 -16 4 -5 -6 17 -18 34 2 30 37 -3 29 -21 43 -33 25z"/>
<path d="M4653 1613 c20 -5 23 -19 5 -25 -7 -3 -6 -7 5 -11 13 -5 17 -1 17 18
0 20 -5 25 -22 24 -17 -1 -19 -2 -5 -6z"/>
<path d="M4743 1613 c22 -6 22 -15 -4 -47 l-20 -26 28 1 c16 1 21 3 11 6 -16
4 -16 6 -2 28 18 27 11 46 -14 44 -15 -1 -15 -2 1 -6z"/>
<path d="M4790 1600 c0 -11 7 -20 15 -20 21 0 19 -28 -2 -33 -17 -4 -17 -5 0
-6 25 -1 34 29 14 44 -22 16 -21 22 1 28 13 4 11 5 -5 6 -17 1 -23 -5 -23 -19z"/>
<path d="M7075 1611 c-3 -7 0 -8 9 -5 13 5 16 -1 16 -26 0 -26 -3 -31 -17 -25
-15 5 -16 4 -5 -6 17 -18 34 2 30 37 -3 29 -21 43 -33 25z"/>
<path d="M5581 1568 c-1 -21 -17 -24 -24 -5 -4 9 -6 9 -6 0 -1 -17 19 -27 31
-15 6 6 8 16 5 24 -4 9 -6 7 -6 -4z"/>
<path d="M993 1560 c2 -8 10 -15 17 -15 7 0 15 7 17 15 4 13 3 13 -6 0 -10
-13 -12 -13 -22 0 -9 13 -10 13 -6 0z"/>
<path d="M3895 1550 c-16 -7 -17 -9 -3 -9 9 -1 20 4 23 9 7 11 7 11 -20 0z"/>
<path d="M4655 1550 c-16 -7 -17 -9 -3 -9 9 -1 20 4 23 9 7 11 7 11 -20 0z"/>
<path d="M5415 1550 c-19 -8 -19 -9 3 -9 12 -1 22 4 22 9 0 6 -1 10 -2 9 -2 0
-12 -4 -23 -9z"/>
<path d="M3787 1440 c-8 -22 -11 -40 -6 -40 5 0 9 5 9 10 0 6 9 10 21 10 16 0
19 4 14 23 -12 39 -21 39 -38 -3z m27 5 c3 -8 1 -15 -4 -15 -6 0 -10 7 -10 15
0 8 2 15 4 15 2 0 6 -7 10 -15z"/>
<path d="M3850 1442 c0 -39 2 -43 23 -40 28 4 36 45 10 55 -10 4 -21 11 -25
17 -4 6 -8 -8 -8 -32z m40 -12 c0 -11 -7 -20 -15 -20 -8 0 -15 9 -15 20 0 11
7 20 15 20 8 0 15 -9 15 -20z"/>
<path d="M4202 1443 l-2 -42 53 1 c28 1 42 3 30 6 -29 4 -30 22 -2 22 12 0 19
5 17 13 -8 22 -43 14 -46 -10 -2 -15 -10 -23 -22 -23 -14 0 -20 9 -23 38 l-4
37 -1 -42z m85 1 c-3 -3 -12 -4 -19 -1 -8 3 -5 6 6 6 11 1 17 -2 13 -5z"/>
<path d="M4443 1440 c0 -25 2 -35 4 -22 2 12 2 32 0 45 -2 12 -4 2 -4 -23z"/>
<path d="M3960 1451 c0 -26 10 -51 21 -51 5 0 4 9 -3 20 -11 17 -10 22 0 29
11 7 11 9 -2 14 -11 5 -16 1 -16 -12z"/>
<path d="M4162 1438 c2 -17 9 -33 16 -34 7 -1 8 0 2 3 -14 7 -13 40 2 45 7 3
5 7 -6 11 -15 6 -17 2 -14 -25z"/>
<path d="M3511 1427 c2 -30 2 -31 6 -4 2 15 9 27 14 27 5 0 9 -12 10 -27 1
-28 1 -28 8 -4 9 33 31 39 31 9 0 -20 5 -24 33 -25 31 -2 32 -2 7 9 l-25 11
23 5 c46 8 15 27 -46 29 l-62 2 1 -32z m116 17 c-3 -3 -12 -4 -19 -1 -8 3 -5
6 6 6 11 1 17 -2 13 -5z"/>
<path d="M3674 1452 c19 -8 19 -9 -3 -15 -28 -7 -23 -31 8 -35 19 -3 22 0 19
25 -2 19 -9 29 -23 30 -19 3 -19 3 -1 -5z m16 -32 c0 -5 -7 -10 -16 -10 -8 0
-12 5 -9 10 3 6 10 10 16 10 5 0 9 -4 9 -10z"/>
<path d="M3721 1428 c2 -31 2 -31 6 -5 2 15 8 27 13 27 5 0 11 -12 13 -27 4
-26 4 -26 6 5 1 26 -3 32 -19 32 -16 0 -20 -6 -19 -32z"/>
<path d="M3914 1449 c-4 -7 1 -16 12 -22 17 -10 17 -11 -1 -18 -16 -6 -17 -8
-3 -8 25 -1 33 20 12 32 -17 10 -17 11 1 18 16 6 17 8 3 8 -9 1 -20 -4 -24
-10z"/>
<path d="M4001 1428 c1 -21 3 -26 6 -13 3 11 12 26 21 33 14 11 13 12 -6 12
-18 0 -22 -5 -21 -32z"/>
<path d="M4064 1452 c19 -8 19 -9 -3 -15 -28 -7 -23 -31 8 -35 19 -3 22 0 19
25 -2 19 -9 29 -23 30 -19 3 -19 3 -1 -5z m16 -32 c0 -5 -7 -10 -15 -10 -8 0
-15 5 -15 10 0 6 7 10 15 10 8 0 15 -4 15 -10z"/>
<path d="M4106 1445 c-8 -21 3 -45 22 -45 13 0 12 3 -4 15 -19 15 -19 15 0 30
16 12 17 15 4 15 -9 0 -18 -7 -22 -15z"/>
<path d="M4316 1440 c10 -40 22 -46 34 -15 6 15 9 30 6 32 -2 3 -7 -6 -11 -18
l-7 -22 -15 24 -14 24 7 -25z"/>
<path d="M4374 1446 c-10 -25 3 -46 28 -45 l23 2 -22 4 c-29 6 -30 23 -2 23
12 0 19 5 17 13 -7 18 -37 21 -44 3z m33 -2 c-3 -3 -12 -4 -19 -1 -8 3 -5 6 6
6 11 1 17 -2 13 -5z"/>
<path d="M228 943 c6 -2 12 -17 12 -33 0 -16 -6 -31 -12 -33 -7 -3 -4 -6 7 -6
18 -1 20 4 17 39 -3 29 -8 40 -21 39 -10 0 -11 -2 -3 -6z"/>
<path d="M274 936 c-11 -28 0 -61 21 -61 16 0 20 7 20 35 0 25 -5 36 -18 38
-9 2 -20 -3 -23 -12z m36 -26 c0 -20 -5 -30 -15 -30 -10 0 -15 10 -15 30 0 20
5 30 15 30 10 0 15 -10 15 -30z"/>
<path d="M335 931 c-9 -30 4 -63 23 -59 12 2 17 14 17 38 0 40 -29 55 -40 21z
m35 -21 c0 -31 -16 -41 -26 -15 -8 19 2 45 16 45 5 0 10 -13 10 -30z"/>
<path d="M407 944 c-4 -4 -7 -12 -7 -18 0 -6 5 -4 10 4 9 13 11 13 21 0 9 -12
10 -12 7 -1 -5 17 -21 25 -31 15z"/>
<path d="M494 936 c-11 -28 0 -61 21 -61 16 0 20 7 20 35 0 25 -5 36 -18 38
-9 2 -20 -3 -23 -12z m36 -26 c0 -20 -5 -30 -15 -30 -10 0 -15 10 -15 30 0 20
5 30 15 30 10 0 15 -10 15 -30z"/>
<path d="M403 890 c2 -8 10 -15 17 -15 7 0 15 7 17 15 4 13 3 13 -6 0 -10 -13
-12 -13 -22 0 -9 13 -10 13 -6 0z"/>
<path d="M243 163 c21 -6 22 -26 2 -43 -22 -18 -18 -30 8 -30 17 0 19 2 8 9
-12 8 -12 12 -2 25 17 20 7 46 -16 45 -17 -1 -17 -2 0 -6z"/>
<path d="M284 156 c-11 -28 0 -61 21 -61 16 0 20 7 20 35 0 25 -5 36 -18 38
-9 2 -20 -3 -23 -12z m36 -26 c0 -20 -5 -30 -15 -30 -10 0 -15 10 -15 30 0 20
5 30 15 30 10 0 15 -10 15 -30z"/>
<path d="M345 151 c-9 -30 4 -63 23 -59 12 2 17 14 17 38 0 40 -29 55 -40 21z
m35 -21 c0 -31 -16 -41 -26 -15 -8 19 2 45 16 45 5 0 10 -13 10 -30z"/>
<path d="M417 164 c-4 -4 -7 -12 -7 -18 0 -6 5 -4 10 4 9 13 11 13 21 0 9 -12
10 -12 7 -1 -5 17 -21 25 -31 15z"/>
<path d="M504 156 c-11 -28 0 -61 21 -61 16 0 20 7 20 35 0 25 -5 36 -18 38
-9 2 -20 -3 -23 -12z m36 -26 c0 -20 -5 -30 -15 -30 -10 0 -15 10 -15 30 0 20
5 30 15 30 10 0 15 -10 15 -30z"/>
<path d="M413 110 c2 -8 10 -15 17 -15 7 0 15 7 17 15 4 13 3 13 -6 0 -10 -13
-12 -13 -22 0 -9 13 -10 13 -6 0z"/>
</g>
</svg>
