<?xml version="1.0" standalone="no"?>
<!DOCTYPE svg PUBLIC "-//W3C//DTD SVG 20010904//EN"
 "http://www.w3.org/TR/2001/REC-SVG-20010904/DTD/svg10.dtd">
<svg version="1.0" xmlns="http://www.w3.org/2000/svg"
 width="479.000000pt" height="104.000000pt" viewBox="0 0 479.000000 104.000000"
 preserveAspectRatio="xMidYMid meet">
<metadata>
Created by potrace 1.16, written by Peter Selinger 2001-2019
</metadata>
<g transform="translate(0.000000,104.000000) scale(0.100000,-0.100000)"
fill="#000000" stroke="none">
<path d="M1090 975 c0 -30 5 -55 10 -55 6 0 10 25 10 55 0 30 -4 55 -10 55 -5
0 -10 -25 -10 -55z"/>
<path d="M1430 975 c0 -30 5 -55 10 -55 6 0 10 14 10 30 0 20 5 30 15 30 10 0
15 -10 15 -30 0 -16 5 -30 10 -30 12 0 13 50 1 69 -5 8 -16 11 -25 8 -11 -5
-16 -1 -16 13 0 11 -4 20 -10 20 -5 0 -10 -25 -10 -55z"/>
<path d="M1964 979 c13 -63 32 -74 42 -25 7 41 19 40 27 -4 7 -33 23 -40 31
-12 14 48 18 92 7 92 -6 0 -11 -11 -11 -24 0 -36 -17 -40 -24 -6 -6 32 -23 40
-31 15 -15 -48 -18 -50 -24 -21 -3 16 -11 31 -18 33 -8 3 -8 -9 1 -48z"/>
<path d="M2280 1012 c0 -13 -7 -18 -22 -18 -20 1 -23 -4 -23 -34 0 -32 2 -35
33 -37 l32 -1 0 54 c0 30 -4 54 -10 54 -5 0 -10 -8 -10 -18z m0 -52 c0 -11 -7
-20 -15 -20 -8 0 -15 9 -15 20 0 11 7 20 15 20 8 0 15 -9 15 -20z"/>
<path d="M2844 979 c13 -63 32 -74 42 -25 7 41 19 40 27 -4 7 -33 23 -40 31
-12 14 48 18 92 7 92 -6 0 -11 -11 -11 -24 0 -36 -17 -40 -24 -6 -6 32 -23 40
-31 15 -15 -48 -18 -50 -24 -21 -3 16 -11 31 -18 33 -8 3 -8 -9 1 -48z"/>
<path d="M3160 1012 c0 -13 -7 -18 -22 -18 -20 1 -23 -4 -23 -34 0 -32 2 -35
33 -37 l32 -1 0 54 c0 30 -4 54 -10 54 -5 0 -10 -8 -10 -18z m0 -52 c0 -11 -7
-20 -15 -20 -8 0 -15 9 -15 20 0 11 7 20 15 20 8 0 15 -9 15 -20z"/>
<path d="M3815 1018 c-23 -63 -33 -98 -29 -98 2 0 13 6 24 12 16 10 24 10 41
0 12 -7 23 -12 25 -10 2 2 -5 26 -15 53 -19 50 -37 67 -46 43z m25 -43 c0 -8
-4 -15 -10 -15 -5 0 -10 7 -10 15 0 8 5 15 10 15 6 0 10 -7 10 -15z"/>
<path d="M3890 976 c0 -50 1 -53 25 -53 33 0 49 21 41 53 -5 20 -12 25 -26 21
-15 -4 -20 0 -20 14 0 10 -4 19 -10 19 -5 0 -10 -24 -10 -54z m50 -16 c0 -11
-7 -20 -15 -20 -8 0 -15 9 -15 20 0 11 7 20 15 20 8 0 15 -9 15 -20z"/>
<path d="M4360 975 l0 -55 35 0 c19 0 35 5 35 10 0 6 -11 10 -25 10 -23 0 -25
4 -25 45 0 25 -4 45 -10 45 -5 0 -10 -25 -10 -55z"/>
<path d="M4670 975 c0 -30 5 -55 10 -55 6 0 10 25 10 55 0 30 -4 55 -10 55 -5
0 -10 -25 -10 -55z"/>
<path d="M1383 1009 c-16 -16 0 -83 20 -87 9 -2 17 1 17 7 0 6 -4 11 -10 11
-13 0 -13 33 -1 46 13 13 -13 36 -26 23z"/>
<path d="M4053 1009 c-16 -16 0 -83 20 -87 9 -2 17 1 17 7 0 6 -4 11 -10 11
-13 0 -13 33 -1 46 13 13 -13 36 -26 23z"/>
<path d="M4307 1007 c-7 -19 6 -80 19 -84 8 -3 11 44 5 90 -2 12 -19 8 -24 -6z"/>
<path d="M1142 988 c-26 -26 0 -77 33 -64 22 8 18 25 -5 19 -11 -3 -20 0 -20
6 0 6 11 11 25 11 14 0 25 4 25 8 0 12 -22 32 -35 32 -6 0 -16 -5 -23 -12z
m35 -14 c-3 -3 -12 -4 -19 -1 -8 3 -5 6 6 6 11 1 17 -2 13 -5z"/>
<path d="M1210 959 c0 -47 17 -52 22 -6 2 17 8 32 13 32 6 0 11 -15 13 -32 2
-18 8 -33 13 -33 6 0 9 17 7 38 -3 34 -6 37 -35 39 -32 1 -33 0 -33 -38z"/>
<path d="M1300 980 c-13 -25 3 -60 28 -61 11 -1 8 -4 -8 -9 -22 -6 -23 -8 -7
-15 33 -14 47 1 47 53 0 43 -2 48 -25 50 -16 1 -28 -5 -35 -18z m40 -20 c0
-21 -15 -27 -25 -10 -7 12 2 30 16 30 5 0 9 -9 9 -20z"/>
<path d="M1710 944 c0 -30 5 -54 10 -54 6 0 10 8 10 18 0 13 7 18 23 18 19 -1
22 4 22 34 0 32 -2 35 -32 37 l-33 1 0 -54z m50 16 c0 -11 -7 -20 -15 -20 -8
0 -15 9 -15 20 0 11 7 20 15 20 8 0 15 -9 15 -20z"/>
<path d="M1800 981 c-25 -47 36 -83 64 -38 8 12 8 22 0 35 -16 25 -51 27 -64
3z m46 -12 c10 -17 -13 -36 -27 -22 -12 12 -4 33 11 33 5 0 12 -5 16 -11z"/>
<path d="M1885 990 c-8 -14 3 -30 29 -41 19 -8 19 -9 1 -7 -25 3 -35 -16 -11
-20 20 -4 48 16 40 30 -3 5 -16 13 -28 18 -21 9 -21 9 2 9 27 1 20 21 -8 21
-10 0 -22 -4 -25 -10z"/>
<path d="M2100 985 c-26 -31 13 -82 44 -56 21 17 21 57 0 65 -23 9 -30 8 -44
-9z m40 -25 c0 -11 -7 -20 -15 -20 -8 0 -15 9 -15 20 0 11 7 20 15 20 8 0 15
-9 15 -20z"/>
<path d="M2180 960 c0 -22 5 -40 10 -40 6 0 10 14 10 30 0 17 5 30 10 30 6 0
10 5 10 10 0 6 -9 10 -20 10 -17 0 -20 -7 -20 -40z"/>
<path d="M2317 986 c-6 -15 5 -28 33 -40 8 -3 5 -4 -7 -2 -32 6 -39 -12 -9
-20 46 -11 65 24 24 44 -19 9 -20 11 -5 11 10 1 15 6 12 11 -9 15 -42 12 -48
-4z"/>
<path d="M2590 959 c0 -47 17 -52 22 -6 2 17 8 32 13 32 6 0 11 -15 13 -32 2
-18 8 -33 13 -33 6 0 9 17 7 38 -3 34 -6 37 -35 39 -32 1 -33 0 -33 -38z"/>
<path d="M2682 988 c-26 -26 0 -77 33 -64 22 8 18 25 -5 19 -11 -3 -20 0 -20
6 0 6 11 11 25 11 14 0 25 4 25 8 0 12 -22 32 -35 32 -6 0 -16 -5 -23 -12z
m35 -14 c-3 -3 -12 -4 -19 -1 -8 3 -5 6 6 6 11 1 17 -2 13 -5z"/>
<path d="M2760 980 c-13 -25 3 -60 28 -61 11 -1 8 -4 -8 -9 -22 -6 -23 -8 -7
-15 33 -14 47 1 47 53 0 43 -2 48 -25 50 -16 1 -28 -5 -35 -18z m40 -20 c0
-11 -4 -20 -9 -20 -14 0 -23 18 -16 30 10 17 25 11 25 -10z"/>
<path d="M2980 985 c-26 -31 13 -82 44 -56 21 17 21 57 0 65 -23 9 -30 8 -44
-9z m40 -25 c0 -11 -7 -20 -15 -20 -8 0 -15 9 -15 20 0 11 7 20 15 20 8 0 15
-9 15 -20z"/>
<path d="M3060 960 c0 -22 5 -40 10 -40 6 0 10 14 10 30 0 17 5 30 10 30 6 0
10 5 10 10 0 6 -9 10 -20 10 -17 0 -20 -7 -20 -40z"/>
<path d="M3197 986 c-6 -15 5 -28 33 -40 8 -3 5 -4 -7 -2 -32 6 -39 -12 -9
-20 46 -11 65 24 24 44 -19 9 -20 11 -5 11 10 1 15 6 12 11 -9 15 -42 12 -48
-4z"/>
<path d="M3420 959 c0 -22 5 -39 10 -39 6 0 10 13 10 29 0 17 5 33 10 36 6 4
10 -8 10 -29 0 -42 17 -49 22 -9 4 39 28 42 28 4 0 -17 5 -31 11 -31 6 0 9 16
7 38 l-3 37 -52 1 -53 2 0 -39z"/>
<path d="M3552 988 c-26 -26 0 -77 33 -64 22 8 18 25 -5 19 -11 -3 -20 0 -20
6 0 6 11 11 25 11 14 0 25 4 25 8 0 12 -22 32 -35 32 -6 0 -16 -5 -23 -12z
m35 -14 c-3 -3 -12 -4 -19 -1 -8 3 -5 6 6 6 11 1 17 -2 13 -5z"/>
<path d="M3630 991 c0 -6 8 -11 18 -12 13 0 12 -3 -6 -11 -32 -16 -24 -42 14
-46 31 -3 31 -3 25 35 -5 29 -11 39 -29 41 -12 2 -22 -1 -22 -7z m30 -51 c0
-5 -4 -10 -10 -10 -5 0 -10 5 -10 10 0 6 5 10 10 10 6 0 10 -4 10 -10z"/>
<path d="M3700 959 c0 -47 17 -52 22 -6 2 17 8 32 13 32 6 0 11 -15 13 -32 2
-18 8 -33 13 -33 6 0 9 17 7 38 -3 34 -6 37 -35 39 -32 1 -33 0 -33 -38z"/>
<path d="M3975 990 c-8 -14 3 -30 29 -41 19 -8 19 -9 1 -7 -25 3 -35 -16 -11
-20 20 -4 48 16 40 30 -3 5 -16 13 -28 18 -21 9 -21 9 2 9 27 1 20 21 -8 21
-10 0 -22 -4 -25 -10z"/>
<path d="M4100 960 c0 -22 5 -40 10 -40 6 0 10 14 10 30 0 17 5 30 10 30 6 0
10 5 10 10 0 6 -9 10 -20 10 -17 0 -20 -7 -20 -40z"/>
<path d="M4160 991 c0 -6 8 -11 18 -12 13 0 12 -3 -6 -11 -32 -16 -24 -42 14
-46 31 -3 31 -3 25 35 -5 29 -11 39 -29 41 -12 2 -22 -1 -22 -7z m30 -51 c0
-5 -4 -10 -10 -10 -5 0 -10 5 -10 10 0 6 5 10 10 10 6 0 10 -4 10 -10z"/>
<path d="M4240 986 c-19 -24 -4 -68 22 -64 12 2 23 8 25 15 3 7 -3 9 -16 6
-17 -4 -21 -1 -21 17 0 18 4 21 21 17 13 -3 19 -1 16 6 -6 18 -32 20 -47 3z"/>
<path d="M4444 986 c-12 -31 0 -61 25 -61 13 0 26 6 29 14 3 9 -1 11 -17 6
-12 -4 -21 -2 -21 4 0 6 9 11 21 11 14 0 19 5 17 18 -4 22 -46 29 -54 8z"/>
<path d="M4524 963 c7 -20 17 -38 23 -40 9 -3 33 46 33 68 0 18 -18 8 -24 -13
l-7 -23 -9 23 c-16 38 -30 25 -16 -15z"/>
<path d="M4602 988 c-26 -26 0 -77 33 -64 22 8 18 25 -5 19 -11 -3 -20 0 -20
6 0 6 11 11 25 11 14 0 25 4 25 8 0 12 -22 32 -35 32 -6 0 -16 -5 -23 -12z
m35 -14 c-3 -3 -12 -4 -19 -1 -8 3 -5 6 6 6 11 1 17 -2 13 -5z"/>
<path d="M380 715 c0 -8 -7 -15 -15 -15 -8 0 -19 -9 -25 -20 -16 -29 4 -60 35
-58 23 2 25 6 25 55 0 29 -4 53 -10 53 -5 0 -10 -7 -10 -15z m0 -55 c0 -11 -4
-20 -9 -20 -14 0 -23 18 -16 30 10 17 25 11 25 -10z"/>
<path d="M90 680 c-13 -25 3 -60 28 -61 11 -1 8 -4 -8 -9 -22 -6 -23 -8 -7
-15 33 -14 47 1 47 53 0 43 -2 48 -25 50 -16 1 -28 -5 -35 -18z m40 -20 c0
-11 -4 -20 -9 -20 -14 0 -23 18 -16 30 10 17 25 11 25 -10z"/>
<path d="M174 686 c-12 -31 0 -61 25 -61 13 0 26 6 29 14 3 9 -1 11 -17 6 -12
-4 -21 -2 -21 4 0 6 9 11 21 11 14 0 19 5 17 18 -4 22 -46 29 -54 8z"/>
<path d="M250 659 c0 -47 17 -52 22 -6 2 17 8 32 13 32 6 0 11 -15 13 -32 2
-18 8 -33 13 -33 6 0 9 17 7 38 -3 34 -6 37 -35 39 -32 1 -33 0 -33 -38z"/>
<path d="M424 686 c-12 -31 0 -61 25 -61 13 0 26 6 29 14 3 9 -1 11 -17 6 -12
-4 -21 -2 -21 4 0 6 9 11 21 11 14 0 19 5 17 18 -4 22 -46 29 -54 8z"/>
<path d="M500 660 c0 -22 5 -40 10 -40 6 0 10 14 10 30 0 17 5 30 10 30 6 0
10 5 10 10 0 6 -9 10 -20 10 -17 0 -20 -7 -20 -40z"/>
<path d="M1203 513 c659 -2 1735 -2 2390 0 656 1 117 2 -1198 2 -1314 0 -1851
-1 -1192 -2z"/>
<path d="M88 403 c-7 -26 3 -93 13 -93 5 0 10 12 10 28 1 15 3 39 5 55 3 30
-21 39 -28 10z"/>
<path d="M717 413 c-4 -3 -7 -11 -7 -17 0 -6 5 -5 12 2 7 7 16 12 20 12 14 0
9 -37 -8 -50 -8 -8 -20 -22 -25 -32 -9 -16 -6 -18 28 -17 36 1 36 2 9 8 -27 5
-28 7 -12 20 29 24 39 50 25 67 -12 15 -31 18 -42 7z"/>
<path d="M788 390 c-4 -26 -2 -29 14 -24 22 7 36 -22 18 -39 -10 -9 -14 -9
-17 1 -3 6 -10 12 -16 12 -6 0 -3 -8 6 -17 13 -14 21 -15 35 -7 24 16 21 47
-5 59 -13 5 -23 15 -23 22 0 6 10 14 23 16 20 4 19 4 -4 6 -22 1 -27 -4 -31
-29z"/>
<path d="M864 406 c-10 -26 1 -51 24 -54 23 -4 29 -16 12 -27 -6 -4 -18 -1
-27 7 -14 11 -15 11 -11 -2 2 -8 16 -15 29 -15 22 0 24 4 24 50 0 44 -3 50
-23 53 -13 2 -24 -3 -28 -12z m43 -12 c8 -21 -13 -42 -28 -27 -13 13 -5 43 11
43 6 0 13 -7 17 -16z"/>
<path d="M947 413 c-14 -13 -6 -25 8 -13 13 11 18 11 28 1 9 -10 8 -15 -5 -24
-15 -10 -15 -12 0 -23 13 -10 14 -15 5 -25 -10 -10 -16 -9 -29 2 -15 12 -17
12 -12 -1 2 -8 16 -15 29 -15 21 0 24 5 25 40 0 22 -1 46 -4 53 -4 13 -34 17
-45 5z"/>
<path d="M1067 413 c-3 -4 -7 -25 -8 -47 -5 -47 20 -71 46 -45 12 12 14 24 7
55 -7 36 -33 57 -45 37z m33 -18 c0 -8 -7 -15 -15 -15 -16 0 -20 12 -8 23 11
12 23 8 23 -8z m3 -38 c3 -8 1 -20 -4 -28 -11 -19 -34 3 -26 25 8 20 23 21 30
3z"/>
<path d="M1158 406 c-19 -14 -25 -32 -8 -21 6 4 10 -10 10 -34 0 -23 5 -41 10
-41 6 0 10 25 10 55 0 30 -1 55 -2 55 -2 0 -11 -7 -20 -14z"/>
<path d="M1222 408 c-14 -14 -16 -32 -3 -23 6 3 12 -14 14 -37 3 -38 4 -36 5
15 1 31 1 57 -1 57 -2 0 -8 -5 -15 -12z"/>
<path d="M1284 406 c-10 -26 1 -51 24 -54 23 -4 29 -16 12 -27 -6 -4 -18 -1
-27 7 -14 11 -15 11 -11 -2 2 -8 16 -15 29 -15 22 0 24 4 24 50 0 44 -3 50
-23 53 -13 2 -24 -3 -28 -12z m43 -12 c8 -21 -13 -42 -28 -27 -13 13 -5 43 11
43 6 0 13 -7 17 -16z"/>
<path d="M1367 413 c-2 -5 -4 -28 -3 -53 1 -41 3 -45 26 -45 22 0 25 4 26 40
1 22 -1 46 -3 53 -6 13 -39 17 -46 5z m33 -18 c0 -8 -4 -15 -9 -15 -13 0 -22
16 -14 24 11 11 23 6 23 -9z m7 -41 c8 -21 -13 -42 -28 -27 -13 13 -5 43 11
43 6 0 13 -7 17 -16z"/>
<path d="M1455 400 c-16 -17 -16 -20 -3 -15 14 5 17 -1 21 -37 3 -38 4 -37 5
15 1 31 0 57 -1 57 -2 0 -12 -9 -22 -20z"/>
<path d="M1670 405 c-7 -9 -8 -15 -2 -15 6 0 12 6 15 13 4 9 7 9 17 0 11 -10
11 -15 0 -28 -8 -10 -9 -15 -1 -15 14 0 15 -27 1 -35 -6 -4 -19 -1 -28 7 -15
12 -16 11 -3 -4 7 -10 19 -18 26 -18 19 0 38 27 29 42 -4 7 -8 24 -8 38 -1 29
-27 38 -46 15z"/>
<path d="M1762 408 c-14 -14 -16 -32 -3 -23 6 3 12 -14 14 -37 3 -38 4 -36 5
15 1 31 1 57 -1 57 -2 0 -8 -5 -15 -12z"/>
<path d="M1832 408 c-14 -14 -16 -32 -3 -23 6 3 12 -14 14 -37 3 -38 4 -36 5
15 1 31 1 57 -1 57 -2 0 -8 -5 -15 -12z"/>
<path d="M1937 413 c-3 -4 -7 -25 -8 -47 -5 -47 20 -71 46 -45 12 12 14 24 7
55 -7 36 -33 57 -45 37z m33 -18 c0 -8 -7 -15 -15 -15 -16 0 -20 12 -8 23 11
12 23 8 23 -8z m3 -38 c3 -8 1 -20 -4 -28 -11 -19 -34 3 -26 25 8 20 23 21 30
3z"/>
<path d="M2008 390 c-4 -26 -2 -29 14 -24 22 7 36 -22 18 -39 -10 -9 -14 -9
-17 1 -3 6 -10 12 -16 12 -6 0 -3 -8 6 -17 13 -14 21 -15 35 -7 24 16 21 47
-5 59 -13 5 -23 15 -23 22 0 6 10 14 23 16 20 4 19 4 -4 6 -22 1 -27 -4 -31
-29z"/>
<path d="M2092 408 c-14 -14 -16 -66 -3 -86 5 -8 17 -12 27 -10 16 3 19 12 19
53 0 52 -17 69 -43 43z m33 -44 c0 -28 -4 -39 -15 -39 -16 0 -26 45 -16 72 11
28 31 7 31 -33z"/>
<path d="M2172 408 c-14 -14 -16 -66 -3 -86 5 -8 17 -12 27 -10 16 3 19 12 19
53 0 52 -17 69 -43 43z m33 -44 c0 -28 -4 -39 -15 -39 -16 0 -26 45 -16 72 11
28 31 7 31 -33z"/>
<path d="M2258 413 c26 -5 26 -2 7 -46 -16 -38 -20 -65 -8 -53 4 3 12 21 19
39 6 17 15 40 19 50 6 14 2 17 -26 16 -24 -1 -27 -3 -11 -6z"/>
<path d="M2331 384 c-26 -43 -26 -44 -1 -44 11 0 20 -7 20 -15 0 -21 18 -19
22 2 5 27 -3 93 -12 93 -4 0 -17 -16 -29 -36z m19 -14 c0 -11 -7 -20 -15 -20
-13 0 -13 3 -3 20 7 11 14 20 15 20 2 0 3 -9 3 -20z"/>
<path d="M2558 406 c-19 -14 -25 -32 -8 -21 6 4 10 -10 10 -34 0 -23 5 -41 10
-41 6 0 10 25 10 55 0 30 -1 55 -2 55 -2 0 -11 -7 -20 -14z"/>
<path d="M2622 408 c-14 -14 -16 -66 -3 -86 5 -8 17 -12 27 -10 16 3 19 12 19
53 0 52 -17 69 -43 43z m33 -44 c0 -28 -4 -39 -15 -39 -16 0 -26 45 -16 72 11
28 31 7 31 -33z"/>
<path d="M2696 404 c-12 -31 -7 -46 14 -39 23 7 39 -20 22 -37 -8 -8 -16 -7
-28 3 -15 12 -17 12 -12 -1 2 -8 16 -15 29 -15 20 0 24 5 24 30 0 22 -6 30
-22 35 -26 6 -19 25 12 33 16 4 15 5 -6 6 -16 1 -29 -5 -33 -15z"/>
<path d="M2809 396 c-23 -50 14 -107 48 -73 19 19 10 47 -17 54 -23 6 -26 18
-8 29 6 4 14 2 16 -4 2 -7 8 -12 14 -12 6 0 6 6 -2 15 -18 22 -39 18 -51 -9z
m44 -39 c3 -8 1 -20 -4 -28 -11 -19 -34 3 -26 25 8 20 23 21 30 3z"/>
<path d="M2892 408 c-6 -6 -12 -26 -12 -43 0 -52 39 -74 60 -34 14 25 -5 53
-32 46 -21 -6 -24 6 -5 22 10 8 17 7 26 -2 11 -10 13 -9 9 3 -6 20 -30 24 -46
8z m35 -54 c8 -22 -15 -44 -26 -25 -10 16 -4 41 10 41 5 0 12 -7 16 -16z"/>
<path d="M2964 406 c-10 -26 1 -51 24 -54 23 -4 29 -16 12 -27 -6 -4 -18 -1
-27 7 -14 11 -15 11 -11 -2 2 -8 16 -15 29 -15 22 0 24 4 24 50 0 44 -3 50
-23 53 -13 2 -24 -3 -28 -12z m43 -12 c8 -21 -13 -42 -28 -27 -13 13 -5 43 11
43 6 0 13 -7 17 -16z"/>
<path d="M3058 413 c25 -5 26 -7 13 -31 -14 -27 -22 -72 -13 -72 4 0 13 19 20
43 7 23 15 48 18 55 4 8 -4 12 -28 11 -23 -1 -26 -3 -10 -6z"/>
<path d="M3127 413 c-2 -5 -4 -28 -3 -53 1 -41 3 -45 26 -45 22 0 25 4 26 40
1 22 -1 46 -3 53 -6 13 -39 17 -46 5z m33 -18 c0 -8 -4 -15 -9 -15 -13 0 -22
16 -14 24 11 11 23 6 23 -9z m7 -41 c8 -21 -13 -42 -28 -27 -13 13 -5 43 11
43 6 0 13 -7 17 -16z"/>
<path d="M3207 413 c-3 -4 -7 -25 -8 -47 -5 -47 20 -71 46 -45 12 12 14 24 7
55 -7 36 -33 57 -45 37z m33 -18 c0 -8 -7 -15 -15 -15 -16 0 -20 12 -8 23 11
12 23 8 23 -8z m3 -38 c3 -8 1 -20 -4 -28 -11 -19 -34 3 -26 25 8 20 23 21 30
3z"/>
<path d="M4137 413 c-4 -3 -7 -11 -7 -17 0 -6 5 -5 12 2 18 18 28 15 28 -8 0
-11 -5 -20 -12 -20 -6 0 -3 -6 8 -14 15 -12 16 -17 7 -27 -10 -10 -16 -9 -29
2 -15 12 -17 12 -12 -1 2 -8 16 -15 29 -15 21 0 24 5 25 40 0 22 -4 46 -9 53
-10 13 -30 16 -40 5z"/>
<path d="M4249 396 c-23 -50 14 -107 48 -73 19 19 10 47 -17 54 -23 6 -26 18
-8 29 6 4 14 2 16 -4 2 -7 8 -12 14 -12 6 0 6 6 -2 15 -18 22 -39 18 -51 -9z
m44 -39 c3 -8 1 -20 -4 -28 -11 -19 -34 3 -26 25 8 20 23 21 30 3z"/>
<path d="M4342 413 c27 -4 28 -5 13 -33 -8 -16 -15 -39 -14 -52 1 -22 1 -22 8
2 5 14 16 40 25 58 l17 32 -38 -1 c-30 -2 -32 -3 -11 -6z"/>
<path d="M4412 408 c-17 -17 -15 -73 3 -88 23 -19 47 -4 43 27 -2 22 -8 28
-25 27 -25 -1 -27 4 -14 25 8 13 12 13 27 0 15 -12 17 -12 12 1 -6 20 -30 24
-46 8z m35 -54 c8 -21 -13 -42 -28 -27 -13 13 -5 43 11 43 6 0 13 -7 17 -16z"/>
<path d="M4492 408 c-14 -14 -16 -66 -3 -86 5 -8 17 -12 27 -10 16 3 19 12 19
53 0 52 -17 69 -43 43z m33 -44 c0 -28 -4 -39 -15 -39 -16 0 -26 45 -16 72 11
28 31 7 31 -33z"/>
<path d="M4567 413 c-2 -5 -4 -28 -3 -53 1 -41 3 -45 26 -45 22 0 25 4 26 40
1 22 -1 46 -3 53 -6 13 -39 17 -46 5z m33 -18 c0 -8 -4 -15 -9 -15 -13 0 -22
16 -14 24 11 11 23 6 23 -9z m7 -41 c8 -21 -13 -42 -28 -27 -13 13 -5 43 11
43 6 0 13 -7 17 -16z"/>
<path d="M4640 405 c-16 -19 -6 -45 20 -52 22 -6 26 -18 9 -29 -6 -3 -15 0
-20 7 -7 11 -9 11 -9 1 0 -22 32 -27 46 -7 37 50 -7 127 -46 80z m40 -20 c0
-16 -6 -25 -15 -25 -15 0 -21 31 -8 43 13 14 23 6 23 -18z"/>
<path d="M713 85 c-28 -42 -28 -45 -3 -45 11 0 20 -7 20 -15 0 -21 18 -19 22
2 5 25 -3 93 -11 93 -3 0 -16 -16 -28 -35z m17 -15 c0 -11 -7 -20 -15 -20 -13
0 -13 3 -3 20 7 11 14 20 15 20 2 0 3 -9 3 -20z"/>
<path d="M793 89 c-28 -44 -28 -49 -4 -49 11 0 22 -8 24 -17 4 -17 5 -17 6 0
0 9 7 17 14 17 9 0 9 2 0 8 -6 4 -13 23 -15 42 l-3 35 -22 -36z m17 -19 c0
-11 -7 -20 -15 -20 -13 0 -14 4 -5 20 6 11 13 20 15 20 3 0 5 -9 5 -20z"/>
<path d="M856 98 c-9 -36 -7 -40 14 -33 23 7 39 -20 22 -37 -8 -8 -16 -7 -28
3 -15 12 -17 12 -12 -1 2 -8 16 -15 29 -15 19 0 25 6 27 28 3 22 -1 30 -17 34
-28 7 -27 31 2 36 20 4 19 4 -4 6 -20 1 -28 -5 -33 -21z"/>
<path d="M952 108 c-14 -14 -16 -32 -3 -23 6 3 12 -14 14 -37 3 -38 4 -36 5
15 1 31 1 57 -1 57 -2 0 -8 -5 -15 -12z"/>
<path d="M1057 114 c-13 -14 -7 -26 7 -15 18 16 32 -4 17 -23 -9 -10 -8 -15 4
-19 8 -4 12 -13 9 -22 -7 -18 -30 -20 -37 -2 -4 9 -6 9 -6 -1 -1 -20 29 -26
45 -10 11 11 12 24 6 54 -7 36 -28 54 -45 38z"/>
<path d="M1148 106 c-19 -14 -25 -32 -8 -21 6 4 10 -10 10 -34 0 -23 5 -41 10
-41 6 0 10 25 10 55 0 30 -1 55 -2 55 -2 0 -11 -7 -20 -14z"/>
<path d="M1206 104 c-5 -14 -4 -15 9 -4 13 11 18 11 28 1 9 -10 8 -15 -5 -24
-15 -10 -15 -12 0 -23 13 -10 14 -15 5 -25 -10 -10 -16 -9 -29 2 -15 12 -17
12 -12 -1 2 -8 16 -15 29 -15 21 0 24 5 25 40 0 22 -1 46 -4 53 -6 18 -39 15
-46 -4z"/>
<path d="M1298 113 c26 -5 26 0 7 -53 -18 -50 -18 -50 -5 -50 6 0 10 10 10 23
1 12 7 33 15 47 21 36 19 40 -17 39 -24 -1 -27 -3 -10 -6z"/>
<path d="M1367 113 c-4 -3 -7 -11 -7 -17 0 -6 5 -5 12 2 18 18 28 15 28 -8 0
-11 -5 -20 -12 -20 -6 0 -3 -6 8 -14 15 -12 16 -17 7 -27 -10 -10 -16 -9 -29
2 -15 12 -17 12 -12 -1 2 -8 16 -15 29 -15 21 0 24 5 25 40 0 22 -4 46 -9 53
-10 13 -30 16 -40 5z"/>
<path d="M1446 108 c-2 -7 -4 -20 -5 -28 0 -8 -1 -23 -3 -34 -2 -10 5 -23 14
-29 24 -16 54 13 43 40 -4 10 -8 27 -9 38 -1 22 -34 33 -40 13z m34 -13 c0 -8
-7 -15 -15 -15 -16 0 -20 12 -8 23 11 12 23 8 23 -8z m3 -38 c3 -8 1 -20 -4
-28 -11 -19 -34 3 -26 25 8 20 23 21 30 3z"/>
<path d="M1658 90 c-4 -26 -2 -29 14 -24 22 7 36 -22 18 -39 -10 -9 -14 -9
-17 1 -3 6 -10 12 -16 12 -6 0 -3 -8 6 -17 13 -14 21 -15 35 -7 24 16 21 47
-5 59 -13 5 -23 15 -23 22 0 6 10 14 23 16 20 4 19 4 -4 6 -22 1 -27 -4 -31
-29z"/>
<path d="M1736 104 c-5 -14 -4 -15 9 -4 13 11 18 11 28 1 9 -10 8 -15 -5 -24
-15 -10 -15 -12 0 -23 13 -10 14 -15 5 -25 -10 -10 -16 -9 -29 2 -15 12 -17
12 -12 -1 2 -8 16 -15 29 -15 21 0 24 5 25 40 0 22 -1 46 -4 53 -6 18 -39 15
-46 -4z"/>
<path d="M1828 113 c26 -5 26 -2 7 -46 -25 -60 -16 -66 11 -8 13 29 24 55 24
57 0 2 -15 3 -32 3 -24 -1 -27 -3 -10 -6z"/>
<path d="M1937 113 c-4 -3 -7 -11 -7 -17 0 -6 5 -5 12 2 7 7 16 12 20 12 14 0
9 -37 -8 -50 -8 -8 -20 -22 -25 -32 -9 -16 -6 -18 28 -17 36 1 36 2 9 8 -27 5
-28 7 -12 20 29 24 39 50 25 67 -12 15 -31 18 -42 7z"/>
<path d="M2011 106 c-17 -21 -4 -56 21 -56 11 0 18 -5 15 -12 -2 -7 -12 -12
-21 -12 -9 1 -16 -2 -16 -7 0 -22 41 -7 51 19 20 51 -19 105 -50 68z m37 -24
c2 -14 -2 -22 -12 -22 -19 0 -28 14 -20 35 9 21 28 14 32 -13z"/>
<path d="M2086 104 c-5 -14 -4 -15 9 -4 13 11 18 11 28 1 9 -10 8 -15 -5 -24
-15 -10 -15 -12 0 -23 13 -10 14 -15 5 -25 -10 -10 -16 -9 -29 2 -15 12 -17
12 -12 -1 2 -8 16 -15 29 -15 21 0 24 5 25 40 0 22 -1 46 -4 53 -6 18 -39 15
-46 -4z"/>
<path d="M2172 108 c-17 -17 -15 -73 3 -88 23 -19 47 -4 43 27 -2 22 -8 28
-25 27 -25 -1 -27 4 -14 25 8 13 12 13 27 0 15 -12 17 -12 12 1 -6 20 -30 24
-46 8z m35 -54 c8 -21 -13 -42 -28 -27 -13 13 -5 43 11 43 6 0 13 -7 17 -16z"/>
<path d="M2247 113 c-14 -13 -7 -93 8 -99 23 -9 45 15 45 50 0 43 -31 72 -53
49z m38 -24 c9 -28 -3 -71 -18 -66 -13 4 -22 51 -13 73 8 20 24 17 31 -7z"/>
<path d="M2327 113 c-4 -3 -7 -11 -7 -17 0 -6 5 -5 12 2 7 7 16 12 20 12 14 0
9 -37 -8 -50 -8 -8 -20 -22 -25 -32 -9 -16 -6 -18 28 -17 36 1 36 2 9 8 -27 5
-28 7 -12 20 29 24 39 50 25 67 -12 15 -31 18 -42 7z"/>
<path d="M2558 106 c-19 -14 -25 -32 -8 -21 6 4 10 -10 10 -34 0 -23 5 -41 10
-41 6 0 10 25 10 55 0 30 -1 55 -2 55 -2 0 -11 -7 -20 -14z"/>
<path d="M2618 108 c-2 -7 -4 -31 -4 -53 1 -36 4 -40 26 -40 23 0 25 3 25 50
0 43 -3 50 -21 53 -12 2 -23 -3 -26 -10z m34 -13 c0 -5 -5 -11 -11 -13 -6 -2
-11 4 -11 13 0 9 5 15 11 13 6 -2 11 -8 11 -13z m5 -41 c8 -21 -13 -42 -28
-27 -13 13 -5 43 11 43 6 0 13 -7 17 -16z"/>
<path d="M2697 113 c-14 -13 -7 -93 8 -99 23 -9 45 15 45 50 0 43 -31 72 -53
49z m38 -24 c9 -28 -3 -71 -18 -66 -13 4 -22 51 -13 73 8 20 24 17 31 -7z"/>
<path d="M2810 99 c-14 -25 2 -49 33 -49 20 0 20 -1 4 -18 -16 -15 -19 -15
-27 -2 -7 10 -10 11 -10 2 0 -7 7 -15 16 -19 34 -13 60 67 32 95 -18 18 -36
15 -48 -9z m42 -1 c7 -19 -2 -38 -18 -38 -8 0 -14 8 -14 18 0 30 23 44 32 20z"/>
<path d="M2890 105 c-7 -9 -8 -15 -2 -15 6 0 12 6 15 13 4 9 7 9 17 0 11 -10
11 -15 0 -28 -8 -10 -9 -15 -1 -15 14 0 15 -27 1 -35 -6 -4 -19 -1 -28 7 -15
12 -16 11 -3 -4 7 -10 19 -18 26 -18 19 0 38 27 29 42 -4 7 -8 24 -8 38 -1 29
-27 38 -46 15z"/>
<path d="M2972 108 c-17 -17 -15 -73 3 -88 23 -19 47 -4 43 27 -2 22 -8 28
-25 27 -25 -1 -27 4 -14 25 8 13 12 13 27 0 15 -12 17 -12 12 1 -6 20 -30 24
-46 8z m35 -54 c8 -21 -13 -42 -28 -27 -13 13 -5 43 11 43 6 0 13 -7 17 -16z"/>
<path d="M3048 108 c-2 -7 -4 -31 -4 -53 1 -36 4 -40 26 -40 23 0 25 3 25 50
0 43 -3 50 -21 53 -12 2 -23 -3 -26 -10z m34 -13 c0 -5 -5 -11 -11 -13 -6 -2
-11 4 -11 13 0 9 5 15 11 13 6 -2 11 -8 11 -13z m5 -41 c8 -21 -13 -42 -28
-27 -13 13 -5 43 11 43 6 0 13 -7 17 -16z"/>
<path d="M3138 113 c26 -5 26 -2 7 -46 -25 -60 -16 -66 11 -8 13 29 24 55 24
57 0 2 -15 3 -32 3 -24 -1 -27 -3 -10 -6z"/>
<path d="M3199 96 c-23 -50 14 -107 48 -73 19 19 10 47 -17 54 -23 6 -26 18
-8 29 6 4 14 2 16 -4 2 -7 8 -12 14 -12 6 0 6 6 -2 15 -18 22 -39 18 -51 -9z
m44 -39 c3 -8 1 -20 -4 -28 -11 -19 -34 3 -26 25 8 20 23 21 30 3z"/>
<path d="M4137 113 c-4 -3 -7 -11 -7 -17 0 -6 5 -5 12 2 18 18 28 15 28 -8 0
-11 -5 -20 -12 -20 -6 0 -3 -6 8 -14 15 -12 16 -17 7 -27 -10 -10 -16 -9 -29
2 -15 12 -17 12 -12 -1 2 -8 16 -15 29 -15 21 0 24 5 25 40 0 22 -4 46 -9 53
-10 13 -30 16 -40 5z"/>
<path d="M4262 113 c26 -4 26 -5 12 -38 -8 -19 -14 -42 -13 -52 0 -10 7 0 15
22 8 22 19 44 24 49 19 19 10 26 -27 25 -29 -2 -32 -3 -11 -6z"/>
<path d="M4343 89 c-28 -44 -28 -49 -4 -49 11 0 22 -8 24 -17 4 -17 5 -17 6 0
0 9 7 17 14 17 9 0 9 2 0 8 -6 4 -13 23 -15 42 l-3 35 -22 -36z m17 -19 c0
-11 -7 -20 -15 -20 -13 0 -14 4 -5 20 6 11 13 20 15 20 3 0 5 -9 5 -20z"/>
<path d="M4407 114 c-14 -14 -7 -26 8 -14 14 12 35 6 35 -10 0 -5 -11 -22 -25
-38 -32 -39 -32 -42 8 -41 23 1 26 3 10 6 -28 5 -29 15 -3 38 26 23 22 59 -5
63 -12 2 -24 0 -28 -4z"/>
<path d="M4486 104 c-5 -14 -4 -15 9 -4 13 11 18 11 28 1 9 -10 8 -15 -5 -24
-15 -10 -15 -12 0 -23 13 -10 14 -15 5 -25 -10 -10 -16 -9 -29 2 -15 12 -17
12 -12 -1 2 -8 16 -15 29 -15 21 0 24 5 25 40 0 22 -1 46 -4 53 -6 18 -39 15
-46 -4z"/>
<path d="M4567 113 c-4 -3 -7 -11 -7 -17 0 -6 5 -5 12 2 18 18 28 15 28 -8 0
-11 -5 -20 -12 -20 -6 0 -3 -6 8 -14 15 -12 16 -17 7 -27 -10 -10 -16 -9 -29
2 -15 12 -17 12 -12 -1 2 -8 16 -15 29 -15 21 0 24 5 25 40 0 22 -4 46 -9 53
-10 13 -30 16 -40 5z"/>
<path d="M4652 113 c26 -4 26 -5 12 -38 -8 -19 -14 -42 -13 -52 0 -10 7 0 15
22 8 22 19 44 24 49 19 19 10 26 -27 25 -29 -2 -32 -3 -11 -6z"/>
<path d="M80 49 c0 -47 17 -52 22 -6 2 17 8 32 13 32 6 0 11 -15 13 -32 4 -41
22 -43 22 -3 0 17 5 30 10 30 6 0 10 -13 10 -30 0 -17 5 -30 11 -30 6 0 9 16
7 38 l-3 37 -52 1 -53 2 0 -39z"/>
</g>
</svg>
