<?xml version="1.0" standalone="no"?>
<!DOCTYPE svg PUBLIC "-//W3C//DTD SVG 20010904//EN"
 "http://www.w3.org/TR/2001/REC-SVG-20010904/DTD/svg10.dtd">
<svg version="1.0" xmlns="http://www.w3.org/2000/svg"
 width="720.000000pt" height="576.000000pt" viewBox="0 0 720.000000 576.000000"
 preserveAspectRatio="xMidYMid meet">
<metadata>
Created by potrace 1.16, written by Peter Selinger 2001-2019
</metadata>
<g transform="translate(0.000000,576.000000) scale(0.100000,-0.100000)"
fill="#000000" stroke="none">
<path d="M3071 5185 c-1 -47 1 -51 23 -53 16 -1 27 5 31 17 9 28 -5 53 -26 48
-12 -3 -19 2 -22 17 -2 11 -5 -2 -6 -29z m46 -11 c8 -21 -13 -42 -28 -27 -13
13 -5 43 11 43 6 0 13 -7 17 -16z"/>
<path d="M4070 5180 c0 -27 5 -50 10 -50 6 0 10 23 10 50 0 28 -4 50 -10 50
-5 0 -10 -22 -10 -50z"/>
<path d="M2621 5173 l2 -48 7 40 c6 39 6 39 14 13 5 -16 12 -28 17 -28 5 0 12
12 16 28 7 26 8 26 14 -13 l6 -40 2 48 c1 52 -12 62 -27 20 l-9 -28 -13 28
c-20 40 -30 33 -29 -20z"/>
<path d="M3001 5198 c-5 -13 -12 -34 -16 -48 -6 -20 -5 -23 6 -12 16 14 49 16
49 2 0 -5 4 -10 9 -10 5 0 1 20 -8 45 -18 50 -27 56 -40 23z m29 -30 c0 -5 -6
-8 -14 -8 -9 0 -12 7 -9 21 4 16 8 17 14 7 5 -7 9 -16 9 -20z"/>
<path d="M3208 5207 c-7 -21 6 -70 20 -73 7 -1 8 0 2 3 -12 6 -13 50 -1 55 5
2 3 8 -4 15 -10 9 -14 9 -17 0z"/>
<path d="M3518 5208 c-9 -27 7 -73 27 -76 18 -2 19 -2 3 8 -10 6 -18 20 -18
30 0 12 7 20 18 21 13 0 14 2 2 6 -8 3 -18 10 -21 15 -3 5 -8 4 -11 -4z"/>
<path d="M3792 5178 l-2 -48 33 1 c29 2 29 2 5 6 -24 4 -27 10 -31 46 l-4 42
-1 -47z"/>
<path d="M4153 5175 c0 -27 2 -40 4 -27 3 13 12 22 23 22 11 0 20 -9 23 -22 2
-13 4 0 4 27 0 28 -2 40 -4 28 -3 -14 -12 -23 -23 -23 -11 0 -20 9 -23 23 -2
12 -4 0 -4 -28z"/>
<path d="M4332 5178 c2 -34 7 -43 23 -45 11 -2 14 0 8 3 -16 7 -17 54 -2 54 6
0 4 7 -5 15 -23 23 -27 18 -24 -27z"/>
<path d="M2724 5186 c-11 -28 1 -51 26 -53 l25 -3 -25 12 -25 12 28 4 c20 2
27 8 25 20 -4 22 -46 28 -54 8z m41 -6 c3 -5 -3 -10 -15 -10 -12 0 -18 5 -15
10 3 6 10 10 15 10 5 0 12 -4 15 -10z"/>
<path d="M2820 5188 c25 -11 25 -11 3 -15 -13 -3 -23 -9 -23 -14 0 -5 -1 -12
-2 -16 -2 -5 10 -8 25 -9 26 -1 28 2 25 30 -2 25 -8 31 -28 33 l-25 3 25 -12z
m15 -38 c-3 -5 -10 -10 -16 -10 -5 0 -9 5 -9 10 0 6 7 10 16 10 8 0 12 -4 9
-10z"/>
<path d="M2871 5163 c1 -36 2 -37 8 -8 3 17 13 30 21 30 8 0 18 -13 22 -30 6
-29 6 -29 5 5 -2 30 -6 35 -29 38 -26 3 -28 1 -27 -35z"/>
<path d="M3145 5190 c-8 -14 3 -30 21 -30 23 0 16 -20 -8 -21 -19 -1 -20 -2
-4 -6 10 -3 23 0 30 7 8 8 5 16 -13 30 l-25 18 25 5 c22 4 22 4 2 6 -12 0 -25
-3 -28 -9z"/>
<path d="M3280 5188 c25 -11 25 -11 3 -15 -13 -3 -23 -9 -23 -14 0 -5 -1 -12
-2 -16 -2 -5 10 -8 25 -9 26 -1 28 2 25 30 -2 25 -8 31 -28 33 l-25 3 25 -12z
m15 -38 c-3 -5 -10 -10 -16 -10 -5 0 -9 5 -9 10 0 6 7 10 16 10 8 0 12 -4 9
-10z"/>
<path d="M3331 5163 c1 -38 1 -38 9 -9 5 16 15 33 22 37 9 6 6 9 -9 9 -20 0
-23 -5 -22 -37z"/>
<path d="M3403 5193 c23 -6 22 -19 -4 -26 -29 -8 -19 -31 14 -35 20 -2 27 1
27 13 0 27 -20 55 -38 54 -16 -1 -16 -2 1 -6z m17 -43 c0 -5 -7 -10 -15 -10
-8 0 -15 5 -15 10 0 6 7 10 15 10 8 0 15 -4 15 -10z"/>
<path d="M3459 5184 c-15 -18 -2 -48 22 -50 8 0 9 1 2 3 -27 10 -23 44 7 56
13 4 12 6 -1 6 -9 1 -22 -6 -30 -15z"/>
<path d="M3573 5165 c0 -22 2 -30 4 -17 2 12 2 30 0 40 -3 9 -5 -1 -4 -23z"/>
<path d="M3604 5186 c-10 -26 1 -51 23 -54 14 -2 23 3 28 18 12 37 -38 71 -51
36z m43 -12 c8 -21 -13 -42 -28 -27 -13 13 -5 43 11 43 6 0 13 -7 17 -16z"/>
<path d="M3682 5163 c1 -37 1 -37 5 -5 3 18 10 32 18 32 8 0 16 -14 18 -32 l5
-33 -2 35 c-1 28 -5 36 -23 38 -21 3 -23 -1 -21 -35z"/>
<path d="M3860 5185 c-18 -22 -1 -49 31 -52 19 -1 20 -1 4 4 -34 9 -41 23 -11
23 21 0 27 4 24 17 -4 24 -32 28 -48 8z m35 -5 c3 -5 -3 -10 -15 -10 -12 0
-18 5 -15 10 3 6 10 10 15 10 5 0 12 -4 15 -10z"/>
<path d="M3933 5165 c12 -42 24 -44 37 -9 15 38 10 54 -5 19 l-13 -30 -11 28
c-15 39 -21 33 -8 -8z"/>
<path d="M4004 5186 c-11 -28 1 -51 26 -53 22 -1 22 -1 3 4 -31 6 -29 23 2 23
27 0 32 9 13 28 -16 16 -37 15 -44 -2z m36 -6 c0 -5 -7 -10 -15 -10 -8 0 -15
5 -15 10 0 6 7 10 15 10 8 0 15 -4 15 -10z"/>
<path d="M4243 5165 c0 -22 2 -30 4 -17 2 12 2 30 0 40 -3 9 -5 -1 -4 -23z"/>
<path d="M4270 5185 c0 -9 7 -18 15 -21 20 -8 19 -21 -2 -27 -14 -4 -13 -5 3
-6 29 -1 41 29 14 36 -25 7 -26 20 -2 26 13 4 11 5 -5 6 -15 1 -23 -5 -23 -14z"/>
<path d="M4387 5193 c-13 -12 -7 -54 9 -60 8 -3 22 1 31 9 12 12 13 20 4 37
-12 21 -31 27 -44 14z m33 -28 c0 -16 -6 -25 -15 -25 -9 0 -15 9 -15 25 0 16
6 25 15 25 9 0 15 -9 15 -25z"/>
<path d="M4457 5193 c-15 -15 -7 -55 13 -60 25 -7 26 -23 3 -24 -12 0 -13 -2
-5 -6 22 -9 42 18 42 58 0 34 -3 39 -23 39 -13 0 -27 -3 -30 -7z m36 -16 c3
-8 1 -20 -4 -28 -11 -19 -34 3 -26 25 8 20 23 21 30 3z"/>
<path d="M4531 5160 c1 -27 3 -29 6 -10 2 14 11 30 20 37 13 10 13 12 -6 10
-17 -1 -21 -7 -20 -37z"/>
<path d="M4598 5193 c27 -6 29 -19 2 -26 -25 -6 -27 -37 -2 -36 10 0 12 3 5 6
-18 7 -16 23 1 23 8 0 17 -8 20 -17 2 -10 4 -2 3 17 -2 30 -6 35 -27 37 -22 1
-22 1 -2 -4z"/>
<path d="M4659 5198 c-6 -24 -5 -68 2 -68 5 0 9 14 9 31 0 39 22 34 32 -7 6
-27 6 -27 5 6 -2 28 -6 36 -24 38 -13 2 -23 2 -24 0z"/>
<path d="M4727 5193 c6 -4 13 -22 16 -38 4 -27 5 -27 3 4 0 21 -7 36 -16 38
-10 3 -11 2 -3 -4z"/>
<path d="M597 5050 c-18 -29 -18 -30 2 -30 12 0 21 -6 21 -12 0 -10 3 -9 9 1
6 9 11 10 15 2 21 -33 54 8 41 50 -9 27 -37 20 -46 -11 l-7 -25 -1 28 c-1 35
-12 34 -34 -3z m78 -10 c0 -13 -6 -25 -12 -27 -9 -3 -13 6 -13 27 0 21 4 30
13 28 6 -3 12 -15 12 -28z m-59 -7 c-10 -10 -19 5 -10 18 6 11 8 11 12 0 2 -7
1 -15 -2 -18z"/>
<path d="M705 5061 c-9 -30 4 -63 23 -59 12 2 17 14 17 38 0 40 -29 55 -40 21z
m35 -21 c0 -31 -16 -41 -26 -15 -8 19 2 45 16 45 5 0 10 -13 10 -30z"/>
<path d="M775 5071 c-3 -7 0 -8 9 -5 13 5 16 -1 16 -26 0 -26 -3 -31 -17 -25
-15 5 -16 4 -5 -6 17 -18 34 2 30 37 -3 29 -21 43 -33 25z"/>
<path d="M902 5058 c-1 -9 -8 -19 -14 -21 -10 -4 -10 -6 0 -6 18 -1 18 -527 0
-534 -10 -4 -10 -6 0 -6 18 -1 18 -527 0 -534 -10 -4 -10 -6 0 -6 18 -1 18
-527 0 -534 -10 -4 -10 -6 0 -6 18 -1 18 -527 0 -534 -10 -4 -10 -6 0 -6 18
-1 18 -527 0 -534 -10 -4 -10 -6 0 -6 9 -1 12 -61 12 -265 0 -202 -3 -266 -12
-269 -10 -4 -10 -6 0 -6 18 -1 18 -527 0 -534 -10 -4 -10 -6 0 -6 18 -1 18
-527 0 -534 -7 -3 49 -6 124 -6 121 -1 137 -3 141 -18 4 -17 5 -17 6 0 1 16
23 17 315 17 291 0 315 -1 319 -17 4 -17 5 -17 6 0 1 16 23 17 310 17 286 0
310 -1 314 -17 4 -17 5 -17 6 0 1 16 23 17 315 17 291 0 315 -1 319 -18 4 -16
5 -16 6 1 1 16 23 17 310 17 286 0 310 -1 314 -17 4 -17 5 -17 6 0 1 16 23 17
310 17 286 0 310 -1 314 -17 4 -17 5 -17 6 0 1 16 23 17 315 17 291 0 315 -1
319 -18 4 -16 5 -16 6 1 1 16 23 17 310 17 286 0 310 -1 314 -17 4 -17 5 -17
6 0 1 16 23 17 315 17 291 0 315 -1 319 -17 4 -17 5 -17 6 0 1 15 15 17 129
18 192 1 134 8 -108 13 -287 6 -268 4 -262 32 2 13 0 24 -6 24 -6 0 -13 -10
-15 -23 -2 -12 -5 -3 -6 20 0 25 4 43 12 46 7 3 5 6 -5 6 -10 1 -18 -3 -18 -8
0 -6 -8 -9 -17 -8 -16 1 -18 16 -21 151 -3 165 -13 216 -42 216 -13 0 -19 9
-22 36 -2 19 0 37 4 40 4 3 8 10 8 15 0 6 -4 7 -10 4 -5 -3 -7 0 -4 9 6 16
-29 101 -54 129 -16 18 -37 24 -27 7 11 -17 5 -405 -5 -408 -6 -2 -11 -34 -12
-70 l-2 -67 -6 75 -6 75 -2 -73 c-1 -40 -5 -71 -9 -69 -6 4 -10 381 -4 420 0
5 6 5 11 2 6 -3 10 -1 10 6 0 7 -10 9 -24 7 -22 -4 -23 -3 -15 19 12 32 11 39
-3 25 -14 -14 -68 -151 -68 -174 0 -10 -4 -18 -10 -18 -5 0 -10 -25 -10 -55 0
-30 -3 -55 -8 -55 -4 0 -7 -19 -6 -43 1 -23 -1 -30 -3 -14 -2 15 -7 27 -11 27
-4 0 -6 -60 -4 -132 2 -92 -1 -128 -8 -118 -8 12 -10 9 -10 -12 0 -18 -5 -28
-15 -28 -8 0 -16 5 -16 10 -1 6 -3 15 -4 20 -1 6 -3 26 -4 45 -1 26 -5 35 -18
35 -15 0 -15 -2 -4 -9 11 -7 12 -20 5 -62 -11 -64 -31 -76 -37 -22 l-4 38 -1
-38 c-2 -35 -3 -37 -29 -31 -36 9 -40 13 -23 24 10 6 11 10 3 10 -7 0 -17 -10
-24 -21 -8 -16 -13 -18 -19 -9 -5 8 -15 10 -26 6 -10 -4 -60 -6 -111 -6 -51 1
-101 1 -110 1 -142 -4 -787 -1 -791 3 -3 3 21 7 54 7 32 1 156 3 275 5 119 2
227 8 240 13 17 6 -4 8 -66 5 -122 -4 -770 -19 -820 -18 -266 5 -350 4 -405
-4 -70 -10 -627 -9 -855 2 -78 4 -175 3 -220 -3 -73 -9 -67 -9 60 -5 77 2 174
0 215 -5 54 -6 -13 -8 -245 -8 -176 0 -303 2 -282 4 20 2 35 8 32 13 -3 4 -22
4 -42 0 -21 -5 -338 -10 -705 -12 l-668 -4 -3 2175 c-1 1197 -3 2169 -5 2159z
m4930 -3753 c-2 -14 -6 -25 -8 -25 -2 0 -4 11 -4 25 0 14 4 25 9 25 4 0 6 -11
3 -25z m-155 -92 c-3 -10 -5 -4 -5 12 0 17 2 24 5 18 2 -7 2 -21 0 -30z m150
-20 c-3 -10 -5 -2 -5 17 0 19 2 27 5 18 2 -10 2 -26 0 -35z m30 -55 c-3 -8 -6
-5 -6 6 -1 11 2 17 5 13 3 -3 4 -12 1 -19z m-220 -30 c-3 -8 -6 -5 -6 6 -1 11
2 17 5 13 3 -3 4 -12 1 -19z m220 -90 c-3 -8 -6 -5 -6 6 -1 11 2 17 5 13 3 -3
4 -12 1 -19z m-180 -40 c-3 -8 -6 -5 -6 6 -1 11 2 17 5 13 3 -3 4 -12 1 -19z
m100 -140 c-2 -24 -4 -5 -4 42 0 47 2 66 4 43 2 -24 2 -62 0 -85z m-70 -10
c-3 -8 -6 -5 -6 6 -1 11 2 17 5 13 3 -3 4 -12 1 -19z m190 0 c-3 -8 -6 -5 -6
6 -1 11 2 17 5 13 3 -3 4 -12 1 -19z m0 -50 c-3 -8 -6 -5 -6 6 -1 11 2 17 5
13 3 -3 4 -12 1 -19z m62 -10 c-1 -31 -1 -31 -8 -8 -5 14 -6 28 -4 33 9 15 13
6 12 -25z m-302 -10 c-3 -8 -6 -5 -6 6 -1 11 2 17 5 13 3 -3 4 -12 1 -19z
m-1703 -27 c3 -5 -70 -9 -177 -9 -100 0 -168 3 -152 7 44 11 323 13 329 2z
m341 -1 c-22 -5 -101 -8 -175 -8 -102 1 -119 3 -70 7 107 10 292 11 245 1z
m-997 -7 c-21 -2 -55 -2 -75 0 -21 2 -4 4 37 4 41 0 58 -2 38 -4z"/>
<path d="M6250 4970 c0 -5 -6 -10 -14 -10 -8 0 -16 -7 -20 -15 -8 -23 4 -45
25 -45 15 0 19 7 19 40 0 22 -2 40 -5 40 -3 0 -5 -4 -5 -10z m0 -40 c0 -21
-15 -27 -25 -10 -7 12 2 30 16 30 5 0 9 -9 9 -20z"/>
<path d="M6045 4950 c-3 -6 1 -7 9 -4 12 4 16 0 16 -16 0 -17 -4 -21 -17 -16
-16 5 -16 5 0 -8 18 -14 18 -14 0 -20 -15 -4 -15 -5 2 -3 15 2 21 11 23 40 2
28 -1 37 -12 37 -8 0 -18 -4 -21 -10z"/>
<path d="M6094 4946 c-10 -25 3 -46 28 -45 l23 2 -22 4 c-29 6 -30 23 -2 23
12 0 19 5 17 13 -7 18 -37 21 -44 3z m33 -2 c-3 -3 -12 -4 -19 -1 -8 3 -5 6 6
6 11 1 17 -2 13 -5z"/>
<path d="M6151 4928 c1 -29 2 -30 8 -9 9 34 29 37 34 6 4 -24 4 -24 3 2 -1 21
-7 29 -23 31 -20 3 -23 -1 -22 -30z"/>
<path d="M6284 4946 c-9 -23 3 -46 23 -45 17 1 17 2 1 6 -25 6 -22 23 3 23 12
0 19 5 17 13 -7 18 -37 21 -44 3z m33 -2 c-3 -3 -12 -4 -19 -1 -8 3 -5 6 6 6
11 1 17 -2 13 -5z"/>
<path d="M6341 4928 c1 -22 3 -26 6 -13 3 11 10 26 15 33 8 9 6 12 -6 12 -12
0 -16 -9 -15 -32z"/>
<path d="M6010 4780 l0 -40 105 0 105 0 0 40 0 40 -105 0 -105 0 0 -40z m200
0 l0 -30 -95 0 -95 0 0 30 0 30 95 0 95 0 0 -30z"/>
<path d="M6311 4778 c2 -31 2 -31 6 -5 2 15 9 27 14 27 5 0 9 -12 10 -27 1
-28 1 -28 8 -4 9 34 29 37 34 6 4 -24 4 -24 3 2 -1 25 -5 28 -38 31 -37 2 -38
1 -37 -30z"/>
<path d="M6313 4668 c-5 -7 -6 -26 -2 -43 l7 -30 1 28 c0 15 1 30 0 33 0 4 5
11 13 15 8 5 9 9 2 9 -6 0 -16 -6 -21 -12z"/>
<path d="M6010 4630 l0 -40 105 0 105 0 0 40 0 40 -105 0 -105 0 0 -40z m200
0 l0 -30 -95 0 -95 0 0 30 0 30 95 0 95 0 0 -30z"/>
<path d="M613 4533 c20 -5 22 -19 5 -26 -10 -4 -10 -6 0 -6 6 -1 12 -7 12 -15
0 -8 -6 -16 -12 -19 -8 -2 -7 -3 2 -3 10 1 16 14 18 39 3 33 1 37 -20 36 -17
-1 -18 -3 -5 -6z"/>
<path d="M650 4520 c0 -11 6 -20 14 -20 26 0 28 -20 4 -29 -23 -10 -23 -10 -1
-10 12 -1 24 3 27 8 9 14 -4 41 -20 41 -20 0 -17 18 4 23 13 4 11 5 -5 6 -17
1 -23 -5 -23 -19z"/>
<path d="M715 4521 c-9 -30 4 -63 23 -59 12 2 17 14 17 38 0 40 -29 55 -40 21z
m35 -21 c0 -16 -5 -30 -10 -30 -14 0 -24 26 -16 45 10 26 26 16 26 -15z"/>
<path d="M787 4534 c-4 -4 -7 -12 -7 -18 0 -6 5 -4 10 4 9 13 11 13 21 0 9
-12 10 -12 7 -1 -5 17 -21 25 -31 15z"/>
<path d="M783 4480 c2 -8 10 -15 17 -15 7 0 15 7 17 15 4 13 3 13 -6 0 -10
-13 -12 -13 -22 0 -9 13 -10 13 -6 0z"/>
<path d="M613 3993 c20 -5 23 -19 5 -25 -7 -3 -6 -7 5 -11 13 -5 17 -1 17 18
0 20 -5 25 -22 24 -17 -1 -19 -2 -5 -6z"/>
<path d="M654 3986 c-10 -25 0 -61 18 -64 19 -4 32 29 23 58 -7 23 -33 27 -41
6z m31 -26 c0 -13 -6 -25 -12 -27 -9 -3 -13 6 -13 27 0 21 4 30 13 28 6 -3 12
-15 12 -28z"/>
<path d="M715 3981 c-9 -30 4 -63 23 -59 12 2 17 14 17 38 0 40 -29 55 -40 21z
m35 -21 c0 -31 -16 -41 -26 -15 -8 19 2 45 16 45 5 0 10 -13 10 -30z"/>
<path d="M785 3991 c-3 -7 0 -8 9 -5 13 5 16 -1 16 -26 0 -26 -3 -31 -17 -25
-15 5 -16 4 -5 -6 17 -18 34 2 30 37 -3 29 -21 43 -33 25z"/>
<path d="M615 3930 c-16 -7 -17 -9 -3 -9 9 -1 20 4 23 9 7 11 7 11 -20 0z"/>
<path d="M603 3453 c21 -6 22 -26 2 -43 -22 -18 -18 -30 8 -30 17 0 19 2 8 9
-12 8 -12 12 -2 25 17 20 7 46 -16 45 -17 -1 -17 -2 0 -6z"/>
<path d="M640 3441 c0 -10 9 -21 20 -24 26 -7 26 -24 0 -30 -17 -4 -17 -4 2
-3 30 1 37 35 9 43 -26 7 -27 20 -3 26 13 4 11 5 -5 6 -16 1 -23 -5 -23 -18z"/>
<path d="M715 3451 c-3 -7 0 -8 9 -5 13 5 16 -1 16 -26 0 -26 -3 -31 -17 -25
-15 5 -16 4 -5 -6 17 -18 34 2 30 37 -3 29 -21 43 -33 25z"/>
<path d="M777 3453 c-11 -10 -8 -61 4 -69 6 -3 16 -1 22 5 9 9 8 11 -5 6 -15
-6 -18 -1 -18 25 0 25 3 31 16 26 8 -3 12 -2 9 4 -7 12 -19 13 -28 3z"/>
<path d="M5752 3127 c-19 -47 -75 -652 -59 -637 2 3 10 79 16 170 11 150 32
343 47 429 9 52 25 24 35 -61 5 -40 15 -145 24 -233 21 -229 24 -245 19 -110
-8 209 -41 456 -63 470 -4 2 -13 -11 -19 -28z"/>
<path d="M446 3005 c-3 -8 -1 -15 4 -15 6 0 10 7 10 15 0 8 -2 15 -4 15 -2 0
-6 -7 -10 -15z"/>
<path d="M495 3010 c-3 -5 -1 -10 4 -10 6 0 11 5 11 10 0 6 -2 10 -4 10 -3 0
-8 -4 -11 -10z"/>
<path d="M457 2973 c-4 -3 -7 -15 -7 -25 0 -14 7 -18 33 -17 30 2 30 2 5 6
-16 2 -28 10 -28 18 0 8 12 16 28 18 l27 4 -26 2 c-14 0 -29 -2 -32 -6z"/>
<path d="M613 2913 c21 -6 22 -26 2 -43 -22 -18 -18 -30 8 -30 17 0 19 2 8 9
-12 8 -12 12 -2 25 17 20 7 46 -16 45 -17 -1 -17 -2 0 -6z"/>
<path d="M654 2906 c-11 -28 0 -61 21 -61 16 0 20 7 20 35 0 25 -5 36 -18 38
-9 2 -20 -3 -23 -12z m36 -26 c0 -20 -5 -30 -15 -30 -10 0 -15 10 -15 30 0 20
5 30 15 30 10 0 15 -10 15 -30z"/>
<path d="M715 2901 c-9 -30 4 -63 23 -59 12 2 17 14 17 38 0 40 -29 55 -40 21z
m35 -21 c0 -31 -16 -41 -26 -15 -8 19 2 45 16 45 5 0 10 -13 10 -30z"/>
<path d="M787 2914 c-4 -4 -7 -12 -7 -18 0 -6 5 -4 10 4 9 13 11 13 21 0 9
-12 10 -12 7 -1 -5 17 -21 25 -31 15z"/>
<path d="M473 2903 c15 -2 27 -8 27 -13 0 -5 -12 -11 -27 -13 -26 -4 -26 -4 5
-6 26 -1 32 3 32 19 0 16 -6 20 -32 19 -31 -2 -31 -2 -5 -6z"/>
<path d="M783 2860 c2 -8 10 -15 17 -15 7 0 15 7 17 15 4 13 3 13 -6 0 -10
-13 -12 -13 -22 0 -9 13 -10 13 -6 0z"/>
<path d="M453 2834 c-5 -14 11 -34 27 -34 3 0 11 4 19 9 19 12 6 41 -19 41
-11 0 -23 -7 -27 -16z m45 -6 c-3 -7 -11 -13 -18 -13 -7 0 -15 6 -17 13 -3 7
4 12 17 12 13 0 20 -5 18 -12z"/>
<path d="M434 2775 c1 -16 8 -20 36 -20 29 0 35 4 36 23 1 18 1 19 -3 2 -6
-26 -60 -28 -66 -2 -3 13 -4 12 -3 -3z"/>
<path d="M5843 2505 c0 -33 2 -45 4 -27 2 18 2 45 0 60 -2 15 -4 0 -4 -33z"/>
<path d="M5683 2405 c0 -33 2 -45 4 -27 2 18 2 45 0 60 -2 15 -4 0 -4 -33z"/>
<path d="M5853 2365 c0 -33 2 -45 4 -27 2 18 2 45 0 60 -2 15 -4 0 -4 -33z"/>
<path d="M598 2373 c6 -2 12 -17 12 -33 0 -16 -6 -31 -12 -33 -7 -3 -4 -6 7
-6 18 -1 20 4 17 39 -3 29 -8 40 -21 39 -10 0 -11 -2 -3 -6z"/>
<path d="M640 2365 c0 -8 9 -19 20 -25 26 -14 26 -27 0 -33 -17 -4 -17 -4 2
-3 30 1 37 35 9 43 -26 7 -27 20 -3 26 13 4 11 5 -5 6 -14 1 -23 -5 -23 -14z"/>
<path d="M715 2371 c-3 -7 0 -8 9 -5 13 5 16 -1 16 -26 0 -26 -3 -31 -17 -25
-15 5 -16 4 -5 -6 17 -18 34 2 30 37 -3 29 -21 43 -33 25z"/>
<path d="M777 2373 c-11 -10 -8 -61 4 -69 6 -3 16 -1 22 5 9 9 8 11 -5 6 -15
-6 -18 -1 -18 25 0 25 3 31 16 26 8 -3 12 -2 9 4 -7 12 -19 13 -28 3z"/>
<path d="M5673 2265 c0 -33 2 -45 4 -27 2 18 2 45 0 60 -2 15 -4 0 -4 -33z"/>
<path d="M5863 2230 c0 -36 2 -50 4 -32 2 17 2 47 0 65 -2 17 -4 3 -4 -33z"/>
<path d="M5790 2173 c0 -10 4 -14 8 -8 4 6 11 13 16 18 5 4 2 7 -7 7 -10 0
-17 -8 -17 -17z"/>
<path d="M5663 2125 c0 -33 2 -45 4 -27 2 18 2 45 0 60 -2 15 -4 0 -4 -33z"/>
<path d="M5873 2085 c0 -33 2 -45 4 -27 2 18 2 45 0 60 -2 15 -4 0 -4 -33z"/>
<path d="M5791 1868 c0 -120 -4 -218 -8 -218 -5 0 -7 -46 -5 -102 3 -94 5
-103 28 -121 14 -11 30 -31 35 -44 6 -15 13 -21 21 -17 9 6 9 9 0 12 -7 2 -12
16 -13 30 0 15 -3 21 -6 14 -14 -35 -18 17 -17 227 1 183 -2 231 -12 231 -9 0
-12 15 -10 53 2 28 0 75 -4 102 -5 30 -8 -35 -9 -167z m16 -65 c-3 -10 -5 -2
-5 17 0 19 2 27 5 18 2 -10 2 -26 0 -35z m0 -110 c-2 -16 -4 -5 -4 22 0 28 2
40 4 28 2 -13 2 -35 0 -50z m0 -55 c-3 -8 -6 -5 -6 6 -1 11 2 17 5 13 3 -3 4
-12 1 -19z"/>
<path d="M5653 1990 c0 -30 2 -43 4 -27 2 15 2 39 0 55 -2 15 -4 2 -4 -28z"/>
<path d="M5883 1955 c0 -33 2 -45 4 -27 2 18 2 45 0 60 -2 15 -4 0 -4 -33z"/>
<path d="M5643 1865 c0 -33 2 -45 4 -27 2 18 2 45 0 60 -2 15 -4 0 -4 -33z"/>
<path d="M5893 1830 c0 -30 2 -43 4 -27 2 15 2 39 0 55 -2 15 -4 2 -4 -28z"/>
<path d="M598 1833 c6 -2 12 -17 12 -33 0 -16 -6 -31 -12 -33 -7 -3 -4 -6 7
-6 18 -1 20 4 17 39 -3 29 -8 40 -21 39 -10 0 -11 -2 -3 -6z"/>
<path d="M644 1826 c-11 -28 0 -61 21 -61 16 0 20 7 20 35 0 25 -5 36 -18 38
-9 2 -20 -3 -23 -12z m36 -26 c0 -20 -5 -30 -15 -30 -10 0 -15 10 -15 30 0 20
5 30 15 30 10 0 15 -10 15 -30z"/>
<path d="M705 1821 c-9 -30 4 -63 23 -59 12 2 17 14 17 38 0 40 -29 55 -40 21z
m35 -21 c0 -31 -16 -41 -26 -15 -8 19 2 45 16 45 5 0 10 -13 10 -30z"/>
<path d="M777 1834 c-4 -4 -7 -12 -7 -18 0 -6 5 -4 10 4 9 13 11 13 21 0 9
-12 10 -12 7 -1 -5 17 -21 25 -31 15z"/>
<path d="M773 1780 c2 -8 10 -15 17 -15 7 0 15 7 17 15 4 13 3 13 -6 0 -10
-13 -12 -13 -22 0 -9 13 -10 13 -6 0z"/>
<path d="M5633 1740 c0 -25 2 -35 4 -22 2 12 2 32 0 45 -2 12 -4 2 -4 -23z"/>
<path d="M5903 1710 c0 -30 2 -43 4 -27 2 15 2 39 0 55 -2 15 -4 2 -4 -28z"/>
<path d="M5623 1635 c0 -27 2 -38 4 -22 2 15 2 37 0 50 -2 12 -4 0 -4 -28z"/>
<path d="M5693 1605 c0 -38 2 -53 4 -32 2 20 2 52 0 70 -2 17 -4 1 -4 -38z"/>
<path d="M5911 1574 c1 -38 5 -82 9 -99 5 -18 6 9 3 65 -7 112 -13 132 -12 34z"/>
<path d="M5613 1535 c0 -22 2 -30 4 -17 2 12 2 30 0 40 -3 9 -5 -1 -4 -23z"/>
<path d="M5602 1450 c0 -19 2 -27 5 -17 2 9 2 25 0 35 -3 9 -5 1 -5 -18z"/>
<path d="M5690 1445 c0 -24 -4 -35 -15 -35 -10 0 -15 -11 -15 -35 0 -19 -4
-35 -10 -35 -5 0 -10 -19 -9 -42 0 -24 3 -36 6 -28 3 8 21 46 40 84 27 54 32
71 21 77 -9 7 -10 11 -2 17 9 5 8 11 -2 20 -12 11 -14 7 -14 -23z"/>
<path d="M5933 1395 c0 -22 2 -30 4 -17 2 12 2 30 0 40 -3 9 -5 -1 -4 -23z"/>
<path d="M5592 1380 c0 -19 2 -27 5 -17 2 9 2 25 0 35 -3 9 -5 1 -5 -18z"/>
<path d="M5576 1299 c-4 -23 -5 -44 -2 -46 2 -2 7 14 11 37 4 23 5 43 2 46 -2
3 -7 -14 -11 -37z"/>
<path d="M5943 1305 c0 -22 2 -30 4 -17 2 12 2 30 0 40 -3 9 -5 -1 -4 -23z"/>
<path d="M660 1281 c0 -11 9 -21 23 -24 20 -5 20 -5 5 7 -10 7 -18 16 -18 19
0 3 8 8 18 10 13 4 11 5 -5 6 -16 1 -23 -5 -23 -18z"/>
<path d="M714 1286 c-11 -28 0 -61 21 -61 16 0 20 7 20 35 0 25 -5 36 -18 38
-9 2 -20 -3 -23 -12z m36 -26 c0 -20 -5 -30 -15 -30 -10 0 -15 10 -15 30 0 20
5 30 15 30 10 0 15 -10 15 -30z"/>
<path d="M775 1281 c-9 -30 4 -63 23 -59 24 5 24 71 0 76 -9 2 -19 -5 -23 -17z
m35 -21 c0 -16 -5 -30 -10 -30 -14 0 -24 26 -16 45 10 26 26 16 26 -15z"/>
<path d="M5744 1155 c0 -71 1 -99 3 -62 2 37 2 96 0 130 -2 34 -3 4 -3 -68z"/>
<path d="M5952 1235 c-1 -16 3 -48 7 -70 11 -53 12 -5 2 55 -6 34 -9 37 -9 15z"/>
<path d="M5904 1208 c10 -39 11 -40 14 -15 4 33 -3 57 -16 57 -5 0 -4 -19 2
-42z"/>
<path d="M675 1230 c-16 -7 -17 -9 -3 -9 9 -1 20 4 23 9 7 11 7 11 -20 0z"/>
<path d="M5561 1228 c0 -9 -4 -25 -7 -35 -5 -17 -5 -17 6 0 6 10 9 25 7 35 -4
15 -5 15 -6 0z"/>
<path d="M5527 1140 c-10 -16 -32 -33 -50 -39 -41 -14 -72 -46 -122 -125 -61
-96 -112 -145 -156 -152 -22 -4 -39 -11 -39 -15 0 -12 48 -1 85 20 28 16 83
84 151 188 20 32 46 55 77 71 43 21 86 66 75 77 -2 2 -12 -9 -21 -25z"/>
<path d="M5972 1100 c0 -14 2 -19 5 -12 2 6 2 18 0 25 -3 6 -5 1 -5 -13z"/>
<path d="M5982 1050 c0 -14 2 -19 5 -12 2 6 2 18 0 25 -3 6 -5 1 -5 -13z"/>
<path d="M5992 1000 c0 -14 2 -19 5 -12 2 6 2 18 0 25 -3 6 -5 1 -5 -13z"/>
<path d="M5571 984 c0 -11 3 -14 6 -6 3 7 2 16 -1 19 -3 4 -6 -2 -5 -13z"/>
<path d="M6001 955 c0 -11 14 -56 32 -100 40 -98 66 -118 145 -108 29 3 52 10
52 15 0 5 -9 7 -19 3 -11 -3 -39 -7 -62 -8 -36 -1 -45 3 -70 32 -15 18 -39 68
-52 110 -14 42 -26 67 -26 56z"/>
<path d="M5024 808 c-3 -4 -23 -12 -45 -18 -23 -6 -38 -14 -35 -17 3 -3 32 2
63 13 32 10 75 18 96 18 20 0 37 4 37 9 0 10 -110 5 -116 -5z"/>
<path d="M4975 760 c-3 -5 -1 -10 4 -10 6 0 11 5 11 10 0 6 -2 10 -4 10 -3 0
-8 -4 -11 -10z"/>
<path d="M787 753 c-11 -10 -8 -61 4 -69 6 -3 16 -1 22 5 9 9 8 11 -5 6 -15
-6 -18 -1 -18 25 0 25 3 31 16 26 8 -3 12 -2 9 4 -7 12 -19 13 -28 3z"/>
<path d="M5258 753 c7 -3 16 -2 19 1 4 3 -2 6 -13 5 -11 0 -14 -3 -6 -6z"/>
<path d="M2340 742 c0 -4 17 -6 38 -4 64 6 69 10 15 11 -29 0 -53 -3 -53 -7z"/>
<path d="M1073 643 c21 -6 22 -26 2 -43 -22 -18 -18 -30 8 -30 17 0 19 2 8 9
-12 8 -12 12 -2 25 17 20 7 46 -16 45 -17 -1 -17 -2 0 -6z"/>
<path d="M1145 631 c-9 -30 4 -63 23 -59 12 2 17 14 17 38 0 40 -29 55 -40 21z
m35 -21 c0 -31 -16 -41 -26 -15 -8 19 2 45 16 45 5 0 10 -13 10 -30z"/>
<path d="M1214 635 c-4 -9 -4 -19 0 -22 3 -4 6 1 6 10 0 19 15 23 23 7 3 -6 4
-5 3 2 -4 19 -25 21 -32 3z"/>
<path d="M1703 643 c21 -6 22 -26 2 -43 -22 -18 -18 -30 8 -30 17 0 19 2 8 9
-12 8 -12 12 -2 25 17 20 7 46 -16 45 -17 -1 -17 -2 0 -6z"/>
<path d="M1793 643 c23 -6 22 -22 -5 -50 l-21 -23 29 1 c18 1 22 3 11 6 -17 4
-18 6 -2 24 20 22 13 49 -12 48 -17 -1 -17 -2 0 -6z"/>
<path d="M1840 630 c0 -11 7 -20 15 -20 21 0 19 -28 -2 -33 -17 -4 -17 -5 0
-6 25 -1 34 29 14 44 -22 16 -21 22 1 28 13 4 11 5 -5 6 -17 1 -23 -5 -23 -19z"/>
<path d="M2343 643 c21 -6 22 -26 2 -43 -22 -18 -18 -30 8 -30 17 0 19 2 8 9
-12 8 -12 12 -2 25 17 20 7 46 -16 45 -17 -1 -17 -2 0 -6z"/>
<path d="M2420 630 c0 -11 7 -20 15 -20 21 0 19 -28 -2 -33 -17 -4 -17 -5 0
-6 26 -2 34 29 11 46 -16 12 -17 15 -4 23 13 8 12 10 -2 10 -11 0 -18 -8 -18
-20z"/>
<path d="M2487 643 c-11 -10 -8 -61 4 -69 6 -3 16 -1 22 5 9 9 8 11 -5 6 -15
-6 -18 -1 -18 25 0 25 3 31 16 26 8 -3 12 -2 9 4 -7 12 -19 13 -28 3z"/>
<path d="M2973 643 c21 -6 22 -26 2 -43 -22 -18 -18 -30 8 -30 17 0 19 2 8 9
-12 8 -12 12 -2 25 17 20 7 46 -16 45 -17 -1 -17 -2 0 -6z"/>
<path d="M3062 643 c14 -3 15 -9 8 -29 -6 -14 -10 -31 -9 -37 0 -11 27 49 28
66 1 4 -9 6 -21 6 -17 -1 -18 -3 -6 -6z"/>
<path d="M3110 630 c0 -11 7 -20 15 -20 21 0 19 -28 -2 -33 -17 -4 -17 -5 0
-6 25 -1 34 29 14 44 -22 16 -21 22 1 28 13 4 11 5 -5 6 -17 1 -23 -5 -23 -19z"/>
<path d="M3613 643 c20 -5 23 -19 5 -25 -7 -3 -6 -7 5 -11 13 -5 17 -1 17 18
0 20 -5 25 -22 24 -17 -1 -19 -2 -5 -6z"/>
<path d="M3685 631 c-9 -30 4 -63 23 -59 12 2 17 14 17 38 0 40 -29 55 -40 21z
m35 -21 c0 -31 -16 -41 -26 -15 -8 19 2 45 16 45 5 0 10 -13 10 -30z"/>
<path d="M3755 641 c-3 -7 0 -8 9 -5 13 5 16 -1 16 -26 0 -26 -3 -31 -17 -25
-15 5 -16 4 -5 -6 17 -18 34 2 30 37 -3 29 -21 43 -33 25z"/>
<path d="M4243 643 c20 -5 23 -19 5 -25 -7 -3 -6 -7 5 -11 13 -5 17 -1 17 18
0 20 -5 25 -22 24 -17 -1 -19 -2 -5 -6z"/>
<path d="M4333 643 c22 -6 22 -15 -4 -47 l-20 -26 28 1 c16 1 21 3 11 6 -16 4
-16 6 -2 28 18 27 11 46 -14 44 -15 -1 -15 -2 1 -6z"/>
<path d="M4380 630 c0 -11 7 -20 15 -20 21 0 19 -28 -2 -33 -17 -4 -17 -5 0
-6 25 -1 34 29 14 44 -22 16 -21 22 1 28 13 4 11 5 -5 6 -17 1 -23 -5 -23 -19z"/>
<path d="M4873 643 c20 -5 23 -19 5 -25 -7 -3 -6 -7 5 -11 13 -5 17 -1 17 18
0 20 -5 25 -22 24 -17 -1 -19 -2 -5 -6z"/>
<path d="M4950 630 c0 -11 7 -20 15 -20 24 0 17 -28 -7 -33 l-23 -4 23 -2 c30
-1 41 28 16 46 -16 12 -17 15 -4 23 13 8 12 10 -2 10 -11 0 -18 -8 -18 -20z"/>
<path d="M5017 644 c-4 -4 -7 -12 -7 -18 0 -6 5 -4 10 4 9 13 11 13 21 0 9
-12 10 -12 7 -1 -5 17 -21 25 -31 15z"/>
<path d="M5513 643 c20 -5 22 -19 5 -26 -10 -4 -10 -6 0 -6 6 -1 12 -7 12 -15
0 -8 -6 -16 -12 -19 -8 -2 -7 -3 2 -3 10 1 16 14 18 39 3 33 1 37 -20 36 -17
-1 -18 -3 -5 -6z"/>
<path d="M5597 643 c19 -4 21 -8 13 -29 -6 -14 -10 -31 -9 -37 0 -11 27 49 28
66 1 4 -11 6 -26 6 -23 -1 -24 -2 -6 -6z"/>
<path d="M5650 630 c0 -11 7 -20 15 -20 21 0 19 -28 -2 -33 -17 -4 -17 -5 0
-6 25 -1 34 29 14 44 -22 16 -21 22 1 28 13 4 11 5 -5 6 -17 1 -23 -5 -23 -19z"/>
<path d="M6137 620 c-18 -29 -18 -30 2 -30 12 0 21 -6 21 -12 0 -10 2 -10 8 0
9 14 3 72 -7 72 -4 0 -15 -13 -24 -30z m19 -17 c-10 -10 -19 5 -10 18 6 11 8
11 12 0 2 -7 1 -15 -2 -18z"/>
<path d="M6215 631 c-9 -30 4 -63 23 -59 12 2 17 14 17 38 0 40 -29 55 -40 21z
m35 -21 c0 -31 -16 -41 -26 -15 -8 19 2 45 16 45 5 0 10 -13 10 -30z"/>
<path d="M6285 641 c-3 -7 0 -8 9 -5 13 5 16 -1 16 -26 0 -26 -3 -31 -17 -25
-15 5 -16 4 -5 -6 17 -18 34 2 30 37 -3 29 -21 43 -33 25z"/>
<path d="M1213 590 c2 -8 10 -15 17 -15 7 0 15 7 17 15 4 13 3 13 -6 0 -10
-13 -12 -13 -22 0 -9 13 -10 13 -6 0z"/>
<path d="M5013 590 c2 -8 10 -15 17 -15 7 0 15 7 17 15 4 13 3 13 -6 0 -10
-13 -12 -13 -22 0 -9 13 -10 13 -6 0z"/>
<path d="M3615 580 c-16 -7 -17 -9 -3 -9 9 -1 20 4 23 9 7 11 7 11 -20 0z"/>
<path d="M4245 580 c-16 -7 -17 -9 -3 -9 9 -1 20 4 23 9 7 11 7 11 -20 0z"/>
<path d="M4875 580 c-16 -7 -17 -9 -3 -9 9 -1 20 4 23 9 7 11 7 11 -20 0z"/>
<path d="M3510 475 c-7 -20 -9 -39 -6 -42 3 -4 6 -1 6 5 0 7 9 12 21 12 16 0
19 4 14 23 -12 39 -23 40 -35 2z m24 0 c3 -8 1 -15 -4 -15 -6 0 -10 7 -10 15
0 8 2 15 4 15 2 0 6 -7 10 -15z"/>
<path d="M3570 472 c0 -39 2 -43 23 -40 28 4 36 45 10 55 -10 4 -21 11 -25 17
-4 6 -8 -8 -8 -32z m40 -12 c0 -11 -7 -20 -15 -20 -8 0 -15 9 -15 20 0 11 7
20 15 20 8 0 15 -9 15 -20z"/>
<path d="M3922 473 l-2 -42 53 1 c28 1 42 3 30 6 -29 4 -30 22 -2 22 12 0 19
5 17 13 -8 22 -43 14 -46 -10 -2 -15 -10 -23 -22 -23 -14 0 -20 9 -23 38 l-4
37 -1 -42z m85 1 c-3 -3 -12 -4 -19 -1 -8 3 -5 6 6 6 11 1 17 -2 13 -5z"/>
<path d="M4163 470 c0 -25 2 -35 4 -22 2 12 2 32 0 45 -2 12 -4 2 -4 -23z"/>
<path d="M3680 485 c0 -9 6 -12 15 -9 8 4 15 7 15 9 0 2 -7 5 -15 9 -9 3 -15
0 -15 -9z"/>
<path d="M3882 468 c2 -17 9 -33 16 -34 7 -1 8 0 2 3 -14 7 -13 40 2 45 7 3 5
7 -6 11 -15 6 -17 2 -14 -25z"/>
<path d="M3231 457 c2 -30 2 -31 6 -4 2 15 9 27 14 27 5 0 9 -12 10 -27 1 -28
1 -28 8 -4 9 33 31 39 31 9 0 -20 5 -24 33 -25 31 -2 32 -2 7 9 l-25 11 23 5
c46 8 15 27 -46 29 l-62 2 1 -32z m116 17 c-3 -3 -12 -4 -19 -1 -8 3 -5 6 6 6
11 1 17 -2 13 -5z"/>
<path d="M3394 482 c19 -8 19 -9 -3 -15 -28 -7 -23 -31 8 -35 19 -3 22 0 19
25 -2 19 -9 29 -23 30 -19 3 -19 3 -1 -5z m16 -32 c0 -5 -7 -10 -16 -10 -8 0
-12 5 -9 10 3 6 10 10 16 10 5 0 9 -4 9 -10z"/>
<path d="M3441 458 c2 -31 2 -31 6 -5 2 15 8 27 13 27 5 0 11 -12 13 -27 4
-26 4 -26 6 5 1 26 -3 32 -19 32 -16 0 -20 -6 -19 -32z"/>
<path d="M3634 479 c-4 -7 1 -16 12 -22 17 -10 17 -11 -1 -18 -16 -6 -17 -8
-3 -8 25 -1 33 20 12 32 -17 10 -17 11 1 18 16 6 17 8 3 8 -9 1 -20 -4 -24
-10z"/>
<path d="M3721 458 c1 -21 3 -26 6 -13 3 11 12 26 21 33 14 11 13 12 -6 12
-18 0 -22 -5 -21 -32z"/>
<path d="M3784 482 c19 -8 19 -9 -3 -15 -28 -7 -23 -31 8 -35 19 -3 22 0 19
25 -2 19 -9 29 -23 30 -19 3 -19 3 -1 -5z m16 -32 c0 -5 -7 -10 -15 -10 -8 0
-15 5 -15 10 0 6 7 10 15 10 8 0 15 -4 15 -10z"/>
<path d="M3826 475 c-8 -21 3 -45 22 -45 13 0 12 3 -4 15 -19 15 -19 15 0 30
16 12 17 15 4 15 -9 0 -18 -7 -22 -15z"/>
<path d="M4036 470 c10 -40 22 -46 34 -15 6 15 9 30 6 32 -2 3 -7 -6 -11 -18
l-7 -22 -15 24 -14 24 7 -25z"/>
<path d="M4094 476 c-10 -25 3 -46 28 -45 l23 2 -22 4 c-29 6 -30 23 -2 23 12
0 19 5 17 13 -7 18 -37 21 -44 3z m33 -2 c-3 -3 -12 -4 -19 -1 -8 3 -5 6 6 6
11 1 17 -2 13 -5z"/>
<path d="M3686 445 c4 -8 11 -15 16 -15 6 0 5 6 -2 15 -7 8 -14 15 -16 15 -2
0 -1 -7 2 -15z"/>
</g>
</svg>
