<?xml version="1.0" standalone="no"?>
<!DOCTYPE svg PUBLIC "-//W3C//DTD SVG 20010904//EN"
 "http://www.w3.org/TR/2001/REC-SVG-20010904/DTD/svg10.dtd">
<svg version="1.0" xmlns="http://www.w3.org/2000/svg"
 width="601.000000pt" height="496.000000pt" viewBox="0 0 601.000000 496.000000"
 preserveAspectRatio="xMidYMid meet">
<metadata>
Created by potrace 1.16, written by Peter Selinger 2001-2019
</metadata>
<g transform="translate(0.000000,496.000000) scale(0.100000,-0.100000)"
fill="#000000" stroke="none">
<path d="M2762 4873 c-4 -10 -5 -34 -1 -53 l6 -35 2 32 c0 17 7 34 14 36 9 4
8 6 -2 6 -11 1 -11 4 -1 16 8 10 9 15 2 15 -6 0 -15 -8 -20 -17z"/>
<path d="M3110 4870 c0 -12 -5 -17 -13 -14 -8 3 -20 -2 -27 -11 -18 -21 -2
-50 29 -51 19 -1 21 4 21 47 0 27 -2 49 -5 49 -3 0 -5 -9 -5 -20z m-3 -36 c8
-22 -15 -44 -26 -25 -10 16 -4 41 10 41 5 0 12 -7 16 -16z"/>
<path d="M3223 4840 c0 -30 2 -43 4 -27 2 15 2 39 0 55 -2 15 -4 2 -4 -28z"/>
<path d="M3620 4876 c0 -7 -9 -16 -21 -19 -16 -4 -20 -12 -17 -34 2 -22 9 -29
31 -31 26 -3 27 -2 27 47 0 28 -4 51 -10 51 -5 0 -10 -6 -10 -14z m0 -51 c0
-16 -6 -25 -15 -25 -9 0 -15 9 -15 25 0 16 6 25 15 25 9 0 15 -9 15 -25z"/>
<path d="M4350 4871 c0 -14 -5 -18 -19 -14 -13 3 -21 -2 -25 -15 -10 -30 3
-52 30 -50 22 2 24 7 24 50 0 26 -2 48 -5 48 -3 0 -5 -9 -5 -19z m-3 -37 c8
-21 -13 -42 -28 -27 -13 13 -5 43 11 43 6 0 13 -7 17 -16z"/>
<path d="M1822 4858 c2 -15 9 -22 21 -22 20 2 22 -7 5 -24 -6 -6 -10 -14 -7
-16 3 -3 17 16 32 42 16 27 20 38 8 25 -18 -22 -19 -22 -24 -3 -7 29 -39 26
-35 -2z m23 3 c3 -5 1 -12 -5 -16 -5 -3 -10 1 -10 9 0 18 6 21 15 7z"/>
<path d="M1970 4836 c0 -25 5 -46 10 -46 6 0 10 8 10 19 0 11 9 21 21 24 31 8
21 41 -14 45 -26 3 -27 2 -27 -42z m42 19 c0 -5 -5 -11 -11 -13 -6 -2 -11 4
-11 13 0 9 5 15 11 13 6 -2 11 -8 11 -13z"/>
<path d="M2378 4869 c-2 -6 -2 -26 0 -45 3 -24 9 -34 21 -33 10 0 11 2 4 6
-15 5 -18 50 -4 55 5 2 3 8 -4 15 -9 9 -15 9 -17 2z"/>
<path d="M2849 4835 c9 -25 19 -45 22 -45 9 0 41 81 35 88 -6 5 -26 -42 -26
-59 0 -21 -19 3 -25 31 -4 17 -10 30 -15 30 -4 0 0 -20 9 -45z"/>
<path d="M3510 4835 c0 -43 1 -45 28 -44 23 2 24 2 5 6 -13 2 -23 11 -23 18 0
7 10 16 23 18 l22 4 -22 2 c-13 0 -23 7 -23 15 0 8 10 17 23 19 19 4 18 4 -5
6 -27 1 -28 -1 -28 -44z"/>
<path d="M3688 4867 c-7 -21 6 -70 20 -73 7 -1 8 0 2 3 -12 6 -13 50 -1 55 5
2 3 8 -4 15 -10 9 -14 9 -17 0z"/>
<path d="M2044 4846 c-11 -28 1 -51 26 -53 22 -1 22 -1 3 4 -31 6 -29 23 2 23
27 0 32 9 13 28 -16 16 -37 15 -44 -2z m41 -6 c3 -5 -3 -10 -14 -10 -12 0 -21
5 -21 10 0 6 6 10 14 10 8 0 18 -4 21 -10z"/>
<path d="M2110 4825 c0 -19 5 -35 10 -35 6 0 10 13 10 29 0 16 6 32 13 34 6 3
2 6 -10 6 -20 1 -23 -4 -23 -34z"/>
<path d="M2164 4846 c-11 -28 1 -51 26 -53 25 -3 25 -3 3 7 -13 5 -23 16 -23
25 0 9 10 20 23 25 l22 9 -23 0 c-12 1 -25 -5 -28 -13z"/>
<path d="M2230 4845 c-18 -22 -1 -49 31 -52 19 -1 20 -1 4 4 -34 9 -41 23 -11
23 21 0 27 4 24 17 -4 24 -32 28 -48 8z m40 -5 c0 -5 -7 -10 -15 -10 -8 0 -15
5 -15 10 0 6 7 10 15 10 8 0 15 -4 15 -10z"/>
<path d="M2301 4820 c1 -34 1 -34 8 -6 11 51 37 45 32 -6 -1 -10 3 -18 8 -18
13 0 14 39 3 57 -4 7 -18 11 -30 10 -18 -1 -22 -7 -21 -37z"/>
<path d="M2450 4848 l25 -11 -25 -6 c-34 -9 -32 -35 3 -39 21 -3 27 1 27 17 0
34 -11 51 -34 50 -19 0 -19 -1 4 -11z m15 -38 c-3 -5 -13 -10 -21 -10 -8 0
-12 5 -9 10 3 6 13 10 21 10 8 0 12 -4 9 -10z"/>
<path d="M2507 4853 c-15 -15 -7 -55 13 -60 25 -7 26 -20 3 -26 -14 -3 -13 -4
2 -3 17 1 21 9 23 49 3 40 1 47 -16 47 -10 0 -22 -3 -25 -7z m33 -28 c0 -16
-6 -25 -15 -25 -9 0 -15 9 -15 25 0 16 6 25 15 25 9 0 15 -9 15 -25z"/>
<path d="M2580 4845 c-18 -22 -1 -49 31 -52 19 -1 20 -1 4 4 -34 9 -41 23 -11
23 21 0 27 4 24 17 -4 24 -32 28 -48 8z m40 -5 c0 -5 -9 -10 -21 -10 -11 0
-17 5 -14 10 3 6 13 10 21 10 8 0 14 -4 14 -10z"/>
<path d="M2691 4842 c-7 -14 -7 -24 3 -37 19 -27 48 -12 44 22 -4 33 -32 42
-47 15z m39 -17 c0 -16 -6 -25 -15 -25 -9 0 -15 9 -15 25 0 16 6 25 15 25 9 0
15 -9 15 -25z"/>
<path d="M2940 4849 l25 -12 -25 -6 c-35 -9 -32 -36 3 -37 26 -1 28 2 25 30
-2 25 -8 31 -28 33 l-25 3 25 -11z m15 -39 c-3 -5 -10 -10 -16 -10 -5 0 -9 5
-9 10 0 6 7 10 16 10 8 0 12 -4 9 -10z"/>
<path d="M2991 4820 c1 -27 3 -29 6 -10 6 35 22 48 33 30 6 -8 8 -20 5 -27 -2
-7 0 -15 5 -18 12 -7 13 35 2 52 -4 7 -18 11 -30 10 -19 -1 -22 -7 -21 -37z"/>
<path d="M3163 4853 c23 -6 22 -19 -4 -26 -29 -8 -19 -31 14 -35 21 -3 27 1
27 17 0 34 -11 51 -34 50 -16 -1 -17 -2 -3 -6z m17 -43 c0 -5 -7 -10 -15 -10
-8 0 -15 5 -15 10 0 6 7 10 15 10 8 0 15 -4 15 -10z"/>
<path d="M3253 4825 c0 -22 2 -30 4 -17 2 12 2 30 0 40 -3 9 -5 -1 -4 -23z"/>
<path d="M3285 4850 c-8 -14 3 -30 21 -30 23 0 16 -20 -8 -21 -19 -1 -20 -2
-4 -6 10 -3 23 0 30 7 8 8 5 16 -13 30 l-25 18 25 5 c22 4 22 4 2 6 -12 0 -25
-3 -28 -9z"/>
<path d="M3351 4821 c1 -35 2 -35 8 -7 9 43 31 45 32 4 l1 -33 7 29 c9 41 31
46 31 7 0 -17 5 -31 10 -31 12 0 13 40 2 56 -4 7 -26 11 -49 11 -43 -1 -43 -1
-42 -36z"/>
<path d="M3663 4825 c0 -22 2 -30 4 -17 2 12 2 30 0 40 -3 9 -5 -1 -4 -23z"/>
<path d="M3740 4840 c0 -11 7 -20 15 -20 21 0 19 -18 -2 -23 -14 -4 -12 -5 5
-6 16 -1 22 5 22 19 0 11 -7 20 -15 20 -21 0 -19 18 3 23 13 4 11 5 -5 6 -17
1 -23 -5 -23 -19z"/>
<path d="M3841 4805 c1 -27 4 -40 6 -29 3 15 10 20 22 17 24 -6 35 11 27 42
-5 19 -12 24 -31 23 -23 -2 -25 -6 -24 -53z m46 29 c8 -21 -13 -42 -28 -27
-13 13 -5 43 11 43 6 0 13 -7 17 -16z"/>
<path d="M3920 4845 c-18 -22 -1 -49 31 -52 19 -1 20 -1 4 4 -34 9 -41 23 -11
23 21 0 27 4 24 17 -4 24 -32 28 -48 8z m40 -5 c0 -5 -7 -10 -15 -10 -8 0 -15
5 -15 10 0 6 7 10 15 10 8 0 15 -4 15 -10z"/>
<path d="M3991 4820 c1 -27 3 -29 6 -10 2 14 11 30 20 37 13 10 13 12 -6 10
-17 -1 -21 -7 -20 -37z"/>
<path d="M4087 4853 c-15 -15 -7 -55 13 -60 25 -7 26 -20 3 -26 -14 -3 -13 -4
2 -3 17 1 21 9 23 49 3 40 1 47 -16 47 -10 0 -22 -3 -25 -7z m33 -28 c0 -16
-6 -25 -15 -25 -9 0 -15 9 -15 25 0 16 6 25 15 25 9 0 15 -9 15 -25z"/>
<path d="M4160 4845 c-18 -22 -1 -49 31 -52 19 -1 20 -1 4 4 -34 9 -41 23 -11
23 21 0 27 4 24 17 -4 24 -32 28 -48 8z m40 -5 c0 -5 -9 -10 -21 -10 -11 0
-17 5 -14 10 3 6 13 10 21 10 8 0 14 -4 14 -10z"/>
<path d="M4231 4820 c1 -34 1 -34 8 -6 9 41 31 46 31 7 0 -17 5 -31 10 -31 11
0 12 15 4 47 -5 16 -13 22 -30 21 -21 -2 -24 -7 -23 -38z"/>
<path d="M4384 4846 c-11 -28 1 -51 26 -53 l25 -3 -25 12 -25 12 28 4 c21 2
27 8 23 19 -3 8 -6 17 -6 19 0 11 -41 2 -46 -10z m41 -6 c3 -5 -3 -10 -15 -10
-12 0 -18 5 -15 10 3 6 10 10 15 10 5 0 12 -4 15 -10z"/>
<path d="M4462 4823 c1 -37 1 -37 5 -6 3 19 11 34 21 36 12 3 10 5 -5 6 -20 1
-23 -3 -21 -36z"/>
<path d="M1887 4834 c-15 -15 -7 -45 11 -42 9 2 17 12 17 22 0 20 -16 31 -28
20z m23 -13 c0 -6 -4 -13 -10 -16 -5 -3 -10 1 -10 9 0 9 5 16 10 16 6 0 10 -4
10 -9z"/>
<path d="M362 4603 c-1 -94 -6 -133 -14 -136 -10 -4 -10 -6 0 -6 18 -1 18
-497 0 -504 -10 -4 -10 -6 0 -6 9 -1 12 -58 12 -250 0 -190 -3 -251 -12 -254
-10 -4 -10 -6 0 -6 18 -1 18 -497 0 -504 -10 -4 -10 -6 0 -6 18 -1 18 -497 0
-504 -10 -4 -10 -6 0 -6 18 -1 18 -497 0 -504 -10 -4 -10 -6 0 -6 18 -1 18
-507 -1 -514 -9 -4 -9 -6 1 -6 9 -1 12 -58 12 -250 0 -190 -3 -251 -12 -254
-10 -4 -10 -6 0 -6 18 -1 18 -497 -1 -504 -6 -3 308 -6 700 -6 669 -1 712 -2
716 -18 4 -17 5 -17 6 0 1 16 74 17 1390 17 1315 0 1390 -1 1394 -17 4 -17 5
-17 6 0 1 16 42 17 699 19 383 2 538 4 345 5 l-353 3 0 2070 0 2070 -700 0
-700 0 0 -2070 0 -2070 -695 0 -695 0 0 1360 0 1360 -700 0 -700 0 0 -1360 0
-1360 -345 0 -345 0 -3 2178 c-1 1197 -3 2118 -5 2045z"/>
<path d="M5340 4595 l0 -35 100 0 100 0 0 35 0 35 -100 0 -100 0 0 -35z"/>
<path d="M5732 4598 c2 -17 9 -33 16 -34 7 -1 8 0 2 3 -14 7 -13 40 2 45 7 3
5 7 -6 11 -15 6 -17 2 -14 -25z"/>
<path d="M5641 4588 c2 -31 2 -31 6 -5 4 22 9 27 31 27 23 -1 25 -2 10 -11
-24 -14 -23 -39 2 -39 16 0 20 7 20 30 0 28 -3 30 -35 30 -33 0 -35 -2 -34
-32z m59 -8 c0 -5 -4 -10 -10 -10 -5 0 -10 5 -10 10 0 6 5 10 10 10 6 0 10 -4
10 -10z"/>
<path d="M5772 4590 c0 -19 2 -27 5 -17 2 9 2 25 0 35 -3 9 -5 1 -5 -18z"/>
<path d="M5805 4611 c-3 -7 0 -8 9 -5 11 4 16 0 16 -15 0 -22 -15 -29 -23 -11
-3 6 -4 5 -3 -2 5 -24 31 -14 31 11 0 26 -19 39 -30 22z"/>
<path d="M97 4503 c-11 -10 -8 -61 4 -69 6 -3 16 -1 22 5 9 9 8 11 -5 6 -15
-6 -18 -1 -18 25 0 25 3 31 16 26 8 -3 12 -2 9 4 -7 12 -19 13 -28 3z"/>
<path d="M187 4490 c-21 -30 -22 -40 -3 -40 8 0 16 -5 18 -12 8 -22 14 16 8
47 l-5 30 -18 -25z m13 -15 c0 -8 -4 -15 -10 -15 -5 0 -7 7 -4 15 4 8 8 15 10
15 2 0 4 -7 4 -15z"/>
<path d="M245 4501 c-3 -7 0 -8 9 -5 13 5 16 -1 16 -26 0 -26 -3 -31 -17 -25
-15 5 -16 4 -5 -6 17 -18 34 2 30 37 -3 29 -21 43 -33 25z"/>
<path d="M97 3993 c-11 -10 -8 -61 4 -69 6 -3 16 -1 22 5 9 9 8 11 -5 6 -15
-6 -18 -1 -18 25 0 25 3 31 16 26 8 -3 12 -2 9 4 -7 12 -19 13 -28 3z"/>
<path d="M193 3994 c20 -6 22 -20 5 -27 -10 -4 -10 -6 0 -6 20 -2 14 -29 -8
-34 -17 -4 -16 -4 2 -3 19 1 23 7 23 36 0 27 -4 35 -20 37 -16 1 -16 1 -2 -3z"/>
<path d="M240 3980 c0 -11 7 -20 15 -20 21 0 19 -28 -2 -33 -17 -4 -17 -5 0
-6 25 -1 34 29 14 44 -22 16 -21 22 1 28 13 4 11 5 -5 6 -17 1 -23 -5 -23 -19z"/>
<path d="M97 3483 c-11 -10 -8 -61 4 -69 6 -3 16 -1 22 5 9 9 8 11 -5 6 -15
-6 -18 -1 -18 25 0 25 3 31 16 26 8 -3 12 -2 9 4 -7 12 -19 13 -28 3z"/>
<path d="M193 3484 c20 -6 22 -20 5 -27 -10 -4 -10 -6 0 -6 20 -2 14 -29 -8
-34 -17 -4 -16 -4 2 -3 19 1 23 7 23 36 0 27 -4 35 -20 37 -16 1 -16 1 -2 -3z"/>
<path d="M245 3481 c-3 -7 0 -8 9 -5 13 5 16 -1 16 -26 0 -26 -3 -31 -17 -25
-15 5 -16 4 -5 -6 17 -18 34 2 30 37 -3 29 -21 43 -33 25z"/>
<path d="M97 2973 c-11 -10 -8 -61 4 -69 6 -3 16 -1 22 5 9 9 8 11 -5 6 -15
-6 -18 -1 -18 25 0 25 3 31 16 26 8 -3 12 -2 9 4 -7 12 -19 13 -28 3z"/>
<path d="M193 2973 c22 -6 22 -15 -4 -47 l-20 -26 28 1 c16 1 21 3 11 6 -16 4
-16 6 -2 28 18 27 11 46 -14 44 -15 -1 -15 -2 1 -6z"/>
<path d="M240 2960 c0 -11 7 -20 15 -20 21 0 19 -28 -2 -33 -17 -4 -17 -5 0
-6 25 -1 34 29 14 44 -22 16 -21 22 1 28 13 4 11 5 -5 6 -17 1 -23 -5 -23 -19z"/>
<path d="M97 2453 c-11 -10 -8 -61 4 -69 6 -3 16 -1 22 5 9 9 8 11 -5 6 -15
-6 -18 -1 -18 25 0 25 3 31 16 26 8 -3 12 -2 9 4 -7 12 -19 13 -28 3z"/>
<path d="M193 2453 c22 -6 22 -15 -4 -47 l-20 -26 28 1 c16 1 21 3 11 6 -16 4
-16 6 -2 28 18 27 11 46 -14 44 -15 -1 -15 -2 1 -6z"/>
<path d="M245 2450 c-4 -6 -4 -14 -1 -17 3 -4 6 -1 6 5 0 17 18 15 23 -3 4
-12 5 -11 3 1 -1 21 -21 29 -31 14z"/>
<path d="M243 2400 c2 -8 10 -15 17 -15 7 0 15 7 17 15 4 13 3 13 -6 0 -10
-13 -12 -13 -22 0 -9 13 -10 13 -6 0z"/>
<path d="M97 1943 c-11 -10 -8 -61 4 -69 6 -3 16 -1 22 5 9 9 8 11 -5 6 -15
-6 -18 -1 -18 25 0 25 3 31 16 26 8 -3 12 -2 9 4 -7 12 -19 13 -28 3z"/>
<path d="M185 1910 c0 -34 3 -40 20 -39 11 0 14 3 8 6 -7 2 -13 20 -13 39 0
19 -3 34 -7 34 -5 0 -8 -18 -8 -40z"/>
<path d="M240 1930 c0 -11 7 -20 15 -20 21 0 19 -28 -2 -33 -17 -4 -17 -5 0
-6 25 -1 34 29 14 44 -22 16 -21 22 1 28 13 4 11 5 -5 6 -17 1 -23 -5 -23 -19z"/>
<path d="M97 1433 c-11 -10 -8 -61 4 -69 6 -3 16 -1 22 5 9 9 8 11 -5 6 -15
-6 -18 -1 -18 25 0 25 3 31 16 26 8 -3 12 -2 9 4 -7 12 -19 13 -28 3z"/>
<path d="M185 1400 c0 -34 3 -40 20 -39 11 0 14 3 8 6 -7 2 -13 20 -13 39 0
19 -3 34 -7 34 -5 0 -8 -18 -8 -40z"/>
<path d="M247 1434 c-4 -4 -7 -12 -7 -18 0 -6 5 -4 10 4 9 13 11 13 21 0 9
-12 10 -12 7 -1 -5 17 -21 25 -31 15z"/>
<path d="M243 1380 c2 -8 10 -15 17 -15 7 0 15 7 17 15 4 13 3 13 -6 0 -10
-13 -12 -13 -22 0 -9 13 -10 13 -6 0z"/>
<path d="M97 923 c-11 -10 -8 -61 4 -69 6 -3 16 -1 22 5 9 9 8 11 -5 6 -15 -6
-18 -1 -18 25 0 25 3 31 16 26 8 -3 12 -2 9 4 -7 12 -19 13 -28 3z"/>
<path d="M175 911 c-9 -30 4 -63 23 -59 12 2 17 14 17 38 0 40 -29 55 -40 21z
m35 -21 c0 -31 -16 -41 -26 -15 -8 19 2 45 16 45 5 0 10 -13 10 -30z"/>
<path d="M240 910 c0 -11 7 -20 15 -20 21 0 19 -28 -2 -33 -17 -4 -17 -5 0 -6
25 -1 34 29 14 44 -22 16 -21 22 1 28 13 4 11 5 -5 6 -17 1 -23 -5 -23 -19z"/>
<path d="M97 413 c-11 -10 -8 -61 4 -69 6 -3 16 -1 22 5 9 9 8 11 -5 6 -15 -6
-18 -1 -18 25 0 25 3 31 16 26 8 -3 12 -2 9 4 -7 12 -19 13 -28 3z"/>
<path d="M175 401 c-9 -30 4 -63 23 -59 12 2 17 14 17 38 0 40 -29 55 -40 21z
m35 -21 c0 -16 -5 -30 -10 -30 -14 0 -24 26 -16 45 10 26 26 16 26 -15z"/>
<path d="M245 411 c-3 -7 0 -8 9 -5 13 5 16 -1 16 -26 0 -26 -3 -31 -17 -25
-15 5 -16 4 -5 -6 17 -18 34 2 30 37 -3 29 -21 43 -33 25z"/>
<path d="M4543 298 c-5 -7 -6 -26 -2 -43 l7 -30 1 28 c0 15 1 30 0 33 0 4 5
11 13 15 8 5 9 9 2 9 -6 0 -16 -6 -21 -12z"/>
<path d="M1731 258 c2 -31 2 -31 6 -5 2 15 9 27 14 27 5 0 9 -12 10 -27 1 -28
1 -28 8 -4 9 34 29 37 34 6 4 -24 4 -24 3 2 -1 25 -5 28 -38 31 -37 2 -38 1
-37 -30z"/>
<path d="M3200 160 c0 -5 -6 -10 -14 -10 -8 0 -16 -7 -20 -15 -8 -23 4 -45 25
-45 15 0 19 7 19 40 0 22 -2 40 -5 40 -3 0 -5 -4 -5 -10z m0 -40 c0 -11 -4
-20 -9 -20 -14 0 -23 18 -16 30 10 17 25 11 25 -10z"/>
<path d="M2995 140 c-3 -6 1 -7 9 -4 12 4 16 0 16 -16 0 -17 -4 -21 -17 -16
-16 5 -16 5 0 -8 18 -14 18 -14 0 -20 -15 -4 -15 -5 2 -3 15 2 21 11 23 40 2
28 -1 37 -12 37 -8 0 -18 -4 -21 -10z"/>
<path d="M3044 136 c-10 -25 3 -46 28 -45 l23 2 -22 4 c-29 6 -30 23 -2 23 12
0 19 5 17 13 -7 18 -37 21 -44 3z m33 -2 c-3 -3 -12 -4 -19 -1 -8 3 -5 6 6 6
11 1 17 -2 13 -5z"/>
<path d="M3101 118 c1 -29 2 -30 8 -9 9 34 29 37 34 6 4 -24 4 -24 3 2 -1 21
-7 29 -23 31 -20 3 -23 -1 -22 -30z"/>
<path d="M3234 136 c-9 -23 3 -46 23 -45 17 1 17 2 1 6 -25 6 -22 23 3 23 12
0 19 5 17 13 -7 18 -37 21 -44 3z m33 -2 c-3 -3 -12 -4 -19 -1 -8 3 -5 6 6 6
11 1 17 -2 13 -5z"/>
<path d="M3291 118 c1 -22 3 -26 6 -13 3 11 10 26 15 33 8 9 6 12 -6 12 -12 0
-16 -9 -15 -32z"/>
</g>
</svg>
