<?xml version="1.0" standalone="no"?>
<!DOCTYPE svg PUBLIC "-//W3C//DTD SVG 20010904//EN"
 "http://www.w3.org/TR/2001/REC-SVG-20010904/DTD/svg10.dtd">
<svg version="1.0" xmlns="http://www.w3.org/2000/svg"
 width="591.000000pt" height="411.000000pt" viewBox="0 0 591.000000 411.000000"
 preserveAspectRatio="xMidYMid meet">
<metadata>
Created by potrace 1.16, written by Peter Selinger 2001-2019
</metadata>
<g transform="translate(0.000000,411.000000) scale(0.100000,-0.100000)"
fill="#000000" stroke="none">
<path d="M502 4094 c-55 -38 -68 -127 -28 -187 26 -37 24 -47 -6 -47 -10 0
-34 -15 -54 -33 -44 -40 -64 -113 -64 -239 l0 -88 100 0 100 0 0 -311 c0 -272
-2 -310 -15 -305 -19 7 -19 -7 0 -44 l16 -30 -276 0 -275 0 0 -705 0 -705 275
0 276 0 -16 -30 c-19 -37 -19 -51 0 -44 13 5 15 -38 15 -353 l0 -359 -30 -11
c-67 -25 -91 -129 -46 -196 26 -37 24 -47 -6 -47 -10 0 -34 -15 -54 -33 -44
-40 -64 -113 -64 -239 l0 -88 205 0 205 0 0 88 c0 126 -20 199 -64 239 -20 18
-44 33 -54 33 -30 0 -32 10 -6 47 45 67 21 171 -46 196 l-30 11 0 359 c0 315
2 358 15 353 19 -7 19 7 0 44 l-16 30 276 0 275 0 0 705 0 705 -275 0 -276 0
16 30 c19 37 19 51 0 44 -13 -5 -15 33 -15 305 l0 311 100 0 100 0 0 88 c0
126 -20 199 -64 239 -20 18 -44 33 -54 33 -30 0 -32 10 -6 47 56 82 8 203 -81
203 -17 0 -41 -7 -53 -16z m113 -18 c30 -30 41 -87 26 -137 -14 -45 -43 -69
-86 -69 -43 0 -72 24 -86 69 -25 83 17 161 86 161 25 0 43 -8 60 -24z m43
-236 c62 -28 84 -82 90 -222 l5 -108 -198 0 -198 0 5 108 c8 185 53 242 193
242 38 0 76 -8 103 -20z m442 -1150 l0 -110 -545 0 -545 0 0 110 0 110 545 0
545 0 0 -110z m0 -700 l0 -580 -545 0 -545 0 0 580 0 580 545 0 545 0 0 -580z
m-485 -1414 c46 -46 42 -156 -8 -191 -28 -19 -76 -19 -104 0 -50 35 -54 145
-8 191 33 33 87 33 120 0z m43 -236 c62 -28 84 -82 90 -222 l5 -108 -198 0
-198 0 5 107 c6 141 28 195 90 223 57 26 149 26 206 0z"/>
<path d="M481 3745 c-1 -40 11 -57 40 -53 20 2 24 9 26 43 l1 40 -6 -35 c-5
-26 -12 -35 -27 -35 -15 0 -22 9 -26 35 -6 34 -6 34 -8 5z"/>
<path d="M579 3753 c-8 -10 -9 -14 -2 -10 8 5 13 -3 16 -25 3 -29 4 -28 5 10
2 47 0 49 -19 25z"/>
<path d="M590 2680 c0 -22 5 -40 10 -40 6 0 10 12 10 26 0 14 4 23 10 19 6 -3
10 -15 10 -26 0 -10 5 -19 10 -19 6 0 10 6 10 14 0 25 -12 46 -26 46 -8 0 -14
5 -14 10 0 6 -4 10 -10 10 -5 0 -10 -18 -10 -40z"/>
<path d="M738 2709 c-6 -18 3 -69 12 -69 5 0 7 16 6 35 -3 38 -11 54 -18 34z"/>
<path d="M814 2706 c-11 -28 0 -61 21 -61 16 0 20 7 20 35 0 25 -5 36 -18 38
-9 2 -20 -3 -23 -12z m23 -43 c-4 -17 -4 -17 -12 0 -4 9 -4 25 0 35 8 16 8 16
12 0 3 -10 3 -26 0 -35z"/>
<path d="M245 2690 c-4 -6 1 -18 11 -26 18 -13 18 -14 -1 -8 -16 6 -18 4 -8
-6 18 -19 44 -5 39 22 -3 25 -30 36 -41 18z"/>
<path d="M310 2670 c0 -16 5 -30 10 -30 6 0 10 11 10 25 0 14 5 25 10 25 6 0
10 -11 10 -25 0 -14 5 -25 10 -25 6 0 10 6 10 14 0 30 -13 46 -36 46 -20 0
-24 -5 -24 -30z"/>
<path d="M384 2688 c-5 -7 -2 -9 7 -6 10 4 15 -1 16 -16 0 -11 -1 -15 -4 -8
-7 17 -23 15 -23 -3 0 -9 9 -15 25 -15 21 0 25 5 25 30 0 23 -5 30 -19 30 -11
0 -23 -5 -27 -12z"/>
<path d="M450 2658 c0 -24 4 -38 8 -32 4 7 16 13 27 15 14 3 20 12 20 29 0 20
-6 26 -27 28 -27 3 -28 1 -28 -40z m40 12 c0 -11 -4 -20 -9 -20 -11 0 -22 26
-14 34 12 12 23 5 23 -14z"/>
<path d="M525 2690 c-4 -6 1 -18 11 -26 18 -13 18 -14 -1 -8 -16 6 -18 4 -8
-6 18 -19 44 -5 39 22 -3 25 -30 36 -41 18z"/>
<path d="M664 2686 c-10 -26 4 -48 28 -44 17 2 23 10 23 28 0 18 -6 26 -23 28
-13 2 -25 -3 -28 -12z m36 -16 c0 -11 -4 -20 -10 -20 -5 0 -10 9 -10 20 0 11
5 20 10 20 6 0 10 -9 10 -20z"/>
<path d="M481 245 c-1 -40 11 -57 40 -53 20 2 24 9 26 43 l1 40 -6 -35 c-5
-26 -12 -35 -27 -35 -15 0 -22 9 -26 35 -6 34 -6 34 -8 5z"/>
<path d="M574 256 c-11 -28 0 -61 21 -61 16 0 20 7 20 35 0 25 -5 36 -18 38
-9 2 -20 -3 -23 -12z m31 -26 c0 -13 -6 -25 -12 -27 -9 -3 -13 6 -13 27 0 21
4 30 13 28 6 -3 12 -15 12 -28z"/>
<path d="M1952 4094 c-55 -38 -68 -127 -28 -187 26 -37 24 -47 -6 -47 -10 0
-34 -15 -54 -33 -44 -40 -64 -113 -64 -239 l0 -88 100 0 100 0 0 -311 c0 -272
-2 -310 -15 -305 -19 7 -19 -7 0 -44 l16 -30 -251 0 -250 0 0 -705 0 -705 275
0 276 0 -16 -30 c-19 -37 -19 -51 0 -44 12 5 15 -5 15 -55 l0 -61 -395 0 -395
0 0 1000 0 1000 -127 -2 -128 -2 123 -3 122 -4 0 -999 0 -1000 405 0 405 0 0
66 c0 55 3 65 15 60 19 -7 19 7 0 44 l-16 30 276 0 275 0 0 705 0 705 -300 0
-301 0 16 30 c19 37 19 51 0 44 -13 -5 -15 33 -15 305 l0 311 100 0 100 0 0
88 c0 126 -20 199 -64 239 -20 18 -44 33 -54 33 -30 0 -32 10 -6 47 56 82 8
203 -81 203 -17 0 -41 -7 -53 -16z m113 -18 c30 -30 41 -87 26 -137 -14 -45
-43 -69 -86 -69 -43 0 -72 24 -86 69 -25 83 17 161 86 161 25 0 43 -8 60 -24z
m43 -236 c62 -28 84 -82 90 -222 l5 -108 -198 0 -198 0 5 108 c8 185 53 242
193 242 38 0 76 -8 103 -20z m492 -1150 l0 -110 -545 0 -545 0 0 110 0 110
545 0 545 0 0 -110z m0 -700 l0 -580 -545 0 -545 0 0 580 0 580 545 0 545 0 0
-580z"/>
<path d="M1931 3745 c-1 -40 11 -57 40 -53 20 2 24 9 26 43 l1 40 -6 -35 c-5
-26 -12 -35 -27 -35 -15 0 -22 9 -26 35 -6 34 -6 34 -8 5z"/>
<path d="M2026 3761 c-4 -5 3 -7 14 -4 27 7 25 -6 -7 -39 l-27 -28 35 1 c23 1
27 3 11 6 l-22 4 21 18 c14 11 20 24 16 34 -7 18 -32 23 -41 8z"/>
<path d="M2090 2680 c0 -22 5 -40 10 -40 6 0 10 12 10 26 0 14 4 23 10 19 6
-3 10 -15 10 -26 0 -10 5 -19 10 -19 6 0 10 6 10 14 0 25 -12 46 -26 46 -8 0
-14 5 -14 10 0 6 -4 10 -10 10 -5 0 -10 -18 -10 -40z"/>
<path d="M2238 2709 c-6 -18 3 -69 12 -69 5 0 7 16 6 35 -3 38 -11 54 -18 34z"/>
<path d="M2320 2705 c-9 -10 -9 -15 -1 -15 6 0 11 -11 11 -25 0 -14 5 -25 10
-25 6 0 10 18 10 40 0 42 -9 50 -30 25z"/>
<path d="M1745 2690 c-4 -6 1 -18 11 -26 18 -13 18 -14 -1 -8 -16 6 -18 4 -8
-6 18 -19 44 -5 39 22 -3 25 -30 36 -41 18z"/>
<path d="M1810 2670 c0 -16 5 -30 10 -30 6 0 10 11 10 25 0 14 5 25 10 25 6 0
10 -11 10 -25 0 -14 5 -25 10 -25 6 0 10 6 10 14 0 30 -13 46 -36 46 -20 0
-24 -5 -24 -30z"/>
<path d="M1884 2688 c-5 -7 -2 -9 7 -6 10 4 15 -1 16 -16 0 -11 -1 -15 -4 -8
-7 17 -23 15 -23 -3 0 -9 9 -15 25 -15 21 0 25 5 25 30 0 23 -5 30 -19 30 -11
0 -23 -5 -27 -12z"/>
<path d="M1950 2658 c0 -24 4 -38 8 -32 4 7 16 13 27 15 14 3 20 12 20 29 0
20 -6 26 -27 28 -27 3 -28 1 -28 -40z m40 12 c0 -11 -4 -20 -9 -20 -11 0 -22
26 -14 34 12 12 23 5 23 -14z"/>
<path d="M2025 2690 c-4 -6 1 -18 11 -26 18 -13 18 -14 -1 -8 -16 6 -18 4 -8
-6 18 -19 44 -5 39 22 -3 25 -30 36 -41 18z"/>
<path d="M2164 2686 c-10 -26 4 -48 28 -44 17 2 23 10 23 28 0 18 -6 26 -23
28 -13 2 -25 -3 -28 -12z m36 -16 c0 -11 -4 -20 -10 -20 -5 0 -10 9 -10 20 0
11 5 20 10 20 6 0 10 -9 10 -20z"/>
<path d="M3402 4094 c-55 -38 -68 -127 -28 -187 26 -37 24 -47 -6 -47 -10 0
-34 -15 -54 -33 -44 -40 -64 -113 -64 -239 l0 -88 100 0 100 0 0 -311 c0 -272
-2 -310 -15 -305 -19 7 -19 -7 0 -44 l16 -30 -251 0 -250 0 0 -705 0 -705 275
0 276 0 -16 -30 c-19 -37 -19 -51 0 -44 12 5 15 -5 15 -55 l0 -61 -395 0 -395
0 0 1000 0 1000 -127 -2 -128 -2 123 -3 122 -4 0 -999 0 -1000 405 0 405 0 0
66 c0 55 3 65 15 60 19 -7 19 7 0 44 l-16 30 276 0 275 0 0 705 0 705 -300 0
-301 0 16 30 c19 37 19 51 0 44 -13 -5 -15 33 -15 305 l0 311 100 0 100 0 0
88 c0 126 -20 199 -64 239 -20 18 -44 33 -54 33 -30 0 -32 10 -6 47 56 82 8
203 -81 203 -17 0 -41 -7 -53 -16z m113 -18 c30 -30 41 -87 26 -137 -14 -45
-43 -69 -86 -69 -43 0 -72 24 -86 69 -25 83 17 161 86 161 25 0 43 -8 60 -24z
m43 -236 c62 -28 84 -82 90 -222 l5 -108 -198 0 -198 0 5 108 c8 185 53 242
193 242 38 0 76 -8 103 -20z m492 -1150 l0 -110 -545 0 -545 0 0 110 0 110
545 0 545 0 0 -110z m0 -700 l0 -580 -545 0 -545 0 0 580 0 580 545 0 545 0 0
-580z"/>
<path d="M3381 3745 c-1 -40 11 -57 40 -53 20 2 24 9 26 43 l1 40 -6 -35 c-5
-26 -12 -35 -27 -35 -15 0 -22 9 -26 35 -6 34 -6 34 -8 5z"/>
<path d="M3475 3761 c-4 -7 0 -8 11 -4 13 5 16 3 11 -10 -3 -9 -2 -17 3 -17 6
0 10 -7 10 -16 0 -12 -6 -15 -21 -11 -16 4 -19 3 -11 -5 20 -20 42 -1 39 34
-3 33 -28 50 -42 29z"/>
<path d="M3540 2680 c0 -22 5 -40 10 -40 6 0 10 12 10 26 0 14 4 23 10 19 6
-3 10 -15 10 -26 0 -10 5 -19 10 -19 6 0 10 6 10 14 0 25 -12 46 -26 46 -8 0
-14 5 -14 10 0 6 -4 10 -10 10 -5 0 -10 -18 -10 -40z"/>
<path d="M3688 2709 c-6 -18 3 -69 12 -69 5 0 7 16 6 35 -3 38 -11 54 -18 34z"/>
<path d="M3764 2708 c-5 -8 -2 -9 9 -5 24 9 21 -12 -5 -40 l-21 -23 34 1 c19
1 26 3 16 6 -17 4 -18 6 -2 24 10 10 15 25 12 34 -7 18 -33 20 -43 3z"/>
<path d="M3195 2690 c-4 -6 1 -18 11 -26 18 -13 18 -14 -1 -8 -16 6 -18 4 -8
-6 18 -19 44 -5 39 22 -3 25 -30 36 -41 18z"/>
<path d="M3260 2670 c0 -16 5 -30 10 -30 6 0 10 11 10 25 0 14 5 25 10 25 6 0
10 -11 10 -25 0 -14 5 -25 10 -25 6 0 10 6 10 14 0 30 -13 46 -36 46 -20 0
-24 -5 -24 -30z"/>
<path d="M3334 2688 c-5 -7 -2 -9 7 -6 10 4 15 -1 16 -16 0 -11 -1 -15 -4 -8
-7 17 -23 15 -23 -3 0 -9 9 -15 25 -15 21 0 25 5 25 30 0 23 -5 30 -19 30 -11
0 -23 -5 -27 -12z"/>
<path d="M3400 2658 c0 -24 4 -38 8 -32 4 7 16 13 27 15 14 3 20 12 20 29 0
20 -6 26 -27 28 -27 3 -28 1 -28 -40z m40 12 c0 -11 -4 -20 -9 -20 -11 0 -22
26 -14 34 12 12 23 5 23 -14z"/>
<path d="M3475 2690 c-4 -6 1 -18 11 -26 18 -13 18 -14 -1 -8 -16 6 -18 4 -8
-6 18 -19 44 -5 39 22 -3 25 -30 36 -41 18z"/>
<path d="M3614 2686 c-10 -26 4 -48 28 -44 17 2 23 10 23 28 0 18 -6 26 -23
28 -13 2 -25 -3 -28 -12z m36 -16 c0 -11 -4 -20 -10 -20 -5 0 -10 9 -10 20 0
11 5 20 10 20 6 0 10 -9 10 -20z"/>
<path d="M5252 4094 c-55 -38 -68 -127 -28 -187 26 -37 24 -47 -6 -47 -10 0
-34 -15 -54 -33 -44 -40 -64 -113 -64 -239 l0 -88 100 0 100 0 0 -311 c0 -272
-2 -310 -15 -305 -19 7 -19 -7 0 -44 l16 -30 -251 0 -250 0 0 -705 0 -705 275
0 276 0 -16 -30 c-19 -37 -19 -51 0 -44 12 5 15 -5 15 -55 l0 -61 -395 0 -395
0 0 1000 0 1000 -127 -2 -128 -2 123 -3 122 -4 0 -999 0 -1000 405 0 405 0 0
66 c0 55 3 65 15 60 19 -7 19 7 0 44 l-16 30 276 0 275 0 0 705 0 705 -300 0
-301 0 16 30 c19 37 19 51 0 44 -13 -5 -15 33 -15 305 l0 311 100 0 100 0 0
88 c0 126 -20 199 -64 239 -20 18 -44 33 -54 33 -30 0 -32 10 -6 47 56 82 8
203 -81 203 -17 0 -41 -7 -53 -16z m113 -18 c30 -30 41 -87 26 -137 -14 -45
-43 -69 -86 -69 -43 0 -72 24 -86 69 -25 83 17 161 86 161 25 0 43 -8 60 -24z
m43 -236 c62 -28 84 -82 90 -222 l5 -108 -198 0 -198 0 5 108 c8 185 53 242
193 242 38 0 76 -8 103 -20z m492 -1150 l0 -110 -545 0 -545 0 0 110 0 110
545 0 545 0 0 -110z m0 -700 l0 -580 -545 0 -545 0 0 580 0 580 545 0 545 0 0
-580z"/>
<path d="M5231 3745 c-1 -40 11 -57 40 -53 20 2 24 9 26 43 l1 40 -6 -35 c-5
-26 -12 -35 -27 -35 -15 0 -22 9 -26 35 -6 34 -6 34 -8 5z"/>
<path d="M5321 3718 c2 -30 2 -31 6 -5 5 34 30 36 36 2 4 -23 4 -23 3 2 -1 21
-7 29 -23 31 -20 3 -23 -1 -22 -30z"/>
<path d="M5330 2680 c0 -22 5 -40 10 -40 6 0 10 11 10 25 0 14 5 25 10 25 6 0
10 -11 10 -25 0 -14 5 -25 10 -25 6 0 10 12 10 26 0 17 -6 28 -20 31 -11 3
-20 9 -20 14 0 5 -4 9 -10 9 -5 0 -10 -18 -10 -40z"/>
<path d="M5484 2710 c-13 -13 -5 -70 10 -70 7 0 11 14 10 36 -2 41 -6 48 -20
34z"/>
<path d="M5680 2705 c-8 -9 -8 -15 -2 -15 6 0 13 -12 15 -27 3 -20 4 -15 6 15
1 46 -1 49 -19 27z"/>
<path d="M4985 2691 c-3 -5 5 -17 17 -26 l23 -17 -25 7 c-19 6 -22 5 -14 -5
14 -14 46 -10 51 6 2 6 -7 16 -19 23 -13 6 -15 9 -5 7 9 -3 17 -1 17 4 0 13
-37 13 -45 1z"/>
<path d="M5050 2671 c0 -17 5 -31 10 -31 6 0 10 11 10 25 0 14 5 25 10 25 6 0
10 -11 10 -25 0 -14 5 -25 11 -25 6 0 9 12 7 28 -2 21 -9 28 -30 30 -25 3 -28
0 -28 -27z"/>
<path d="M5130 2691 c0 -6 6 -8 13 -5 7 2 13 -4 14 -16 1 -11 -3 -20 -8 -20
-6 0 -7 5 -3 11 4 7 2 10 -5 8 -23 -8 -16 -24 12 -27 26 -3 28 -1 25 25 -2 20
-9 29 -25 31 -13 2 -23 -1 -23 -7z"/>
<path d="M5190 2661 c0 -23 5 -41 10 -41 6 0 10 4 10 9 0 5 9 11 21 14 32 9
22 51 -13 55 -27 3 -28 1 -28 -37z m40 9 c0 -11 -4 -20 -10 -20 -5 0 -10 9
-10 20 0 11 5 20 10 20 6 0 10 -9 10 -20z"/>
<path d="M5265 2691 c-3 -5 5 -17 17 -26 l23 -17 -25 7 c-19 6 -22 5 -14 -5
14 -14 46 -10 51 6 2 6 -7 16 -19 23 -13 6 -15 9 -5 7 9 -3 17 -1 17 4 0 13
-37 13 -45 1z"/>
<path d="M5410 2685 c-10 -12 -10 -18 0 -30 7 -8 18 -15 25 -15 7 0 18 7 25
15 10 12 10 18 0 30 -7 8 -18 15 -25 15 -7 0 -18 -7 -25 -15z m35 -25 c-5 -8
-11 -8 -17 -2 -6 6 -7 16 -3 22 5 8 11 8 17 2 6 -6 7 -16 3 -22z"/>
<path d="M5550 2671 c0 -17 5 -31 10 -31 6 0 10 11 10 25 0 14 5 25 10 25 6 0
10 -11 10 -25 0 -14 5 -25 11 -25 6 0 9 12 7 28 -2 21 -9 28 -30 30 -25 3 -28
0 -28 -27z"/>
<path d="M5625 2670 c-3 -5 3 -10 15 -10 12 0 18 5 15 10 -3 6 -10 10 -15 10
-5 0 -12 -4 -15 -10z"/>
<path d="M820 3230 c0 -5 -6 -10 -14 -10 -7 0 -19 -7 -26 -15 -16 -19 3 -45
31 -45 15 0 19 8 19 40 0 22 -2 40 -5 40 -3 0 -5 -4 -5 -10z m-5 -40 c0 -7 -6
-15 -12 -17 -8 -3 -13 4 -13 17 0 13 5 20 13 18 6 -3 12 -11 12 -18z"/>
<path d="M870 3207 c0 -20 3 -38 8 -41 8 -5 7 62 -2 71 -3 4 -6 -10 -6 -30z"/>
<path d="M2270 3230 c0 -5 -6 -10 -14 -10 -7 0 -19 -7 -26 -15 -16 -19 3 -45
31 -45 15 0 19 8 19 40 0 22 -2 40 -5 40 -3 0 -5 -4 -5 -10z m-5 -40 c0 -7 -6
-15 -12 -17 -8 -3 -13 4 -13 17 0 13 5 20 13 18 6 -3 12 -11 12 -18z"/>
<path d="M2320 3207 c0 -20 3 -38 8 -41 8 -5 7 62 -2 71 -3 4 -6 -10 -6 -30z"/>
<path d="M3720 3230 c0 -5 -6 -10 -14 -10 -7 0 -19 -7 -26 -15 -16 -19 3 -45
31 -45 15 0 19 8 19 40 0 22 -2 40 -5 40 -3 0 -5 -4 -5 -10z m-5 -40 c0 -7 -6
-15 -12 -17 -8 -3 -13 4 -13 17 0 13 5 20 13 18 6 -3 12 -11 12 -18z"/>
<path d="M3770 3207 c0 -20 3 -38 8 -41 8 -5 7 62 -2 71 -3 4 -6 -10 -6 -30z"/>
<path d="M5570 3230 c0 -5 -6 -10 -14 -10 -7 0 -19 -7 -26 -15 -16 -19 3 -45
31 -45 15 0 19 8 19 40 0 22 -2 40 -5 40 -3 0 -5 -4 -5 -10z m-5 -40 c0 -7 -6
-15 -12 -17 -8 -3 -13 4 -13 17 0 13 5 20 13 18 6 -3 12 -11 12 -18z"/>
<path d="M5620 3207 c0 -20 3 -38 8 -41 8 -5 7 62 -2 71 -3 4 -6 -10 -6 -30z"/>
<path d="M714 3206 c-12 -33 23 -65 40 -37 4 5 -3 7 -14 4 -11 -3 -20 0 -20 6
0 6 9 11 21 11 12 0 19 5 17 13 -7 18 -37 21 -44 3z m33 -2 c-3 -3 -12 -4 -19
-1 -8 3 -5 6 6 6 11 1 17 -2 13 -5z"/>
<path d="M852 3190 c0 -19 2 -27 5 -17 2 9 2 25 0 35 -3 9 -5 1 -5 -18z"/>
<path d="M2164 3206 c-12 -33 23 -65 40 -37 4 5 -3 7 -14 4 -11 -3 -20 0 -20
6 0 6 9 11 21 11 12 0 19 5 17 13 -7 18 -37 21 -44 3z m33 -2 c-3 -3 -12 -4
-19 -1 -8 3 -5 6 6 6 11 1 17 -2 13 -5z"/>
<path d="M2302 3190 c0 -19 2 -27 5 -17 2 9 2 25 0 35 -3 9 -5 1 -5 -18z"/>
<path d="M3614 3206 c-12 -33 23 -65 40 -37 4 5 -3 7 -14 4 -11 -3 -20 0 -20
6 0 6 9 11 21 11 12 0 19 5 17 13 -7 18 -37 21 -44 3z m33 -2 c-3 -3 -12 -4
-19 -1 -8 3 -5 6 6 6 11 1 17 -2 13 -5z"/>
<path d="M3752 3190 c0 -19 2 -27 5 -17 2 9 2 25 0 35 -3 9 -5 1 -5 -18z"/>
<path d="M5464 3206 c-12 -33 23 -65 40 -37 4 5 -3 7 -14 4 -11 -3 -20 0 -20
6 0 6 9 11 21 11 12 0 19 5 17 13 -7 18 -37 21 -44 3z m33 -2 c-3 -3 -12 -4
-19 -1 -8 3 -5 6 6 6 11 1 17 -2 13 -5z"/>
<path d="M5602 3190 c0 -19 2 -27 5 -17 2 9 2 25 0 35 -3 9 -5 1 -5 -18z"/>
<path d="M1808 1029 c-6 -17 3 -69 11 -69 7 0 6 69 -2 76 -3 3 -7 0 -9 -7z"/>
<path d="M1863 1033 c-7 -2 -13 -9 -13 -14 0 -6 4 -8 9 -4 5 3 12 -9 14 -27 3
-29 4 -28 5 10 1 23 1 42 0 41 -2 0 -9 -3 -15 -6z"/>
<path d="M3258 1029 c-6 -17 3 -69 11 -69 7 0 6 69 -2 76 -3 3 -7 0 -9 -7z"/>
<path d="M3296 1031 c-4 -5 3 -7 14 -4 27 7 27 -23 0 -37 -29 -15 -25 -30 8
-29 18 1 21 3 9 6 -17 4 -18 6 -2 24 10 10 15 25 12 34 -7 16 -32 20 -41 6z"/>
<path d="M5058 1029 c-6 -17 3 -69 11 -69 7 0 6 69 -2 76 -3 3 -7 0 -9 -7z"/>
<path d="M5209 1023 c-8 -10 -9 -14 -2 -10 8 5 13 -3 16 -25 3 -29 4 -28 5 10
2 47 0 49 -19 25z"/>
<path d="M5091 988 c2 -30 2 -31 6 -5 5 34 30 36 36 2 4 -23 4 -23 3 2 -1 21
-7 29 -23 31 -20 3 -23 -1 -22 -30z"/>
<path d="M5158 983 c7 -3 16 -2 19 1 4 3 -2 6 -13 5 -11 0 -14 -3 -6 -6z"/>
<path d="M158 929 c-6 -17 3 -69 11 -69 7 0 6 69 -2 76 -3 3 -7 0 -9 -7z"/>
<path d="M194 926 c-11 -28 0 -61 21 -61 16 0 20 7 20 35 0 25 -5 36 -18 38
-9 2 -20 -3 -23 -12z m36 -26 c0 -20 -5 -30 -15 -30 -10 0 -15 10 -15 30 0 20
5 30 15 30 10 0 15 -10 15 -30z"/>
<path d="M642 931 c-8 -5 -12 -21 -10 -37 2 -25 7 -29 32 -29 17 0 31 6 34 15
5 13 3 13 -11 1 -23 -19 -49 -6 -45 21 2 18 9 23 31 21 15 -1 25 2 22 8 -8 11
-35 12 -53 0z"/>
<path d="M888 929 c-6 -17 3 -69 11 -69 7 0 6 69 -2 76 -3 3 -7 0 -9 -7z"/>
<path d="M721 888 c2 -28 2 -29 6 -8 3 14 10 28 17 32 7 5 5 8 -6 8 -14 0 -18
-8 -17 -32z"/>
<path d="M757 906 c-14 -35 30 -66 49 -35 4 7 0 9 -14 5 -11 -4 -23 -2 -27 4
-4 6 4 10 20 10 17 0 25 5 23 13 -7 18 -45 20 -51 3z m40 -2 c-3 -3 -12 -4
-19 -1 -8 3 -5 6 6 6 11 1 17 -2 13 -5z"/>
<path d="M826 911 c-3 -5 2 -7 12 -4 12 3 18 -2 19 -16 1 -13 -4 -21 -13 -21
-8 0 -12 5 -9 10 3 6 1 10 -4 10 -6 0 -11 -7 -11 -15 0 -9 10 -15 26 -15 22 0
25 4 22 27 -3 28 -30 43 -42 24z"/>
<path d="M924 906 c-12 -33 23 -65 40 -37 4 5 -3 7 -14 4 -11 -3 -20 0 -20 6
0 6 9 11 21 11 12 0 19 5 17 13 -7 18 -37 21 -44 3z m33 -2 c-3 -3 -12 -4 -19
-1 -8 3 -5 6 6 6 11 1 17 -2 13 -5z"/>
</g>
</svg>
