<?xml version="1.0" standalone="no"?>
<!DOCTYPE svg PUBLIC "-//W3C//DTD SVG 20010904//EN"
 "http://www.w3.org/TR/2001/REC-SVG-20010904/DTD/svg10.dtd">
<svg version="1.0" xmlns="http://www.w3.org/2000/svg"
 width="685.000000pt" height="496.000000pt" viewBox="0 0 685.000000 496.000000"
 preserveAspectRatio="xMidYMid meet">
<metadata>
Created by potrace 1.16, written by Peter Selinger 2001-2019
</metadata>
<g transform="translate(0.000000,496.000000) scale(0.100000,-0.100000)"
fill="#000000" stroke="none">
<path d="M3872 4840 c0 -40 2 -47 7 -26 9 42 29 44 34 4 l5 -33 -2 35 c-1 24
-6 35 -16 35 -8 0 -18 9 -22 20 -3 11 -6 -4 -6 -35z"/>
<path d="M4440 4871 c0 -14 -5 -18 -19 -14 -13 3 -21 -2 -25 -15 -10 -30 3
-52 30 -50 22 2 24 7 24 50 0 26 -2 48 -5 48 -3 0 -5 -9 -5 -19z m-3 -37 c8
-21 -13 -42 -28 -27 -13 13 -5 43 11 43 6 0 13 -7 17 -16z"/>
<path d="M3314 4840 c1 -36 5 -46 20 -49 11 -2 26 5 33 15 16 21 17 74 2 74
-5 0 -9 -8 -8 -17 4 -46 -1 -64 -18 -61 -12 2 -20 16 -24 43 l-7 40 2 -45z"/>
<path d="M3818 4867 c-7 -21 6 -70 20 -73 7 -1 8 0 2 3 -12 6 -13 50 -1 55 5
2 3 8 -4 15 -10 9 -14 9 -17 0z"/>
<path d="M4238 4869 c-2 -6 -2 -26 0 -45 3 -24 9 -34 21 -33 10 0 11 2 4 6
-15 5 -18 50 -4 55 5 2 3 8 -4 15 -9 9 -15 9 -17 2z"/>
<path d="M4508 4869 c-2 -6 -2 -26 0 -45 3 -24 9 -34 21 -33 10 0 11 2 4 6
-15 5 -18 50 -4 55 5 2 3 8 -4 15 -9 9 -15 9 -17 2z"/>
<path d="M3395 4850 c-8 -14 3 -30 21 -30 20 0 18 -18 -3 -23 -16 -4 -16 -5
-1 -6 24 -2 34 20 15 34 -22 16 -21 22 1 28 13 4 12 5 -5 6 -12 0 -25 -3 -28
-9z"/>
<path d="M3464 4846 c-11 -28 1 -51 26 -53 22 -1 22 -1 3 4 -31 6 -29 23 2 23
27 0 32 9 13 28 -16 16 -37 15 -44 -2z m41 -6 c3 -5 -3 -10 -14 -10 -12 0 -21
5 -21 10 0 6 6 10 14 10 8 0 18 -4 21 -10z"/>
<path d="M3532 4825 c-2 -19 2 -35 8 -35 5 0 10 13 10 29 0 16 6 32 13 34 6 3
3 6 -8 6 -17 1 -21 -6 -23 -34z"/>
<path d="M3585 4850 c-8 -14 3 -30 21 -30 20 0 18 -18 -3 -23 -15 -3 -14 -4 1
-3 27 1 32 26 7 33 -28 7 -27 20 2 26 22 4 22 4 0 6 -12 0 -25 -3 -28 -9z"/>
<path d="M3686 4833 c10 -42 22 -49 30 -18 l7 28 12 -29 c12 -30 18 -26 29 19
4 19 3 26 -4 22 -5 -3 -10 -14 -11 -23 0 -11 -4 -9 -10 8 l-10 25 -14 -25
c-10 -18 -14 -20 -15 -8 0 9 -5 20 -10 23 -7 4 -8 -3 -4 -22z"/>
<path d="M3793 4825 c0 -22 2 -30 4 -17 2 12 2 30 0 40 -3 9 -5 -1 -4 -23z"/>
<path d="M3981 4823 c1 -36 2 -36 8 -9 9 41 31 46 31 7 0 -17 5 -31 10 -31 6
0 10 14 10 31 0 39 22 34 32 -7 6 -27 6 -27 5 6 -2 34 -3 35 -49 38 l-48 2 1
-37z"/>
<path d="M4104 4846 c-10 -26 0 -51 21 -51 16 0 20 7 20 30 0 33 -30 49 -41
21z m36 -21 c0 -16 -6 -25 -15 -25 -9 0 -15 9 -15 25 0 16 6 25 15 25 9 0 15
-9 15 -25z"/>
<path d="M4174 4848 c-4 -6 0 -16 9 -23 22 -16 21 -22 0 -29 -11 -3 -8 -4 6
-3 31 3 40 27 12 34 -26 7 -27 20 -3 26 15 4 15 5 0 6 -9 0 -20 -4 -24 -11z"/>
<path d="M4324 4846 c-11 -28 1 -51 26 -53 l25 -3 -25 12 -25 12 28 4 c29 4
33 12 15 30 -16 16 -37 15 -44 -2z m41 -6 c3 -5 -3 -10 -15 -10 -12 0 -18 5
-15 10 3 6 10 10 15 10 5 0 12 -4 15 -10z"/>
<path d="M4473 4825 c0 -22 2 -30 4 -17 2 12 2 30 0 40 -3 9 -5 -1 -4 -23z"/>
<path d="M4555 4850 c-8 -14 3 -30 21 -30 20 0 18 -18 -3 -23 -15 -3 -14 -4 1
-3 27 1 32 26 7 33 -26 7 -27 20 -3 26 15 4 15 5 0 6 -9 0 -20 -3 -23 -9z"/>
<path d="M1171 4663 c-1 -47 -5 -73 -13 -76 -10 -4 -10 -6 0 -6 9 -1 12 -36
12 -140 0 -102 -3 -141 -12 -144 -10 -4 -10 -6 0 -6 9 -1 12 -36 12 -140 0
-102 -3 -141 -12 -144 -10 -4 -10 -6 0 -6 9 -1 12 -36 12 -140 0 -102 -3 -141
-12 -144 -10 -4 -10 -6 0 -6 9 -1 12 -36 12 -140 0 -102 -3 -141 -12 -144 -10
-4 -10 -6 0 -6 17 -1 17 -277 0 -284 -10 -4 -10 -6 0 -6 9 -1 12 -36 12 -140
0 -102 -3 -141 -12 -144 -10 -4 -10 -6 0 -6 9 -1 12 -36 12 -140 0 -102 -3
-141 -12 -144 -10 -4 -10 -6 0 -6 9 -1 12 -36 12 -140 0 -102 -3 -141 -12
-144 -10 -4 -10 -6 0 -6 17 -1 17 -277 0 -284 -10 -4 -10 -6 0 -6 17 -1 17
-277 0 -284 -10 -4 -10 -6 0 -6 17 -1 17 -277 -1 -284 -9 -4 -9 -6 1 -6 17 -1
17 -277 0 -284 -10 -4 -10 -6 0 -6 17 -1 17 -277 0 -284 -10 -4 -10 -6 0 -6
17 -1 17 -277 0 -284 -10 -4 -10 -6 0 -6 8 -1 12 -27 13 -93 1 -51 3 -85 6
-76 4 17 34 18 458 18 424 0 454 -1 458 -17 4 -17 5 -17 6 0 1 16 30 17 455
17 424 0 455 -1 459 -17 4 -17 5 -17 6 0 1 16 30 17 455 17 424 0 455 -1 459
-18 4 -16 5 -16 6 1 1 16 30 17 455 17 424 0 455 -1 459 -17 4 -17 5 -17 6 0
1 16 30 17 450 17 420 0 450 -1 454 -17 4 -17 5 -17 6 0 1 16 30 17 455 17
424 0 455 -1 459 -17 4 -16 5 -16 6 -1 1 12 12 18 39 21 20 2 -1220 4 -2755 5
-2475 2 -2793 4 -2793 17 0 13 100 15 840 15 l840 0 0 40 0 40 -840 0 -840 0
0 105 0 105 1105 0 1105 0 0 40 0 40 -1105 0 -1105 0 0 105 0 105 1170 0 1170
0 0 40 0 40 -1170 0 -1170 0 0 105 0 105 1225 0 1225 0 0 40 0 40 -1225 0
-1225 0 0 105 0 105 1335 0 1335 0 0 40 0 40 -1335 0 -1335 0 0 905 0 905 395
0 395 0 0 40 0 40 -395 0 -395 0 0 105 0 105 520 0 520 0 0 40 0 40 -520 0
-520 0 0 105 0 105 585 0 585 0 0 40 0 40 -585 0 -585 0 0 105 0 105 595 0
595 0 0 40 0 40 -595 0 -595 0 0 105 0 105 625 0 625 0 0 40 0 40 -624 0
c-586 0 -625 1 -629 18 -3 9 -5 -15 -6 -55z"/>
<path d="M6303 4600 c0 -25 2 -35 4 -22 2 12 2 32 0 45 -2 12 -4 2 -4 -23z"/>
<path d="M6211 4588 c2 -30 2 -31 6 -5 2 15 8 27 13 27 5 0 7 -6 5 -12 -7 -20
11 -42 30 -35 10 4 15 15 13 29 -2 18 -11 24 -35 26 -32 3 -33 2 -32 -30z m59
2 c0 -11 -4 -20 -9 -20 -14 0 -23 18 -16 30 10 17 25 11 25 -10z"/>
<path d="M6345 4611 c19 -9 19 -10 -4 -10 -17 -1 -22 -5 -17 -17 3 -9 6 -18 6
-20 0 -2 10 -4 23 -3 21 0 21 1 -3 11 l-25 11 23 5 c27 4 24 26 -4 29 -18 3
-18 2 1 -6z"/>
<path d="M1000 4562 c0 -9 32 -22 54 -22 12 0 5 8 -9 10 -5 1 -18 6 -27 11
-11 6 -18 6 -18 1z"/>
<path d="M998 4524 c24 -17 39 -14 27 5 -3 6 -16 11 -28 11 l-21 0 22 -16z"/>
<path d="M962 4515 c-1 -26 16 -68 17 -43 1 9 9 19 19 21 13 4 12 5 -5 6 -12
0 -24 9 -26 19 -4 14 -5 14 -5 -3z"/>
<path d="M927 4472 c3 -14 -1 -19 -19 -18 -13 1 -26 4 -29 9 -3 4 -14 -3 -24
-15 -11 -13 -13 -17 -5 -10 22 19 30 14 30 -17 0 -39 13 -46 36 -18 10 12 12
16 4 10 -21 -19 -30 -16 -30 13 0 22 3 24 23 19 12 -4 28 -14 35 -23 16 -21
15 -9 -2 33 -16 37 -27 47 -19 17z"/>
<path d="M6312 4450 c1 -29 2 -35 5 -17 3 20 9 27 19 23 8 -3 14 -1 14 4 0 6
-6 10 -14 10 -8 0 -17 6 -19 13 -3 6 -5 -8 -5 -33z"/>
<path d="M6373 4450 c0 -25 2 -35 4 -22 2 12 2 32 0 45 -2 12 -4 2 -4 -23z"/>
<path d="M5920 4445 l0 -35 100 0 100 0 0 35 0 35 -100 0 -100 0 0 -35z"/>
<path d="M6268 4474 c-3 -2 -3 -17 0 -34 3 -20 10 -30 21 -29 10 0 11 2 4 6
-16 6 -17 40 -1 45 8 3 6 6 -4 10 -9 4 -18 5 -20 2z"/>
<path d="M6462 4448 c2 -17 9 -33 16 -34 7 -1 8 0 2 3 -14 7 -13 40 2 45 7 3
5 7 -6 11 -15 6 -17 2 -14 -25z"/>
<path d="M6234 4462 c18 -8 18 -9 3 -15 -24 -9 -21 -37 4 -37 16 0 20 5 17 27
-2 19 -9 29 -23 30 -19 3 -19 3 -1 -5z m16 -32 c0 -5 -4 -10 -10 -10 -5 0 -10
5 -10 10 0 6 5 10 10 10 6 0 10 -4 10 -10z"/>
<path d="M6404 4456 c-9 -23 3 -46 23 -45 17 1 17 2 1 6 -25 6 -22 23 3 23 12
0 19 5 17 13 -7 18 -37 21 -44 3z m33 -2 c-3 -3 -12 -4 -19 -1 -8 3 -5 6 6 6
11 1 17 -2 13 -5z"/>
<path d="M6504 4456 c-9 -23 3 -46 23 -45 17 1 17 2 1 6 -25 6 -22 23 3 23 12
0 19 5 17 13 -7 18 -37 21 -44 3z m33 -2 c-3 -3 -12 -4 -19 -1 -8 3 -5 6 6 6
11 1 17 -2 13 -5z"/>
<path d="M6351 4424 c0 -11 3 -14 6 -6 3 7 2 16 -1 19 -3 4 -6 -2 -5 -13z"/>
<path d="M6333 4300 c0 -25 2 -35 4 -22 2 12 2 32 0 45 -2 12 -4 2 -4 -23z"/>
<path d="M6388 4324 c-3 -2 -3 -17 0 -34 3 -20 10 -30 21 -29 10 0 11 2 4 6
-16 6 -17 40 -1 45 8 3 6 6 -4 10 -9 4 -18 5 -20 2z"/>
<path d="M6221 4278 c0 -24 3 -37 6 -30 2 6 11 12 19 12 8 0 14 5 14 10 0 6 8
5 20 -2 17 -11 22 -10 30 2 5 8 10 17 10 20 0 3 -5 12 -10 20 -8 12 -13 13
-30 2 -12 -7 -20 -8 -20 -2 0 5 -9 10 -20 10 -17 0 -20 -6 -19 -42z m34 12 c0
-7 -6 -15 -12 -17 -8 -3 -13 4 -13 17 0 13 5 20 13 18 6 -3 12 -11 12 -18z
m50 0 c0 -7 -6 -15 -12 -17 -8 -3 -13 4 -13 17 0 13 5 20 13 18 6 -3 12 -11
12 -18z"/>
<path d="M6362 4290 c0 -19 2 -27 5 -17 2 9 2 25 0 35 -3 9 -5 1 -5 -18z"/>
<path d="M6432 4290 c0 -19 2 -27 5 -17 2 9 2 25 0 35 -3 9 -5 1 -5 -18z"/>
<path d="M6456 4305 c-8 -21 3 -45 22 -45 13 0 12 3 -4 15 -19 15 -19 15 0 30
16 12 17 15 4 15 -9 0 -18 -7 -22 -15z"/>
<path d="M6512 4290 c0 -19 2 -27 5 -17 2 9 2 25 0 35 -3 9 -5 1 -5 -18z"/>
<path d="M6554 4311 c18 -7 18 -8 3 -14 -24 -9 -21 -37 3 -37 16 0 20 7 20 30
0 25 -4 30 -22 29 -21 0 -21 -1 -4 -8z m16 -31 c0 -5 -4 -10 -10 -10 -5 0 -10
5 -10 10 0 6 5 10 10 10 6 0 10 -4 10 -10z"/>
<path d="M6601 4288 c2 -30 2 -31 6 -5 5 34 30 36 36 2 4 -23 4 -23 3 2 -1 21
-7 29 -23 31 -20 3 -23 -1 -22 -30z"/>
<path d="M1010 4288 c0 -31 15 -54 25 -38 4 6 13 9 21 6 20 -8 6 17 -21 37
-25 18 -25 18 -25 -5z m30 -19 c0 -5 -4 -9 -10 -9 -5 0 -10 7 -10 16 0 8 5 12
10 9 6 -3 10 -10 10 -16z"/>
<path d="M954 4245 c-3 -8 -3 -19 1 -25 8 -13 35 -13 35 1 0 5 5 7 11 4 6 -4
8 -14 5 -22 -3 -8 -1 -11 4 -8 15 10 12 30 -8 48 -23 21 -41 22 -48 2z m28
-10 c0 -5 -5 -11 -11 -13 -6 -2 -11 4 -11 13 0 9 5 15 11 13 6 -2 11 -8 11
-13z"/>
<path d="M943 4204 c20 -24 23 -54 5 -54 -6 0 -23 10 -37 22 -26 22 -26 22 1
-6 16 -18 32 -27 42 -23 23 9 20 41 -6 63 -23 19 -23 19 -5 -2z"/>
<path d="M5920 4145 l0 -35 100 0 100 0 0 35 0 35 -100 0 -100 0 0 -35z"/>
<path d="M6468 4174 c-3 -2 -3 -17 0 -34 3 -20 10 -30 21 -29 10 0 11 2 4 6
-16 6 -17 40 -1 45 8 3 6 6 -4 10 -9 4 -18 5 -20 2z"/>
<path d="M6588 4174 c-3 -2 -3 -17 0 -34 3 -20 10 -30 21 -29 10 0 11 2 4 6
-16 6 -17 40 -1 45 8 3 6 6 -4 10 -9 4 -18 5 -20 2z"/>
<path d="M859 4154 c-14 -17 -5 -40 24 -58 13 -8 21 -6 34 9 14 14 14 16 2 7
-31 -23 -72 15 -48 44 6 8 9 14 6 14 -2 0 -10 -7 -18 -16z"/>
<path d="M6220 4156 c0 -8 8 -17 18 -21 16 -7 15 -8 -3 -15 -14 -5 -6 -7 25
-7 25 1 37 2 28 5 -10 2 -18 12 -18 23 0 11 7 19 18 20 12 0 13 2 3 6 -8 3
-20 -2 -27 -12 -7 -9 -18 -14 -24 -10 -9 6 -9 10 1 16 11 7 10 9 -3 9 -10 0
-18 -6 -18 -14z"/>
<path d="M6322 4140 c0 -19 2 -27 5 -17 2 9 2 25 0 35 -3 9 -5 1 -5 -18z"/>
<path d="M6344 4156 c-10 -25 3 -46 28 -45 23 0 23 0 -2 11 l-25 11 23 5 c13
2 21 9 19 15 -6 19 -36 20 -43 3z m33 -2 c-3 -3 -12 -4 -19 -1 -8 3 -5 6 6 6
11 1 17 -2 13 -5z"/>
<path d="M6411 4138 c2 -31 2 -31 6 -5 2 15 8 27 13 27 5 0 11 -12 13 -27 4
-26 4 -26 6 5 1 26 -3 32 -19 32 -16 0 -20 -6 -19 -32z"/>
<path d="M6512 4140 c0 -19 2 -27 5 -17 2 9 2 25 0 35 -3 9 -5 1 -5 -18z"/>
<path d="M6548 4163 c7 -3 16 -2 19 1 4 3 -2 6 -13 5 -11 0 -14 -3 -6 -6z"/>
<path d="M6556 4135 c19 -14 19 -14 0 -15 -11 0 -17 -3 -13 -6 3 -4 14 -4 23
0 13 5 14 9 4 21 -7 8 -17 15 -23 15 -6 0 -2 -7 9 -15z"/>
<path d="M809 4103 c-12 -16 -12 -17 2 -5 14 11 18 8 29 -18 7 -17 15 -29 17
-26 5 4 -25 66 -31 66 -2 0 -10 -8 -17 -17z"/>
<path d="M772 4049 c10 -5 24 -19 31 -30 13 -17 16 -18 27 -4 11 13 10 15 -2
10 -8 -3 -23 3 -33 15 -10 11 -23 20 -29 20 -6 0 -3 -5 6 -11z"/>
<path d="M744 4009 c-3 -6 3 -21 15 -32 11 -12 21 -16 21 -10 0 6 -7 16 -15
23 -8 7 -12 16 -9 21 3 5 3 9 0 9 -3 0 -8 -5 -12 -11z"/>
<path d="M1013 3984 c-3 -8 2 -23 11 -32 15 -15 17 -15 34 3 14 16 14 17 0 6
-10 -7 -18 -8 -22 -2 -4 5 -2 12 4 16 15 9 12 25 -5 25 -9 0 -18 -7 -22 -16z
m27 2 c0 -3 -4 -8 -10 -11 -5 -3 -10 -1 -10 4 0 6 5 11 10 11 6 0 10 -2 10 -4z"/>
<path d="M704 3965 c-3 -8 -3 -19 1 -25 8 -12 42 -13 49 -1 4 5 -4 7 -16 3
-21 -5 -22 -4 -9 12 8 9 11 19 7 23 -3 3 -6 1 -6 -5 0 -7 -5 -12 -11 -12 -5 0
-7 5 -4 10 3 6 4 10 0 10 -3 0 -8 -7 -11 -15z"/>
<path d="M660 3957 c0 -2 15 -16 33 -33 l32 -29 -29 33 c-28 30 -36 37 -36 29z"/>
<path d="M973 3941 c-3 -11 -13 -21 -24 -24 -23 -6 -25 -30 -4 -47 13 -10 18
-11 28 -1 9 10 8 11 -5 6 -12 -5 -20 -1 -24 9 -9 24 3 31 23 15 15 -12 16 -12
11 3 -4 10 -1 19 8 22 23 9 27 7 20 -10 -3 -8 -2 -12 4 -9 6 3 10 13 10 22 0
11 -6 14 -21 10 -15 -4 -19 -2 -15 9 3 8 3 14 0 14 -3 0 -8 -9 -11 -19z"/>
<path d="M640 3937 c0 -2 15 -16 33 -33 l32 -29 -29 33 c-28 30 -36 37 -36 29z"/>
<path d="M603 3874 c4 -23 2 -25 -19 -20 -31 8 -30 5 8 -30 23 -20 27 -22 13
-5 l-20 24 22 -7 c18 -6 21 -4 16 16 l-6 23 24 -20 c17 -14 16 -11 -5 13 -36
39 -40 40 -33 6z"/>
<path d="M655 3880 c10 -11 20 -20 23 -20 3 0 -3 9 -13 20 -10 11 -20 20 -23
20 -3 0 3 -9 13 -20z"/>
<path d="M894 3865 c-9 -21 3 -45 21 -45 21 0 30 27 15 45 -16 19 -29 19 -36
0z m34 -19 c3 -12 -1 -17 -10 -14 -7 3 -15 13 -16 22 -3 12 1 17 10 14 7 -3
15 -13 16 -22z"/>
<path d="M853 3803 c26 -27 27 -27 44 -8 17 18 17 18 0 5 -16 -11 -20 -10 -33
8 -8 12 -20 22 -27 22 -6 0 1 -12 16 -27z"/>
<path d="M814 3788 c-4 -7 -3 -8 4 -4 7 4 12 2 12 -3 0 -6 -4 -11 -10 -11 -16
0 -12 -20 6 -27 8 -3 21 0 27 6 9 9 8 11 -5 6 -20 -8 -24 5 -7 22 7 7 6 12 -5
16 -8 3 -18 1 -22 -5z"/>
<path d="M740 3744 c0 0 15 -13 32 -30 18 -16 24 -19 14 -6 -24 28 -13 41 14
17 11 -10 20 -13 20 -8 0 18 -24 31 -52 30 -16 -1 -28 -2 -28 -3z"/>
<path d="M705 3710 c-14 -15 -15 -19 -4 -15 9 3 23 -3 34 -15 10 -11 22 -20
27 -20 5 0 -3 11 -17 24 -15 14 -24 30 -20 35 10 18 -1 12 -20 -9z"/>
<path d="M1044 3680 c0 -13 4 -16 10 -10 7 7 7 13 0 20 -6 6 -10 3 -10 -10z"/>
<path d="M974 3668 c-4 -7 -3 -8 4 -4 7 4 12 2 12 -3 0 -6 -4 -11 -10 -11 -16
0 -12 -20 6 -27 9 -3 23 2 32 13 16 17 16 17 -1 5 -21 -16 -35 -7 -19 12 11
13 7 27 -9 27 -4 0 -11 -5 -15 -12z"/>
<path d="M674 3649 c-3 -6 4 -21 16 -33 l22 -21 -16 26 c-9 14 -13 29 -9 32 3
4 4 7 0 7 -3 0 -9 -5 -13 -11z"/>
<path d="M710 3645 c7 -8 17 -15 22 -15 6 0 5 7 -2 15 -7 8 -17 15 -22 15 -6
0 -5 -7 2 -15z"/>
<path d="M950 3625 c13 -14 26 -25 28 -25 3 0 -5 11 -18 25 -13 14 -26 25 -28
25 -3 0 5 -11 18 -25z"/>
<path d="M615 3619 c-12 -18 4 -59 23 -59 16 1 16 1 0 11 -10 5 -18 19 -18 30
0 15 6 20 23 17 17 -2 22 -9 22 -30 -1 -14 3 -24 7 -22 12 8 10 38 -4 52 -15
15 -45 16 -53 1z"/>
<path d="M930 3605 c13 -14 26 -25 28 -25 3 0 -5 11 -18 25 -13 14 -26 25 -28
25 -3 0 5 -11 18 -25z"/>
<path d="M887 3583 c-14 -30 22 -58 46 -34 7 7 2 8 -14 4 -22 -6 -23 -5 -10
11 8 9 11 19 7 23 -3 3 -6 1 -6 -5 0 -7 -5 -12 -11 -12 -5 0 -7 5 -4 10 3 6 4
10 1 10 -3 0 -7 -3 -9 -7z"/>
<path d="M602 3565 c0 -5 6 -26 13 -45 7 -19 14 -28 14 -20 0 8 -6 29 -14 45
-7 17 -13 26 -13 20z"/>
<path d="M845 3540 c-4 -6 -1 -17 5 -25 14 -16 36 -20 44 -7 3 5 -5 8 -17 8
-15 -1 -22 5 -21 17 2 19 -2 22 -11 7z"/>
<path d="M570 3536 c0 -2 7 -6 15 -10 8 -3 15 -1 15 4 0 6 -7 10 -15 10 -8 0
-15 -2 -15 -4z"/>
<path d="M532 3508 c-7 -10 -3 -18 16 -32 l27 -20 -19 22 c-24 27 -13 41 17
23 20 -13 21 -13 8 2 -16 20 -35 22 -49 5z"/>
<path d="M815 3510 c-4 -6 1 -20 11 -31 23 -25 28 -19 10 15 -9 17 -16 23 -21
16z"/>
<path d="M790 3487 c0 -5 7 -16 16 -25 21 -21 1 -30 -24 -10 -15 12 -16 11 -3
-4 7 -10 19 -18 27 -18 24 0 27 22 5 43 -11 12 -21 18 -21 14z"/>
<path d="M491 3467 c-8 -11 -6 -18 10 -33 22 -19 22 -19 8 3 -18 30 -4 40 23
17 l23 -19 -19 23 c-22 26 -29 27 -45 9z"/>
<path d="M737 3434 c-13 -13 -7 -42 10 -48 23 -9 40 10 27 31 -12 20 -27 26
-37 17z m31 -28 c3 -12 -1 -17 -10 -14 -7 3 -15 13 -16 22 -3 12 1 17 10 14 7
-3 15 -13 16 -22z"/>
<path d="M449 3423 c-1 -5 -1 -16 0 -25 1 -10 -4 -18 -13 -18 -8 0 -21 -3 -30
-6 -9 -3 -16 -1 -16 4 0 6 8 13 18 15 15 4 15 5 0 6 -29 2 -31 -20 -4 -47 19
-19 29 -23 37 -15 8 8 7 11 -6 10 -10 -1 -20 4 -23 12 -3 10 1 12 17 8 11 -3
21 -1 21 4 0 5 9 9 19 9 11 0 22 4 25 9 4 5 -4 7 -16 3 -21 -5 -22 -4 -9 12 8
9 11 19 7 23 -3 3 -6 1 -6 -5 0 -7 -5 -12 -11 -12 -5 0 -7 5 -4 10 3 6 4 10 1
10 -3 0 -7 -3 -7 -7z"/>
<path d="M1015 3410 c20 -23 29 -21 19 4 -3 9 -13 16 -22 16 -13 0 -12 -3 3
-20z"/>
<path d="M987 3393 c-4 -3 -7 -15 -7 -25 0 -10 -5 -18 -12 -18 -9 0 -9 -3 0
-12 16 -16 15 -28 -3 -28 -13 0 -19 10 -17 30 0 3 -8 6 -19 6 -17 0 -16 -3 8
-28 20 -21 30 -25 40 -17 7 6 13 18 13 25 0 8 7 14 15 14 21 0 30 27 15 45
-14 16 -23 19 -33 8z m31 -27 c3 -12 -1 -17 -10 -14 -7 3 -15 13 -16 22 -3 12
1 17 10 14 7 -3 15 -13 16 -22z"/>
<path d="M685 3370 c19 -21 50 -27 59 -11 3 4 -6 6 -19 3 -17 -3 -27 1 -31 12
-3 9 -11 16 -17 16 -5 0 -2 -9 8 -20z"/>
<path d="M893 3294 c-3 -9 2 -23 12 -32 17 -16 17 -16 12 0 -3 10 -2 20 3 23
15 9 12 25 -5 25 -9 0 -18 -7 -22 -16z m27 2 c0 -3 -4 -8 -10 -11 -5 -3 -10
-1 -10 4 0 6 5 11 10 11 6 0 10 -2 10 -4z"/>
<path d="M853 3279 c3 -9 0 -23 -6 -30 -10 -11 -9 -11 4 -1 12 9 18 9 27 0 18
-18 14 -31 -8 -25 -11 3 -18 1 -14 -4 8 -13 30 -11 43 4 8 11 3 20 -21 43 -18
17 -29 22 -25 13z"/>
<path d="M827 3211 c4 -16 1 -19 -19 -15 -16 3 -14 0 10 -11 17 -8 32 -20 32
-27 0 -6 3 -9 6 -6 3 3 -2 22 -10 42 -16 39 -27 48 -19 17z"/>
<path d="M760 3195 c-29 -35 26 -84 59 -50 15 16 15 16 -6 4 -20 -12 -25 -11
-40 4 -15 14 -16 21 -5 37 14 23 10 26 -8 5z"/>
<path d="M1010 3125 c-10 -13 -9 -19 5 -35 10 -11 20 -18 23 -15 3 3 -3 13
-12 24 -10 11 -13 22 -8 25 5 3 15 -1 22 -9 7 -8 17 -15 23 -15 5 0 2 9 -8 20
-22 24 -29 25 -45 5z"/>
<path d="M964 3078 c-5 -7 -3 -8 6 -3 9 5 10 2 6 -13 -9 -27 12 -39 32 -19 13
13 13 19 2 31 -15 19 -36 21 -46 4z m36 -24 c0 -8 -5 -12 -10 -9 -6 4 -8 11
-5 16 9 14 15 11 15 -7z"/>
<path d="M920 3057 c0 -7 13 -21 28 -31 27 -20 27 -20 9 0 -9 12 -15 23 -12
26 3 3 -1 8 -10 11 -8 4 -15 1 -15 -6z"/>
<path d="M934 2990 c0 -13 4 -16 10 -10 7 7 7 13 0 20 -6 6 -10 3 -10 -10z"/>
<path d="M860 2983 c1 -15 49 -43 55 -33 3 5 -1 10 -10 10 -8 0 -18 7 -21 15
-6 15 -24 21 -24 8z"/>
<path d="M830 2977 c0 -2 15 -16 33 -33 l32 -29 -29 33 c-28 30 -36 37 -36 29z"/>
<path d="M817 2934 c-13 -13 -7 -42 10 -48 23 -9 40 10 27 31 -12 20 -27 26
-37 17z m31 -28 c3 -12 -1 -17 -10 -14 -7 3 -15 13 -16 22 -3 12 1 17 10 14 7
-3 15 -13 16 -22z"/>
<path d="M756 2877 c9 -25 40 -37 60 -22 17 12 16 13 -9 8 -19 -4 -29 -1 -33
11 -3 9 -10 16 -15 16 -4 0 -6 -6 -3 -13z"/>
<path d="M1019 2818 c24 -27 38 -37 26 -19 -3 5 5 12 17 14 18 3 16 5 -7 6
-17 0 -37 7 -45 14 -8 6 -4 0 9 -15z"/>
<path d="M985 2799 c-4 -6 -13 -8 -21 -5 -20 8 -18 3 17 -30 l32 -29 -18 28
c-14 22 -15 27 -3 27 8 0 20 -6 28 -12 8 -7 6 -3 -4 10 -22 25 -23 26 -31 11z"/>
<path d="M940 2754 c-8 -10 -10 -16 -5 -11 5 4 14 -4 20 -19 9 -24 12 -25 24
-10 12 14 12 16 -2 10 -11 -4 -16 2 -19 22 -3 26 -4 27 -18 8z"/>
<path d="M72 2708 c-7 -7 -12 -20 -12 -30 0 -14 8 -18 40 -18 32 0 40 4 40 18
0 22 -19 42 -40 42 -9 0 -21 -5 -28 -12z m56 -20 c3 -14 -3 -18 -27 -18 -29 0
-41 17 -24 34 13 13 48 1 51 -16z"/>
<path d="M893 2708 c-3 -7 -1 -8 5 -4 7 4 12 2 12 -3 0 -6 6 -10 13 -8 6 1 11
-5 9 -13 -3 -12 -1 -13 9 -2 10 9 10 15 1 24 -16 16 -40 19 -49 6z"/>
<path d="M858 2688 c19 -19 -5 -42 -27 -26 -9 7 -3 -2 13 -20 17 -18 32 -32
34 -32 3 0 -3 9 -13 20 -16 18 -16 20 -1 26 9 3 23 1 31 -6 8 -7 15 -10 15 -7
0 10 -47 57 -56 57 -4 0 -3 -5 4 -12z"/>
<path d="M78 2633 c12 -2 32 -2 45 0 12 2 2 4 -23 4 -25 0 -35 -2 -22 -4z"/>
<path d="M80 2578 c0 -14 8 -18 33 -17 27 2 28 2 7 6 -14 3 -28 10 -32 17 -5
7 -8 5 -8 -6z"/>
<path d="M1015 2574 c3 -4 0 -13 -6 -20 -13 -16 -5 -44 12 -44 8 0 8 4 -1 15
-15 19 -7 30 16 21 10 -4 14 -12 9 -24 -5 -14 -4 -15 7 -4 10 10 7 17 -15 37
-15 14 -25 22 -22 19z"/>
<path d="M83 2524 c-7 -20 10 -37 33 -32 12 2 20 13 21 28 l3 25 -12 -25 c-11
-25 -11 -25 -15 -2 -5 25 -21 29 -30 6z m14 -16 c-3 -8 -6 -5 -6 6 -1 11 2 17
5 13 3 -3 4 -12 1 -19z"/>
<path d="M961 2507 c-8 -11 -6 -18 10 -33 22 -19 22 -19 8 3 -18 30 -4 40 23
17 l23 -19 -19 23 c-22 26 -29 27 -45 9z"/>
<path d="M81 2468 c-1 -25 20 -33 32 -12 10 17 11 17 18 -1 6 -16 8 -17 8 -3
1 25 -20 33 -32 12 -10 -17 -11 -17 -18 1 -6 16 -8 17 -8 3z"/>
<path d="M936 2455 c-9 -26 -7 -35 8 -35 23 0 30 20 14 37 -14 13 -16 13 -22
-2z m24 -15 c0 -5 -4 -10 -10 -10 -5 0 -10 5 -10 10 0 6 5 10 10 10 6 0 10 -4
10 -10z"/>
<path d="M895 2420 c16 -16 31 -28 33 -25 7 7 -39 55 -52 55 -5 0 3 -13 19
-30z"/>
<path d="M68 2413 c7 -3 16 -2 19 1 4 3 -2 6 -13 5 -11 0 -14 -3 -6 -6z"/>
<path d="M120 2413 c24 -11 8 -32 -27 -36 l-38 -4 40 1 c32 1 40 5 40 20 0 11
-6 20 -13 22 -7 1 -8 0 -2 -3z"/>
<path d="M851 2397 c-8 -11 -7 -18 7 -29 26 -22 46 -33 38 -20 -3 6 -2 13 4
17 13 8 -6 45 -24 45 -8 0 -19 -6 -25 -13z m42 -11 c3 -8 3 -17 0 -20 -7 -7
-33 13 -33 25 0 15 27 10 33 -5z"/>
<path d="M810 2385 c0 -5 10 -19 21 -32 19 -20 20 -25 8 -40 -13 -16 -12 -17
4 -4 23 18 22 33 -8 61 -14 13 -25 20 -25 15z"/>
<path d="M795 2330 c10 -11 20 -20 23 -20 3 0 -3 9 -13 20 -10 11 -20 20 -23
20 -3 0 3 -9 13 -20z"/>
<path d="M751 2288 c-1 -21 -12 -23 -29 -6 -7 7 -12 10 -12 7 0 -3 14 -18 31
-35 17 -16 28 -22 24 -12 -5 12 0 18 17 21 22 4 22 4 1 6 -12 0 -24 9 -26 19
-4 16 -5 16 -6 0z"/>
<path d="M1030 2250 c0 -6 5 -8 10 -5 6 3 10 -1 10 -9 0 -22 -36 -20 -50 2
-10 15 -10 15 -8 -3 5 -28 63 -29 63 -1 0 11 -6 21 -12 24 -7 2 -13 -1 -13 -8z"/>
<path d="M700 2222 c0 -18 29 -27 43 -13 9 9 8 11 -7 5 -11 -4 -21 -2 -27 7
-6 10 -9 11 -9 1z"/>
<path d="M974 2213 c21 -26 19 -27 -18 -13 -37 14 -40 -3 -6 -35 17 -16 30
-24 30 -18 0 6 -7 16 -15 23 -21 18 -13 22 19 11 34 -13 33 -1 -1 30 -25 22
-26 22 -9 2z"/>
<path d="M655 2200 c-4 -6 1 -7 11 -3 13 5 15 3 9 -7 -5 -8 -4 -11 3 -6 6 3
13 2 16 -3 12 -18 -33 -18 -50 0 -9 11 -20 17 -22 14 -3 -3 7 -18 23 -35 l28
-29 19 25 c16 20 18 28 8 39 -14 17 -36 20 -45 5z"/>
<path d="M880 2140 c0 -12 36 -40 51 -40 8 0 4 6 -9 16 -12 8 -20 19 -18 23 3
4 -1 8 -9 8 -8 0 -15 -3 -15 -7z"/>
<path d="M855 2100 c-8 -13 13 -40 31 -40 20 0 27 19 14 35 -14 17 -36 19 -45
5z m39 -16 c4 -11 1 -14 -11 -12 -9 2 -18 9 -21 16 -6 18 25 15 32 -4z"/>
<path d="M792 2068 c-18 -18 36 -72 55 -57 18 16 16 32 -7 52 -24 20 -32 21
-48 5z m28 -8 c0 -5 7 -10 15 -10 8 0 15 -7 15 -15 0 -21 -12 -19 -33 5 -20
23 -21 30 -7 30 6 0 10 -4 10 -10z"/>
<path d="M763 2004 c-3 -7 -2 -18 2 -24 8 -12 42 -13 49 -1 4 5 -4 7 -16 4
-19 -5 -21 -3 -10 8 16 18 15 26 -4 26 -9 0 -18 -6 -21 -13z"/>
<path d="M989 1973 c-13 -16 -12 -17 3 -5 14 11 18 10 28 -5 10 -17 11 -17 8
1 -4 26 -22 30 -39 9z"/>
<path d="M745 1960 c24 -27 11 -38 -17 -14 l-23 18 22 -24 c19 -20 24 -21 38
-10 14 12 14 15 -1 31 -10 11 -22 19 -27 19 -6 0 -2 -9 8 -20z"/>
<path d="M700 1925 c13 -14 26 -25 28 -25 3 0 -5 11 -18 25 -13 14 -26 25 -28
25 -3 0 5 -11 18 -25z"/>
<path d="M1040 1930 c-8 -5 -12 -12 -9 -15 4 -3 12 1 19 10 14 17 11 19 -10 5z"/>
<path d="M983 1913 c13 -3 17 -11 13 -25 -3 -15 -2 -18 6 -10 15 15 2 42 -19
41 -17 -1 -17 -2 0 -6z"/>
<path d="M650 1875 c18 -19 27 -22 41 -14 26 13 24 17 -6 11 -17 -3 -27 1 -31
12 -3 9 -11 16 -17 16 -6 0 0 -11 13 -25z"/>
<path d="M904 1886 c-6 -16 24 -56 44 -56 23 0 25 30 4 51 -25 23 -41 24 -48
5z m36 -13 c24 -21 26 -33 5 -33 -8 0 -15 7 -15 15 0 8 -4 15 -10 15 -5 0 -10
5 -10 10 0 14 7 13 30 -7z"/>
<path d="M895 1830 c16 -16 31 -28 33 -25 7 7 -39 55 -52 55 -5 0 3 -13 19
-30z"/>
<path d="M854 1808 c-5 -7 -3 -8 6 -3 9 5 10 2 6 -13 -9 -27 12 -39 32 -19 13
13 13 19 2 31 -15 19 -36 21 -46 4z m36 -24 c0 -8 -5 -12 -10 -9 -6 4 -8 11
-5 16 9 14 15 11 15 -7z"/>
<path d="M814 1768 c-4 -7 -3 -8 4 -4 7 4 12 2 12 -3 0 -6 -5 -11 -12 -11 -8
0 -6 -6 5 -17 16 -16 18 -16 35 2 16 18 16 18 -1 6 -20 -16 -36 -6 -19 11 7 7
12 16 12 20 0 12 -28 10 -36 -4z"/>
<path d="M766 1725 c-8 -32 -1 -45 24 -45 31 0 34 20 8 47 l-25 25 -7 -27z
m38 -20 c4 -10 -1 -15 -14 -15 -11 0 -20 7 -20 15 0 8 6 15 14 15 8 0 16 -7
20 -15z"/>
<path d="M724 1678 c-5 -7 -3 -8 6 -3 9 5 10 2 6 -13 -8 -25 10 -38 30 -21 13
10 12 14 -2 30 -20 22 -30 24 -40 7z m32 -35 c-10 -10 -19 5 -10 18 6 11 8 11
12 0 2 -7 1 -15 -2 -18z"/>
<path d="M1020 1683 c8 -3 22 -11 30 -17 13 -10 13 -9 1 7 -7 9 -21 17 -30 16
-13 0 -14 -1 -1 -6z"/>
<path d="M680 1664 c0 -13 48 -59 55 -52 3 2 -9 17 -25 33 -17 16 -30 24 -30
19z"/>
<path d="M981 1657 c-8 -11 -6 -18 10 -33 22 -19 22 -19 8 3 -18 29 -4 41 21
18 21 -19 28 -7 8 13 -16 16 -33 15 -47 -1z"/>
<path d="M945 1620 c-4 -6 -3 -10 2 -9 21 4 33 -2 33 -16 0 -17 -26 -21 -33
-5 -3 6 -4 5 -3 -2 4 -19 35 -22 42 -4 11 28 -26 60 -41 36z"/>
<path d="M646 1607 c9 -25 40 -37 60 -22 17 12 16 13 -9 8 -19 -4 -29 -1 -33
11 -3 9 -10 16 -15 16 -4 0 -6 -6 -3 -13z"/>
<path d="M895 1570 c-8 -13 13 -40 31 -40 22 0 27 21 8 38 -17 16 -17 16 -5
-1 16 -21 9 -32 -15 -23 -9 3 -14 12 -10 21 6 17 0 20 -9 5z"/>
<path d="M860 1553 c0 -5 11 -20 25 -33 14 -13 25 -19 25 -13 0 5 -11 20 -25
33 -14 13 -25 19 -25 13z"/>
<path d="M835 1510 c-4 -6 -11 -7 -17 -4 -6 4 -8 2 -5 -3 4 -6 0 -16 -8 -23
-14 -11 -14 -15 1 -31 10 -11 22 -19 27 -19 6 0 2 9 -7 19 -24 27 -11 48 15
25 18 -16 21 -16 36 -1 13 13 14 19 3 31 -14 18 -36 21 -45 6z m35 -15 c10
-13 9 -15 -9 -15 -12 0 -21 6 -21 15 0 8 4 15 9 15 5 0 14 -7 21 -15z"/>
<path d="M764 1438 c-4 -7 -3 -8 4 -4 7 4 12 2 12 -3 0 -6 -4 -11 -10 -11 -16
0 -12 -20 6 -27 9 -3 23 2 32 13 16 17 16 17 -1 5 -21 -16 -35 -7 -19 12 11
13 7 27 -9 27 -4 0 -11 -5 -15 -12z"/>
<path d="M700 1403 c0 -11 43 -53 54 -53 4 0 5 4 1 9 -3 5 3 12 12 14 14 4 13
5 -4 6 -13 0 -23 6 -23 13 0 6 -3 8 -7 5 -3 -4 -12 -2 -20 4 -7 6 -13 7 -13 2z"/>
<path d="M1002 1389 c10 -5 24 -19 31 -30 13 -17 16 -18 27 -4 11 13 10 15 -2
10 -8 -3 -23 3 -33 15 -10 11 -23 20 -29 20 -6 0 -3 -5 6 -11z"/>
<path d="M683 1354 c-3 -8 2 -23 11 -32 10 -10 16 -12 16 -4 0 7 -5 12 -11 12
-6 0 -9 9 -6 20 6 24 -1 27 -10 4z"/>
<path d="M961 1337 c-8 -11 -3 -20 21 -43 18 -17 29 -22 25 -13 -3 9 0 23 6
30 10 11 9 11 -4 1 -12 -9 -18 -9 -27 0 -18 18 -14 31 8 25 11 -3 18 -1 14 4
-8 13 -30 11 -43 -4z"/>
<path d="M622 1328 c-7 -7 -12 -16 -12 -22 0 -5 6 -1 14 9 15 21 43 15 53 -11
4 -11 -1 -22 -13 -32 -10 -8 -13 -12 -5 -10 29 8 36 35 17 57 -22 24 -37 26
-54 9z"/>
<path d="M934 1301 c16 -18 16 -19 -9 -24 -23 -4 -26 -2 -21 16 3 14 2 17 -6
9 -19 -19 -1 -43 27 -36 25 6 32 -3 18 -21 -5 -6 1 -1 13 10 l21 20 -24 23
c-29 27 -43 29 -19 3z"/>
<path d="M580 1245 c0 -18 -12 -19 -28 -3 -7 7 -12 10 -12 7 0 -3 13 -17 28
-32 l28 -27 -4 35 c-4 35 -12 48 -12 20z"/>
<path d="M534 1209 c-3 -6 4 -21 16 -33 l22 -21 -16 26 c-9 14 -13 29 -9 32 3
4 4 7 0 7 -3 0 -9 -5 -13 -11z"/>
<path d="M494 1168 c-5 -7 -3 -8 6 -3 9 5 10 2 6 -13 -9 -27 12 -39 32 -19 13
13 13 19 2 31 -15 19 -36 21 -46 4z m32 -35 c-10 -10 -19 5 -10 18 6 11 8 11
12 0 2 -7 1 -15 -2 -18z"/>
<path d="M453 1128 c2 -17 8 -33 14 -35 7 -3 9 4 6 19 l-6 23 24 -20 c17 -14
16 -11 -5 13 -17 17 -31 32 -33 32 -2 0 -2 -14 0 -32z"/>
<path d="M410 1115 c0 -9 44 -55 52 -55 5 0 -1 14 -14 30 -19 27 -38 39 -38
25z"/>
<path d="M1016 1094 c-10 -37 19 -63 43 -39 14 14 13 18 -10 41 l-26 26 -7
-28z m37 -18 c3 -8 3 -16 0 -19 -9 -10 -33 5 -33 19 0 18 26 18 33 0z"/>
<path d="M984 1059 c-3 -6 4 -21 16 -33 l22 -21 -16 26 c-9 14 -13 29 -9 32 3
4 4 7 0 7 -3 0 -9 -5 -13 -11z"/>
<path d="M388 1038 c4 -16 2 -19 -9 -13 -8 4 -3 -3 11 -16 14 -14 27 -24 28
-23 2 1 -2 19 -9 38 -14 39 -31 50 -21 14z"/>
<path d="M341 1017 c-8 -11 -6 -18 11 -33 18 -15 20 -16 9 -2 -7 10 -11 25 -7
33 7 19 2 19 -13 2z"/>
<path d="M944 1018 c-5 -7 -3 -8 6 -3 9 5 10 2 6 -13 -8 -25 10 -38 30 -21 13
10 12 14 -2 30 -20 22 -30 24 -40 7z m32 -35 c-10 -10 -19 5 -10 18 6 11 8 11
12 0 2 -7 1 -15 -2 -18z"/>
<path d="M904 978 c-4 -7 -3 -8 4 -4 8 5 12 0 12 -13 0 -27 15 -34 30 -16 11
13 10 14 -4 9 -12 -4 -16 0 -16 15 0 23 -14 28 -26 9z"/>
<path d="M317 966 c-4 -11 -1 -13 10 -9 11 4 14 2 11 -8 -3 -8 -11 -13 -17
-11 -7 1 -9 -3 -6 -9 5 -8 12 -6 23 5 15 15 15 17 1 32 -15 14 -17 14 -22 0z"/>
<path d="M250 950 c0 -5 5 -10 11 -10 5 0 7 -6 3 -12 -4 -7 -3 -10 1 -5 5 4
17 0 27 -10 27 -24 22 0 -5 25 -25 24 -37 28 -37 12z"/>
<path d="M843 920 c-3 -37 22 -59 43 -39 12 13 11 18 -13 41 l-28 27 -2 -29z
m37 -27 c0 -20 -24 -11 -28 10 -2 12 1 15 12 11 9 -3 16 -13 16 -21z"/>
<path d="M895 930 c10 -11 20 -20 23 -20 3 0 -3 9 -13 20 -10 11 -20 20 -23
20 -3 0 3 -9 13 -20z"/>
<path d="M210 917 c0 -2 15 -16 32 -33 18 -16 25 -20 15 -8 -9 11 -17 26 -17
32 0 7 -7 12 -15 12 -8 0 -15 -1 -15 -3z"/>
<path d="M255 900 c3 -5 10 -10 16 -10 5 0 9 5 9 10 0 6 -7 10 -16 10 -8 0
-12 -4 -9 -10z"/>
<path d="M802 878 c-7 -7 -8 -17 -1 -30 10 -19 34 -24 43 -9 4 5 -4 7 -16 3
-21 -5 -22 -4 -9 12 17 20 2 43 -17 24z m18 -8 c0 -5 -5 -10 -11 -10 -5 0 -7
5 -4 10 3 6 8 10 11 10 2 0 4 -4 4 -10z"/>
<path d="M776 828 c7 -23 34 -68 34 -56 0 3 -7 22 -15 42 -17 40 -31 49 -19
14z"/>
<path d="M1014 823 c8 -25 -12 -42 -25 -22 -5 8 -9 9 -9 3 0 -6 11 -21 25 -34
14 -13 25 -19 25 -13 0 6 -6 13 -12 16 -10 4 -10 7 -1 17 10 11 15 11 28 0 30
-25 25 -3 -6 26 -28 26 -31 27 -25 7z"/>
<path d="M740 816 c0 -2 7 -7 16 -10 8 -3 12 -2 9 4 -6 10 -25 14 -25 6z"/>
<path d="M714 788 c-5 -7 -3 -8 6 -3 9 5 10 2 6 -13 -8 -25 10 -38 30 -21 13
10 12 14 -2 30 -20 22 -30 24 -40 7z m32 -35 c-10 -10 -19 5 -10 18 6 11 8 11
12 0 2 -7 1 -15 -2 -18z"/>
<path d="M664 769 c-3 -6 6 -23 22 -38 15 -14 22 -18 15 -9 -7 9 -10 22 -6 27
4 7 -1 8 -11 4 -13 -5 -16 -3 -11 10 7 19 2 23 -9 6z"/>
<path d="M932 757 c-9 -11 -6 -19 17 -41 24 -23 30 -25 40 -12 21 25 10 61
-20 64 -14 2 -31 -3 -37 -11z m56 -24 c4 -25 -16 -31 -36 -11 -20 20 -14 40
11 36 14 -2 23 -11 25 -25z"/>
<path d="M891 716 c-8 -9 -3 -20 21 -42 17 -16 27 -22 22 -14 -4 8 -7 25 -6
36 4 25 -22 39 -37 20z m26 -22 c-9 -9 -28 6 -21 18 4 6 10 6 17 -1 6 -6 8
-13 4 -17z"/>
<path d="M989 523 c-11 -15 -11 -16 1 -5 19 16 30 15 30 -3 0 -8 5 -15 10 -15
7 0 7 6 0 20 -13 25 -24 25 -41 3z"/>
<path d="M1040 480 c-8 -5 -12 -12 -9 -15 4 -3 12 1 19 10 14 17 11 19 -10 5z"/>
<path d="M967 473 c-14 -13 -6 -23 19 -23 24 0 25 -2 13 -17 -12 -17 -12 -17
5 -1 23 20 13 38 -16 30 -14 -3 -19 -2 -14 6 8 13 3 16 -7 5z"/>
<path d="M924 425 c-3 -8 -3 -19 1 -26 5 -7 1 -9 -12 -5 -13 4 -27 -2 -43 -19
-19 -20 -21 -27 -10 -40 7 -8 17 -15 23 -15 5 0 3 8 -6 18 -23 25 -9 37 16 15
19 -18 19 -17 6 4 -18 30 -4 41 23 17 19 -17 21 -17 15 -1 -5 12 -1 17 13 17
10 0 21 4 24 9 4 5 -4 7 -16 3 -21 -5 -22 -4 -9 12 8 9 11 19 7 23 -3 3 -6 1
-6 -5 0 -7 -5 -12 -11 -12 -5 0 -7 5 -4 10 3 6 4 10 0 10 -3 0 -8 -7 -11 -15z"/>
<path d="M830 333 c0 -5 9 -18 20 -28 11 -10 20 -14 20 -8 0 5 -9 18 -20 28
-11 10 -20 14 -20 8z"/>
<path d="M804 309 c-3 -6 0 -15 7 -20 11 -7 10 -9 -3 -9 -10 0 -18 -4 -18 -9
0 -4 10 -7 23 -6 32 3 32 3 14 23 -10 10 -14 22 -10 25 3 4 4 7 0 7 -3 0 -9
-5 -13 -11z"/>
<path d="M1157 303 c-11 -10 -8 -61 4 -69 6 -3 16 -1 22 5 9 9 8 11 -5 6 -15
-6 -18 -1 -18 25 0 25 3 31 16 26 8 -3 12 -2 9 4 -7 12 -19 13 -28 3z"/>
<path d="M2008 303 c6 -2 12 -17 12 -33 0 -16 -6 -31 -12 -33 -7 -3 -4 -6 7
-6 18 -1 20 4 17 39 -3 29 -8 40 -21 39 -10 0 -11 -2 -3 -6z"/>
<path d="M2054 296 c-11 -28 0 -61 21 -61 16 0 20 7 20 35 0 25 -5 36 -18 38
-9 2 -20 -3 -23 -12z m36 -26 c0 -20 -5 -30 -15 -30 -10 0 -15 10 -15 30 0 20
5 30 15 30 10 0 15 -10 15 -30z"/>
<path d="M2115 291 c-9 -30 4 -63 23 -59 12 2 17 14 17 38 0 40 -29 55 -40 21z
m35 -21 c0 -16 -5 -30 -10 -30 -14 0 -24 26 -16 45 10 26 26 16 26 -15z"/>
<path d="M2943 303 c21 -6 22 -26 2 -43 -22 -18 -18 -30 8 -30 17 0 19 2 8 9
-12 8 -12 12 -2 25 17 20 7 46 -16 45 -17 -1 -17 -2 0 -6z"/>
<path d="M2984 296 c-11 -28 0 -61 21 -61 16 0 20 7 20 35 0 25 -5 36 -18 38
-9 2 -20 -3 -23 -12z m36 -26 c0 -20 -5 -30 -15 -30 -10 0 -15 10 -15 30 0 20
5 30 15 30 10 0 15 -10 15 -30z"/>
<path d="M3045 291 c-9 -30 4 -63 23 -59 12 2 17 14 17 38 0 40 -29 55 -40 21z
m35 -21 c0 -31 -16 -41 -26 -15 -8 19 2 45 16 45 5 0 10 -13 10 -30z"/>
<path d="M3863 303 c20 -5 22 -19 5 -26 -10 -4 -10 -6 0 -6 18 -1 14 -29 -5
-34 -14 -4 -12 -5 5 -6 19 -1 22 4 22 39 0 35 -3 40 -22 39 -17 -1 -19 -2 -5
-6z"/>
<path d="M3904 296 c-10 -25 0 -61 18 -64 19 -4 32 29 23 58 -7 23 -33 27 -41
6z m31 -26 c0 -13 -6 -25 -12 -27 -9 -3 -13 6 -13 27 0 21 4 30 13 28 6 -3 12
-15 12 -28z"/>
<path d="M3965 291 c-9 -30 4 -63 23 -59 12 2 17 14 17 38 0 40 -29 55 -40 21z
m35 -21 c0 -16 -5 -30 -10 -30 -14 0 -24 26 -16 45 10 26 26 16 26 -15z"/>
<path d="M4777 280 c-18 -29 -18 -30 2 -30 12 0 21 -6 21 -12 0 -10 3 -9 9 1
6 9 11 10 15 2 21 -33 54 8 41 50 -9 27 -37 20 -46 -11 l-7 -25 -1 28 c-1 35
-12 34 -34 -3z m78 -10 c0 -13 -6 -25 -12 -27 -9 -3 -13 6 -13 27 0 21 4 30
13 28 6 -3 12 -15 12 -28z m-59 -7 c-10 -10 -19 5 -10 18 6 11 8 11 12 0 2 -7
1 -15 -2 -18z"/>
<path d="M4885 291 c-9 -30 4 -63 23 -59 12 2 17 14 17 38 0 40 -29 55 -40 21z
m35 -21 c0 -31 -16 -41 -26 -15 -8 19 2 45 16 45 5 0 10 -13 10 -30z"/>
<path d="M5690 291 c0 -11 9 -21 23 -24 20 -5 20 -5 5 7 -10 7 -18 16 -18 19
0 3 8 8 18 10 13 4 11 5 -5 6 -16 1 -23 -5 -23 -18z"/>
<path d="M5744 296 c-11 -28 0 -61 21 -61 16 0 20 7 20 35 0 25 -5 36 -18 38
-9 2 -20 -3 -23 -12z m36 -26 c0 -20 -5 -30 -15 -30 -10 0 -15 10 -15 30 0 20
5 30 15 30 10 0 15 -10 15 -30z"/>
<path d="M5805 291 c-9 -30 4 -63 23 -59 12 2 17 14 17 38 0 40 -29 55 -40 21z
m35 -21 c0 -31 -16 -41 -26 -15 -8 19 2 45 16 45 5 0 10 -13 10 -30z"/>
<path d="M6614 296 c-3 -8 -4 -25 -2 -38 3 -20 9 -23 48 -23 45 0 45 0 45 35
0 26 -5 36 -18 38 -12 2 -20 -3 -24 -16 -3 -14 -11 -18 -24 -15 -24 7 -25 20
-1 26 16 4 16 5 -1 6 -10 0 -20 -5 -23 -13z m86 -26 c0 -20 -5 -30 -15 -30
-10 0 -15 10 -15 30 0 20 5 30 15 30 10 0 15 -10 15 -30z m-58 -15 c0 -5 -5
-11 -11 -13 -6 -2 -11 4 -11 13 0 9 5 15 11 13 6 -2 11 -8 11 -13z"/>
<path d="M6725 291 c-9 -30 4 -63 23 -59 12 2 17 14 17 38 0 40 -29 55 -40 21z
m35 -21 c0 -31 -16 -41 -26 -15 -8 19 2 45 16 45 5 0 10 -13 10 -30z"/>
<path d="M746 255 c10 -26 39 -36 60 -21 17 13 16 14 -9 9 -19 -4 -29 -1 -33
11 -3 9 -10 16 -15 16 -4 0 -6 -7 -3 -15z"/>
<path d="M5705 240 c-16 -7 -17 -9 -3 -9 9 -1 20 4 23 9 7 11 7 11 -20 0z"/>
<path d="M3572 128 c1 -41 1 -41 5 -8 l5 35 13 -32 c16 -38 30 -43 32 -11 2
18 0 19 -7 8 -7 -12 -12 -8 -21 18 -15 45 -29 40 -27 -10z"/>
<path d="M3800 132 c0 -39 2 -43 23 -40 28 4 36 45 10 55 -10 4 -21 11 -25 17
-4 6 -8 -8 -8 -32z m40 -12 c0 -21 -15 -27 -25 -10 -7 12 2 30 16 30 5 0 9 -9
9 -20z"/>
<path d="M4067 163 c-4 -3 -6 -22 -6 -42 1 -28 3 -30 6 -11 3 14 10 28 17 32
7 5 6 8 -4 8 -13 0 -13 1 0 10 8 5 10 10 4 10 -6 0 -14 -3 -17 -7z"/>
<path d="M4130 130 c0 -35 3 -40 23 -39 16 1 18 2 5 6 -10 2 -18 11 -18 18 0
7 8 16 18 18 16 4 16 5 0 6 -10 0 -18 5 -18 10 0 5 8 12 18 14 13 4 11 5 -5 6
-20 1 -23 -4 -23 -39z"/>
<path d="M4230 161 c0 -5 -9 -11 -21 -14 -29 -8 -22 -51 9 -55 20 -3 22 1 22
37 0 23 -2 41 -5 41 -3 0 -5 -4 -5 -9z m-5 -41 c0 -7 -6 -15 -12 -17 -8 -3
-13 4 -13 17 0 13 5 20 13 18 6 -3 12 -11 12 -18z"/>
<path d="M4282 128 c2 -17 9 -33 16 -34 7 -1 8 0 2 3 -14 7 -13 40 2 45 7 3 5
7 -6 11 -15 6 -17 2 -14 -25z"/>
<path d="M3641 138 c-2 -28 10 -48 30 -48 15 0 19 7 18 33 -2 31 -2 31 -6 4
-5 -33 -25 -31 -34 4 -4 14 -7 17 -8 7z"/>
<path d="M3711 118 c2 -31 2 -31 6 -5 2 15 9 27 14 27 5 0 9 -12 10 -27 1 -28
1 -28 8 -4 9 34 29 37 34 6 4 -24 4 -24 3 2 -1 25 -5 28 -38 31 -37 2 -38 1
-37 -30z"/>
<path d="M3885 141 c19 -9 19 -10 -4 -10 -17 -1 -22 -5 -17 -17 3 -9 6 -18 6
-20 0 -2 10 -4 23 -3 21 0 21 1 -3 11 l-25 11 23 5 c27 4 24 26 -4 29 -18 3
-18 2 1 -6z"/>
<path d="M3931 118 c2 -28 2 -29 6 -8 3 14 10 28 17 32 7 5 5 8 -6 8 -14 0
-18 -8 -17 -32z"/>
<path d="M4004 135 c-8 -21 2 -45 20 -45 17 0 28 24 20 45 -4 8 -13 15 -20 15
-8 0 -17 -7 -20 -15z m31 -15 c0 -7 -6 -15 -12 -17 -8 -3 -13 4 -13 17 0 13 5
20 13 18 6 -3 12 -11 12 -18z"/>
<path d="M4252 125 c0 -16 2 -22 5 -12 2 9 2 23 0 30 -3 6 -5 -1 -5 -18z"/>
<path d="M4320 136 c0 -8 8 -17 18 -21 16 -7 15 -8 -3 -15 -16 -7 -17 -9 -3
-9 25 -1 33 20 12 32 -17 10 -17 11 1 18 19 7 18 8 -2 8 -13 1 -23 -5 -23 -13z"/>
</g>
</svg>
