<?xml version="1.0" standalone="no"?>
<!DOCTYPE svg PUBLIC "-//W3C//DTD SVG 20010904//EN"
 "http://www.w3.org/TR/2001/REC-SVG-20010904/DTD/svg10.dtd">
<svg version="1.0" xmlns="http://www.w3.org/2000/svg"
 width="685.000000pt" height="496.000000pt" viewBox="0 0 685.000000 496.000000"
 preserveAspectRatio="xMidYMid meet">
<metadata>
Created by potrace 1.16, written by Peter Selinger 2001-2019
</metadata>
<g transform="translate(0.000000,496.000000) scale(0.100000,-0.100000)"
fill="#000000" stroke="none">
<path d="M3872 4840 c0 -40 2 -47 7 -26 9 42 29 44 34 4 l5 -33 -2 35 c-1 24
-6 35 -16 35 -8 0 -18 9 -22 20 -3 11 -6 -4 -6 -35z"/>
<path d="M4440 4871 c0 -14 -5 -18 -19 -14 -13 3 -21 -2 -25 -15 -10 -30 3
-52 30 -50 22 2 24 7 24 50 0 26 -2 48 -5 48 -3 0 -5 -9 -5 -19z m-3 -37 c8
-21 -13 -42 -28 -27 -13 13 -5 43 11 43 6 0 13 -7 17 -16z"/>
<path d="M3314 4840 c1 -36 5 -46 20 -49 11 -2 26 5 33 15 16 21 17 74 2 74
-5 0 -9 -8 -8 -17 4 -46 -1 -64 -18 -61 -12 2 -20 16 -24 43 l-7 40 2 -45z"/>
<path d="M3818 4867 c-7 -21 6 -70 20 -73 7 -1 8 0 2 3 -12 6 -13 50 -1 55 5
2 3 8 -4 15 -10 9 -14 9 -17 0z"/>
<path d="M4238 4869 c-2 -6 -2 -26 0 -45 3 -24 9 -34 21 -33 10 0 11 2 4 6
-15 5 -18 50 -4 55 5 2 3 8 -4 15 -9 9 -15 9 -17 2z"/>
<path d="M4508 4869 c-2 -6 -2 -26 0 -45 3 -24 9 -34 21 -33 10 0 11 2 4 6
-15 5 -18 50 -4 55 5 2 3 8 -4 15 -9 9 -15 9 -17 2z"/>
<path d="M3395 4850 c-8 -14 3 -30 21 -30 20 0 18 -18 -3 -23 -16 -4 -16 -5
-1 -6 24 -2 34 20 15 34 -22 16 -21 22 1 28 13 4 12 5 -5 6 -12 0 -25 -3 -28
-9z"/>
<path d="M3464 4846 c-11 -28 1 -51 26 -53 22 -1 22 -1 3 4 -31 6 -29 23 2 23
27 0 32 9 13 28 -16 16 -37 15 -44 -2z m41 -6 c3 -5 -3 -10 -14 -10 -12 0 -21
5 -21 10 0 6 6 10 14 10 8 0 18 -4 21 -10z"/>
<path d="M3532 4825 c-2 -19 2 -35 8 -35 5 0 10 13 10 29 0 16 6 32 13 34 6 3
3 6 -8 6 -17 1 -21 -6 -23 -34z"/>
<path d="M3585 4850 c-8 -14 3 -30 21 -30 20 0 18 -18 -3 -23 -15 -3 -14 -4 1
-3 27 1 32 26 7 33 -28 7 -27 20 2 26 22 4 22 4 0 6 -12 0 -25 -3 -28 -9z"/>
<path d="M3686 4833 c10 -42 22 -49 30 -18 l7 28 12 -29 c12 -30 18 -26 29 19
4 19 3 26 -4 22 -5 -3 -10 -14 -11 -23 0 -11 -4 -9 -10 8 l-10 25 -14 -25
c-10 -18 -14 -20 -15 -8 0 9 -5 20 -10 23 -7 4 -8 -3 -4 -22z"/>
<path d="M3793 4825 c0 -22 2 -30 4 -17 2 12 2 30 0 40 -3 9 -5 -1 -4 -23z"/>
<path d="M3981 4823 c1 -36 2 -36 8 -9 9 41 31 46 31 7 0 -17 5 -31 10 -31 6
0 10 14 10 31 0 39 22 34 32 -7 6 -27 6 -27 5 6 -2 34 -3 35 -49 38 l-48 2 1
-37z"/>
<path d="M4104 4846 c-10 -26 0 -51 21 -51 16 0 20 7 20 30 0 33 -30 49 -41
21z m36 -21 c0 -16 -6 -25 -15 -25 -9 0 -15 9 -15 25 0 16 6 25 15 25 9 0 15
-9 15 -25z"/>
<path d="M4174 4848 c-4 -6 0 -16 9 -23 22 -16 21 -22 0 -29 -11 -3 -8 -4 6
-3 31 3 40 27 12 34 -26 7 -27 20 -3 26 15 4 15 5 0 6 -9 0 -20 -4 -24 -11z"/>
<path d="M4324 4846 c-11 -28 1 -51 26 -53 l25 -3 -25 12 -25 12 28 4 c29 4
33 12 15 30 -16 16 -37 15 -44 -2z m41 -6 c3 -5 -3 -10 -15 -10 -12 0 -18 5
-15 10 3 6 10 10 15 10 5 0 12 -4 15 -10z"/>
<path d="M4473 4825 c0 -22 2 -30 4 -17 2 12 2 30 0 40 -3 9 -5 -1 -4 -23z"/>
<path d="M4555 4850 c-8 -14 3 -30 21 -30 20 0 18 -18 -3 -23 -15 -3 -14 -4 1
-3 27 1 32 26 7 33 -26 7 -27 20 -3 26 15 4 15 5 0 6 -9 0 -20 -3 -23 -9z"/>
<path d="M1171 4623 c-1 -79 -5 -113 -13 -116 -10 -4 -10 -6 0 -6 9 -1 12 -50
12 -210 0 -158 -3 -211 -12 -214 -10 -4 -10 -6 0 -6 9 -1 12 -51 12 -215 0
-162 -3 -216 -12 -219 -10 -4 -10 -6 0 -6 18 -1 18 -417 0 -424 -10 -4 -10 -6
0 -6 18 -1 18 -427 0 -434 -10 -4 -10 -6 0 -6 18 -1 18 -417 0 -424 -10 -4
-10 -6 0 -6 18 -1 18 -427 0 -434 -10 -4 -10 -6 0 -6 18 -1 18 -417 0 -424
-10 -4 -10 -6 0 -6 18 -1 18 -427 0 -434 -10 -4 -10 -6 0 -6 18 -1 18 -417 0
-424 -10 -4 -10 -6 0 -6 9 -1 12 -34 13 -128 1 -71 3 -120 6 -111 4 17 34 18
458 18 424 0 454 -1 458 -17 4 -17 5 -17 6 0 1 16 30 17 455 17 424 0 455 -1
459 -17 4 -17 5 -17 6 0 1 16 30 17 455 17 424 0 455 -1 459 -18 4 -16 5 -16
6 1 1 16 30 17 455 17 424 0 455 -1 459 -17 4 -17 5 -17 6 0 1 16 30 17 450
17 420 0 450 -1 454 -17 4 -17 5 -17 6 0 1 16 30 17 455 17 424 0 455 -1 459
-17 4 -16 5 -16 6 -1 1 12 12 18 39 21 20 2 -1220 4 -2755 5 l-2793 2 0 1195
0 1195 1165 0 1165 0 0 90 0 90 -1165 0 -1165 0 0 130 0 130 1220 0 1220 0 0
85 0 85 -1220 0 -1220 0 0 130 0 130 1510 0 1510 0 0 90 0 90 -1510 0 -1510 0
0 130 0 130 1670 0 1670 0 0 85 0 85 -1670 0 -1670 0 0 130 0 130 2650 0 2650
0 0 90 0 90 -2649 0 -2650 0 -4 23 c-2 12 -5 -28 -6 -90z"/>
<path d="M1010 4495 c-10 -13 -9 -19 5 -35 10 -11 20 -18 23 -16 2 3 -3 12
-12 21 -22 22 -9 41 13 21 25 -23 37 -20 16 4 -22 24 -29 25 -45 5z"/>
<path d="M963 4448 c-4 -7 -1 -8 7 -3 9 5 10 2 6 -13 -9 -27 12 -39 32 -18 13
12 13 19 4 28 -16 16 -40 19 -49 6z m37 -24 c0 -8 -5 -12 -10 -9 -6 4 -8 11
-5 16 9 14 15 11 15 -7z"/>
<path d="M920 4427 c0 -7 13 -21 28 -31 27 -20 27 -20 9 0 -9 12 -15 23 -12
26 3 3 -1 8 -10 11 -8 4 -15 1 -15 -6z"/>
<path d="M934 4360 c0 -13 4 -16 10 -10 7 7 7 13 0 20 -6 6 -10 3 -10 -10z"/>
<path d="M860 4353 c1 -15 49 -43 55 -33 3 5 -1 10 -10 10 -8 0 -18 7 -21 15
-6 15 -24 21 -24 8z"/>
<path d="M830 4347 c0 -2 15 -16 33 -33 l32 -29 -29 33 c-28 30 -36 37 -36 29z"/>
<path d="M817 4304 c-13 -13 -7 -42 10 -48 23 -9 40 10 27 31 -12 20 -27 26
-37 17z m31 -28 c3 -12 -1 -17 -10 -14 -7 3 -15 13 -16 22 -3 12 1 17 10 14 7
-3 15 -13 16 -22z"/>
<path d="M756 4245 c8 -19 52 -31 65 -18 7 7 2 9 -15 6 -18 -4 -28 0 -32 11
-3 9 -10 16 -15 16 -4 0 -6 -7 -3 -15z"/>
<path d="M1019 4048 c24 -27 38 -37 26 -19 -3 5 5 12 17 14 18 3 16 5 -7 6
-17 0 -37 7 -45 14 -8 6 -4 0 9 -15z"/>
<path d="M985 4029 c-4 -6 -13 -8 -21 -5 -20 8 -18 3 17 -30 l32 -29 -18 28
c-14 22 -15 27 -3 27 8 0 20 -6 28 -12 8 -7 6 -3 -4 10 -22 25 -23 26 -31 11z"/>
<path d="M940 3984 c-8 -10 -10 -16 -5 -11 5 4 14 -4 20 -19 9 -24 12 -25 24
-10 12 14 12 16 -2 10 -11 -4 -16 2 -19 22 -3 26 -4 27 -18 8z"/>
<path d="M893 3938 c-3 -7 -1 -8 5 -4 7 4 12 2 12 -4 0 -6 4 -9 9 -5 5 3 12 1
15 -4 4 -5 -2 -12 -11 -14 -16 -4 -16 -5 -1 -6 22 -1 33 18 19 32 -15 15 -40
17 -48 5z"/>
<path d="M858 3918 c19 -19 -5 -42 -27 -26 -9 7 -3 -2 13 -20 17 -18 32 -32
34 -32 3 0 -3 9 -13 20 -16 18 -16 20 -1 26 9 3 23 1 31 -6 8 -7 15 -10 15 -7
0 8 -49 57 -57 57 -4 0 -2 -5 5 -12z"/>
<path d="M1015 3654 c3 -4 0 -13 -6 -20 -13 -16 -5 -44 12 -44 8 0 8 4 -1 15
-15 19 -7 30 16 21 10 -4 14 -12 9 -24 -5 -14 -4 -15 7 -4 10 10 7 17 -15 37
-15 14 -25 22 -22 19z"/>
<path d="M961 3587 c-8 -11 -6 -18 10 -33 22 -19 22 -19 8 3 -18 30 -4 40 23
17 l23 -19 -19 23 c-22 26 -29 27 -45 9z"/>
<path d="M936 3535 c-9 -26 -7 -35 8 -35 23 0 30 20 14 37 -14 13 -16 13 -22
-2z m24 -15 c0 -5 -4 -10 -10 -10 -5 0 -10 5 -10 10 0 6 5 10 10 10 6 0 10 -4
10 -10z"/>
<path d="M895 3500 c16 -16 31 -28 33 -25 7 7 -39 55 -52 55 -5 0 3 -13 19
-30z"/>
<path d="M851 3477 c-8 -11 -7 -18 7 -29 26 -22 46 -33 38 -20 -3 6 -2 13 4
17 13 8 -6 45 -24 45 -8 0 -19 -6 -25 -13z m42 -11 c3 -8 3 -17 0 -20 -7 -7
-33 13 -33 25 0 15 27 10 33 -5z"/>
<path d="M810 3465 c0 -5 10 -19 21 -32 19 -20 20 -25 8 -40 -13 -16 -12 -17
4 -4 23 18 22 33 -8 61 -14 13 -25 20 -25 15z"/>
<path d="M795 3410 c10 -11 20 -20 23 -20 3 0 -3 9 -13 20 -10 11 -20 20 -23
20 -3 0 3 -9 13 -20z"/>
<path d="M751 3368 c-1 -21 -12 -23 -29 -6 -7 7 -12 10 -12 7 0 -3 14 -18 31
-35 17 -16 28 -22 24 -12 -5 12 0 18 17 21 22 4 22 4 1 6 -12 0 -24 9 -26 19
-4 16 -5 16 -6 0z"/>
<path d="M700 3302 c0 -18 29 -27 43 -13 9 9 8 11 -7 5 -11 -4 -21 -2 -27 7
-6 10 -9 11 -9 1z"/>
<path d="M655 3280 c-3 -5 0 -8 7 -5 8 3 13 -3 13 -19 l0 -25 -27 26 c-36 34
-37 18 -2 -18 l27 -28 19 25 c16 20 18 28 8 39 -14 17 -36 20 -45 5z m40 -20
c3 -5 1 -10 -4 -10 -6 0 -11 5 -11 10 0 6 2 10 4 10 3 0 8 -4 11 -10z"/>
<path d="M1030 3190 c0 -6 5 -8 10 -5 6 3 10 -1 10 -9 0 -22 -36 -20 -50 2
-10 15 -10 15 -8 -3 5 -28 63 -29 63 -1 0 11 -6 21 -12 24 -7 2 -13 -1 -13 -8z"/>
<path d="M974 3153 c21 -26 19 -27 -18 -13 -37 14 -40 -3 -6 -35 17 -16 30
-24 30 -18 0 6 -7 16 -15 23 -21 18 -13 22 19 11 34 -13 33 -1 -1 30 -25 22
-26 22 -9 2z"/>
<path d="M880 3080 c0 -12 36 -40 51 -40 8 0 4 6 -9 16 -12 8 -20 19 -18 23 3
4 -1 8 -9 8 -8 0 -15 -3 -15 -7z"/>
<path d="M855 3040 c-8 -13 13 -40 31 -40 20 0 27 19 14 35 -14 17 -36 19 -45
5z m43 -18 c3 -9 -2 -13 -14 -10 -9 1 -19 9 -22 16 -3 9 2 13 14 10 9 -1 19
-9 22 -16z"/>
<path d="M792 3008 c-18 -18 36 -72 55 -57 18 16 16 32 -7 52 -24 20 -32 21
-48 5z m28 -8 c0 -5 7 -10 15 -10 8 0 15 -7 15 -15 0 -21 -12 -19 -33 5 -20
23 -21 30 -7 30 6 0 10 -4 10 -10z"/>
<path d="M763 2944 c-3 -7 -2 -18 2 -24 8 -12 42 -13 49 -1 4 5 -4 7 -16 4
-19 -5 -21 -3 -10 8 16 18 15 26 -4 26 -9 0 -18 -6 -21 -13z"/>
<path d="M745 2900 c24 -27 11 -38 -17 -14 l-23 18 22 -24 c19 -20 24 -21 38
-10 14 12 14 15 -1 31 -10 11 -22 19 -27 19 -6 0 -2 -9 8 -20z"/>
<path d="M700 2865 c13 -14 26 -25 28 -25 3 0 -5 11 -18 25 -13 14 -26 25 -28
25 -3 0 5 -11 18 -25z"/>
<path d="M636 2825 c8 -19 52 -31 65 -18 7 7 2 9 -15 6 -18 -4 -28 0 -32 11
-3 9 -10 16 -15 16 -4 0 -6 -7 -3 -15z"/>
<path d="M989 2773 c-13 -16 -12 -17 3 -5 14 11 18 10 28 -5 10 -17 11 -17 8
1 -4 26 -22 30 -39 9z"/>
<path d="M1040 2730 c-8 -5 -12 -12 -9 -15 4 -3 12 1 19 10 14 17 11 19 -10 5z"/>
<path d="M72 2708 c-7 -7 -12 -20 -12 -30 0 -14 8 -18 40 -18 32 0 40 4 40 18
0 22 -19 42 -40 42 -9 0 -21 -5 -28 -12z m56 -20 c3 -14 -3 -18 -27 -18 -29 0
-41 17 -24 34 13 13 48 1 51 -16z"/>
<path d="M983 2713 c13 -3 17 -11 13 -25 -3 -15 -2 -18 6 -10 15 15 2 42 -19
41 -17 -1 -17 -2 0 -6z"/>
<path d="M904 2686 c-6 -16 24 -56 44 -56 23 0 25 30 4 51 -25 23 -41 24 -48
5z m36 -13 c24 -21 26 -33 5 -33 -8 0 -15 7 -15 15 0 8 -4 15 -10 15 -5 0 -10
5 -10 10 0 14 7 13 30 -7z"/>
<path d="M895 2630 c16 -16 31 -28 33 -25 7 7 -39 55 -52 55 -5 0 3 -13 19
-30z"/>
<path d="M78 2633 c12 -2 32 -2 45 0 12 2 2 4 -23 4 -25 0 -35 -2 -22 -4z"/>
<path d="M854 2608 c-5 -7 -3 -8 6 -3 9 5 10 2 6 -13 -9 -27 12 -39 32 -19 13
13 13 19 2 31 -15 19 -36 21 -46 4z m36 -24 c0 -8 -5 -12 -10 -9 -6 4 -8 11
-5 16 9 14 15 11 15 -7z"/>
<path d="M80 2578 c0 -14 8 -18 33 -17 27 2 28 2 7 6 -14 3 -28 10 -32 17 -5
7 -8 5 -8 -6z"/>
<path d="M814 2568 c-4 -7 -3 -8 4 -4 7 4 12 2 12 -3 0 -6 -5 -11 -12 -11 -8
0 -6 -6 5 -17 16 -16 18 -16 35 2 16 18 16 18 -1 6 -20 -16 -36 -6 -19 11 7 7
12 16 12 20 0 12 -28 10 -36 -4z"/>
<path d="M766 2525 c-8 -32 -1 -45 24 -45 31 0 34 20 8 47 l-25 25 -7 -27z
m38 -20 c4 -10 -1 -15 -14 -15 -11 0 -20 7 -20 15 0 8 6 15 14 15 8 0 16 -7
20 -15z"/>
<path d="M83 2524 c-7 -20 10 -37 33 -32 12 2 20 13 21 28 l3 25 -12 -25 c-11
-25 -11 -25 -15 -2 -5 25 -21 29 -30 6z m14 -16 c-3 -8 -6 -5 -6 6 -1 11 2 17
5 13 3 -3 4 -12 1 -19z"/>
<path d="M724 2478 c-5 -7 -3 -8 6 -3 9 5 10 2 6 -13 -8 -25 10 -38 30 -21 13
10 12 14 -2 30 -20 22 -30 24 -40 7z m32 -35 c-10 -10 -19 5 -10 18 6 11 8 11
12 0 2 -7 1 -15 -2 -18z"/>
<path d="M81 2468 c-1 -25 20 -33 32 -12 10 17 11 17 18 -1 6 -16 8 -17 8 -3
1 25 -20 33 -32 12 -10 -17 -11 -17 -18 1 -6 16 -8 17 -8 3z"/>
<path d="M680 2464 c0 -13 48 -59 55 -52 3 2 -9 17 -25 33 -17 16 -30 24 -30
19z"/>
<path d="M68 2413 c7 -3 16 -2 19 1 4 3 -2 6 -13 5 -11 0 -14 -3 -6 -6z"/>
<path d="M120 2413 c24 -11 8 -32 -27 -36 l-38 -4 40 1 c32 1 40 5 40 20 0 11
-6 20 -13 22 -7 1 -8 0 -2 -3z"/>
<path d="M646 2407 c9 -25 40 -37 60 -22 17 12 16 13 -9 8 -19 -4 -29 -1 -33
11 -3 9 -10 16 -15 16 -4 0 -6 -6 -3 -13z"/>
<path d="M1018 2312 c15 -15 30 -26 35 -24 7 3 -45 52 -56 52 -3 0 6 -13 21
-28z"/>
<path d="M961 2277 c-8 -11 -3 -20 21 -43 18 -17 29 -22 25 -13 -3 9 0 23 6
30 10 11 9 11 -4 1 -12 -9 -18 -9 -27 0 -18 18 -14 31 8 25 11 -3 18 -1 14 4
-8 13 -30 11 -43 -4z"/>
<path d="M934 2241 c16 -18 16 -19 -9 -24 -23 -4 -26 -2 -21 16 3 14 2 17 -6
9 -19 -19 -1 -43 27 -36 25 6 32 -3 18 -21 -5 -6 1 -1 13 10 20 19 20 20 0 42
-11 13 -24 23 -29 23 -6 0 -2 -8 7 -19z"/>
<path d="M1020 1903 c8 -3 22 -11 30 -17 13 -10 13 -9 1 7 -7 9 -21 17 -30 16
-13 0 -14 -1 -1 -6z"/>
<path d="M981 1877 c-8 -11 -6 -18 10 -33 22 -19 22 -19 8 3 -18 29 -4 41 21
18 21 -19 28 -7 8 13 -16 16 -33 15 -47 -1z"/>
<path d="M944 1835 c-9 -21 3 -45 21 -45 21 0 30 27 15 45 -16 19 -29 19 -36
0z m36 -21 c0 -8 -7 -14 -15 -14 -8 0 -15 9 -15 20 0 13 5 18 15 14 8 -4 15
-12 15 -20z"/>
<path d="M895 1790 c-8 -13 13 -40 31 -40 22 0 27 21 8 38 -17 16 -17 16 -5
-1 16 -21 9 -32 -15 -23 -9 3 -14 12 -10 21 6 17 0 20 -9 5z"/>
<path d="M860 1773 c0 -5 11 -20 25 -33 14 -13 25 -19 25 -13 0 5 -11 20 -25
33 -14 13 -25 19 -25 13z"/>
<path d="M835 1730 c-4 -6 -11 -7 -17 -4 -6 4 -8 2 -5 -3 4 -6 0 -16 -8 -23
-14 -11 -14 -15 1 -31 10 -11 22 -19 27 -19 6 0 2 9 -7 19 -24 27 -11 48 15
25 18 -16 21 -16 36 -1 13 13 14 19 3 31 -14 18 -36 21 -45 6z m34 -13 c6 -8
8 -16 5 -20 -10 -9 -34 4 -34 19 0 18 14 18 29 1z"/>
<path d="M764 1658 c-4 -7 -3 -8 4 -4 7 4 12 2 12 -3 0 -6 -4 -11 -10 -11 -16
0 -12 -20 6 -27 9 -3 23 2 32 13 16 17 16 17 -1 5 -21 -16 -35 -7 -19 12 11
13 7 27 -9 27 -4 0 -11 -5 -15 -12z"/>
<path d="M700 1623 c0 -11 43 -53 54 -53 4 0 5 4 1 9 -3 5 3 12 12 14 11 3 7
5 -10 6 -20 1 -26 5 -21 14 4 6 4 9 -1 5 -4 -4 -14 -3 -22 3 -7 6 -13 7 -13 2z"/>
<path d="M683 1574 c-3 -8 2 -23 11 -32 15 -15 17 -15 34 3 11 12 11 15 2 8
-20 -15 -45 0 -37 21 4 9 4 16 1 16 -2 0 -7 -7 -11 -16z"/>
<path d="M622 1548 c-7 -7 -12 -16 -12 -22 0 -5 6 -1 14 9 15 21 43 15 53 -11
4 -11 -1 -22 -13 -32 -10 -8 -13 -12 -5 -10 29 8 36 35 17 57 -22 24 -37 26
-54 9z"/>
<path d="M580 1465 c0 -18 -12 -19 -28 -3 -7 7 -12 10 -12 7 0 -3 13 -17 28
-32 l28 -27 -4 35 c-4 35 -12 48 -12 20z"/>
<path d="M1016 1454 c-10 -37 19 -63 43 -39 14 14 13 18 -10 41 l-26 26 -7
-28z m37 -18 c3 -8 3 -16 0 -19 -9 -10 -33 5 -33 19 0 18 26 18 33 0z"/>
<path d="M534 1429 c-3 -6 4 -21 16 -33 l22 -21 -16 26 c-9 14 -13 29 -9 32 3
4 4 7 0 7 -3 0 -9 -5 -13 -11z"/>
<path d="M984 1419 c-3 -6 4 -21 16 -33 l22 -21 -16 26 c-9 14 -13 29 -9 32 3
4 4 7 0 7 -3 0 -9 -5 -13 -11z"/>
<path d="M494 1388 c-5 -7 -3 -8 6 -3 9 5 10 2 6 -13 -9 -27 12 -39 32 -19 13
13 13 19 2 31 -15 19 -36 21 -46 4z m32 -35 c-10 -10 -19 5 -10 18 6 11 8 11
12 0 2 -7 1 -15 -2 -18z"/>
<path d="M944 1378 c-5 -7 -3 -8 6 -3 9 5 10 2 6 -13 -8 -25 10 -38 30 -21 13
10 12 14 -2 30 -20 22 -30 24 -40 7z m32 -35 c-10 -10 -19 5 -10 18 6 11 8 11
12 0 2 -7 1 -15 -2 -18z"/>
<path d="M453 1348 c2 -17 8 -33 14 -35 7 -3 9 4 6 19 l-6 23 24 -20 c17 -14
16 -11 -5 13 -17 17 -31 32 -33 32 -2 0 -2 -14 0 -32z"/>
<path d="M904 1338 c-4 -7 -3 -8 4 -4 8 5 12 0 12 -13 0 -27 15 -34 30 -16 11
13 10 14 -4 9 -12 -4 -16 0 -16 15 0 23 -14 28 -26 9z"/>
<path d="M410 1335 c0 -9 44 -55 52 -55 5 0 -1 14 -14 30 -19 27 -38 39 -38
25z"/>
<path d="M843 1280 c-3 -37 22 -59 43 -39 12 13 11 18 -13 41 l-28 27 -2 -29z
m37 -27 c0 -20 -24 -11 -28 10 -2 12 1 15 12 11 9 -3 16 -13 16 -21z"/>
<path d="M895 1290 c10 -11 20 -20 23 -20 3 0 -3 9 -13 20 -10 11 -20 20 -23
20 -3 0 3 -9 13 -20z"/>
<path d="M388 1258 c4 -16 2 -19 -9 -13 -8 4 -3 -3 11 -16 14 -14 27 -24 28
-23 2 1 -2 19 -9 38 -14 39 -31 50 -21 14z"/>
<path d="M341 1237 c-8 -11 -6 -18 11 -33 18 -15 20 -16 9 -2 -7 10 -11 25 -7
33 7 19 2 19 -13 2z"/>
<path d="M797 1234 c-3 -4 -2 -15 4 -25 10 -20 34 -25 43 -10 4 5 -4 7 -16 3
-21 -5 -22 -4 -9 12 8 9 11 19 7 23 -3 3 -6 1 -6 -5 0 -7 -5 -12 -11 -12 -5 0
-7 5 -4 10 7 11 2 13 -8 4z"/>
<path d="M776 1188 c7 -23 34 -68 34 -56 0 3 -7 22 -15 42 -17 40 -31 49 -19
14z"/>
<path d="M317 1186 c-4 -11 -1 -13 10 -9 11 4 14 2 11 -8 -3 -8 -11 -13 -17
-11 -7 1 -9 -3 -6 -9 5 -8 12 -6 23 5 15 15 15 17 1 32 -15 14 -17 14 -22 0z"/>
<path d="M250 1170 c0 -5 5 -10 11 -10 5 0 7 -6 3 -12 -4 -7 -3 -10 1 -5 5 4
17 0 27 -10 27 -24 22 0 -5 25 -25 24 -37 28 -37 12z"/>
<path d="M740 1176 c0 -2 7 -6 15 -10 8 -3 15 -1 15 4 0 6 -7 10 -15 10 -8 0
-15 -2 -15 -4z"/>
<path d="M714 1148 c-5 -7 -3 -8 6 -3 9 5 10 2 6 -13 -8 -25 10 -38 30 -21 13
10 12 14 -2 30 -20 22 -30 24 -40 7z m32 -35 c-10 -10 -19 5 -10 18 6 11 8 11
12 0 2 -7 1 -15 -2 -18z"/>
<path d="M210 1137 c0 -2 15 -16 32 -33 18 -16 25 -20 15 -8 -9 11 -17 26 -17
32 0 7 -7 12 -15 12 -8 0 -15 -1 -15 -3z"/>
<path d="M664 1129 c-3 -6 5 -22 20 -35 14 -13 22 -19 17 -13 -5 6 -7 18 -4
25 4 10 0 12 -13 7 -13 -5 -16 -3 -11 10 7 19 2 23 -9 6z"/>
<path d="M255 1120 c3 -5 10 -10 16 -10 5 0 9 5 9 10 0 6 -7 10 -16 10 -8 0
-12 -4 -9 -10z"/>
<path d="M1009 1007 c25 -27 38 -36 26 -17 -3 6 4 11 17 11 20 1 21 2 3 6 -11
3 -23 10 -27 17 -5 7 -8 7 -8 -3 0 -11 -3 -11 -17 0 -10 7 -7 1 6 -14z"/>
<path d="M975 989 c-4 -6 -14 -8 -23 -4 -10 3 -4 -7 12 -24 16 -17 32 -29 34
-26 2 2 -3 11 -12 20 -22 22 -9 41 13 21 20 -18 35 -21 26 -6 -11 19 -43 31
-50 19z"/>
<path d="M925 920 c9 -31 25 -50 25 -29 0 7 -8 23 -16 34 -16 19 -16 19 -9 -5z"/>
<path d="M900 911 c0 -5 5 -13 10 -16 6 -3 10 -2 10 4 0 5 -4 13 -10 16 -5 3
-10 2 -10 -4z"/>
<path d="M894 875 c11 -8 25 -15 30 -15 6 0 2 7 -8 15 -11 8 -25 15 -30 15 -6
0 -2 -7 8 -15z"/>
<path d="M844 855 c-3 -8 -3 -19 1 -25 8 -12 42 -13 49 -1 4 5 -4 7 -16 4 -19
-5 -21 -3 -10 8 6 7 12 17 12 21 0 14 -30 9 -36 -7z"/>
<path d="M6303 830 c0 -25 2 -35 4 -22 2 12 2 32 0 45 -2 12 -4 2 -4 -23z"/>
<path d="M6211 818 c2 -30 2 -31 6 -5 2 15 8 27 13 27 5 0 7 -6 5 -12 -7 -20
11 -42 30 -35 10 4 15 15 13 29 -2 18 -11 24 -35 26 -32 3 -33 2 -32 -30z m59
2 c0 -21 -15 -27 -25 -10 -7 12 2 30 16 30 5 0 9 -9 9 -20z"/>
<path d="M6345 841 c19 -9 19 -10 -4 -10 -17 -1 -22 -5 -17 -17 3 -9 6 -18 6
-20 0 -2 10 -4 23 -3 21 0 21 1 -3 11 l-25 11 23 5 c27 4 24 26 -4 29 -18 3
-18 2 1 -6z"/>
<path d="M805 820 c-3 -5 -13 -6 -23 -3 -11 4 -8 -4 10 -23 23 -25 26 -33 16
-45 -7 -7 -5 -7 5 2 16 14 17 19 6 37 -18 29 -4 39 23 16 l23 -19 -19 23 c-21
24 -32 27 -41 12z"/>
<path d="M756 782 c-2 -4 4 -13 14 -19 15 -10 17 -9 13 8 -5 20 -18 25 -27 11z"/>
<path d="M730 753 c1 -15 49 -43 55 -33 3 5 -1 10 -10 10 -8 0 -18 7 -21 15
-6 15 -24 21 -24 8z"/>
<path d="M704 718 c-5 -7 -3 -8 6 -3 10 6 12 4 7 -9 -4 -10 -7 -22 -7 -28 0
-6 -8 -4 -18 5 -27 25 -46 22 -32 -3 6 -11 15 -18 20 -15 5 3 11 1 15 -5 3 -5
11 -10 16 -10 6 0 7 5 4 10 -3 6 0 10 7 10 8 0 19 5 26 12 9 9 8 16 -5 30 -19
21 -29 23 -39 6z m32 -35 c-10 -10 -19 5 -10 18 6 11 8 11 12 0 2 -7 1 -15 -2
-18z"/>
<path d="M6333 680 c0 -25 2 -35 4 -22 2 12 2 32 0 45 -2 12 -4 2 -4 -23z"/>
<path d="M5920 675 l0 -35 100 0 100 0 0 35 0 35 -100 0 -100 0 0 -35z"/>
<path d="M6388 704 c-3 -2 -3 -17 0 -34 3 -20 10 -30 21 -29 10 0 11 2 4 6
-16 6 -17 40 -1 45 8 3 6 6 -4 10 -9 4 -18 5 -20 2z"/>
<path d="M6221 658 c0 -24 3 -37 6 -30 2 6 11 12 19 12 8 0 14 5 14 10 0 6 8
5 20 -2 17 -11 22 -10 30 2 5 8 10 17 10 20 0 3 -5 12 -10 20 -8 12 -13 13
-30 2 -12 -7 -20 -8 -20 -2 0 5 -9 10 -20 10 -17 0 -20 -6 -19 -42z m34 12 c0
-7 -6 -15 -12 -17 -8 -3 -13 4 -13 17 0 13 5 20 13 18 6 -3 12 -11 12 -18z
m50 0 c0 -7 -6 -15 -12 -17 -8 -3 -13 4 -13 17 0 13 5 20 13 18 6 -3 12 -11
12 -18z"/>
<path d="M6362 670 c0 -19 2 -27 5 -17 2 9 2 25 0 35 -3 9 -5 1 -5 -18z"/>
<path d="M6432 670 c0 -19 2 -27 5 -17 2 9 2 25 0 35 -3 9 -5 1 -5 -18z"/>
<path d="M6456 685 c-8 -21 3 -45 22 -45 13 0 12 3 -4 15 -19 15 -19 15 0 30
16 12 17 15 4 15 -9 0 -18 -7 -22 -15z"/>
<path d="M6512 670 c0 -19 2 -27 5 -17 2 9 2 25 0 35 -3 9 -5 1 -5 -18z"/>
<path d="M6554 691 c18 -7 18 -8 3 -14 -24 -9 -21 -37 3 -37 16 0 20 7 20 30
0 25 -4 30 -22 29 -21 0 -21 -1 -4 -8z m16 -31 c0 -5 -4 -10 -10 -10 -5 0 -10
5 -10 10 0 6 5 10 10 10 6 0 10 -4 10 -10z"/>
<path d="M6601 668 c2 -30 2 -31 6 -5 5 34 30 36 36 2 4 -23 4 -23 3 2 -1 21
-7 29 -23 31 -20 3 -23 -1 -22 -30z"/>
<path d="M620 662 c0 -5 12 -19 27 -33 20 -17 23 -18 10 -3 -9 11 -17 26 -17
32 0 7 -4 12 -10 12 -5 0 -10 -4 -10 -8z"/>
<path d="M657 649 c7 -7 15 -10 18 -7 3 3 -2 9 -12 12 -14 6 -15 5 -6 -5z"/>
<path d="M1011 587 c-8 -11 -6 -18 10 -33 22 -19 22 -19 8 3 -18 29 -4 41 21
18 21 -19 28 -7 8 13 -16 16 -33 15 -47 -1z"/>
<path d="M6468 554 c-3 -2 -3 -17 0 -34 3 -20 10 -30 21 -29 10 0 11 2 4 6
-16 6 -17 40 -1 45 8 3 6 6 -4 10 -9 4 -18 5 -20 2z"/>
<path d="M6588 554 c-3 -2 -3 -17 0 -34 3 -20 10 -30 21 -29 10 0 11 2 4 6
-16 6 -17 40 -1 45 8 3 6 6 -4 10 -9 4 -18 5 -20 2z"/>
<path d="M986 534 c-9 -24 -7 -34 7 -34 23 0 38 22 26 37 -15 17 -26 16 -33
-3z m24 -14 c0 -5 -4 -10 -10 -10 -5 0 -10 5 -10 10 0 6 5 10 10 10 6 0 10 -4
10 -10z"/>
<path d="M6220 536 c0 -8 8 -17 18 -21 16 -7 15 -8 -3 -15 -14 -5 -6 -7 25 -7
25 1 37 2 28 5 -10 2 -18 12 -18 22 0 10 8 21 18 23 15 4 15 5 -1 6 -11 1 -21
-7 -24 -19 -4 -16 -8 -18 -20 -9 -11 10 -11 14 -1 20 10 7 9 9 -4 9 -10 0 -18
-6 -18 -14z"/>
<path d="M6322 520 c0 -19 2 -27 5 -17 2 9 2 25 0 35 -3 9 -5 1 -5 -18z"/>
<path d="M6344 536 c-10 -25 3 -46 28 -45 23 0 23 0 -2 11 l-25 11 23 5 c13 2
21 9 19 15 -6 19 -36 20 -43 3z m33 -2 c-3 -3 -12 -4 -19 -1 -8 3 -5 6 6 6 11
1 17 -2 13 -5z"/>
<path d="M6411 518 c2 -31 2 -31 6 -5 2 15 8 27 13 27 5 0 11 -12 13 -27 4
-26 4 -26 6 5 1 26 -3 32 -19 32 -16 0 -20 -6 -19 -32z"/>
<path d="M6512 520 c0 -19 2 -27 5 -17 2 9 2 25 0 35 -3 9 -5 1 -5 -18z"/>
<path d="M6548 543 c7 -3 16 -2 19 1 4 3 -2 6 -13 5 -11 0 -14 -3 -6 -6z"/>
<path d="M6556 515 c19 -14 19 -14 0 -15 -11 0 -17 -3 -13 -6 3 -4 14 -4 23 0
13 5 14 9 4 21 -7 8 -17 15 -23 15 -6 0 -2 -7 9 -15z"/>
<path d="M955 500 c10 -11 20 -20 23 -20 3 0 -3 9 -13 20 -10 11 -20 20 -23
20 -3 0 3 -9 13 -20z"/>
<path d="M911 486 c-12 -14 -12 -16 3 -10 12 4 16 0 16 -15 0 -23 15 -28 26
-8 4 6 3 9 -1 4 -5 -4 -14 4 -20 19 -9 24 -12 25 -24 10z"/>
<path d="M873 469 c3 -9 1 -21 -5 -27 -8 -8 -8 -16 2 -27 15 -19 34 -19 49 -2
8 11 3 20 -21 43 -18 17 -29 22 -25 13z m35 -47 c3 -9 -2 -13 -14 -10 -9 1
-19 9 -22 16 -3 9 2 13 14 10 9 -1 19 -9 22 -16z"/>
<path d="M854 391 c20 -22 26 -25 26 -13 0 4 -10 13 -22 21 -23 14 -23 14 -4
-8z"/>
<path d="M774 381 c-2 -2 -4 -12 -4 -22 0 -13 -5 -16 -17 -12 -11 4 -14 3 -9
-5 4 -7 16 -12 27 -12 10 0 19 -4 19 -10 0 -5 5 -10 12 -10 6 0 4 7 -5 18 -27
30 -20 49 8 22 20 -19 27 -21 39 -10 25 20 3 50 -35 47 -17 -1 -32 -4 -35 -6z
m66 -22 c0 -18 -2 -19 -15 -9 -8 7 -15 16 -15 21 0 5 7 9 15 9 9 0 15 -9 15
-21z"/>
<path d="M1157 303 c-11 -10 -8 -61 4 -69 6 -3 16 -1 22 5 9 9 8 11 -5 6 -15
-6 -18 -1 -18 25 0 25 3 31 16 26 8 -3 12 -2 9 4 -7 12 -19 13 -28 3z"/>
<path d="M2008 303 c6 -2 12 -17 12 -33 0 -16 -6 -31 -12 -33 -7 -3 -4 -6 7
-6 18 -1 20 4 17 39 -3 29 -8 40 -21 39 -10 0 -11 -2 -3 -6z"/>
<path d="M2054 296 c-11 -28 0 -61 21 -61 16 0 20 7 20 35 0 25 -5 36 -18 38
-9 2 -20 -3 -23 -12z m36 -26 c0 -20 -5 -30 -15 -30 -10 0 -15 10 -15 30 0 20
5 30 15 30 10 0 15 -10 15 -30z"/>
<path d="M2115 291 c-9 -30 4 -63 23 -59 12 2 17 14 17 38 0 40 -29 55 -40 21z
m35 -21 c0 -16 -5 -30 -10 -30 -14 0 -24 26 -16 45 10 26 26 16 26 -15z"/>
<path d="M2943 303 c21 -6 22 -26 2 -43 -22 -18 -18 -30 8 -30 17 0 19 2 8 9
-12 8 -12 12 -2 25 17 20 7 46 -16 45 -17 -1 -17 -2 0 -6z"/>
<path d="M2984 296 c-11 -28 0 -61 21 -61 16 0 20 7 20 35 0 25 -5 36 -18 38
-9 2 -20 -3 -23 -12z m36 -26 c0 -20 -5 -30 -15 -30 -10 0 -15 10 -15 30 0 20
5 30 15 30 10 0 15 -10 15 -30z"/>
<path d="M3045 291 c-9 -30 4 -63 23 -59 12 2 17 14 17 38 0 40 -29 55 -40 21z
m35 -21 c0 -31 -16 -41 -26 -15 -8 19 2 45 16 45 5 0 10 -13 10 -30z"/>
<path d="M3863 303 c20 -5 22 -19 5 -26 -10 -4 -10 -6 0 -6 18 -1 14 -29 -5
-34 -14 -4 -12 -5 5 -6 19 -1 22 4 22 39 0 35 -3 40 -22 39 -17 -1 -19 -2 -5
-6z"/>
<path d="M3904 296 c-10 -25 0 -61 18 -64 19 -4 32 29 23 58 -7 23 -33 27 -41
6z m31 -26 c0 -13 -6 -25 -12 -27 -9 -3 -13 6 -13 27 0 21 4 30 13 28 6 -3 12
-15 12 -28z"/>
<path d="M3965 291 c-9 -30 4 -63 23 -59 12 2 17 14 17 38 0 40 -29 55 -40 21z
m35 -21 c0 -16 -5 -30 -10 -30 -14 0 -24 26 -16 45 10 26 26 16 26 -15z"/>
<path d="M4777 280 c-18 -29 -18 -30 2 -30 12 0 21 -6 21 -12 0 -10 3 -9 9 1
6 9 11 10 15 2 21 -33 54 8 41 50 -9 27 -37 20 -46 -11 l-7 -25 -1 28 c-1 35
-12 34 -34 -3z m78 -10 c0 -13 -6 -25 -12 -27 -9 -3 -13 6 -13 27 0 21 4 30
13 28 6 -3 12 -15 12 -28z m-59 -7 c-10 -10 -19 5 -10 18 6 11 8 11 12 0 2 -7
1 -15 -2 -18z"/>
<path d="M4885 291 c-9 -30 4 -63 23 -59 12 2 17 14 17 38 0 40 -29 55 -40 21z
m35 -21 c0 -31 -16 -41 -26 -15 -8 19 2 45 16 45 5 0 10 -13 10 -30z"/>
<path d="M5690 291 c0 -11 9 -21 23 -24 20 -5 20 -5 5 7 -10 7 -18 16 -18 19
0 3 8 8 18 10 13 4 11 5 -5 6 -16 1 -23 -5 -23 -18z"/>
<path d="M5744 296 c-11 -28 0 -61 21 -61 16 0 20 7 20 35 0 25 -5 36 -18 38
-9 2 -20 -3 -23 -12z m36 -26 c0 -20 -5 -30 -15 -30 -10 0 -15 10 -15 30 0 20
5 30 15 30 10 0 15 -10 15 -30z"/>
<path d="M5805 291 c-9 -30 4 -63 23 -59 12 2 17 14 17 38 0 40 -29 55 -40 21z
m35 -21 c0 -31 -16 -41 -26 -15 -8 19 2 45 16 45 5 0 10 -13 10 -30z"/>
<path d="M6614 296 c-3 -8 -4 -25 -2 -38 3 -20 9 -23 48 -23 45 0 45 0 45 35
0 26 -5 36 -18 38 -12 2 -20 -3 -24 -16 -3 -14 -11 -18 -24 -15 -24 7 -25 20
-1 26 16 4 16 5 -1 6 -10 0 -20 -5 -23 -13z m86 -26 c0 -20 -5 -30 -15 -30
-10 0 -15 10 -15 30 0 20 5 30 15 30 10 0 15 -10 15 -30z m-58 -15 c0 -5 -5
-11 -11 -13 -6 -2 -11 4 -11 13 0 9 5 15 11 13 6 -2 11 -8 11 -13z"/>
<path d="M6725 291 c-9 -30 4 -63 23 -59 12 2 17 14 17 38 0 40 -29 55 -40 21z
m35 -21 c0 -31 -16 -41 -26 -15 -8 19 2 45 16 45 5 0 10 -13 10 -30z"/>
<path d="M5705 240 c-16 -7 -17 -9 -3 -9 9 -1 20 4 23 9 7 11 7 11 -20 0z"/>
<path d="M3572 128 c1 -41 1 -41 5 -8 l5 35 13 -32 c16 -38 30 -43 32 -11 2
18 0 19 -7 8 -7 -12 -12 -8 -21 18 -15 45 -29 40 -27 -10z"/>
<path d="M3800 132 c0 -39 2 -43 23 -40 28 4 36 45 10 55 -10 4 -21 11 -25 17
-4 6 -8 -8 -8 -32z m40 -12 c0 -21 -15 -27 -25 -10 -7 12 2 30 16 30 5 0 9 -9
9 -20z"/>
<path d="M4067 163 c-4 -3 -6 -22 -6 -42 1 -28 3 -30 6 -11 3 14 10 28 17 32
7 5 6 8 -4 8 -13 0 -13 1 0 10 8 5 10 10 4 10 -6 0 -14 -3 -17 -7z"/>
<path d="M4130 130 c0 -35 3 -40 23 -39 16 1 18 2 5 6 -10 2 -18 11 -18 18 0
7 8 16 18 18 16 4 16 5 0 6 -10 0 -18 5 -18 10 0 5 8 12 18 14 13 4 11 5 -5 6
-20 1 -23 -4 -23 -39z"/>
<path d="M4230 161 c0 -5 -9 -11 -21 -14 -29 -8 -22 -51 9 -55 20 -3 22 1 22
37 0 23 -2 41 -5 41 -3 0 -5 -4 -5 -9z m-5 -41 c0 -7 -6 -15 -12 -17 -8 -3
-13 4 -13 17 0 13 5 20 13 18 6 -3 12 -11 12 -18z"/>
<path d="M4282 128 c2 -17 9 -33 16 -34 7 -1 8 0 2 3 -14 7 -13 40 2 45 7 3 5
7 -6 11 -15 6 -17 2 -14 -25z"/>
<path d="M3641 138 c-2 -28 10 -48 30 -48 15 0 19 7 18 33 -2 31 -2 31 -6 4
-5 -33 -25 -31 -34 4 -4 14 -7 17 -8 7z"/>
<path d="M3711 118 c2 -31 2 -31 6 -5 2 15 9 27 14 27 5 0 9 -12 10 -27 1 -28
1 -28 8 -4 9 34 29 37 34 6 4 -24 4 -24 3 2 -1 25 -5 28 -38 31 -37 2 -38 1
-37 -30z"/>
<path d="M3885 141 c19 -9 19 -10 -4 -10 -17 -1 -22 -5 -17 -17 3 -9 6 -18 6
-20 0 -2 10 -4 23 -3 21 0 21 1 -3 11 l-25 11 23 5 c27 4 24 26 -4 29 -18 3
-18 2 1 -6z"/>
<path d="M3931 118 c2 -28 2 -29 6 -8 3 14 10 28 17 32 7 5 5 8 -6 8 -14 0
-18 -8 -17 -32z"/>
<path d="M4004 135 c-8 -21 2 -45 20 -45 17 0 28 24 20 45 -4 8 -13 15 -20 15
-8 0 -17 -7 -20 -15z m31 -15 c0 -7 -6 -15 -12 -17 -8 -3 -13 4 -13 17 0 13 5
20 13 18 6 -3 12 -11 12 -18z"/>
<path d="M4252 125 c0 -16 2 -22 5 -12 2 9 2 23 0 30 -3 6 -5 -1 -5 -18z"/>
<path d="M4320 136 c0 -8 8 -17 18 -21 16 -7 15 -8 -3 -15 -16 -7 -17 -9 -3
-9 25 -1 33 20 12 32 -17 10 -17 11 1 18 19 7 18 8 -2 8 -13 1 -23 -5 -23 -13z"/>
</g>
</svg>
