<?xml version="1.0" standalone="no"?>
<!DOCTYPE svg PUBLIC "-//W3C//DTD SVG 20010904//EN"
 "http://www.w3.org/TR/2001/REC-SVG-20010904/DTD/svg10.dtd">
<svg version="1.0" xmlns="http://www.w3.org/2000/svg"
 width="612.000000pt" height="496.000000pt" viewBox="0 0 612.000000 496.000000"
 preserveAspectRatio="xMidYMid meet">
<metadata>
Created by potrace 1.16, written by Peter Selinger 2001-2019
</metadata>
<g transform="translate(0.000000,496.000000) scale(0.100000,-0.100000)"
fill="#000000" stroke="none">
<path d="M2730 4839 c0 -49 1 -50 28 -47 21 2 28 9 30 31 3 22 -1 30 -17 34
-12 3 -21 12 -21 19 0 8 -4 14 -10 14 -5 0 -10 -23 -10 -51z m45 -14 c0 -10
-6 -20 -12 -22 -8 -3 -13 5 -13 22 0 17 5 25 13 23 6 -3 12 -13 12 -23z"/>
<path d="M3048 4873 c-2 -10 -1 -34 3 -53 l6 -35 2 33 c0 18 6 32 14 32 8 0 7
4 -3 10 -13 9 -13 11 0 20 13 8 13 10 -1 10 -9 0 -18 -8 -21 -17z"/>
<path d="M3390 4876 c0 -7 -9 -16 -21 -19 -16 -4 -20 -12 -17 -34 2 -22 9 -29
31 -31 26 -3 27 -2 27 47 0 28 -4 51 -10 51 -5 0 -10 -6 -10 -14z m0 -51 c0
-16 -6 -25 -15 -25 -9 0 -15 9 -15 25 0 16 6 25 15 25 9 0 15 -9 15 -25z"/>
<path d="M3503 4840 c0 -30 2 -43 4 -27 2 15 2 39 0 55 -2 15 -4 2 -4 -28z"/>
<path d="M3910 4872 c0 -13 -7 -18 -22 -18 -19 1 -23 -4 -23 -29 0 -26 4 -30
28 -31 26 -1 27 1 27 47 0 27 -2 49 -5 49 -3 0 -5 -8 -5 -18z m-3 -38 c8 -21
-13 -42 -28 -27 -13 13 -5 43 11 43 6 0 13 -7 17 -16z"/>
<path d="M2450 4833 c0 -25 2 -44 4 -42 8 10 13 89 5 89 -5 0 -9 -21 -9 -47z"/>
<path d="M2510 4843 l-1 -38 -15 28 c-21 39 -30 27 -9 -12 22 -44 35 -39 35
14 0 25 -2 45 -5 45 -3 0 -5 -17 -5 -37z"/>
<path d="M3126 4860 c13 -48 24 -71 33 -65 12 7 35 75 28 81 -3 3 -11 -12 -18
-33 l-12 -38 -19 40 c-10 22 -15 29 -12 15z"/>
<path d="M3790 4835 c0 -44 0 -45 33 -44 30 2 30 2 5 6 -34 5 -37 30 -5 36
l22 4 -22 2 c-13 0 -23 7 -23 15 0 8 10 17 23 19 19 4 18 4 -5 6 -27 1 -28 -1
-28 -44z"/>
<path d="M3975 4843 c1 -21 3 -41 4 -45 1 -5 9 -8 19 -7 10 0 12 3 5 6 -16 6
-17 53 -2 53 6 0 4 7 -5 15 -22 22 -25 19 -21 -22z"/>
<path d="M2543 4828 c1 -26 7 -34 25 -36 20 -3 22 1 20 35 -1 37 -1 37 -5 6
-5 -42 -30 -43 -37 -3 -6 30 -6 30 -3 -2z"/>
<path d="M2622 4822 c1 -37 1 -37 5 -4 3 19 10 32 19 32 9 0 14 -11 15 -32 l1
-33 7 29 c9 42 29 44 34 4 l5 -33 -2 35 c-1 33 -3 34 -43 37 l-43 3 2 -38z"/>
<path d="M2814 4846 c-11 -28 1 -51 26 -53 22 -1 22 -1 3 4 -31 6 -29 23 2 23
23 0 24 2 15 20 -12 23 -38 26 -46 6z m36 -6 c0 -5 -7 -10 -15 -10 -8 0 -15 5
-15 10 0 6 7 10 15 10 8 0 15 -4 15 -10z"/>
<path d="M2880 4825 c0 -19 5 -35 10 -35 6 0 10 13 10 29 0 16 6 32 13 34 6 3
2 6 -10 6 -20 1 -23 -4 -23 -34z"/>
<path d="M2977 4854 c-13 -13 -7 -55 9 -61 24 -9 51 23 38 45 -12 19 -36 27
-47 16z m36 -17 c3 -8 1 -20 -4 -28 -11 -19 -34 3 -26 25 8 20 23 21 30 3z"/>
<path d="M3218 4853 c27 -6 29 -19 2 -26 -25 -6 -27 -37 -2 -36 10 0 12 3 5 6
-18 7 -16 23 1 23 8 0 17 -8 20 -17 2 -10 4 -2 3 17 -2 30 -6 35 -27 37 -22 1
-22 1 -2 -4z"/>
<path d="M3279 4858 c-7 -34 -7 -68 1 -68 6 0 10 14 10 31 0 39 22 34 32 -7 6
-27 6 -27 5 6 -2 28 -6 36 -24 38 -13 2 -23 2 -24 0z"/>
<path d="M3450 4848 c25 -11 25 -11 3 -15 -13 -3 -23 -9 -23 -14 0 -5 -1 -12
-2 -16 -2 -5 10 -8 25 -9 26 -1 28 2 25 30 -2 25 -8 31 -28 33 l-25 3 25 -12z
m15 -38 c-3 -5 -10 -10 -16 -10 -5 0 -9 5 -9 10 0 6 7 10 16 10 8 0 12 -4 9
-10z"/>
<path d="M3543 4825 c0 -22 2 -30 4 -17 2 12 2 30 0 40 -3 9 -5 -1 -4 -23z"/>
<path d="M3570 4845 c0 -9 7 -18 15 -21 20 -8 19 -21 -2 -28 -11 -3 -8 -4 6
-3 31 3 40 27 12 34 -26 7 -27 20 -3 26 13 4 11 5 -5 6 -15 1 -23 -5 -23 -14z"/>
<path d="M3630 4825 c0 -19 5 -35 10 -35 6 0 10 14 10 31 0 39 22 34 31 -7 l7
-29 1 33 c1 41 23 39 33 -4 6 -27 6 -27 5 6 -2 34 -3 35 -49 38 l-48 2 0 -35z"/>
<path d="M3943 4825 c0 -22 2 -30 4 -17 2 12 2 30 0 40 -3 9 -5 -1 -4 -23z"/>
<path d="M4024 4848 c-4 -6 0 -16 9 -23 22 -16 21 -22 0 -29 -11 -3 -8 -4 6
-3 31 3 40 27 12 34 -26 7 -27 20 -3 26 15 4 15 5 0 6 -9 0 -20 -4 -24 -11z"/>
<path d="M472 4683 c-1 -30 -7 -53 -14 -56 -10 -4 -10 -6 0 -6 18 -1 18 -697
0 -704 -10 -4 -10 -6 0 -6 18 -1 18 -697 0 -704 -10 -4 -10 -6 0 -6 9 -1 12
-77 12 -345 0 -266 -3 -345 -12 -349 -10 -4 -10 -6 0 -6 18 -1 18 -697 0 -704
-10 -4 -10 -6 0 -6 9 -1 12 -78 12 -350 0 -270 -3 -350 -12 -354 -10 -4 -10
-6 0 -6 18 -1 18 -697 -1 -704 -6 -3 308 -6 700 -6 669 -1 712 -2 716 -18 4
-17 5 -17 6 0 1 16 74 17 1390 17 1315 0 1390 -1 1394 -17 4 -17 5 -17 6 0 1
16 42 17 699 19 383 2 536 4 340 5 l-358 3 0 1170 0 1170 -695 0 -695 0 0
-1170 0 -1170 -700 0 -700 0 0 2070 0 2070 -695 0 -695 0 0 -2070 0 -2070
-345 0 -345 0 -3 2178 c-1 1197 -3 2154 -5 2125z"/>
<path d="M228 4663 c6 -2 12 -17 12 -33 0 -16 -6 -31 -12 -33 -7 -3 -4 -6 7
-6 18 -1 20 4 17 39 -3 29 -8 40 -21 39 -10 0 -11 -2 -3 -6z"/>
<path d="M288 4659 c24 -9 23 -18 -6 -51 -14 -17 -13 -18 14 -17 16 1 21 3 12
6 -16 4 -16 6 -2 28 19 28 11 45 -19 44 -22 0 -22 0 1 -10z"/>
<path d="M345 4661 c-3 -7 0 -8 9 -5 13 5 16 -1 16 -26 0 -26 -3 -31 -17 -25
-15 5 -16 4 -5 -6 17 -18 34 2 30 37 -3 29 -21 43 -33 25z"/>
<path d="M228 3953 c6 -2 12 -17 12 -33 0 -16 -6 -31 -12 -33 -7 -3 -4 -6 7
-6 18 -1 20 4 17 39 -3 29 -8 40 -21 39 -10 0 -11 -2 -3 -6z"/>
<path d="M274 3946 c-11 -28 0 -61 21 -61 16 0 20 7 20 35 0 25 -5 36 -18 38
-9 2 -20 -3 -23 -12z m36 -26 c0 -20 -5 -30 -15 -30 -10 0 -15 10 -15 30 0 20
5 30 15 30 10 0 15 -10 15 -30z"/>
<path d="M335 3941 c-9 -30 4 -63 23 -59 12 2 17 14 17 38 0 40 -29 55 -40 21z
m35 -21 c0 -31 -16 -41 -26 -15 -8 19 2 45 16 45 5 0 10 -13 10 -30z"/>
<path d="M297 3243 c-2 -5 -4 -23 -5 -40 -2 -27 1 -33 18 -33 11 0 20 5 20 10
0 6 8 5 20 -2 17 -11 22 -10 30 2 12 19 12 41 1 59 -12 18 -41 7 -41 -17 0
-18 -18 -42 -32 -42 -4 0 -8 7 -8 16 0 10 6 14 15 10 11 -4 15 1 15 19 0 23
-23 36 -33 18z m23 -13 c0 -5 -4 -10 -10 -10 -5 0 -10 5 -10 10 0 6 5 10 10
10 6 0 10 -4 10 -10z m55 -20 c0 -13 -6 -25 -12 -27 -9 -3 -13 6 -13 27 0 21
4 30 13 28 6 -3 12 -15 12 -28z"/>
<path d="M91 2638 c-1 -25 20 -33 32 -12 10 17 11 17 18 -1 6 -16 8 -17 8 -3
1 25 -20 33 -32 12 -10 -17 -11 -17 -18 1 -6 16 -8 17 -8 3z"/>
<path d="M87 2586 c-6 -15 -2 -17 25 -14 17 2 33 9 34 16 1 7 0 8 -3 2 -7 -14
-40 -13 -45 2 -3 7 -7 5 -11 -6z"/>
<path d="M103 2553 c9 -2 25 -2 35 0 9 3 1 5 -18 5 -19 0 -27 -2 -17 -5z"/>
<path d="M294 2526 c-3 -8 -4 -25 -2 -38 3 -20 9 -23 48 -23 45 0 45 0 45 35
0 26 -5 36 -18 38 -12 2 -20 -3 -24 -16 -3 -14 -11 -18 -24 -15 -24 7 -25 20
-1 26 16 4 16 5 -1 6 -10 0 -20 -5 -23 -13z m86 -26 c0 -20 -5 -30 -15 -30
-10 0 -15 10 -15 30 0 20 5 30 15 30 10 0 15 -10 15 -30z m-58 -15 c0 -5 -5
-11 -11 -13 -6 -2 -11 4 -11 13 0 9 5 15 11 13 6 -2 11 -8 11 -13z"/>
<path d="M76 2522 c6 -4 13 -15 17 -25 10 -26 51 -18 55 11 3 20 -1 22 -40 22
-24 0 -38 -4 -32 -8z m62 -20 c2 -7 -6 -12 -17 -12 -21 0 -27 11 -14 24 9 9
26 2 31 -12z"/>
<path d="M140 2450 c0 -25 -27 -27 -33 -2 -4 16 -5 16 -6 0 0 -10 -5 -18 -10
-18 -5 0 -12 8 -14 18 -4 13 -5 11 -6 -5 -1 -20 4 -23 39 -23 36 0 40 3 40 25
0 14 -2 25 -5 25 -3 0 -5 -9 -5 -20z"/>
<path d="M297 1810 c-18 -29 -18 -30 2 -30 12 0 21 -6 21 -12 0 -10 3 -9 9 1
6 9 11 10 15 2 21 -33 54 8 41 50 -9 27 -37 20 -46 -11 l-7 -25 -1 28 c-1 35
-12 34 -34 -3z m78 -10 c0 -13 -6 -25 -12 -27 -9 -3 -13 6 -13 27 0 21 4 30
13 28 6 -3 12 -15 12 -28z m-59 -7 c-10 -10 -19 5 -10 18 6 11 8 11 12 0 2 -7
1 -15 -2 -18z"/>
<path d="M303 1123 c21 -6 22 -26 2 -43 -22 -18 -18 -30 8 -30 17 0 19 2 8 9
-12 8 -12 12 -2 25 17 20 7 46 -16 45 -17 -1 -17 -2 0 -6z"/>
<path d="M344 1116 c-11 -28 0 -61 21 -61 16 0 20 7 20 35 0 25 -5 36 -18 38
-9 2 -20 -3 -23 -12z m36 -26 c0 -20 -5 -30 -15 -30 -10 0 -15 10 -15 30 0 20
5 30 15 30 10 0 15 -10 15 -30z"/>
<path d="M367 413 c-11 -10 -8 -61 4 -69 6 -3 16 -1 22 5 9 9 8 11 -5 6 -15
-6 -18 -1 -18 25 0 25 3 31 16 26 8 -3 12 -2 9 4 -7 12 -19 13 -28 3z"/>
<path d="M4653 298 c-5 -7 -6 -26 -2 -43 l7 -30 1 28 c0 15 1 30 0 33 0 4 5
11 13 15 8 5 9 9 2 9 -6 0 -16 -6 -21 -12z"/>
<path d="M1841 258 c2 -31 2 -31 6 -5 2 15 9 27 14 27 5 0 9 -12 10 -27 1 -28
1 -28 8 -4 9 34 29 37 34 6 4 -24 4 -24 3 2 -1 25 -5 28 -38 31 -37 2 -38 1
-37 -30z"/>
<path d="M3094 156 c-3 -8 -4 -25 -2 -38 4 -28 39 -36 58 -13 7 8 21 15 32 15
25 0 18 24 -8 27 -18 3 -18 2 1 -6 16 -8 13 -10 -20 -11 -22 -1 -34 -4 -27 -7
19 -8 14 -23 -8 -23 -31 0 -28 57 3 63 l22 4 -23 2 c-12 0 -25 -5 -28 -13z"/>
<path d="M3320 161 c0 -5 -9 -11 -21 -14 -29 -8 -22 -51 9 -55 20 -3 22 1 22
37 0 23 -2 41 -5 41 -3 0 -5 -4 -5 -9z m-5 -41 c0 -7 -6 -15 -12 -17 -8 -3
-13 4 -13 17 0 13 5 20 13 18 6 -3 12 -11 12 -18z"/>
<path d="M3221 118 c2 -31 2 -31 6 -5 2 15 8 27 13 27 5 0 11 -12 13 -27 4
-26 4 -26 6 5 1 26 -3 32 -19 32 -16 0 -20 -6 -19 -32z"/>
<path d="M3344 136 c-10 -25 3 -46 28 -45 23 0 23 0 -2 11 l-25 11 23 5 c13 2
21 9 19 15 -6 19 -36 20 -43 3z m33 -2 c-3 -3 -12 -4 -19 -1 -8 3 -5 6 6 6 11
1 17 -2 13 -5z"/>
<path d="M3411 118 c2 -28 2 -29 6 -8 3 14 10 28 17 32 7 5 5 8 -6 8 -14 0
-18 -8 -17 -32z"/>
<path d="M3160 99 c0 -5 9 -9 20 -9 11 0 20 2 20 4 0 2 -9 6 -20 9 -11 3 -20
1 -20 -4z"/>
</g>
</svg>
