<?xml version="1.0" standalone="no"?>
<!DOCTYPE svg PUBLIC "-//W3C//DTD SVG 20010904//EN"
 "http://www.w3.org/TR/2001/REC-SVG-20010904/DTD/svg10.dtd">
<svg version="1.0" xmlns="http://www.w3.org/2000/svg"
 width="829.000000pt" height="620.000000pt" viewBox="0 0 829.000000 620.000000"
 preserveAspectRatio="xMidYMid meet">
<metadata>
Created by potrace 1.16, written by Peter Selinger 2001-2019
</metadata>
<g transform="translate(0.000000,620.000000) scale(0.100000,-0.100000)"
fill="#000000" stroke="none">
<path d="M4818 6113 c-2 -10 -1 -34 3 -53 l6 -35 2 33 c0 18 6 32 14 32 8 0 7
4 -3 10 -13 9 -13 11 0 20 13 8 13 10 -1 10 -9 0 -18 -8 -21 -17z"/>
<path d="M5051 6084 c-1 -46 1 -51 19 -50 12 0 25 8 30 15 11 19 -7 54 -25 47
-9 -3 -15 4 -18 17 -2 12 -5 -1 -6 -29z m39 -19 c0 -26 -14 -33 -25 -15 -9 14
1 40 15 40 5 0 10 -11 10 -25z"/>
<path d="M4188 6075 c9 -25 19 -45 23 -45 8 0 40 82 34 88 -3 3 -10 -9 -16
-26 -14 -40 -26 -41 -34 -2 -4 17 -11 30 -15 30 -5 0 -2 -20 8 -45z"/>
<path d="M4897 6106 c-6 -16 11 -36 30 -36 21 0 15 -28 -7 -33 -17 -4 -17 -4
2 -3 34 2 35 34 2 46 -29 11 -24 24 11 33 16 4 14 5 -6 6 -15 0 -29 -5 -32
-13z"/>
<path d="M5298 6109 c-2 -6 -2 -26 0 -45 3 -24 9 -34 21 -33 10 0 11 2 4 6
-15 5 -18 50 -4 55 5 2 3 8 -4 15 -9 9 -15 9 -17 2z"/>
<path d="M5479 6109 c-10 -28 5 -74 26 -77 18 -2 19 -2 3 8 -24 15 -23 50 1
50 25 0 47 -56 30 -76 -7 -9 -8 -14 -1 -14 5 0 17 18 26 40 19 48 21 78 2 35
l-13 -30 -8 28 c-5 19 -14 27 -30 27 -13 0 -25 5 -27 12 -3 8 -6 7 -9 -3z"/>
<path d="M4280 6088 l25 -11 -25 -6 c-34 -9 -32 -35 3 -39 21 -3 27 1 27 17 0
34 -11 51 -34 50 -19 0 -19 -1 4 -11z m15 -38 c-3 -5 -13 -10 -21 -10 -8 0
-12 5 -9 10 3 6 13 10 21 10 8 0 12 -4 9 -10z"/>
<path d="M4331 6060 c1 -27 3 -29 6 -10 2 14 11 30 20 37 13 10 13 12 -6 10
-17 -1 -21 -7 -20 -37z"/>
<path d="M4383 6065 c0 -22 2 -30 4 -17 2 12 2 30 0 40 -3 9 -5 -1 -4 -23z"/>
<path d="M4433 6093 c23 -6 22 -19 -4 -26 -29 -8 -19 -31 14 -35 21 -3 27 1
27 17 0 34 -11 51 -34 50 -16 -1 -17 -2 -3 -6z m17 -43 c0 -5 -7 -10 -15 -10
-8 0 -15 5 -15 10 0 6 7 10 15 10 8 0 15 -4 15 -10z"/>
<path d="M4491 6061 c1 -35 2 -35 8 -7 9 42 29 44 34 4 l5 -33 -2 35 c-1 29
-5 35 -23 36 -20 1 -23 -3 -22 -35z"/>
<path d="M4569 6084 c-16 -19 -1 -48 27 -51 15 -2 14 -1 -3 7 -13 5 -23 16
-23 25 0 9 10 20 23 25 15 6 17 9 6 9 -9 1 -22 -6 -30 -15z"/>
<path d="M4634 6086 c-11 -28 1 -51 26 -53 22 -1 22 -1 3 4 -31 6 -29 23 2 23
23 0 24 2 15 20 -12 23 -38 26 -46 6z m36 -6 c0 -5 -7 -10 -15 -10 -8 0 -15 5
-15 10 0 6 7 10 15 10 8 0 15 -4 15 -10z"/>
<path d="M4747 6094 c-13 -13 -7 -55 9 -61 24 -9 51 23 38 45 -12 19 -36 27
-47 16z m36 -17 c3 -8 1 -20 -4 -28 -11 -19 -34 3 -26 25 8 20 23 21 30 3z"/>
<path d="M4973 6070 c2 -30 6 -35 30 -38 25 -3 27 -1 27 32 0 20 -4 36 -10 36
-5 0 -10 -14 -10 -31 0 -39 -22 -34 -32 7 -6 27 -6 27 -5 -6z"/>
<path d="M5118 6050 c-3 -49 4 -65 16 -34 9 24 7 84 -3 84 -5 0 -11 -23 -13
-50z"/>
<path d="M5160 6085 c-18 -22 -1 -49 31 -52 19 -1 20 -1 4 4 -34 9 -41 23 -11
23 21 0 27 4 24 17 -4 24 -32 28 -48 8z m40 -5 c0 -5 -7 -10 -15 -10 -8 0 -15
5 -15 10 0 6 7 10 15 10 8 0 15 -4 15 -10z"/>
<path d="M5234 6086 c-11 -28 1 -51 26 -53 25 -3 25 -3 3 7 -13 5 -23 16 -23
25 0 9 10 20 23 25 l22 9 -23 0 c-12 1 -25 -5 -28 -13z"/>
<path d="M5340 6065 c0 -19 5 -35 10 -35 6 0 10 16 10 35 0 19 -4 35 -10 35
-5 0 -10 -16 -10 -35z"/>
<path d="M5375 6083 c4 -10 10 -26 12 -35 8 -27 20 -22 32 13 15 43 12 51 -4
14 l-13 -30 -11 28 c-6 15 -13 27 -17 27 -3 0 -3 -8 1 -17z"/>
<path d="M5453 6065 c0 -22 2 -30 4 -17 2 12 2 30 0 40 -3 9 -5 -1 -4 -23z"/>
<path d="M3632 5963 c-4 -10 -5 -34 -1 -53 l6 -35 2 33 c1 20 6 32 15 32 9 0
16 -13 19 -32 l4 -33 1 33 c1 18 7 32 15 32 8 0 7 4 -3 10 -13 9 -13 11 0 20
11 7 11 10 2 10 -7 0 -15 -7 -18 -15 -4 -8 -12 -15 -20 -15 -17 0 -18 17 -1
23 9 4 9 6 0 6 -7 1 -16 -7 -21 -16z"/>
<path d="M4161 5934 c-1 -49 0 -51 27 -50 23 1 27 5 27 31 0 23 -4 30 -20 30
-11 0 -23 9 -27 20 -3 12 -6 0 -7 -31z m46 -10 c8 -21 -13 -42 -28 -27 -13 13
-5 43 11 43 6 0 13 -7 17 -16z"/>
<path d="M4773 5930 c0 -30 2 -43 4 -27 2 15 2 39 0 55 -2 15 -4 2 -4 -28z"/>
<path d="M4961 5932 c-1 -50 0 -53 22 -50 31 4 38 57 8 65 -11 3 -22 12 -24
22 -3 9 -5 -8 -6 -37z m39 -17 c0 -16 -6 -25 -15 -25 -9 0 -15 9 -15 25 0 16
6 25 15 25 9 0 15 -9 15 -25z"/>
<path d="M5160 5930 c0 -27 5 -50 10 -50 6 0 10 14 10 31 0 39 22 34 31 -7 l7
-29 1 33 c1 26 -4 35 -19 39 -11 3 -20 12 -20 19 0 8 -4 14 -10 14 -5 0 -10
-22 -10 -50z"/>
<path d="M5470 5966 c0 -7 -9 -16 -21 -19 -30 -8 -23 -61 9 -65 20 -3 22 0 22
47 0 28 -2 51 -5 51 -3 0 -5 -6 -5 -14z m0 -51 c0 -16 -6 -25 -15 -25 -9 0
-15 9 -15 25 0 16 6 25 15 25 9 0 15 -9 15 -25z"/>
<path d="M5592 5930 c0 -41 2 -47 7 -25 3 17 13 30 21 30 8 0 18 -13 22 -30 6
-29 6 -29 5 5 -2 28 -7 36 -24 38 -12 2 -24 11 -26 20 -3 9 -5 -8 -5 -38z"/>
<path d="M5783 5930 c0 -30 2 -43 4 -27 2 15 2 39 0 55 -2 15 -4 2 -4 -28z"/>
<path d="M6160 5966 c0 -8 -10 -16 -22 -18 -18 -2 -23 -10 -23 -33 0 -25 4
-30 28 -33 26 -3 27 -2 27 47 0 28 -2 51 -5 51 -3 0 -5 -6 -5 -14z m-7 -39 c3
-8 1 -20 -4 -28 -11 -19 -34 3 -26 25 8 20 23 21 30 3z"/>
<path d="M3500 5925 c0 -38 3 -45 19 -45 38 0 51 11 51 45 0 34 -13 45 -51 45
-16 0 -19 -7 -19 -45z m55 0 c0 -23 -5 -31 -22 -33 -20 -3 -23 1 -23 33 0 32
3 36 23 33 17 -2 22 -10 22 -33z"/>
<path d="M4308 5957 c-7 -21 6 -70 20 -73 7 -1 8 0 2 3 -12 6 -13 50 -1 55 5
2 3 8 -4 15 -10 9 -14 9 -17 0z"/>
<path d="M4718 5957 c-7 -21 6 -70 20 -73 7 -1 8 0 2 3 -12 6 -13 50 -1 55 5
2 3 8 -4 15 -10 9 -14 9 -17 0z"/>
<path d="M5120 5960 c0 -5 -11 -10 -25 -10 -23 0 -25 -4 -23 -37 1 -37 1 -37
5 -5 3 24 9 32 24 32 14 0 19 -7 19 -30 0 -22 5 -30 18 -29 10 0 12 3 5 6 -15
5 -18 50 -4 55 5 2 3 9 -5 16 -8 7 -14 8 -14 2z"/>
<path d="M5546 5962 c-3 -5 -3 -22 -1 -38 2 -16 4 -32 4 -36 1 -5 9 -8 19 -7
10 0 12 3 5 6 -15 5 -18 50 -4 55 5 2 3 9 -4 15 -8 7 -16 9 -19 5z"/>
<path d="M5952 5928 c2 -34 7 -43 23 -45 11 -2 14 0 8 3 -16 7 -17 54 -2 54 6
0 4 7 -5 15 -23 23 -27 18 -24 -27z"/>
<path d="M6222 5928 c2 -34 7 -43 23 -45 11 -2 14 0 8 3 -16 7 -17 54 -2 54 6
0 4 7 -5 15 -23 23 -27 18 -24 -27z"/>
<path d="M3590 5915 c0 -19 5 -35 10 -35 6 0 10 16 10 35 0 19 -4 35 -10 35
-5 0 -10 -16 -10 -35z"/>
<path d="M3714 5936 c-11 -28 1 -51 26 -53 l25 -3 -25 12 -25 12 28 4 c21 2
27 8 23 19 -3 8 -6 17 -6 19 0 11 -41 2 -46 -10z m41 -6 c3 -5 -3 -10 -15 -10
-12 0 -18 5 -15 10 3 6 10 10 15 10 5 0 12 -4 15 -10z"/>
<path d="M3792 5912 c1 -37 1 -37 5 -4 5 39 30 43 35 5 2 -22 9 -29 28 -30
l25 -3 -25 12 -25 12 28 4 c20 2 27 8 25 20 -2 13 -15 18 -51 19 l-47 2 2 -37z
m83 18 c3 -5 -3 -10 -15 -10 -12 0 -18 5 -15 10 3 6 10 10 15 10 5 0 12 -4 15
-10z"/>
<path d="M3911 5911 c1 -35 2 -35 8 -7 9 42 29 44 34 4 l5 -33 -2 35 c-1 29
-5 35 -23 36 -20 1 -23 -3 -22 -35z"/>
<path d="M3984 5936 c-11 -28 1 -51 26 -53 25 -3 25 -3 3 7 -13 5 -23 16 -23
25 0 9 10 20 23 25 l22 9 -23 0 c-12 1 -25 -5 -28 -13z"/>
<path d="M4051 5932 c-14 -26 8 -56 35 -49 17 4 16 5 -3 6 -29 1 -30 21 -2 21
14 0 19 5 17 17 -5 25 -35 28 -47 5z m39 -2 c0 -5 -7 -10 -15 -10 -8 0 -15 5
-15 10 0 6 7 10 15 10 8 0 15 -4 15 -10z"/>
<path d="M4240 5935 c-18 -22 -1 -49 31 -52 19 -1 20 -1 4 4 -34 9 -41 23 -11
23 21 0 27 4 24 17 -4 24 -32 28 -48 8z m40 -5 c0 -5 -7 -10 -15 -10 -8 0 -15
5 -15 10 0 6 7 10 15 10 8 0 15 -4 15 -10z"/>
<path d="M4361 5918 c5 -18 9 -34 9 -36 0 -2 5 0 10 3 6 3 10 16 10 28 1 19 3
18 14 -8 13 -31 20 -27 30 20 6 29 6 30 -7 6 l-14 -23 -7 23 -6 24 -15 -25
c-10 -18 -14 -20 -15 -8 0 9 -4 19 -9 23 -6 3 -6 -7 0 -27z"/>
<path d="M4460 5935 c-18 -22 -1 -49 31 -52 19 -1 20 -1 4 4 -34 9 -41 23 -11
23 21 0 27 4 24 17 -4 24 -32 28 -48 8z m40 -5 c0 -5 -7 -10 -15 -10 -8 0 -15
5 -15 10 0 6 7 10 15 10 8 0 15 -4 15 -10z"/>
<path d="M4534 5936 c-11 -28 1 -51 26 -53 22 -1 22 -1 3 4 -31 6 -29 23 2 23
27 0 32 9 13 28 -16 16 -37 15 -44 -2z m41 -6 c3 -5 -3 -10 -14 -10 -12 0 -21
5 -21 10 0 6 6 10 14 10 8 0 18 -4 21 -10z"/>
<path d="M4606 5920 c3 -43 14 -51 14 -11 0 41 22 37 32 -5 6 -27 6 -27 5 6
-2 30 -6 35 -28 38 -23 3 -25 0 -23 -28z"/>
<path d="M4797 5943 c6 -4 13 -22 16 -38 4 -27 5 -27 3 4 0 21 -7 36 -16 38
-10 3 -11 2 -3 -4z"/>
<path d="M4844 5936 c-11 -28 1 -51 26 -53 l25 -3 -25 12 -25 12 28 4 c20 2
27 8 25 20 -4 22 -46 28 -54 8z m41 -6 c3 -5 -3 -10 -15 -10 -12 0 -18 5 -15
10 3 6 10 10 15 10 5 0 12 -4 15 -10z"/>
<path d="M5033 5915 c0 -22 2 -30 4 -17 2 12 2 30 0 40 -3 9 -5 -1 -4 -23z"/>
<path d="M5300 5938 c25 -11 25 -11 3 -15 -34 -6 -31 -43 2 -41 22 2 26 7 23
33 -2 24 -8 30 -28 32 l-25 3 25 -12z m15 -38 c-3 -5 -10 -10 -16 -10 -5 0 -9
5 -9 10 0 6 7 10 16 10 8 0 12 -4 9 -10z"/>
<path d="M5350 5916 c0 -20 5 -36 10 -36 6 0 10 14 10 31 0 39 22 34 32 -7 6
-27 6 -27 5 6 -2 30 -6 35 -29 38 -26 3 -28 1 -28 -32z"/>
<path d="M5671 5932 c-14 -26 8 -56 35 -49 17 4 16 5 -3 6 -29 1 -30 21 -2 21
14 0 19 5 17 17 -5 25 -35 28 -47 5z m39 -2 c0 -5 -7 -10 -15 -10 -8 0 -15 5
-15 10 0 6 7 10 15 10 8 0 15 -4 15 -10z"/>
<path d="M5840 5938 l25 -11 -25 -6 c-34 -9 -32 -35 3 -39 21 -3 27 1 27 17 0
34 -11 51 -34 50 -19 0 -19 -1 4 -11z m15 -38 c-3 -5 -13 -10 -21 -10 -8 0
-12 5 -9 10 3 6 13 10 21 10 8 0 12 -4 9 -10z"/>
<path d="M5890 5935 c0 -9 7 -18 15 -21 20 -8 19 -21 -2 -28 -11 -3 -8 -4 6
-3 31 3 40 27 12 34 -26 7 -27 20 -3 26 13 4 11 5 -5 6 -15 1 -23 -5 -23 -14z"/>
<path d="M6044 5936 c-11 -28 1 -51 26 -53 22 -1 22 -1 3 4 -31 6 -29 23 2 23
27 0 32 9 13 28 -16 16 -37 15 -44 -2z m36 -6 c0 -5 -7 -10 -15 -10 -8 0 -15
5 -15 10 0 6 7 10 15 10 8 0 15 -4 15 -10z"/>
<path d="M6193 5915 c0 -22 2 -30 4 -17 2 12 2 30 0 40 -3 9 -5 -1 -4 -23z"/>
<path d="M1532 5788 c-1 -20 -8 -39 -14 -41 -10 -4 -10 -6 0 -6 8 -1 12 -20
12 -60 0 -38 -4 -61 -12 -64 -10 -4 -10 -6 0 -6 8 -1 12 -20 12 -60 0 -38 -4
-61 -12 -64 -10 -4 -10 -6 0 -6 8 -1 12 -20 12 -60 0 -38 -4 -61 -12 -64 -10
-4 -10 -6 0 -6 8 -1 12 -19 12 -55 0 -34 -5 -56 -12 -59 -10 -4 -10 -6 0 -6 8
-1 12 -20 12 -60 0 -38 -4 -61 -12 -64 -10 -4 -10 -6 0 -6 8 -1 12 -20 12 -60
0 -38 -4 -61 -12 -64 -10 -4 -10 -6 0 -6 8 -1 12 -20 12 -60 0 -38 -4 -61 -12
-64 -10 -4 -10 -6 0 -6 8 -1 12 -20 12 -60 0 -38 -4 -61 -12 -64 -10 -4 -10
-6 0 -6 8 -1 12 -20 12 -60 0 -38 -4 -61 -12 -64 -10 -4 -10 -6 0 -6 8 -1 12
-20 12 -60 0 -38 -4 -61 -12 -64 -10 -4 -10 -6 0 -6 8 -1 12 -20 12 -60 0 -38
-4 -61 -12 -64 -10 -4 -10 -6 0 -6 8 -1 12 -20 12 -60 0 -38 -4 -61 -12 -64
-10 -4 -10 -6 0 -6 8 -1 12 -20 12 -60 0 -38 -4 -61 -12 -64 -10 -4 -10 -6 0
-6 8 -1 12 -20 12 -60 0 -38 -4 -61 -12 -64 -10 -4 -10 -6 0 -6 8 -1 12 -20
12 -60 0 -38 -4 -61 -12 -64 -10 -4 -10 -6 0 -6 8 -1 12 -20 12 -60 0 -38 -4
-61 -12 -64 -10 -4 -10 -6 0 -6 8 -1 12 -20 12 -60 0 -38 -4 -61 -12 -64 -10
-4 -10 -6 0 -6 17 -1 17 -117 0 -124 -10 -4 -10 -6 0 -6 8 -1 12 -20 12 -60 0
-38 -4 -61 -12 -64 -10 -4 -10 -6 0 -6 17 -1 17 -117 0 -124 -10 -4 -10 -6 0
-6 17 -1 17 -107 0 -114 -10 -4 -10 -6 0 -6 8 -1 12 -20 12 -60 0 -38 -4 -61
-12 -64 -10 -4 -10 -6 0 -6 8 -1 12 -20 12 -60 0 -38 -4 -61 -12 -64 -10 -4
-10 -6 0 -6 8 -1 12 -20 12 -60 0 -38 -4 -61 -12 -64 -10 -4 -10 -6 0 -6 17
-1 17 -117 0 -124 -10 -4 -10 -6 0 -6 17 -1 17 -117 0 -124 -10 -4 -10 -6 0
-6 8 -1 12 -20 12 -60 0 -38 -4 -61 -12 -64 -10 -4 -10 -6 0 -6 8 -1 12 -20
12 -60 0 -38 -4 -61 -12 -64 -10 -4 -10 -6 0 -6 17 -1 17 -117 0 -124 -10 -4
-10 -6 0 -6 8 -1 12 -20 12 -60 0 -38 -4 -61 -12 -64 -10 -4 -10 -6 0 -6 17
-1 17 -117 0 -124 -10 -4 -10 -6 0 -6 17 -1 17 -117 0 -124 -10 -4 -10 -6 0
-6 8 -1 12 -20 12 -60 0 -38 -4 -61 -12 -64 -10 -4 -10 -6 0 -6 17 -1 17 -117
0 -124 -10 -4 -10 -6 0 -6 17 -1 17 -117 0 -124 -10 -4 -10 -6 0 -6 8 -1 12
-20 12 -60 0 -38 -4 -61 -12 -64 -10 -4 -10 -6 0 -6 17 -1 17 -117 0 -124 -10
-4 -10 -6 0 -6 17 -1 17 -117 0 -124 -10 -4 -10 -6 0 -6 17 -1 17 -107 0 -114
-10 -4 -10 -6 0 -6 8 -1 12 -20 12 -60 0 -38 -4 -61 -12 -64 -10 -4 -10 -6 0
-6 17 -1 17 -117 0 -124 -10 -4 -10 -6 0 -6 7 -1 12 -15 13 -33 0 -37 17 -86
18 -55 1 16 29 17 440 17 410 0 440 -1 444 -18 4 -16 5 -16 6 1 1 16 29 17
440 17 410 0 440 -1 444 -17 4 -17 5 -17 6 0 1 16 29 17 445 17 415 0 445 -1
449 -18 4 -16 5 -16 6 1 1 16 29 17 440 17 410 0 440 -1 444 -17 4 -17 5 -17
6 0 1 16 29 17 440 17 410 0 440 -1 444 -17 4 -17 5 -17 6 0 1 16 29 17 440
17 410 0 440 -1 444 -17 4 -17 5 -17 6 0 1 16 29 17 445 17 415 0 445 -1 449
-18 4 -16 5 -16 6 0 1 16 21 18 224 21 122 1 -1287 3 -3130 5 l-3353 2 -3
2723 c-1 1497 -3 2706 -5 2685z"/>
<path d="M6890 5780 l0 -30 515 0 515 0 0 30 0 30 -515 0 -515 0 0 -30z"/>
<path d="M571 5748 c2 -32 3 -36 6 -15 4 27 5 28 19 10 13 -17 14 -17 21 7 7
24 8 23 14 -10 l6 -35 2 43 c1 48 -13 56 -27 15 l-10 -28 -7 28 c-11 41 -25
32 -24 -15z"/>
<path d="M891 5748 c1 -24 4 -34 6 -23 3 11 10 23 17 27 8 6 7 8 -1 8 -19 0
-16 18 5 23 13 4 11 5 -5 6 -21 1 -23 -3 -22 -41z"/>
<path d="M1070 5780 c0 -5 -6 -10 -14 -10 -8 0 -16 -7 -20 -15 -8 -23 4 -45
25 -45 15 0 19 7 19 40 0 22 -2 40 -5 40 -3 0 -5 -4 -5 -10z m0 -40 c0 -21
-15 -27 -25 -10 -7 12 2 30 16 30 5 0 9 -9 9 -20z"/>
<path d="M1231 5750 c0 -29 2 -40 8 -31 6 9 11 10 15 2 4 -6 12 -11 18 -11 6
0 2 10 -9 23 -12 12 -23 31 -26 42 -3 11 -5 0 -6 -25z"/>
<path d="M718 5775 c-6 -7 3 -65 11 -65 7 0 7 58 -1 65 -2 3 -7 3 -10 0z"/>
<path d="M750 5765 c0 -9 6 -12 15 -9 8 4 15 7 15 9 0 2 -7 5 -15 9 -9 3 -15
0 -15 -9z"/>
<path d="M654 5756 c-10 -25 3 -46 28 -45 23 0 23 0 -2 11 l-25 11 23 5 c13 2
21 9 19 15 -6 19 -36 20 -43 3z m33 -2 c-3 -3 -12 -4 -19 -1 -8 3 -5 6 6 6 11
1 17 -2 13 -5z"/>
<path d="M794 5756 c-10 -25 3 -46 28 -45 l23 2 -22 4 c-29 6 -30 23 -2 23 12
0 19 5 17 13 -7 18 -37 21 -44 3z m33 -2 c-3 -3 -12 -4 -19 -1 -8 3 -5 6 6 6
11 1 17 -2 13 -5z"/>
<path d="M941 5737 c2 -30 2 -30 6 -4 5 33 20 36 25 5 2 -16 11 -24 28 -25
l25 -3 -25 12 -25 11 23 5 c35 6 20 27 -21 29 -36 2 -37 1 -36 -30z m66 17
c-3 -3 -12 -4 -19 -1 -8 3 -5 6 6 6 11 1 17 -2 13 -5z"/>
<path d="M1104 5755 c-9 -23 3 -45 23 -44 17 1 17 2 1 6 -25 6 -22 21 5 26 21
4 21 4 -3 6 -23 2 -24 3 -5 11 18 8 18 9 2 9 -10 1 -20 -6 -23 -14z"/>
<path d="M1161 5738 c2 -28 2 -29 6 -8 3 14 10 28 17 32 7 5 5 8 -6 8 -14 0
-18 -8 -17 -32z"/>
<path d="M1202 5740 c0 -19 2 -27 5 -17 2 9 2 25 0 35 -3 9 -5 1 -5 -18z"/>
<path d="M1290 5756 c0 -8 8 -17 18 -21 16 -7 15 -8 -3 -15 -16 -7 -17 -9 -3
-9 25 -1 34 20 13 31 -14 8 -15 12 -4 19 11 7 10 9 -3 9 -10 0 -18 -6 -18 -14z"/>
<path d="M1344 5756 c-9 -23 3 -46 23 -45 17 1 17 2 1 6 -25 6 -22 23 3 23 12
0 19 5 17 13 -7 18 -37 21 -44 3z m33 -2 c-3 -3 -12 -4 -19 -1 -8 3 -5 6 6 6
11 1 17 -2 13 -5z"/>
<path d="M1401 5738 c1 -29 2 -30 8 -9 9 34 29 37 34 6 4 -24 4 -24 3 2 -1 21
-7 29 -23 31 -20 3 -23 -1 -22 -30z"/>
<path d="M756 5725 c4 -8 11 -15 16 -15 6 0 5 6 -2 15 -7 8 -14 15 -16 15 -2
0 -1 -7 2 -15z"/>
<path d="M1860 5720 c0 -5 -6 -10 -14 -10 -8 0 -16 -7 -20 -15 -8 -23 4 -45
25 -45 15 0 19 7 19 40 0 22 -2 40 -5 40 -3 0 -5 -4 -5 -10z m0 -40 c0 -21
-15 -27 -25 -10 -7 12 2 30 16 30 5 0 9 -9 9 -20z"/>
<path d="M1655 5700 c-3 -6 1 -7 9 -4 12 4 16 0 16 -16 0 -16 -4 -20 -15 -16
-8 3 -15 1 -15 -4 0 -6 8 -10 18 -11 15 0 14 -2 -3 -10 l-20 -9 20 3 c15 2 21
11 23 40 2 28 -1 37 -12 37 -8 0 -18 -4 -21 -10z"/>
<path d="M1704 5696 c-9 -23 3 -46 23 -45 17 1 17 2 1 6 -25 6 -22 23 3 23 12
0 19 5 17 13 -7 18 -37 21 -44 3z m33 -2 c-3 -3 -12 -4 -19 -1 -8 3 -5 6 6 6
11 1 17 -2 13 -5z"/>
<path d="M1761 5678 c1 -29 2 -30 8 -9 9 34 29 37 34 6 4 -24 4 -24 3 2 -1 21
-7 29 -23 31 -20 3 -23 -1 -22 -30z"/>
<path d="M1894 5696 c-9 -23 3 -46 23 -45 17 1 17 2 1 6 -25 6 -22 23 3 23 12
0 19 5 17 13 -7 18 -37 21 -44 3z m33 -2 c-3 -3 -12 -4 -19 -1 -8 3 -5 6 6 6
11 1 17 -2 13 -5z"/>
<path d="M1951 5678 c1 -22 3 -26 6 -13 3 11 10 26 15 33 8 9 6 12 -6 12 -12
0 -16 -9 -15 -32z"/>
<path d="M6890 5650 l0 -30 495 0 495 0 0 30 0 30 -495 0 -495 0 0 -30z"/>
<path d="M1002 5623 c-2 -39 0 -43 21 -42 16 1 17 3 5 6 -11 3 -18 17 -21 41
l-4 37 -1 -42z"/>
<path d="M1273 5620 c0 -25 2 -35 4 -22 3 13 12 22 23 22 11 0 20 -9 23 -22 2
-13 4 -3 4 22 1 25 -1 37 -4 28 -2 -10 -13 -18 -23 -18 -10 0 -21 8 -23 18 -3
9 -5 -3 -4 -28z"/>
<path d="M1054 5626 c-9 -23 3 -46 23 -45 17 1 17 2 1 6 -25 6 -22 23 3 23 12
0 19 5 17 13 -7 18 -37 21 -44 3z m33 -2 c-3 -3 -12 -4 -19 -1 -8 3 -5 6 6 6
11 1 17 -2 13 -5z"/>
<path d="M1111 5608 c1 -29 2 -30 8 -9 9 34 29 37 34 6 4 -24 4 -24 3 2 -1 21
-7 29 -23 31 -20 3 -23 -1 -22 -30z"/>
<path d="M1180 5625 c-15 -18 2 -45 29 -44 10 0 7 4 -9 11 l-25 11 23 5 c13 2
21 9 19 15 -6 18 -23 19 -37 2z"/>
<path d="M1364 5632 c19 -8 19 -9 -3 -15 -28 -7 -23 -31 8 -35 19 -3 22 0 19
25 -2 19 -9 29 -23 30 -19 3 -19 3 -1 -5z m11 -32 c-3 -5 -10 -10 -16 -10 -5
0 -9 5 -9 10 0 6 7 10 16 10 8 0 12 -4 9 -10z"/>
<path d="M1411 5613 c-1 -27 3 -33 19 -33 16 0 20 6 19 33 -2 30 -2 30 -6 5
-2 -16 -8 -28 -13 -28 -5 0 -11 12 -13 28 -4 25 -4 25 -6 -5z"/>
<path d="M1913 5568 c-5 -7 -6 -26 -2 -43 l7 -30 1 28 c0 15 1 30 0 33 0 4 5
11 13 15 8 5 9 9 2 9 -6 0 -16 -6 -21 -12z"/>
<path d="M1620 5535 l0 -35 100 0 100 0 0 35 0 35 -100 0 -100 0 0 -35z"/>
<path d="M6890 5520 l0 -30 480 0 480 0 0 30 0 30 -480 0 -480 0 0 -30z"/>
<path d="M847 5523 c-13 -13 -7 -30 16 -40 l22 -11 -25 -10 c-24 -10 -24 -11
-3 -11 32 -1 40 19 15 40 -27 21 -27 26 -4 32 14 4 14 5 1 6 -9 0 -19 -2 -22
-6z"/>
<path d="M1181 5488 l2 -43 7 35 c4 19 8 29 9 21 0 -8 3 -12 6 -9 8 7 -5 38
-16 38 -5 0 -8 -19 -8 -42z"/>
<path d="M1223 5500 c-6 -16 -7 -30 -2 -30 5 0 10 8 10 18 1 9 5 4 9 -13 7
-28 8 -27 9 13 1 49 -10 55 -26 12z"/>
<path d="M918 5501 c11 -7 11 -9 -2 -14 -26 -10 -19 -37 9 -37 27 0 28 3 19
38 -4 12 -14 22 -23 22 -12 0 -13 -2 -3 -9z m12 -31 c0 -5 -4 -10 -10 -10 -5
0 -10 5 -10 10 0 6 5 10 10 10 6 0 10 -4 10 -10z"/>
<path d="M961 5478 c1 -29 2 -30 8 -9 9 34 29 37 34 6 4 -24 4 -24 3 2 -1 21
-7 29 -23 31 -20 3 -23 -1 -22 -30z"/>
<path d="M1031 5478 c2 -31 2 -31 6 -5 2 15 8 27 13 27 5 0 11 -12 13 -27 4
-26 4 -26 6 5 1 26 -3 32 -19 32 -16 0 -20 -6 -19 -32z"/>
<path d="M1104 5501 c18 -7 18 -8 3 -14 -24 -9 -21 -37 3 -37 16 0 20 7 20 30
0 25 -4 30 -22 29 -21 0 -21 -1 -4 -8z m16 -31 c0 -5 -4 -10 -10 -10 -5 0 -10
5 -10 10 0 6 5 10 10 10 6 0 10 -4 10 -10z"/>
<path d="M1284 5502 c18 -8 18 -9 3 -15 -24 -9 -21 -37 4 -37 16 0 20 5 17 27
-2 19 -9 29 -23 30 -19 3 -19 3 -1 -5z m16 -32 c0 -5 -4 -10 -10 -10 -5 0 -10
5 -10 10 0 6 5 10 10 10 6 0 10 -4 10 -10z"/>
<path d="M1331 5478 c2 -28 2 -29 6 -8 3 14 10 28 17 32 7 5 5 8 -6 8 -14 0
-18 -8 -17 -32z"/>
<path d="M1372 5480 c0 -19 2 -27 5 -17 2 9 2 25 0 35 -3 9 -5 1 -5 -18z"/>
<path d="M1401 5478 c2 -32 2 -32 6 -5 5 33 25 31 34 -4 4 -14 7 -17 8 -7 2
28 -10 48 -30 48 -15 0 -19 -7 -18 -32z"/>
<path d="M1921 5378 c2 -31 2 -31 6 -5 2 15 9 27 14 27 5 0 9 -12 10 -27 1
-28 1 -28 8 -4 9 34 29 37 34 6 4 -24 4 -24 3 2 -1 25 -5 28 -38 31 -37 2 -38
1 -37 -30z"/>
<path d="M674 5386 c-3 -8 -4 -25 -2 -38 4 -29 51 -33 56 -5 2 11 -3 17 -15
16 -10 0 -13 -3 -5 -6 19 -8 14 -23 -8 -23 -31 0 -28 57 3 63 l22 4 -23 2
c-12 0 -25 -5 -28 -13z"/>
<path d="M913 5360 c0 -25 2 -35 4 -22 2 12 2 32 0 45 -2 12 -4 2 -4 -23z"/>
<path d="M957 5380 c-22 -22 -19 -53 6 -58 14 -3 17 4 17 37 0 23 -1 41 -2 40
-2 0 -11 -9 -21 -19z m13 -30 c0 -11 -4 -20 -10 -20 -5 0 -10 9 -10 20 0 11 5
20 10 20 6 0 10 -9 10 -20z"/>
<path d="M1030 5391 c0 -4 11 -6 25 -3 14 2 25 6 25 8 0 2 -11 4 -25 4 -14 0
-25 -4 -25 -9z"/>
<path d="M1130 5390 c0 -5 -6 -10 -14 -10 -8 0 -16 -7 -20 -15 -8 -23 4 -45
25 -45 15 0 19 7 19 40 0 22 -2 40 -5 40 -3 0 -5 -4 -5 -10z m0 -40 c0 -11 -4
-20 -9 -20 -14 0 -23 18 -16 30 10 17 25 11 25 -10z"/>
<path d="M1223 5360 c0 -25 2 -35 4 -22 2 12 2 32 0 45 -2 12 -4 2 -4 -23z"/>
<path d="M765 5371 c19 -9 19 -10 -4 -10 -17 -1 -22 -5 -17 -17 3 -9 6 -18 6
-20 0 -2 10 -4 23 -3 21 0 21 1 -3 11 l-25 11 23 5 c27 4 24 26 -4 29 -18 3
-18 2 1 -6z"/>
<path d="M811 5348 c2 -28 2 -29 6 -8 3 14 10 28 17 32 7 5 5 8 -6 8 -14 0
-18 -8 -17 -32z"/>
<path d="M865 5371 c17 -8 18 -10 3 -10 -27 -1 -24 -41 3 -41 16 0 20 5 17 27
-2 19 -9 29 -23 30 l-20 3 20 -9z m15 -31 c0 -5 -4 -10 -10 -10 -5 0 -10 5
-10 10 0 6 5 10 10 10 6 0 10 -4 10 -10z"/>
<path d="M1164 5365 c-9 -23 3 -45 23 -44 17 1 17 2 1 6 -25 6 -22 21 5 26 21
4 21 4 -3 6 -23 2 -24 3 -5 11 18 8 18 9 2 9 -10 1 -20 -6 -23 -14z"/>
<path d="M1251 5348 c2 -31 2 -31 6 -5 5 30 23 37 23 10 1 -17 1 -17 11 0 14
24 27 21 32 -8 4 -23 4 -23 3 2 -1 25 -5 28 -38 31 -37 2 -38 1 -37 -30z"/>
<path d="M1364 5372 c19 -8 19 -9 -3 -15 -28 -7 -23 -31 8 -35 19 -3 22 0 19
25 -2 19 -9 29 -23 30 -19 3 -19 3 -1 -5z m16 -32 c0 -5 -7 -10 -16 -10 -8 0
-12 5 -9 10 3 6 10 10 16 10 5 0 9 -4 9 -10z"/>
<path d="M1411 5348 c2 -31 2 -31 6 -5 2 15 8 27 13 27 5 0 11 -12 13 -27 4
-26 4 -26 6 5 1 26 -3 32 -19 32 -16 0 -20 -6 -19 -32z"/>
<path d="M1030 5361 c0 -4 11 -6 25 -3 14 2 25 6 25 8 0 2 -11 4 -25 4 -14 0
-25 -4 -25 -9z"/>
<path d="M1038 5328 c6 -6 18 -8 28 -6 14 3 12 5 -9 10 -19 3 -25 2 -19 -4z"/>
<path d="M6890 5265 l0 -25 165 0 165 0 0 25 0 25 -165 0 -165 0 0 -25z"/>
<path d="M547 5273 c-13 -13 -7 -30 16 -40 l22 -11 -25 -10 c-24 -10 -24 -11
-3 -11 32 -1 40 19 15 40 -27 21 -27 26 -4 32 14 4 14 5 1 6 -9 0 -19 -2 -22
-6z"/>
<path d="M661 5240 c1 -34 3 -39 8 -21 9 35 29 37 34 4 l4 -28 2 28 c0 18 -5
30 -16 34 -10 4 -21 11 -25 17 -4 6 -7 -9 -7 -34z"/>
<path d="M733 5240 c0 -25 2 -35 4 -22 2 12 2 32 0 45 -2 12 -4 2 -4 -23z"/>
<path d="M852 5240 c11 -42 28 -54 28 -19 0 11 -4 17 -10 14 -5 -3 -10 3 -10
14 0 11 -4 22 -9 25 -5 3 -4 -12 1 -34z"/>
<path d="M880 5266 c0 -8 5 -18 10 -21 6 -3 10 -15 10 -26 0 -10 4 -19 10 -19
11 0 25 68 16 77 -3 4 -6 -6 -6 -21 0 -16 -4 -25 -10 -21 -5 3 -10 15 -10 26
0 10 -4 19 -10 19 -5 0 -10 -6 -10 -14z"/>
<path d="M1041 5240 c0 -31 2 -40 8 -31 8 13 12 13 28 1 13 -10 12 -7 -4 10
-11 14 -23 34 -26 45 -3 11 -5 0 -6 -25z"/>
<path d="M1148 5273 l22 -4 -20 -29 c-27 -37 -26 -40 13 -39 30 2 30 2 4 6
l-27 4 26 35 26 34 -33 -1 c-24 -1 -27 -3 -11 -6z"/>
<path d="M1380 5271 c0 -5 -9 -11 -21 -14 -29 -8 -22 -51 9 -55 20 -3 22 1 22
37 0 23 -2 41 -5 41 -3 0 -5 -4 -5 -9z m-5 -41 c0 -7 -6 -15 -12 -17 -8 -3
-13 4 -13 17 0 13 5 20 13 18 6 -3 12 -11 12 -18z"/>
<path d="M618 5251 c11 -7 11 -9 -2 -14 -27 -10 -19 -37 10 -37 20 0 25 4 20
16 -3 9 -6 22 -6 30 0 8 -8 14 -17 14 -14 0 -15 -2 -5 -9z m12 -31 c0 -5 -4
-10 -10 -10 -5 0 -10 5 -10 10 0 6 5 10 10 10 6 0 10 -4 10 -10z"/>
<path d="M754 5246 c-10 -25 3 -46 28 -45 23 0 23 0 -2 11 l-25 11 23 5 c13 2
21 9 19 15 -6 19 -36 20 -43 3z m33 -2 c-3 -3 -12 -4 -19 -1 -8 3 -5 6 6 6 11
1 17 -2 13 -5z"/>
<path d="M944 5245 c-8 -21 2 -45 20 -45 17 0 28 24 20 45 -4 8 -13 15 -20 15
-8 0 -17 -7 -20 -15z m31 -15 c0 -7 -6 -15 -12 -17 -8 -3 -13 4 -13 17 0 13 5
20 13 18 6 -3 12 -11 12 -18z"/>
<path d="M1001 5228 c2 -28 2 -29 6 -8 3 14 10 28 17 32 7 5 5 8 -6 8 -14 0
-18 -8 -17 -32z"/>
<path d="M1065 5250 c-3 -6 1 -7 9 -4 18 7 21 14 7 14 -6 0 -13 -4 -16 -10z"/>
<path d="M1204 5245 c-9 -23 3 -45 23 -44 17 1 17 2 1 6 -25 6 -22 21 5 26 21
4 21 4 -3 6 -23 2 -24 3 -5 11 18 8 18 9 2 9 -10 1 -20 -6 -23 -14z"/>
<path d="M1261 5244 c0 -11 3 -14 6 -6 3 7 2 16 -1 19 -3 4 -6 -2 -5 -13z"/>
<path d="M1280 5235 c-6 -15 -8 -30 -6 -33 3 -3 10 8 16 23 6 15 8 30 6 33 -3
3 -10 -8 -16 -23z"/>
<path d="M1425 5251 c19 -9 19 -10 -4 -10 -17 -1 -22 -5 -17 -17 3 -9 6 -18 6
-20 0 -2 10 -4 23 -3 21 0 21 1 -3 11 l-25 11 23 5 c27 4 24 26 -4 29 -18 3
-18 2 1 -6z"/>
<path d="M818 5223 c7 -3 16 -2 19 1 4 3 -2 6 -13 5 -11 0 -14 -3 -6 -6z"/>
<path d="M1300 5215 c0 -8 5 -15 10 -15 6 0 10 7 10 15 0 8 -4 15 -10 15 -5 0
-10 -7 -10 -15z"/>
<path d="M770 5103 c-3 -29 -1 -48 3 -44 5 5 7 28 5 52 l-3 44 -5 -52z"/>
<path d="M1067 5142 c6 -4 13 -23 16 -42 l4 -35 1 37 c2 25 7 38 20 41 9 3 1
5 -18 6 -19 0 -30 -3 -23 -7z"/>
<path d="M1250 5140 c0 -5 -6 -10 -14 -10 -8 0 -16 -7 -20 -15 -8 -23 4 -45
25 -45 15 0 19 7 19 40 0 22 -2 40 -5 40 -3 0 -5 -4 -5 -10z m0 -40 c0 -21
-15 -27 -25 -10 -7 12 2 30 16 30 5 0 9 -9 9 -20z"/>
<path d="M902 5108 c2 -17 9 -33 16 -34 7 -1 8 0 2 3 -14 7 -13 40 2 45 7 3 5
7 -6 11 -15 6 -17 2 -14 -25z"/>
<path d="M791 5103 c-1 -27 3 -33 19 -33 16 0 20 6 19 33 -2 30 -2 30 -6 5 -2
-16 -8 -28 -13 -28 -5 0 -11 12 -13 28 -4 25 -4 25 -6 -5z"/>
<path d="M850 5116 c0 -8 8 -17 18 -21 16 -7 15 -8 -3 -15 -16 -7 -17 -9 -3
-9 25 -1 33 20 12 32 -17 10 -17 11 1 18 19 7 18 8 -2 8 -13 1 -23 -5 -23 -13z"/>
<path d="M942 5100 c0 -19 2 -27 5 -17 2 9 2 25 0 35 -3 9 -5 1 -5 -18z"/>
<path d="M971 5098 c2 -30 2 -31 6 -5 5 34 30 36 36 2 4 -23 4 -23 3 2 -1 21
-7 29 -23 31 -20 3 -23 -1 -22 -30z"/>
<path d="M1111 5098 c2 -28 2 -29 6 -8 3 14 10 28 17 32 7 5 5 8 -6 8 -14 0
-18 -8 -17 -32z"/>
<path d="M1154 5100 c1 -18 7 -26 24 -28 19 -3 22 1 21 30 -2 30 -2 31 -6 6
-5 -34 -30 -37 -36 -5 -3 19 -4 19 -3 -3z"/>
<path d="M1284 5116 c-9 -23 3 -46 23 -45 17 1 17 2 1 6 -25 6 -22 23 3 23 12
0 19 5 17 13 -7 18 -37 21 -44 3z m33 -2 c-3 -3 -12 -4 -19 -1 -8 3 -5 6 6 6
11 1 17 -2 13 -5z"/>
<path d="M1354 5121 c18 -7 18 -8 3 -14 -26 -10 -21 -37 6 -37 20 0 23 4 19
30 -3 23 -9 30 -26 29 -20 0 -20 -1 -2 -8z m16 -31 c0 -5 -4 -10 -10 -10 -5 0
-10 5 -10 10 0 6 5 10 10 10 6 0 10 -4 10 -10z"/>
<path d="M1404 5100 c1 -18 7 -26 24 -28 19 -3 22 1 21 30 -2 30 -2 31 -6 6
-5 -34 -30 -37 -36 -5 -3 19 -4 19 -3 -3z"/>
<path d="M522 4980 c0 -25 2 -37 5 -27 5 18 5 18 26 0 l21 -18 -21 30 c-11 17
-23 37 -26 45 -3 8 -5 -5 -5 -30z"/>
<path d="M549 5003 c-13 -16 -12 -17 4 -4 16 13 21 21 13 21 -2 0 -10 -8 -17
-17z"/>
<path d="M772 4980 c0 -25 2 -39 5 -32 4 10 8 10 21 0 15 -12 16 -11 3 5 -11
14 -11 20 0 35 13 15 12 16 -3 4 -14 -11 -17 -10 -21 10 -2 13 -5 3 -5 -22z"/>
<path d="M963 5008 c3 -16 38 -51 44 -44 3 3 -2 12 -11 21 -9 9 -16 21 -16 26
0 5 -4 9 -10 9 -5 0 -9 -5 -7 -12z"/>
<path d="M1016 5012 c-2 -4 -1 -23 4 -42 l8 -35 1 43 c1 41 -3 50 -13 34z"/>
<path d="M1332 4980 c0 -25 2 -39 5 -32 4 10 8 10 21 0 15 -12 15 -11 0 12 -8
14 -18 35 -21 45 -2 11 -5 0 -5 -25z"/>
<path d="M1078 5004 c-3 -2 -3 -17 0 -34 3 -20 10 -30 21 -29 10 0 11 2 4 6
-16 6 -17 40 -1 45 8 3 6 6 -4 10 -9 4 -18 5 -20 2z"/>
<path d="M1228 5004 c-3 -2 -3 -17 0 -34 3 -20 10 -30 21 -29 10 0 11 2 4 6
-16 6 -17 40 -1 45 8 3 6 6 -4 10 -9 4 -18 5 -20 2z"/>
<path d="M580 4974 c6 -15 9 -33 6 -41 -12 -30 6 -10 20 22 18 44 18 58 -1 25
-10 -18 -14 -20 -15 -8 0 9 -4 20 -10 23 -6 4 -6 -4 0 -21z"/>
<path d="M630 4990 c0 -13 11 -13 30 0 12 8 11 10 -7 10 -13 0 -23 -4 -23 -10z"/>
<path d="M682 4970 c0 -19 2 -27 5 -17 2 9 2 25 0 35 -3 9 -5 1 -5 -18z"/>
<path d="M724 4992 c19 -8 19 -9 -3 -15 -28 -7 -23 -31 8 -35 19 -3 22 0 19
25 -2 19 -9 29 -23 30 -19 3 -19 3 -1 -5z m11 -32 c-3 -5 -10 -10 -16 -10 -5
0 -9 5 -9 10 0 6 7 10 16 10 8 0 12 -4 9 -10z"/>
<path d="M824 4985 c-8 -21 2 -45 20 -45 7 0 16 7 20 15 8 21 -3 45 -20 45 -8
0 -17 -7 -20 -15z m31 -15 c0 -7 -6 -15 -12 -17 -8 -3 -13 4 -13 17 0 13 5 20
13 18 6 -3 12 -11 12 -18z"/>
<path d="M880 4986 c0 -8 8 -17 18 -21 16 -7 15 -8 -3 -15 -16 -7 -17 -9 -3
-9 25 -1 34 20 13 31 -14 8 -15 12 -4 19 11 7 10 9 -3 9 -10 0 -18 -6 -18 -14z"/>
<path d="M1052 4970 c0 -19 2 -27 5 -17 2 9 2 25 0 35 -3 9 -5 1 -5 -18z"/>
<path d="M1128 4993 c7 -3 16 -2 19 1 4 3 -2 6 -13 5 -11 0 -14 -3 -6 -6z"/>
<path d="M1174 4985 c-8 -21 2 -45 20 -45 7 0 16 7 20 15 8 21 -3 45 -20 45
-8 0 -17 -7 -20 -15z m31 -15 c0 -7 -6 -15 -12 -17 -8 -3 -13 4 -13 17 0 13 5
20 13 18 6 -3 12 -11 12 -18z"/>
<path d="M1285 4991 c17 -8 18 -10 3 -10 -27 -1 -24 -41 3 -41 16 0 20 5 17
27 -2 19 -9 29 -23 30 l-20 3 20 -9z m15 -31 c0 -5 -4 -10 -10 -10 -5 0 -10 5
-10 10 0 6 5 10 10 10 6 0 10 -4 10 -10z"/>
<path d="M1392 4970 c0 -19 2 -27 5 -17 2 9 2 25 0 35 -3 9 -5 1 -5 -18z"/>
<path d="M1415 4991 c-3 -5 0 -13 6 -17 7 -4 9 -3 5 4 -3 6 2 13 11 15 16 4
16 5 1 6 -9 0 -19 -3 -23 -8z"/>
<path d="M961 4964 c0 -11 3 -14 6 -6 3 7 2 16 -1 19 -3 4 -6 -2 -5 -13z"/>
<path d="M1136 4965 c19 -14 19 -14 0 -15 -11 0 -17 -3 -13 -6 3 -4 14 -4 23
0 13 5 14 9 4 21 -7 8 -17 15 -23 15 -6 0 -2 -7 9 -15z"/>
<path d="M1432 4955 c-11 -12 -10 -15 3 -15 8 0 15 7 15 15 0 18 -2 18 -18 0z"/>
<path d="M859 4832 c-2 -28 -3 -52 -1 -52 1 0 7 11 12 25 6 15 17 25 30 25 11
0 20 7 20 15 0 18 -26 20 -36 3 -6 -9 -10 -5 -14 12 -5 19 -8 12 -11 -28z"/>
<path d="M1101 4838 c1 -24 4 -34 6 -23 3 11 10 23 17 27 8 6 7 8 -1 8 -19 0
-16 18 5 23 13 4 11 5 -5 6 -21 1 -23 -3 -22 -41z"/>
<path d="M1302 4840 c1 -29 3 -35 5 -17 5 33 25 31 34 -4 4 -14 7 -17 8 -7 2
25 -10 48 -24 48 -7 0 -16 6 -18 13 -3 6 -5 -8 -5 -33z"/>
<path d="M1420 4860 c0 -6 7 -10 15 -10 8 0 15 2 15 4 0 2 -7 6 -15 10 -8 3
-15 1 -15 -4z"/>
<path d="M955 4851 c17 -8 18 -10 3 -10 -27 -1 -24 -41 3 -41 16 0 20 5 17 27
-2 19 -9 29 -23 30 l-20 3 20 -9z m15 -31 c0 -5 -4 -10 -10 -10 -5 0 -10 5
-10 10 0 6 5 10 10 10 6 0 10 -4 10 -10z"/>
<path d="M1001 4828 c2 -32 2 -32 6 -5 5 33 25 31 34 -4 4 -14 7 -17 8 -7 2
28 -10 48 -30 48 -15 0 -19 -7 -18 -32z"/>
<path d="M1143 4845 c0 -8 4 -15 9 -15 4 0 8 5 8 10 0 20 19 9 22 -12 2 -15
10 -23 23 -24 15 -1 16 0 3 3 -25 6 -22 23 3 23 38 0 13 25 -28 27 -29 2 -40
-1 -40 -12z m74 -1 c-3 -3 -12 -4 -19 -1 -8 3 -5 6 6 6 11 1 17 -2 13 -5z"/>
<path d="M1244 4845 c-9 -22 3 -45 23 -45 15 0 15 2 -3 15 -19 15 -19 15 0 30
18 13 18 15 3 15 -10 0 -20 -7 -23 -15z"/>
<path d="M1364 4846 c-10 -25 3 -46 28 -45 l23 2 -22 4 c-29 6 -30 23 -2 23
12 0 19 5 17 13 -7 18 -37 21 -44 3z m33 -2 c-3 -3 -12 -4 -19 -1 -8 3 -5 6 6
6 11 1 17 -2 13 -5z"/>
<path d="M888 4808 c5 -5 16 -8 23 -6 8 3 3 7 -10 11 -17 4 -21 3 -13 -5z"/>
<path d="M860 4734 c-21 -57 -21 -55 0 -42 14 9 22 9 34 -1 14 -12 15 -10 5
20 -17 50 -27 56 -39 23z m24 -9 c3 -9 0 -15 -9 -15 -9 0 -12 6 -9 15 4 8 7
15 9 15 2 0 5 -7 9 -15z"/>
<path d="M923 4720 c0 -25 2 -35 4 -22 2 12 2 32 0 45 -2 12 -4 2 -4 -23z"/>
<path d="M1141 4729 c-13 -39 -14 -59 -1 -39 8 12 13 13 29 3 19 -12 19 -11 9
20 -16 48 -24 52 -37 16z m23 -4 c3 -8 1 -15 -4 -15 -6 0 -10 7 -10 15 0 8 2
15 4 15 2 0 6 -7 10 -15z"/>
<path d="M1432 4718 c2 -17 9 -33 16 -34 7 -1 8 0 2 3 -14 7 -13 40 2 45 7 3
5 7 -6 11 -15 6 -17 2 -14 -25z"/>
<path d="M965 4731 c16 -8 17 -10 4 -10 -18 -1 -32 -25 -22 -35 4 -3 15 -6 25
-6 28 0 21 54 -7 57 l-20 3 20 -9z m15 -31 c0 -5 -7 -10 -16 -10 -8 0 -12 5
-9 10 3 6 10 10 16 10 5 0 9 -4 9 -10z"/>
<path d="M1012 4710 c0 -19 2 -27 5 -17 2 9 2 25 0 35 -3 9 -5 1 -5 -18z"/>
<path d="M1041 4708 c2 -31 2 -31 6 -5 2 15 8 27 13 27 5 0 11 -12 13 -27 4
-26 4 -26 6 5 1 26 -3 32 -19 32 -16 0 -20 -6 -19 -32z"/>
<path d="M1200 4726 c0 -8 8 -17 18 -21 16 -7 15 -8 -3 -15 -16 -7 -17 -9 -3
-9 25 -1 34 20 13 31 -14 8 -15 12 -4 19 11 7 10 9 -3 9 -10 0 -18 -6 -18 -14z"/>
<path d="M1250 4698 c0 -24 4 -38 8 -32 4 6 15 13 25 17 26 10 18 51 -10 55
-21 3 -23 -1 -23 -40z m40 12 c0 -11 -4 -20 -9 -20 -14 0 -23 18 -16 30 10 17
25 11 25 -10z"/>
<path d="M1314 4726 c-10 -25 3 -46 28 -45 23 0 23 0 -2 11 l-25 11 23 5 c13
2 21 9 19 15 -6 19 -36 20 -43 3z m33 -2 c-3 -3 -12 -4 -19 -1 -8 3 -5 6 6 6
11 1 17 -2 13 -5z"/>
<path d="M1376 4725 c-8 -21 3 -45 22 -45 13 0 12 3 -4 15 -19 15 -19 15 0 30
16 12 17 15 4 15 -9 0 -18 -7 -22 -15z"/>
<path d="M912 4593 c-2 -39 0 -43 21 -42 16 1 17 3 5 6 -11 3 -18 17 -21 41
l-4 37 -1 -42z"/>
<path d="M1213 4590 c0 -25 2 -35 4 -22 3 13 12 22 23 22 11 0 20 -9 23 -22 2
-13 4 -3 4 22 1 25 -1 37 -4 28 -2 -10 -13 -18 -23 -18 -10 0 -21 8 -23 18 -3
9 -5 -3 -4 -28z"/>
<path d="M1440 4620 c0 -5 -6 -10 -14 -10 -8 0 -16 -7 -20 -15 -8 -23 4 -45
25 -45 15 0 19 7 19 40 0 22 -2 40 -5 40 -3 0 -5 -4 -5 -10z m0 -40 c0 -21
-15 -27 -25 -10 -7 12 2 30 16 30 5 0 9 -9 9 -20z"/>
<path d="M964 4596 c-10 -25 3 -46 28 -45 l23 2 -22 4 c-29 6 -30 23 -2 23 12
0 19 5 17 13 -7 18 -37 21 -44 3z m33 -2 c-3 -3 -12 -4 -19 -1 -8 3 -5 6 6 6
11 1 17 -2 13 -5z"/>
<path d="M1021 4577 c1 -29 2 -30 8 -8 9 33 29 38 33 9 4 -34 43 -32 43 2 0
22 -4 25 -42 27 -42 3 -43 2 -42 -30z m74 3 c0 -7 -6 -15 -12 -17 -8 -3 -13 4
-13 17 0 13 5 20 13 18 6 -3 12 -11 12 -18z"/>
<path d="M1120 4608 c0 -4 5 -19 10 -34 8 -21 8 -30 -2 -36 -10 -8 -10 -9 1
-6 8 2 20 21 27 41 7 21 9 35 4 32 -6 -4 -10 -14 -10 -23 -1 -12 -5 -10 -15 8
-8 14 -14 22 -15 18z"/>
<path d="M1287 4595 c-9 -22 3 -46 22 -43 10 2 16 13 16 28 0 28 -29 40 -38
15z m33 -15 c0 -21 -15 -27 -25 -10 -7 12 2 30 16 30 5 0 9 -9 9 -20z"/>
<path d="M1347 4595 c-9 -22 3 -46 22 -43 10 2 16 13 16 28 0 28 -29 40 -38
15z m33 -15 c0 -21 -15 -27 -25 -10 -7 12 2 30 16 30 5 0 9 -9 9 -20z"/>
<path d="M6890 4485 c0 -18 5 -25 20 -25 15 0 20 7 20 25 0 18 -5 25 -20 25
-15 0 -20 -7 -20 -25z"/>
<path d="M740 4453 c-3 -29 -1 -48 3 -44 5 5 7 28 5 52 l-3 44 -5 -52z"/>
<path d="M1000 4490 c0 -5 -6 -10 -14 -10 -8 0 -16 -7 -20 -15 -8 -23 4 -45
25 -45 15 0 19 7 19 40 0 22 -2 40 -5 40 -3 0 -5 -4 -5 -10z m0 -40 c0 -21
-15 -27 -25 -10 -7 12 2 30 16 30 5 0 9 -9 9 -20z"/>
<path d="M1130 4464 c-7 -19 -9 -38 -6 -41 3 -4 6 -1 6 5 0 7 9 12 20 12 11 0
20 -5 20 -12 0 -6 2 -9 5 -7 6 7 -17 79 -26 79 -4 0 -13 -16 -19 -36z m30 -5
c0 -5 -4 -9 -10 -9 -5 0 -10 7 -10 16 0 8 5 12 10 9 6 -3 10 -10 10 -16z"/>
<path d="M1270 4491 c0 -5 -9 -11 -21 -14 -29 -8 -22 -51 9 -55 20 -3 22 1 22
37 0 23 -2 41 -5 41 -3 0 -5 -4 -5 -9z m-5 -41 c0 -7 -6 -15 -12 -17 -8 -3
-13 4 -13 17 0 13 5 20 13 18 6 -3 12 -11 12 -18z"/>
<path d="M775 4471 c17 -8 18 -10 3 -10 -27 -1 -24 -41 3 -41 16 0 20 5 17 27
-2 19 -9 29 -23 30 l-20 3 20 -9z m15 -31 c0 -5 -4 -10 -10 -10 -5 0 -10 5
-10 10 0 6 5 10 10 10 6 0 10 -4 10 -10z"/>
<path d="M824 4465 c-9 -23 3 -45 23 -44 17 1 17 2 1 6 -10 2 -18 13 -18 23 0
10 8 21 18 23 16 4 16 5 -1 6 -10 0 -20 -6 -23 -14z"/>
<path d="M901 4448 c1 -29 2 -30 8 -9 9 34 29 37 34 6 4 -24 4 -24 3 2 -1 21
-7 29 -23 31 -20 3 -23 -1 -22 -30z"/>
<path d="M1044 4472 c18 -8 18 -9 3 -15 -24 -9 -21 -37 4 -37 16 0 20 5 17 27
-2 19 -9 29 -23 30 -19 3 -19 3 -1 -5z m16 -32 c0 -5 -4 -10 -10 -10 -5 0 -10
5 -10 10 0 6 5 10 10 10 6 0 10 -4 10 -10z"/>
<path d="M1191 4448 c2 -28 2 -29 6 -8 3 14 10 28 17 32 7 5 5 8 -6 8 -14 0
-18 -8 -17 -32z"/>
<path d="M1294 4466 c-10 -25 3 -46 28 -45 23 0 23 0 -2 11 l-25 11 23 5 c13
2 21 9 19 15 -6 19 -36 20 -43 3z m33 -2 c-3 -3 -12 -4 -19 -1 -8 3 -5 6 6 6
11 1 17 -2 13 -5z"/>
<path d="M1361 4448 c2 -28 2 -29 6 -8 3 14 10 28 17 32 7 5 5 8 -6 8 -14 0
-18 -8 -17 -32z"/>
<path d="M1401 4448 c2 -31 2 -31 6 -5 2 15 8 27 13 27 5 0 11 -12 13 -27 4
-26 4 -26 6 5 1 26 -3 32 -19 32 -16 0 -20 -6 -19 -32z"/>
<path d="M830 4344 c-21 -57 -21 -55 0 -42 14 9 22 9 35 -2 16 -13 16 -12 1
25 -22 52 -24 53 -36 19z m24 -9 c3 -9 0 -15 -9 -15 -9 0 -12 6 -9 15 4 8 7
15 9 15 2 0 5 -7 9 -15z"/>
<path d="M942 4330 c1 -29 3 -35 5 -17 5 33 25 31 34 -4 4 -14 7 -17 8 -7 2
25 -10 48 -24 48 -7 0 -16 6 -18 13 -3 6 -5 -8 -5 -33z"/>
<path d="M1108 4358 c-2 -7 -1 -26 3 -43 6 -28 7 -28 9 -5 1 14 3 33 5 43 4
19 -11 24 -17 5z"/>
<path d="M1182 4358 c-25 -25 -6 -68 30 -68 11 0 18 7 18 20 0 11 -4 20 -10
20 -5 0 -7 -7 -3 -16 4 -12 1 -15 -13 -12 -30 5 -25 50 6 59 21 6 22 7 5 8
-12 1 -26 -4 -33 -11z"/>
<path d="M1252 4330 c1 -29 2 -35 5 -17 2 15 10 27 18 27 8 0 16 -12 18 -27
l4 -28 2 28 c0 18 -5 30 -16 34 -10 4 -21 11 -25 17 -4 6 -7 -9 -6 -34z"/>
<path d="M898 4343 c7 -3 16 -2 19 1 4 3 -2 6 -13 5 -11 0 -14 -3 -6 -6z"/>
<path d="M1001 4318 c1 -21 3 -26 6 -13 3 11 12 26 21 33 14 11 13 12 -6 12
-18 0 -22 -5 -21 -32z"/>
<path d="M1064 4342 c19 -8 19 -9 -3 -15 -28 -7 -23 -31 8 -35 19 -3 22 0 19
25 -2 19 -9 29 -23 30 -19 3 -19 3 -1 -5z m16 -32 c0 -5 -7 -10 -15 -10 -8 0
-15 5 -15 10 0 6 7 10 15 10 8 0 15 -4 15 -10z"/>
<path d="M1334 4342 c19 -8 19 -9 -3 -15 -28 -7 -23 -31 8 -35 19 -3 22 0 19
25 -2 19 -9 29 -23 30 -19 3 -19 3 -1 -5z m16 -32 c0 -5 -7 -10 -15 -10 -8 0
-15 5 -15 10 0 6 7 10 15 10 8 0 15 -4 15 -10z"/>
<path d="M1381 4318 c2 -31 2 -31 6 -5 2 15 8 27 13 27 5 0 11 -12 13 -27 4
-26 4 -26 6 5 1 26 -3 32 -19 32 -16 0 -20 -6 -19 -32z"/>
<path d="M1442 4320 c0 -19 2 -27 5 -17 2 9 2 25 0 35 -3 9 -5 1 -5 -18z"/>
<path d="M906 4315 c19 -14 19 -14 0 -15 -11 0 -17 -3 -13 -6 3 -4 14 -4 23 0
13 5 14 9 4 21 -7 8 -17 15 -23 15 -6 0 -2 -7 9 -15z"/>
<path d="M6790 4225 c0 -23 3 -25 50 -25 47 0 50 2 50 25 0 23 -3 25 -50 25
-47 0 -50 -2 -50 -25z"/>
<path d="M221 4198 c1 -24 3 -35 6 -25 6 22 19 22 31 0 8 -13 9 -8 7 18 -2 18
-4 37 -4 42 -1 4 -10 7 -21 7 -17 0 -20 -6 -19 -42z m31 17 c0 -5 -5 -11 -11
-13 -6 -2 -11 4 -11 13 0 9 5 15 11 13 6 -2 11 -8 11 -13z"/>
<path d="M490 4220 c-15 -28 4 -60 33 -59 l22 2 -22 4 c-24 5 -35 25 -27 47 3
8 15 17 27 19 l22 4 -22 2 c-13 0 -27 -7 -33 -19z"/>
<path d="M562 4200 c1 -28 3 -34 5 -17 2 15 8 27 13 27 5 0 11 -12 13 -27 4
-26 4 -26 6 5 1 22 -4 32 -13 32 -8 0 -17 6 -19 13 -3 6 -5 -8 -5 -33z"/>
<path d="M1031 4198 c1 -24 3 -35 6 -25 2 9 8 17 13 17 5 0 14 -8 20 -17 11
-17 11 -17 6 0 -3 10 -6 30 -6 43 0 17 -6 24 -20 24 -17 0 -20 -6 -19 -42z
m29 17 c0 -8 -4 -15 -10 -15 -5 0 -10 7 -10 15 0 8 5 15 10 15 6 0 10 -7 10
-15z"/>
<path d="M1380 4231 c0 -5 -9 -11 -21 -14 -29 -8 -22 -51 9 -55 20 -3 22 1 22
37 0 23 -2 41 -5 41 -3 0 -5 -4 -5 -9z m-5 -41 c0 -7 -6 -15 -12 -17 -8 -3
-13 4 -13 17 0 13 5 20 13 18 6 -3 12 -11 12 -18z"/>
<path d="M742 4198 c2 -17 9 -33 16 -34 7 -1 8 0 2 3 -14 7 -13 40 2 45 7 3 5
7 -6 11 -15 6 -17 2 -14 -25z"/>
<path d="M284 4206 c-9 -24 4 -48 23 -44 24 4 24 52 0 56 -9 2 -20 -4 -23 -12z
m31 -16 c0 -7 -6 -15 -12 -17 -8 -3 -13 4 -13 17 0 13 5 20 13 18 6 -3 12 -11
12 -18z"/>
<path d="M344 4209 c-4 -7 1 -16 12 -22 17 -10 17 -11 -1 -18 -16 -6 -17 -8
-3 -8 25 -1 33 20 12 32 -17 10 -17 11 1 18 16 6 17 8 3 8 -9 1 -20 -4 -24
-10z"/>
<path d="M394 4206 c-10 -25 3 -46 28 -45 23 0 23 0 -2 11 l-25 11 23 5 c13 2
21 9 19 15 -6 19 -36 20 -43 3z m33 -2 c-3 -3 -12 -4 -19 -1 -8 3 -5 6 6 6 11
1 17 -2 13 -5z"/>
<path d="M621 4188 c2 -28 2 -29 6 -8 3 14 10 28 17 32 7 5 5 8 -6 8 -14 0
-18 -8 -17 -32z"/>
<path d="M662 4190 c0 -19 2 -27 5 -17 2 9 2 25 0 35 -3 9 -5 1 -5 -18z"/>
<path d="M690 4206 c0 -8 8 -17 18 -21 16 -7 15 -8 -3 -15 -16 -7 -17 -9 -3
-9 25 -1 34 20 13 31 -14 8 -15 12 -4 19 11 7 10 9 -3 9 -10 0 -18 -6 -18 -14z"/>
<path d="M782 4190 c0 -19 2 -27 5 -17 2 9 2 25 0 35 -3 9 -5 1 -5 -18z"/>
<path d="M824 4211 c18 -7 18 -8 3 -14 -24 -9 -21 -37 3 -37 16 0 20 7 20 30
0 25 -4 30 -22 29 -21 0 -21 -1 -4 -8z m16 -31 c0 -5 -4 -10 -10 -10 -5 0 -10
5 -10 10 0 6 5 10 10 10 6 0 10 -4 10 -10z"/>
<path d="M871 4188 c2 -30 2 -31 6 -5 5 34 30 36 36 2 4 -23 4 -23 3 2 -1 21
-7 29 -23 31 -20 3 -23 -1 -22 -30z"/>
<path d="M934 4206 c-10 -25 3 -46 28 -45 23 0 23 0 -2 11 l-25 11 23 5 c13 2
21 9 19 15 -6 19 -36 20 -43 3z m33 -2 c-3 -3 -12 -4 -19 -1 -8 3 -5 6 6 6 11
1 17 -2 13 -5z"/>
<path d="M1114 4212 c19 -8 19 -9 -3 -15 -28 -7 -23 -31 8 -35 19 -3 22 0 19
25 -2 19 -9 29 -23 30 -19 3 -19 3 -1 -5z m11 -32 c-3 -5 -10 -10 -16 -10 -5
0 -9 5 -9 10 0 6 7 10 16 10 8 0 12 -4 9 -10z"/>
<path d="M1153 4178 c-1 -23 1 -38 5 -32 4 6 15 13 25 17 25 9 19 51 -8 55
-18 2 -21 -3 -22 -40z m37 12 c0 -11 -4 -20 -10 -20 -5 0 -10 9 -10 20 0 11 5
20 10 20 6 0 10 -9 10 -20z"/>
<path d="M1217 4205 c-9 -22 3 -46 22 -43 10 2 16 13 16 28 0 28 -29 40 -38
15z m33 -15 c0 -11 -4 -20 -9 -20 -14 0 -23 18 -16 30 10 17 25 11 25 -10z"/>
<path d="M1281 4188 c2 -31 2 -31 6 -5 2 15 8 27 13 27 5 0 11 -12 13 -27 4
-26 4 -26 6 5 1 26 -3 32 -19 32 -16 0 -20 -6 -19 -32z"/>
<path d="M1424 4212 c19 -8 19 -9 -3 -15 -28 -7 -23 -31 8 -35 19 -3 22 0 19
25 -2 19 -9 29 -23 30 -19 3 -19 3 -1 -5z m16 -32 c0 -5 -7 -10 -15 -10 -8 0
-15 5 -15 10 0 6 7 10 15 10 8 0 15 -4 15 -10z"/>
<path d="M501 4068 l2 -43 7 35 c4 19 8 29 9 21 0 -8 3 -12 6 -9 8 7 -5 38
-16 38 -5 0 -8 -19 -8 -42z"/>
<path d="M811 4079 c-13 -39 -14 -59 -1 -39 8 12 13 13 29 3 19 -12 19 -11 9
20 -16 48 -24 52 -37 16z m23 -4 c3 -8 1 -15 -4 -15 -6 0 -10 7 -10 15 0 8 2
15 4 15 2 0 6 -7 10 -15z"/>
<path d="M1330 4101 c0 -5 -9 -11 -21 -14 -29 -8 -22 -51 9 -55 20 -3 22 1 22
37 0 23 -2 41 -5 41 -3 0 -5 -4 -5 -9z m-5 -41 c0 -7 -6 -15 -12 -17 -8 -3
-13 4 -13 17 0 13 5 20 13 18 6 -3 12 -11 12 -18z"/>
<path d="M1048 4095 c-6 -7 3 -65 11 -65 7 0 7 58 -1 65 -2 3 -7 3 -10 0z"/>
<path d="M604 4075 c-9 -23 3 -45 23 -44 17 1 17 2 1 6 -10 2 -18 13 -18 23 0
10 8 21 18 23 16 4 16 5 -1 6 -10 0 -20 -6 -23 -14z"/>
<path d="M657 4075 c-9 -22 3 -46 22 -43 10 2 16 13 16 28 0 28 -29 40 -38 15z
m33 -15 c0 -21 -15 -27 -25 -10 -7 12 2 30 16 30 5 0 9 -9 9 -20z"/>
<path d="M728 4083 c7 -3 16 -2 19 1 4 3 -2 6 -13 5 -11 0 -14 -3 -6 -6z"/>
<path d="M871 4058 c2 -32 2 -32 6 -5 5 33 25 31 34 -4 4 -14 7 -17 8 -7 2 28
-10 48 -30 48 -15 0 -19 -7 -18 -32z"/>
<path d="M954 4082 c19 -8 19 -9 -3 -15 -28 -7 -23 -31 8 -35 19 -3 22 0 19
25 -2 19 -9 29 -23 30 -19 3 -19 3 -1 -5z m11 -32 c-3 -5 -10 -10 -16 -10 -5
0 -9 5 -9 10 0 6 7 10 16 10 8 0 12 -4 9 -10z"/>
<path d="M995 4081 c-3 -5 0 -13 6 -17 7 -4 9 -3 5 4 -3 6 2 13 11 15 16 4 16
5 1 6 -9 0 -19 -3 -23 -8z"/>
<path d="M1105 4081 c16 -8 17 -10 4 -10 -18 -1 -32 -25 -22 -35 4 -3 15 -6
25 -6 28 0 21 54 -7 57 l-20 3 20 -9z m15 -31 c0 -5 -7 -10 -16 -10 -8 0 -12
5 -9 10 3 6 10 10 16 10 5 0 9 -4 9 -10z"/>
<path d="M1150 4076 c0 -8 8 -17 18 -21 16 -7 15 -8 -3 -15 -16 -7 -17 -9 -3
-9 24 -1 31 14 12 29 -12 11 -12 15 -2 21 10 7 9 9 -4 9 -10 0 -18 -6 -18 -14z"/>
<path d="M1202 4060 c0 -19 2 -27 5 -17 2 9 2 25 0 35 -3 9 -5 1 -5 -18z"/>
<path d="M1245 4081 c17 -8 18 -10 3 -10 -27 -1 -24 -41 3 -41 16 0 20 5 17
27 -2 19 -9 29 -23 30 l-20 3 20 -9z m15 -31 c0 -5 -4 -10 -10 -10 -5 0 -10 5
-10 10 0 6 5 10 10 10 6 0 10 -4 10 -10z"/>
<path d="M1354 4076 c-10 -25 3 -46 28 -45 l23 2 -22 4 c-29 6 -30 23 -2 23
12 0 19 5 17 13 -7 18 -37 21 -44 3z m33 -2 c-3 -3 -12 -4 -19 -1 -8 3 -5 6 6
6 11 1 17 -2 13 -5z"/>
<path d="M1415 4081 c-3 -5 0 -13 6 -17 7 -4 9 -3 5 4 -3 6 2 13 11 15 16 4
16 5 1 6 -9 0 -19 -3 -23 -8z"/>
<path d="M550 4059 c0 -5 -5 -7 -11 -3 -7 4 -10 1 -7 -6 7 -22 24 -22 25 0 1
11 0 20 -3 20 -2 0 -4 -5 -4 -11z"/>
<path d="M744 4052 c3 -6 -2 -13 -11 -15 -16 -4 -16 -5 -1 -6 21 -1 32 15 17
25 -7 4 -9 3 -5 -4z"/>
<path d="M1020 4051 c0 -5 -8 -12 -17 -14 -14 -4 -12 -5 5 -6 13 -1 22 5 22
14 0 8 -2 15 -5 15 -3 0 -5 -4 -5 -9z"/>
<path d="M1440 4051 c0 -5 -8 -12 -17 -14 -14 -4 -12 -5 5 -6 13 -1 22 5 22
14 0 8 -2 15 -5 15 -3 0 -5 -4 -5 -9z"/>
<path d="M870 3954 c-21 -57 -21 -55 0 -42 14 9 22 9 34 -1 14 -12 15 -10 5
20 -17 50 -27 56 -39 23z m24 -9 c3 -9 0 -15 -9 -15 -9 0 -12 6 -9 15 4 8 7
15 9 15 2 0 5 -7 9 -15z"/>
<path d="M933 3940 c0 -25 2 -35 4 -22 2 12 2 32 0 45 -2 12 -4 2 -4 -23z"/>
<path d="M963 3940 c0 -25 2 -35 4 -22 2 12 2 32 0 45 -2 12 -4 2 -4 -23z"/>
<path d="M1140 3933 c-3 -29 -1 -48 3 -44 5 5 7 28 5 52 l-3 44 -5 -52z"/>
<path d="M1237 3973 c-13 -12 -7 -24 19 -33 14 -6 22 -14 19 -20 -8 -13 -32
-13 -38 0 -3 6 -4 5 -3 -2 3 -17 37 -23 46 -9 12 21 -1 71 -19 71 -10 0 -21
-3 -24 -7z m33 -13 c0 -5 -7 -10 -15 -10 -8 0 -15 5 -15 10 0 6 7 10 15 10 8
0 15 -4 15 -10z"/>
<path d="M1438 3968 c-2 -6 -21 -11 -41 -10 -35 1 -37 0 -36 -31 1 -29 2 -30
8 -8 9 33 29 38 33 9 2 -15 11 -24 26 -26 20 -3 22 1 22 37 0 41 -5 52 -12 29z
m2 -38 c0 -11 -7 -20 -15 -20 -8 0 -15 9 -15 20 0 11 7 20 15 20 8 0 15 -9 15
-20z"/>
<path d="M984 3946 c-10 -25 3 -46 28 -45 23 0 23 0 -2 11 l-25 11 23 5 c13 2
21 9 19 15 -6 19 -36 20 -43 3z m33 -2 c-3 -3 -12 -4 -19 -1 -8 3 -5 6 6 6 11
1 17 -2 13 -5z"/>
<path d="M1051 3928 c2 -31 2 -31 6 -5 2 15 8 27 13 27 5 0 11 -12 13 -27 4
-26 4 -26 6 5 1 26 -3 32 -19 32 -16 0 -20 -6 -19 -32z"/>
<path d="M1318 3953 c10 -4 9 -8 -4 -17 -9 -7 -14 -18 -10 -24 10 -17 46 -15
46 2 0 27 -12 46 -29 45 -11 0 -12 -2 -3 -6z m17 -33 c-3 -5 -10 -10 -16 -10
-5 0 -9 5 -9 10 0 6 7 10 16 10 8 0 12 -4 9 -10z"/>
<path d="M6750 3835 c0 -24 2 -25 70 -25 68 0 70 1 70 25 0 24 -2 25 -70 25
-68 0 -70 -1 -70 -25z"/>
<path d="M222 3810 c0 -25 2 -37 5 -27 5 18 5 18 26 0 l21 -18 -21 30 c-11 17
-23 37 -26 45 -3 8 -5 -5 -5 -30z"/>
<path d="M249 3833 c-13 -16 -12 -17 4 -4 9 7 17 15 17 17 0 8 -8 3 -21 -13z"/>
<path d="M677 3843 c-13 -13 -7 -31 13 -36 27 -7 25 -27 -2 -28 -19 -1 -20 -2
-4 -6 10 -3 23 0 30 7 8 9 5 16 -11 30 -28 22 -28 27 -5 33 14 4 14 5 1 6 -9
0 -19 -2 -22 -6z"/>
<path d="M791 3810 c0 -31 2 -40 8 -31 8 13 12 13 28 0 16 -13 17 -13 4 4 -11
14 -11 20 -1 32 8 9 9 15 2 15 -6 0 -14 -6 -18 -12 -6 -9 -10 -5 -15 12 -5 19
-7 15 -8 -20z"/>
<path d="M913 3810 c0 -25 2 -35 4 -22 2 12 2 32 0 45 -2 12 -4 2 -4 -23z"/>
<path d="M943 3810 c0 -25 2 -35 4 -22 2 12 2 32 0 45 -2 12 -4 2 -4 -23z"/>
<path d="M1313 3810 c0 -25 2 -35 4 -22 2 12 2 32 0 45 -2 12 -4 2 -4 -23z"/>
<path d="M342 3808 c2 -17 9 -33 16 -34 7 -1 8 0 2 3 -14 7 -13 40 2 45 7 3 5
7 -6 11 -15 6 -17 2 -14 -25z"/>
<path d="M298 3823 c10 -4 9 -8 -4 -17 -9 -7 -14 -18 -10 -24 10 -17 46 -15
46 2 0 27 -12 46 -29 45 -11 0 -12 -2 -3 -6z m17 -33 c-3 -5 -10 -10 -16 -10
-5 0 -9 5 -9 10 0 6 7 10 16 10 8 0 12 -4 9 -10z"/>
<path d="M384 3816 c-10 -25 3 -46 28 -45 l23 2 -22 4 c-29 6 -30 23 -2 23 12
0 19 5 17 13 -7 18 -37 21 -44 3z m33 -2 c-3 -3 -12 -4 -19 -1 -8 3 -5 6 6 6
11 1 17 -2 13 -5z"/>
<path d="M441 3798 c1 -21 3 -26 6 -13 3 11 12 26 21 33 14 11 13 12 -6 12
-18 0 -22 -5 -21 -32z"/>
<path d="M492 3800 c0 -19 2 -27 5 -17 2 9 2 25 0 35 -3 9 -5 1 -5 -18z"/>
<path d="M511 3798 c1 -29 2 -30 8 -9 9 34 29 37 34 6 4 -24 4 -24 3 2 -1 21
-7 29 -23 31 -20 3 -23 -1 -22 -30z"/>
<path d="M595 3821 c17 -8 18 -10 3 -10 -27 -1 -24 -41 3 -41 16 0 20 5 17 27
-2 19 -9 29 -23 30 l-20 3 20 -9z m15 -31 c0 -5 -4 -10 -10 -10 -5 0 -10 5
-10 10 0 6 5 10 10 10 6 0 10 -4 10 -10z"/>
<path d="M748 3823 c10 -4 9 -8 -4 -17 -9 -7 -14 -18 -10 -24 10 -17 46 -15
46 2 0 27 -12 46 -29 45 -11 0 -12 -2 -3 -6z m17 -33 c-3 -5 -10 -10 -16 -10
-5 0 -9 5 -9 10 0 6 7 10 16 10 8 0 12 -4 9 -10z"/>
<path d="M850 3815 c-15 -18 3 -45 29 -44 10 0 7 4 -9 11 -25 11 -25 11 -2 15
12 3 22 11 22 19 0 18 -24 18 -40 -1z"/>
<path d="M985 3821 c16 -8 17 -10 4 -10 -18 -1 -32 -25 -22 -35 4 -3 15 -6 25
-6 28 0 21 54 -7 57 l-20 3 20 -9z m15 -31 c0 -5 -7 -10 -16 -10 -8 0 -12 5
-9 10 3 6 10 10 16 10 5 0 9 -4 9 -10z"/>
<path d="M1031 3798 c2 -28 2 -29 6 -8 3 14 10 28 17 32 7 5 5 8 -6 8 -14 0
-18 -8 -17 -32z"/>
<path d="M1067 3815 c-9 -22 3 -46 22 -43 10 2 16 13 16 28 0 28 -29 40 -38
15z m33 -15 c0 -11 -4 -20 -9 -20 -14 0 -23 18 -16 30 10 17 25 11 25 -10z"/>
<path d="M1131 3788 c0 -24 3 -37 6 -30 2 6 11 12 19 12 8 0 14 8 13 18 0 10
-3 12 -6 5 -8 -21 -23 -15 -23 8 0 15 5 19 15 15 8 -3 15 -1 15 4 0 6 -9 10
-20 10 -17 0 -20 -6 -19 -42z"/>
<path d="M1194 3816 c-8 -22 3 -49 19 -43 6 2 12 14 12 27 0 27 -22 39 -31 16z
m26 -16 c0 -11 -4 -20 -10 -20 -5 0 -10 9 -10 20 0 11 5 20 10 20 6 0 10 -9
10 -20z"/>
<path d="M1254 3800 c1 -34 41 -41 43 -8 2 20 1 21 -8 6 -14 -25 -27 -22 -32
5 -3 19 -4 19 -3 -3z"/>
<path d="M1344 3815 c-8 -21 2 -45 20 -45 17 0 28 24 20 45 -4 8 -13 15 -20
15 -8 0 -17 -7 -20 -15z m31 -15 c0 -7 -6 -15 -12 -17 -8 -3 -13 4 -13 17 0
13 5 20 13 18 6 -3 12 -11 12 -18z"/>
<path d="M1404 3800 c1 -18 7 -26 24 -28 19 -3 22 1 21 30 -1 29 -2 30 -8 9
-9 -33 -29 -38 -34 -9 -4 21 -4 21 -3 -2z"/>
<path d="M980 3694 c-21 -57 -21 -55 0 -42 14 9 22 9 34 -1 14 -12 15 -10 5
20 -17 50 -27 56 -39 23z m24 -9 c3 -9 0 -15 -9 -15 -9 0 -12 6 -9 15 4 8 7
15 9 15 2 0 5 -7 9 -15z"/>
<path d="M1043 3680 c0 -25 2 -35 4 -22 2 12 2 32 0 45 -2 12 -4 2 -4 -23z"/>
<path d="M1232 3708 c-25 -25 -6 -68 30 -68 11 0 18 7 18 20 0 11 -4 20 -10
20 -5 0 -7 -7 -3 -16 4 -12 1 -15 -13 -12 -30 5 -25 50 6 59 21 6 22 7 5 8
-12 1 -26 -4 -33 -11z"/>
<path d="M1401 3680 c1 -34 3 -39 8 -21 9 35 29 37 34 4 l4 -28 2 28 c0 18 -5
30 -16 34 -10 4 -21 11 -25 17 -4 6 -7 -9 -7 -34z"/>
<path d="M1362 3678 c2 -17 9 -33 16 -34 7 -1 8 0 2 3 -14 7 -13 40 2 45 7 3
5 7 -6 11 -15 6 -17 2 -14 -25z"/>
<path d="M1085 3691 c16 -8 17 -10 4 -10 -18 -1 -32 -25 -22 -35 4 -3 15 -6
25 -6 28 0 21 54 -7 57 l-20 3 20 -9z m15 -31 c0 -5 -7 -10 -16 -10 -8 0 -12
5 -9 10 3 6 10 10 16 10 5 0 9 -4 9 -10z"/>
<path d="M1131 3668 c2 -31 2 -31 6 -5 2 15 8 27 13 27 5 0 11 -12 13 -27 4
-26 4 -26 6 5 1 26 -3 32 -19 32 -16 0 -20 -6 -19 -32z"/>
<path d="M1304 3670 c1 -18 7 -26 24 -28 19 -3 22 1 21 30 -1 29 -2 30 -8 9
-9 -33 -29 -38 -34 -9 -4 21 -4 21 -3 -2z"/>
<path d="M677 3583 c-12 -12 -7 -33 7 -33 26 0 28 -20 4 -29 -23 -10 -23 -10
-1 -10 32 -1 40 19 15 40 -27 21 -27 26 -4 32 14 4 14 5 1 6 -9 0 -19 -2 -22
-6z"/>
<path d="M830 3581 c0 -5 -9 -11 -21 -14 -29 -8 -22 -51 9 -55 20 -3 22 1 22
37 0 23 -2 41 -5 41 -3 0 -5 -4 -5 -9z m-5 -41 c0 -7 -6 -15 -12 -17 -8 -3
-13 4 -13 17 0 13 5 20 13 18 6 -3 12 -11 12 -18z"/>
<path d="M1070 3550 c0 -37 2 -41 23 -38 18 2 22 9 22 38 0 29 -4 36 -22 38
-21 3 -23 -1 -23 -38z m40 20 c0 -5 -7 -10 -15 -10 -8 0 -15 5 -15 10 0 6 7
10 15 10 8 0 15 -4 15 -10z m0 -35 c0 -8 -7 -15 -15 -15 -8 0 -15 7 -15 15 0
8 7 15 15 15 8 0 15 -7 15 -15z"/>
<path d="M763 3550 c-3 -11 -10 -17 -16 -13 -6 4 -8 0 -4 -9 3 -9 0 -21 -6
-27 -8 -8 -8 -11 1 -11 7 0 12 2 12 4 0 2 7 20 15 40 8 20 13 36 9 36 -3 0 -8
-9 -11 -20z"/>
<path d="M851 3538 c1 -29 2 -30 8 -9 9 34 29 37 34 6 4 -24 4 -24 3 2 -1 21
-7 29 -23 31 -20 3 -23 -1 -22 -30z"/>
<path d="M920 3555 c-15 -18 3 -45 29 -44 10 0 7 4 -9 11 -25 11 -25 11 -2 15
12 3 22 11 22 19 0 18 -24 18 -40 -1z"/>
<path d="M980 3551 c7 -12 10 -32 7 -42 -3 -10 -1 -19 3 -19 11 0 34 69 26 77
-3 4 -6 -1 -6 -10 0 -22 -9 -21 -27 1 -13 15 -13 15 -3 -7z"/>
<path d="M1141 3538 c2 -28 2 -29 6 -8 3 14 10 28 17 32 7 5 5 8 -6 8 -14 0
-18 -8 -17 -32z"/>
<path d="M1195 3561 c19 -9 19 -10 -4 -10 -17 -1 -22 -5 -17 -17 3 -9 6 -18 6
-20 0 -2 10 -4 23 -3 21 0 21 1 -3 11 l-25 11 23 5 c27 4 24 26 -4 29 -18 3
-18 2 1 -6z"/>
<path d="M1241 3538 c2 -31 2 -31 6 -5 2 15 8 27 13 27 5 0 11 -12 13 -27 4
-26 4 -26 6 5 1 26 -3 32 -19 32 -16 0 -20 -6 -19 -32z"/>
<path d="M1301 3538 c2 -30 2 -31 6 -5 5 34 30 36 36 2 4 -23 4 -23 3 2 -1 21
-7 29 -23 31 -20 3 -23 -1 -22 -30z"/>
<path d="M1364 3556 c-10 -25 3 -46 28 -45 23 0 23 0 -2 11 l-25 11 23 5 c13
2 21 9 19 15 -6 19 -36 20 -43 3z m33 -2 c-3 -3 -12 -4 -19 -1 -8 3 -5 6 6 6
11 1 17 -2 13 -5z"/>
<path d="M1431 3538 c2 -28 2 -29 6 -8 3 14 10 28 17 32 7 5 5 8 -6 8 -14 0
-18 -8 -17 -32z"/>
<path d="M371 3418 c1 -24 3 -35 6 -25 6 22 19 22 31 0 8 -13 9 -8 7 18 -2 18
-4 37 -4 42 -1 4 -10 7 -21 7 -17 0 -20 -6 -19 -42z m31 17 c0 -5 -5 -11 -11
-13 -6 -2 -11 4 -11 13 0 9 5 15 11 13 6 -2 11 -8 11 -13z"/>
<path d="M707 3452 c6 -4 13 -23 16 -42 l4 -35 1 37 c1 20 8 39 15 41 6 3 -1
6 -18 6 -17 0 -25 -3 -18 -7z"/>
<path d="M1050 3420 c0 -37 2 -40 28 -39 23 2 24 2 5 6 -27 5 -31 30 -5 36 16
4 16 5 0 6 -10 0 -18 5 -18 10 0 5 8 12 18 14 13 4 11 5 -5 6 -20 1 -23 -4
-23 -39z"/>
<path d="M1190 3451 c0 -5 -9 -11 -21 -14 -29 -8 -22 -51 9 -55 20 -3 22 1 22
37 0 23 -2 41 -5 41 -3 0 -5 -4 -5 -9z m-5 -41 c0 -7 -6 -15 -12 -17 -8 -3
-13 4 -13 17 0 13 5 20 13 18 6 -3 12 -11 12 -18z"/>
<path d="M434 3426 c-10 -25 3 -46 28 -45 l23 2 -22 4 c-29 6 -30 23 -2 23 12
0 19 5 17 13 -7 18 -37 21 -44 3z m33 -2 c-3 -3 -12 -4 -19 -1 -8 3 -5 6 6 6
11 1 17 -2 13 -5z"/>
<path d="M494 3425 c-9 -23 3 -45 23 -44 17 1 17 2 1 6 -10 2 -18 13 -18 23 0
10 8 21 18 23 16 4 16 5 -1 6 -10 0 -20 -6 -23 -14z"/>
<path d="M554 3425 c-9 -23 3 -45 23 -44 17 1 17 2 1 6 -22 5 -24 23 -3 23 8
0 15 7 15 15 0 8 -7 15 -15 15 -9 0 -18 -7 -21 -15z"/>
<path d="M610 3398 c0 -24 4 -38 8 -32 4 6 15 13 25 17 26 10 18 51 -10 55
-21 3 -23 -1 -23 -40z m40 12 c0 -11 -7 -20 -15 -20 -8 0 -15 9 -15 20 0 11 7
20 15 20 8 0 15 -9 15 -20z"/>
<path d="M765 3431 c17 -8 18 -10 3 -10 -27 -1 -24 -41 3 -41 16 0 20 5 17 27
-2 19 -9 29 -23 30 l-20 3 20 -9z m15 -31 c0 -5 -4 -10 -10 -10 -5 0 -10 5
-10 10 0 6 5 10 10 10 6 0 10 -4 10 -10z"/>
<path d="M810 3421 c7 -12 10 -32 7 -42 -3 -10 -1 -19 3 -19 11 0 34 69 26 77
-3 4 -6 -1 -6 -10 0 -22 -9 -21 -27 1 -13 15 -13 15 -3 -7z"/>
<path d="M866 3427 c3 -10 9 -15 12 -12 3 3 0 11 -7 18 -10 9 -11 8 -5 -6z"/>
<path d="M897 3425 c-4 -11 -11 -30 -17 -42 -14 -34 -3 -28 15 8 9 17 14 36
12 42 -2 6 -6 3 -10 -8z"/>
<path d="M932 3410 c0 -19 2 -27 5 -17 2 9 2 25 0 35 -3 9 -5 1 -5 -18z"/>
<path d="M954 3410 c0 -26 3 -30 20 -28 15 2 21 10 21 28 0 18 -6 26 -21 28
-17 2 -20 -2 -20 -28z m36 0 c0 -11 -4 -20 -10 -20 -5 0 -10 9 -10 20 0 11 5
20 10 20 6 0 10 -9 10 -20z"/>
<path d="M1111 3408 c2 -28 2 -29 6 -8 3 14 10 28 17 32 7 5 5 8 -6 8 -14 0
-18 -8 -17 -32z"/>
<path d="M1214 3426 c-9 -24 4 -48 23 -44 12 2 18 12 18 28 0 29 -32 41 -41
16z m36 -16 c0 -11 -7 -20 -15 -20 -15 0 -21 21 -8 33 12 13 23 7 23 -13z"/>
<path d="M1277 3433 c-15 -15 -6 -45 15 -51 21 -5 21 -6 2 -14 -18 -8 -18 -8
1 -5 29 3 36 77 7 77 -10 0 -22 -3 -25 -7z m33 -23 c0 -11 -7 -20 -15 -20 -8
0 -15 9 -15 20 0 11 7 20 15 20 8 0 15 -9 15 -20z"/>
<path d="M1354 3432 c18 -8 18 -9 3 -15 -24 -9 -21 -37 4 -37 16 0 20 5 17 27
-2 19 -9 29 -23 30 -19 3 -19 3 -1 -5z m16 -32 c0 -5 -4 -10 -10 -10 -5 0 -10
5 -10 10 0 6 5 10 10 10 6 0 10 -4 10 -10z"/>
<path d="M1401 3408 c2 -32 2 -32 6 -5 5 33 25 31 34 -4 4 -14 7 -17 8 -7 2
28 -10 48 -30 48 -15 0 -19 -7 -18 -32z"/>
<path d="M690 3304 c-21 -57 -21 -55 0 -42 14 9 22 9 34 -1 14 -12 15 -10 5
20 -17 50 -27 56 -39 23z m24 -9 c3 -9 0 -15 -9 -15 -9 0 -12 6 -9 15 4 8 7
15 9 15 2 0 5 -7 9 -15z"/>
<path d="M850 3321 c0 -5 -9 -11 -21 -14 -29 -8 -22 -51 9 -55 20 -3 22 1 22
37 0 23 -2 41 -5 41 -3 0 -5 -4 -5 -9z m-5 -41 c0 -7 -6 -15 -12 -17 -8 -3
-13 4 -13 17 0 13 5 20 13 18 6 -3 12 -11 12 -18z"/>
<path d="M1093 3290 c0 -25 2 -35 4 -22 5 24 28 30 36 10 3 -7 5 3 5 22 0 19
-2 27 -5 18 -2 -10 -11 -18 -18 -18 -7 0 -16 8 -18 18 -3 9 -5 -3 -4 -28z"/>
<path d="M1231 3290 c1 -25 3 -37 6 -27 5 18 5 18 26 0 l22 -18 -19 23 c-18
21 -18 23 -1 42 10 11 13 20 7 20 -6 0 -14 -5 -18 -11 -4 -8 -9 -7 -15 2 -6 9
-8 -2 -8 -31z"/>
<path d="M1443 3290 c0 -25 2 -35 4 -22 2 12 2 32 0 45 -2 12 -4 2 -4 -23z"/>
<path d="M751 3278 c2 -31 2 -31 6 -5 2 15 8 27 13 27 5 0 11 -12 13 -27 4
-26 4 -26 6 5 1 26 -3 32 -19 32 -16 0 -20 -6 -19 -32z"/>
<path d="M874 3298 c-4 -6 1 -8 14 -4 16 5 21 2 24 -16 2 -15 10 -23 23 -24
15 -1 16 0 3 3 -25 6 -22 23 3 23 12 0 19 5 17 13 -6 15 -75 20 -84 5z m73 -4
c-3 -3 -12 -4 -19 -1 -8 3 -5 6 6 6 11 1 17 -2 13 -5z"/>
<path d="M974 3297 c3 -10 6 -25 6 -33 0 -8 5 -14 10 -14 15 0 12 22 -7 45
-14 18 -15 18 -9 2z"/>
<path d="M1000 3306 c0 -3 5 -17 12 -31 13 -28 28 -17 27 20 -1 16 -2 16 -9
-5 -5 -16 -8 -19 -9 -8 -1 15 -21 38 -21 24z"/>
<path d="M1291 3278 c2 -32 2 -32 6 -5 5 33 25 31 34 -4 4 -14 7 -17 8 -7 2
28 -10 48 -30 48 -15 0 -19 -7 -18 -32z"/>
<path d="M1354 3296 c-9 -24 4 -48 23 -44 12 2 18 12 18 28 0 29 -32 41 -41
16z m36 -16 c0 -11 -7 -20 -15 -20 -8 0 -15 9 -15 20 0 11 7 20 15 20 8 0 15
-9 15 -20z"/>
<path d="M111 3200 c-2 -23 -3 -24 -12 -5 l-9 20 3 -20 c3 -24 51 -29 53 -5 0
9 -1 10 -3 3 -7 -21 -21 -15 -26 10 -4 21 -4 21 -6 -3z"/>
<path d="M6460 3190 l0 -30 215 0 215 0 0 30 0 30 -215 0 -215 0 0 -30z"/>
<path d="M623 3150 c0 -25 2 -35 4 -22 2 12 2 32 0 45 -2 12 -4 2 -4 -23z"/>
<path d="M880 3181 c0 -5 -9 -11 -21 -14 -29 -8 -22 -51 9 -55 20 -3 22 1 22
37 0 23 -2 41 -5 41 -3 0 -5 -4 -5 -9z m0 -41 c0 -11 -7 -20 -15 -20 -15 0
-21 21 -8 33 12 13 23 7 23 -13z"/>
<path d="M1007 3183 c-13 -13 -7 -31 13 -36 26 -7 26 -24 0 -30 -17 -4 -17 -4
2 -3 30 1 36 32 9 41 -26 8 -27 22 -3 28 14 4 14 5 1 6 -9 0 -19 -2 -22 -6z"/>
<path d="M1372 3148 c2 -17 9 -33 16 -34 7 -1 8 0 2 3 -14 7 -13 40 2 45 7 3
5 7 -6 11 -15 6 -17 2 -14 -25z"/>
<path d="M651 3138 c2 -31 2 -31 6 -5 2 15 8 27 13 27 5 0 11 -12 13 -27 4
-26 4 -26 6 5 1 26 -3 32 -19 32 -16 0 -20 -6 -19 -32z"/>
<path d="M717 3163 c-13 -12 -7 -44 9 -50 13 -5 13 -7 2 -14 -10 -7 -9 -9 3
-9 19 0 29 20 29 56 0 17 -6 24 -18 24 -10 0 -22 -3 -25 -7z m28 -23 c0 -7 -6
-15 -12 -17 -8 -3 -13 4 -13 17 0 13 5 20 13 18 6 -3 12 -11 12 -18z"/>
<path d="M779 3168 c-3 -10 -7 -38 -5 -38 1 0 9 9 19 20 14 17 14 20 2 20 -8
0 -15 -1 -16 -2z"/>
<path d="M822 3140 c0 -19 2 -27 5 -17 2 9 2 25 0 35 -3 9 -5 1 -5 -18z"/>
<path d="M924 3162 c18 -8 18 -9 3 -15 -24 -9 -21 -37 4 -37 16 0 20 5 17 27
-2 19 -9 29 -23 30 -19 3 -19 3 -1 -5z m16 -32 c0 -5 -4 -10 -10 -10 -5 0 -10
5 -10 10 0 6 5 10 10 10 6 0 10 -4 10 -10z"/>
<path d="M1091 3137 c1 -29 2 -30 8 -8 9 35 29 37 34 4 l4 -28 2 28 c0 15 5
27 10 27 5 0 12 -12 14 -27 4 -27 4 -27 6 3 1 30 -1 32 -39 32 -39 1 -40 0
-39 -31z"/>
<path d="M1197 3164 c-11 -11 -8 -42 4 -50 6 -3 16 -1 22 5 9 9 8 11 -5 6 -14
-6 -18 -2 -18 14 0 22 15 29 23 11 3 -6 4 -5 3 2 -3 14 -20 21 -29 12z"/>
<path d="M1251 3138 c2 -32 2 -32 6 -5 3 20 9 27 19 23 8 -3 14 -1 14 4 0 6
-9 10 -20 10 -16 0 -20 -6 -19 -32z"/>
<path d="M1310 3168 c0 -4 5 -19 10 -34 8 -21 8 -30 -2 -36 -10 -8 -10 -9 1
-6 8 2 20 21 27 41 7 21 9 35 4 32 -6 -4 -10 -14 -10 -23 -1 -12 -5 -10 -15 8
-8 14 -14 22 -15 18z"/>
<path d="M1414 3155 c-9 -23 3 -45 23 -44 17 1 17 2 1 6 -25 6 -22 21 5 26 21
4 21 4 -3 6 -23 2 -24 3 -5 11 18 8 18 9 2 9 -10 1 -20 -6 -23 -14z"/>
<path d="M92 3110 c-1 -39 0 -40 31 -39 29 1 30 2 8 8 -35 9 -37 29 -4 34 l28
4 -27 2 c-16 0 -28 5 -28 10 0 5 12 12 28 14 26 4 26 4 -4 6 -30 1 -32 -1 -32
-39z"/>
<path d="M872 3040 c0 -25 2 -37 5 -27 5 18 5 18 26 0 l21 -18 -21 30 c-11 17
-23 37 -26 45 -3 8 -5 -5 -5 -30z"/>
<path d="M899 3063 c-13 -16 -12 -17 4 -4 9 7 17 15 17 17 0 8 -8 3 -21 -13z"/>
<path d="M1090 3033 c-3 -29 -1 -48 3 -44 5 5 7 28 5 52 l-3 44 -5 -52z"/>
<path d="M103 3053 c-7 -2 -13 -12 -12 -21 0 -12 2 -13 6 -4 4 10 8 9 17 -4
15 -20 36 -11 36 17 0 19 -19 24 -47 12z m37 -24 c0 -5 -4 -9 -10 -9 -5 0 -10
7 -10 16 0 8 5 12 10 9 6 -3 10 -10 10 -16z"/>
<path d="M961 3027 c1 -29 2 -30 8 -8 9 35 29 37 34 4 l4 -28 2 28 c0 15 5 27
10 27 5 0 12 -12 14 -27 4 -27 4 -27 6 3 1 30 -1 32 -39 32 -39 1 -40 0 -39
-31z"/>
<path d="M1126 3052 c-2 -4 4 -8 14 -8 10 0 16 4 14 8 -3 4 -9 8 -14 8 -5 0
-11 -4 -14 -8z"/>
<path d="M1181 3028 c2 -32 2 -32 6 -5 3 20 9 27 19 23 8 -3 14 -1 14 4 0 6
-9 10 -20 10 -16 0 -20 -6 -19 -32z"/>
<path d="M1247 3053 c-15 -15 -6 -45 15 -51 21 -5 21 -6 2 -14 -18 -8 -18 -8
1 -5 29 3 36 77 7 77 -10 0 -22 -3 -25 -7z m28 -23 c0 -7 -6 -15 -12 -17 -8
-3 -13 4 -13 17 0 13 5 20 13 18 6 -3 12 -11 12 -18z"/>
<path d="M1344 3030 c1 -18 7 -26 24 -28 19 -3 22 1 21 30 -2 30 -2 31 -6 6
-5 -34 -30 -37 -36 -5 -3 19 -4 19 -3 -3z"/>
<path d="M1411 3028 c2 -31 2 -31 6 -5 2 15 8 27 13 27 5 0 11 -12 13 -27 4
-26 4 -26 6 5 1 26 -3 32 -19 32 -16 0 -20 -6 -19 -32z"/>
<path d="M1123 3020 c2 -8 10 -15 17 -15 7 0 15 7 17 15 4 13 3 13 -6 0 -10
-13 -12 -13 -22 0 -9 13 -10 13 -6 0z"/>
<path d="M1221 3014 c0 -11 3 -14 6 -6 3 7 2 16 -1 19 -3 4 -6 -2 -5 -13z"/>
<path d="M1308 3023 c7 -3 16 -2 19 1 4 3 -2 6 -13 5 -11 0 -14 -3 -6 -6z"/>
<path d="M90 2980 c0 -16 6 -20 33 -19 31 2 31 2 4 6 -20 3 -27 9 -23 19 3 8
1 14 -4 14 -6 0 -10 -9 -10 -20z"/>
<path d="M397 2943 c-13 -13 -7 -30 16 -40 l22 -11 -25 -10 c-24 -10 -24 -11
-3 -11 32 -1 40 19 15 40 -27 21 -27 26 -4 32 14 4 14 5 1 6 -9 0 -19 -2 -22
-6z"/>
<path d="M734 2936 c-12 -31 0 -61 26 -63 25 -3 25 -3 3 7 -13 5 -23 18 -23
30 0 12 9 24 23 30 l22 9 -23 0 c-12 1 -25 -5 -28 -13z"/>
<path d="M1161 2910 l1 -45 8 35 c5 20 5 39 -1 45 -5 5 -9 -8 -8 -35z"/>
<path d="M1204 2936 c-3 -8 -1 -22 4 -31 7 -14 9 -11 10 14 1 33 -5 40 -14 17z"/>
<path d="M452 2900 c0 -19 2 -27 5 -17 2 9 2 25 0 35 -3 9 -5 1 -5 -18z"/>
<path d="M481 2898 c2 -28 3 -29 6 -7 3 21 10 26 33 26 23 0 30 -6 33 -24 4
-19 4 -18 3 4 -1 25 -5 28 -38 31 -37 2 -38 1 -37 -30z"/>
<path d="M577 2915 c-9 -22 3 -46 22 -43 10 2 16 13 16 28 0 28 -29 40 -38 15z
m33 -15 c0 -11 -4 -20 -9 -20 -14 0 -23 18 -16 30 10 17 25 11 25 -10z"/>
<path d="M641 2898 c2 -31 2 -31 6 -5 2 15 8 27 13 27 5 0 11 -12 13 -27 4
-26 4 -26 6 5 1 26 -3 32 -19 32 -16 0 -20 -6 -19 -32z"/>
<path d="M804 2915 c-8 -21 2 -45 20 -45 17 0 28 24 20 45 -4 8 -13 15 -20 15
-8 0 -17 -7 -20 -15z m31 -15 c0 -7 -6 -15 -12 -17 -8 -3 -13 4 -13 17 0 13 5
20 13 18 6 -3 12 -11 12 -18z"/>
<path d="M861 2898 c2 -32 2 -32 6 -5 5 33 25 31 34 -4 4 -14 7 -17 8 -7 2 28
-10 48 -30 48 -15 0 -19 -7 -18 -32z"/>
<path d="M942 2910 c-15 -24 -16 -40 -2 -40 6 0 10 10 11 23 0 22 0 22 10 -2
5 -13 12 -21 15 -18 3 3 0 17 -8 31 -13 25 -14 25 -26 6z"/>
<path d="M981 2914 c0 -11 3 -14 6 -6 3 7 2 16 -1 19 -3 4 -6 -2 -5 -13z"/>
<path d="M1024 2922 c19 -8 19 -9 -3 -15 -28 -7 -23 -31 8 -35 19 -3 22 0 19
25 -2 19 -9 29 -23 30 -19 3 -19 3 -1 -5z m11 -32 c-3 -5 -10 -10 -16 -10 -5
0 -9 5 -9 10 0 6 7 10 16 10 8 0 12 -4 9 -10z"/>
<path d="M1070 2904 c6 -15 9 -33 6 -41 -12 -30 6 -10 20 22 18 44 18 58 -1
25 -10 -18 -14 -20 -15 -8 0 9 -4 20 -10 23 -6 4 -6 -4 0 -21z"/>
<path d="M1244 2916 c-9 -24 4 -48 23 -44 12 2 18 12 18 28 0 29 -32 41 -41
16z m34 -19 c2 -10 -3 -17 -12 -17 -10 0 -16 9 -16 21 0 24 23 21 28 -4z"/>
<path d="M1301 2898 c1 -22 3 -26 6 -13 3 11 10 26 15 33 8 9 6 12 -6 12 -12
0 -16 -9 -15 -32z"/>
<path d="M1341 2898 c1 -22 3 -26 6 -13 3 11 10 26 15 33 8 9 6 12 -6 12 -12
0 -16 -9 -15 -32z"/>
<path d="M1414 2919 c-4 -7 1 -16 12 -22 17 -10 17 -11 -1 -18 -16 -6 -17 -8
-3 -8 25 -1 33 20 12 32 -17 10 -17 11 1 18 16 6 17 8 3 8 -9 1 -20 -4 -24
-10z"/>
<path d="M1180 2900 c0 -5 5 -10 10 -10 6 0 10 5 10 10 0 6 -4 10 -10 10 -5 0
-10 -4 -10 -10z"/>
<path d="M890 2794 c-21 -57 -21 -55 0 -42 14 9 22 9 34 -1 14 -12 15 -10 5
20 -17 50 -27 56 -39 23z m24 -9 c3 -9 0 -15 -9 -15 -9 0 -12 6 -9 15 4 8 7
15 9 15 2 0 5 -7 9 -15z"/>
<path d="M1050 2811 c0 -5 -9 -11 -21 -14 -29 -8 -22 -51 9 -55 20 -3 22 1 22
37 0 23 -2 41 -5 41 -3 0 -5 -4 -5 -9z m-5 -41 c0 -7 -6 -15 -12 -17 -8 -3
-13 4 -13 17 0 13 5 20 13 18 6 -3 12 -11 12 -18z"/>
<path d="M1291 2778 c1 -24 4 -33 6 -21 2 12 12 24 21 26 15 4 15 5 0 6 -10 0
-18 5 -18 10 0 5 8 12 18 14 13 4 11 5 -5 6 -21 1 -23 -3 -22 -41z"/>
<path d="M951 2768 c2 -31 2 -31 6 -5 2 15 8 27 13 27 5 0 11 -12 13 -27 4
-26 4 -26 6 5 1 26 -3 32 -19 32 -16 0 -20 -6 -19 -32z"/>
<path d="M1075 2790 c3 -5 12 -7 20 -4 8 4 15 -3 17 -18 2 -15 10 -23 23 -24
15 -1 16 0 3 3 -25 6 -22 23 3 23 40 0 13 25 -30 27 -24 2 -40 -1 -36 -7z m72
-6 c-3 -3 -12 -4 -19 -1 -8 3 -5 6 6 6 11 1 17 -2 13 -5z"/>
<path d="M1174 2787 c3 -10 6 -25 6 -33 0 -8 5 -14 10 -14 15 0 12 22 -7 45
-14 18 -15 18 -9 2z"/>
<path d="M1200 2796 c0 -3 5 -17 12 -31 13 -28 28 -17 27 20 -1 16 -2 16 -9
-5 -5 -16 -8 -19 -9 -8 -1 15 -21 38 -21 24z"/>
<path d="M1342 2770 c0 -19 2 -27 5 -17 2 9 2 25 0 35 -3 9 -5 1 -5 -18z"/>
<path d="M1371 2767 c2 -30 2 -30 6 -4 5 33 20 36 25 5 2 -16 11 -24 28 -25
l25 -3 -25 12 -25 11 23 5 c35 6 20 27 -21 29 -36 2 -37 1 -36 -30z m66 17
c-3 -3 -12 -4 -19 -1 -8 3 -5 6 6 6 11 1 17 -2 13 -5z"/>
<path d="M597 2683 c-13 -13 -7 -30 16 -40 l22 -11 -25 -10 c-24 -10 -24 -11
-3 -11 32 -1 40 19 15 40 -27 21 -27 26 -4 32 14 4 14 5 1 6 -9 0 -19 -2 -22
-6z"/>
<path d="M811 2650 c1 -34 3 -39 8 -21 9 35 29 37 34 4 l4 -28 2 28 c0 18 -5
30 -16 34 -10 4 -21 11 -25 17 -4 6 -7 -9 -7 -34z"/>
<path d="M1080 2676 c0 -8 -10 -16 -22 -18 -13 -2 -23 -11 -24 -21 -1 -12 -1
-13 3 -2 7 24 41 18 46 -7 2 -13 5 -4 6 20 0 23 -1 42 -4 42 -3 0 -5 -6 -5
-14z"/>
<path d="M1251 2650 c0 -29 2 -40 8 -31 6 9 11 10 15 2 4 -6 12 -11 18 -11 6
0 2 10 -9 23 -12 12 -23 31 -26 42 -3 11 -5 0 -6 -25z"/>
<path d="M652 2648 c2 -17 9 -33 16 -34 7 -1 8 0 2 3 -14 7 -13 40 2 45 7 3 5
7 -6 11 -15 6 -17 2 -14 -25z"/>
<path d="M694 2655 c-9 -23 3 -45 23 -44 17 1 17 2 1 6 -25 6 -22 21 5 26 21
4 21 4 -3 6 -23 2 -24 3 -5 11 18 8 18 9 2 9 -10 1 -20 -6 -23 -14z"/>
<path d="M750 2628 c0 -24 4 -38 8 -32 4 6 15 13 25 17 26 10 18 51 -10 55
-21 3 -23 -1 -23 -40z m40 12 c0 -11 -7 -20 -15 -20 -8 0 -15 9 -15 20 0 11 7
20 15 20 8 0 15 -9 15 -20z"/>
<path d="M880 2655 c-15 -18 3 -45 29 -44 10 0 7 4 -9 11 -25 11 -25 11 -2 15
12 3 22 11 22 19 0 18 -24 18 -40 -1z"/>
<path d="M941 2638 c2 -32 2 -32 6 -5 3 20 9 27 19 23 8 -3 14 -1 14 4 0 6 -9
10 -20 10 -16 0 -20 -6 -19 -32z"/>
<path d="M1124 2662 c18 -8 18 -9 3 -15 -24 -9 -21 -37 4 -37 16 0 20 5 17 27
-2 19 -9 29 -23 30 -19 3 -19 3 -1 -5z m16 -32 c0 -5 -4 -10 -10 -10 -5 0 -10
5 -10 10 0 6 5 10 10 10 6 0 10 -4 10 -10z"/>
<path d="M1171 2655 c-1 -37 14 -48 28 -19 6 15 9 29 6 32 -3 4 -9 -5 -12 -18
l-7 -25 -7 25 c-6 20 -7 21 -8 5z"/>
<path d="M1222 2650 c-14 -23 -16 -40 -3 -40 7 0 23 51 17 57 -1 1 -7 -7 -14
-17z"/>
<path d="M1312 2640 c0 -19 2 -27 5 -17 2 9 2 25 0 35 -3 9 -5 1 -5 -18z"/>
<path d="M1341 2638 c2 -31 2 -31 6 -5 2 15 8 27 13 27 5 0 11 -12 13 -27 4
-26 4 -26 6 5 1 26 -3 32 -19 32 -16 0 -20 -6 -19 -32z"/>
<path d="M1407 2663 c-13 -12 -7 -44 9 -50 13 -5 13 -7 2 -14 -10 -7 -9 -9 3
-9 19 0 29 20 29 56 0 17 -6 24 -18 24 -10 0 -22 -3 -25 -7z m28 -23 c0 -7 -6
-15 -12 -17 -8 -3 -13 4 -13 17 0 13 5 20 13 18 6 -3 12 -11 12 -18z"/>
<path d="M754 2546 c-11 -30 0 -61 24 -62 18 -1 19 -1 2 3 -30 7 -28 60 3 66
l22 4 -23 2 c-12 0 -25 -5 -28 -13z"/>
<path d="M822 2520 c1 -28 3 -34 5 -17 2 15 8 27 13 27 5 0 11 -12 13 -27 4
-26 4 -26 6 5 1 22 -4 32 -13 32 -8 0 -17 6 -19 13 -3 6 -5 -8 -5 -33z"/>
<path d="M1162 2520 c0 -25 2 -37 5 -27 5 18 5 18 26 0 l22 -18 -19 23 c-19
22 -19 22 0 45 l19 22 -22 -18 c-21 -18 -21 -18 -26 0 -3 10 -5 -2 -5 -27z"/>
<path d="M1292 2520 c0 -25 2 -37 5 -27 5 18 5 18 26 0 l22 -18 -19 23 c-18
21 -18 23 -1 42 10 11 13 20 8 20 -6 0 -14 -8 -18 -17 -7 -17 -8 -16 -15 2 -6
15 -8 8 -8 -25z"/>
<path d="M898 2531 c11 -7 11 -9 -2 -14 -9 -4 -16 -13 -16 -22 0 -17 35 -21
46 -4 4 8 0 9 -15 4 -12 -4 -21 -2 -21 4 0 6 7 11 15 11 8 0 15 7 15 15 0 8
-8 15 -17 15 -14 0 -15 -2 -5 -9z"/>
<path d="M941 2508 c1 -22 3 -26 6 -13 3 11 10 26 15 33 8 9 6 12 -6 12 -12 0
-16 -9 -15 -32z"/>
<path d="M1014 2526 c-9 -23 3 -46 23 -45 17 1 17 2 1 6 -25 6 -22 23 3 23 12
0 19 5 17 13 -7 18 -37 21 -44 3z m33 -2 c-3 -3 -12 -4 -19 -1 -8 3 -5 6 6 6
11 1 17 -2 13 -5z"/>
<path d="M1074 2529 c-4 -7 1 -16 12 -22 17 -10 17 -11 -1 -18 -19 -7 -18 -8
3 -8 26 -1 30 24 5 34 -17 7 -16 8 2 15 16 7 17 9 3 9 -9 1 -20 -4 -24 -10z"/>
<path d="M1364 2531 c18 -7 18 -8 3 -14 -24 -9 -21 -37 3 -37 16 0 20 7 20 30
0 25 -4 30 -22 29 -21 0 -21 -1 -4 -8z m16 -31 c0 -5 -4 -10 -10 -10 -5 0 -10
5 -10 10 0 6 5 10 10 10 6 0 10 -4 10 -10z"/>
<path d="M1414 2525 c-8 -21 2 -45 20 -45 7 0 16 7 20 15 8 21 -3 45 -20 45
-8 0 -17 -7 -20 -15z m31 -15 c0 -7 -6 -15 -12 -17 -8 -3 -13 4 -13 17 0 13 5
20 13 18 6 -3 12 -11 12 -18z"/>
<path d="M981 2514 c0 -11 3 -14 6 -6 3 7 2 16 -1 19 -3 4 -6 -2 -5 -13z"/>
<path d="M790 2383 c-3 -29 -1 -48 3 -44 5 5 7 28 5 52 l-3 44 -5 -52z"/>
<path d="M970 2390 c0 -37 2 -41 23 -38 18 2 22 9 22 38 0 29 -4 36 -22 38
-21 3 -23 -1 -23 -38z m40 20 c0 -5 -7 -10 -15 -10 -8 0 -15 5 -15 10 0 6 7
10 15 10 8 0 15 -4 15 -10z m0 -35 c0 -8 -7 -15 -15 -15 -8 0 -15 7 -15 15 0
8 7 15 15 15 8 0 15 -7 15 -15z"/>
<path d="M1103 2390 c0 -25 2 -35 4 -22 2 12 2 32 0 45 -2 12 -4 2 -4 -23z"/>
<path d="M825 2401 c17 -8 18 -10 3 -10 -27 -1 -24 -41 3 -41 16 0 20 5 17 27
-2 19 -9 29 -23 30 l-20 3 20 -9z m15 -31 c0 -5 -4 -10 -10 -10 -5 0 -10 5
-10 10 0 6 5 10 10 10 6 0 10 -4 10 -10z"/>
<path d="M872 2380 c0 -19 2 -27 5 -17 2 9 2 25 0 35 -3 9 -5 1 -5 -18z"/>
<path d="M901 2378 c2 -28 2 -29 6 -8 3 14 10 28 17 32 7 5 5 8 -6 8 -14 0
-18 -8 -17 -32z"/>
<path d="M1044 2396 c-8 -22 3 -49 19 -43 6 2 12 14 12 27 0 27 -22 39 -31 16z
m26 -16 c0 -11 -4 -20 -10 -20 -5 0 -10 9 -10 20 0 11 5 20 10 20 6 0 10 -9
10 -20z"/>
<path d="M1138 2403 c7 -3 16 -2 19 1 4 3 -2 6 -13 5 -11 0 -14 -3 -6 -6z"/>
<path d="M1184 2395 c-8 -21 2 -45 20 -45 17 0 28 24 20 45 -4 8 -13 15 -20
15 -8 0 -17 -7 -20 -15z m31 -15 c0 -7 -6 -15 -12 -17 -8 -3 -13 4 -13 17 0
13 5 20 13 18 6 -3 12 -11 12 -18z"/>
<path d="M1241 2378 c2 -32 2 -32 6 -5 5 33 25 31 34 -4 4 -14 7 -17 8 -7 2
28 -10 48 -30 48 -15 0 -19 -7 -18 -32z"/>
<path d="M1324 2402 c19 -8 19 -9 -3 -15 -28 -7 -23 -31 8 -35 19 -3 22 0 19
25 -2 19 -9 29 -23 30 -19 3 -19 3 -1 -5z m11 -32 c-3 -5 -10 -10 -16 -10 -5
0 -9 5 -9 10 0 6 7 10 16 10 8 0 12 -4 9 -10z"/>
<path d="M1364 2389 c0 -18 2 -18 12 -5 15 22 22 20 26 -6 5 -34 43 -31 43 2
0 22 -5 25 -40 27 -35 2 -41 0 -41 -18z m76 -9 c0 -11 -7 -20 -15 -20 -8 0
-15 9 -15 20 0 11 7 20 15 20 8 0 15 -9 15 -20z"/>
<path d="M1146 2375 c19 -14 19 -14 0 -15 -11 0 -17 -3 -13 -6 3 -4 14 -4 23
0 13 5 14 9 4 21 -7 8 -17 15 -23 15 -6 0 -2 -7 9 -15z"/>
<path d="M6300 2285 l0 -25 295 0 295 0 0 25 0 25 -295 0 -295 0 0 -25z"/>
<path d="M770 2274 c-21 -57 -21 -55 0 -42 14 9 22 9 34 -1 14 -12 15 -10 5
20 -17 50 -27 56 -39 23z m24 -9 c3 -9 0 -15 -9 -15 -9 0 -12 6 -9 15 4 8 7
15 9 15 2 0 5 -7 9 -15z"/>
<path d="M1023 2260 c0 -25 2 -35 4 -22 2 12 2 32 0 45 -2 12 -4 2 -4 -23z"/>
<path d="M1141 2258 c1 -40 2 -41 9 -13 4 17 8 22 9 13 0 -10 5 -18 10 -18 5
0 4 14 -2 30 -16 43 -27 37 -26 -12z"/>
<path d="M1186 2284 c-4 -9 -4 -19 -1 -22 3 -3 6 1 6 9 1 8 5 -2 9 -21 l7 -35
2 43 c1 42 -11 56 -23 26z"/>
<path d="M1332 2260 c0 -25 2 -39 5 -32 4 10 8 10 21 0 15 -12 16 -11 3 5 -11
14 -11 20 0 35 13 15 12 16 -3 4 -14 -11 -17 -10 -21 10 -2 13 -5 3 -5 -22z"/>
<path d="M1443 2260 c0 -25 2 -35 4 -22 2 12 2 32 0 45 -2 12 -4 2 -4 -23z"/>
<path d="M831 2248 c2 -31 2 -31 6 -5 2 15 8 27 13 27 5 0 11 -12 13 -27 4
-26 4 -26 6 5 1 26 -3 32 -19 32 -16 0 -20 -6 -19 -32z"/>
<path d="M897 2273 c-13 -12 -7 -44 9 -50 13 -5 13 -7 2 -14 -10 -7 -9 -9 3
-9 19 0 29 20 29 56 0 17 -6 24 -18 24 -10 0 -22 -3 -25 -7z m28 -23 c0 -7 -6
-15 -12 -17 -8 -3 -13 4 -13 17 0 13 5 20 13 18 6 -3 12 -11 12 -18z"/>
<path d="M954 2266 c-10 -25 3 -46 28 -45 23 0 23 0 -2 11 l-25 11 23 5 c13 2
21 9 19 15 -6 19 -36 20 -43 3z m33 -2 c-3 -3 -12 -4 -19 -1 -8 3 -5 6 6 6 11
1 17 -2 13 -5z"/>
<path d="M1064 2272 c19 -8 19 -9 -3 -15 -28 -7 -23 -31 8 -35 19 -3 22 0 19
25 -2 19 -9 29 -23 30 -19 3 -19 3 -1 -5z m16 -32 c0 -5 -7 -10 -15 -10 -8 0
-15 5 -15 10 0 6 7 10 15 10 8 0 15 -4 15 -10z"/>
<path d="M1224 2266 c-10 -25 3 -46 28 -45 l23 2 -22 4 c-29 6 -30 23 -2 23
12 0 19 5 17 13 -7 18 -37 21 -44 3z m33 -2 c-3 -3 -12 -4 -19 -1 -8 3 -5 6 6
6 11 1 17 -2 13 -5z"/>
<path d="M1283 2265 c0 -12 3 -12 16 -3 9 7 18 14 20 15 2 2 -5 3 -16 3 -11 0
-20 -7 -20 -15z"/>
<path d="M1384 2266 c-9 -23 3 -46 23 -45 17 1 17 2 1 6 -25 6 -22 23 3 23 12
0 19 5 17 13 -7 18 -37 21 -44 3z m33 -2 c-3 -3 -12 -4 -19 -1 -8 3 -5 6 6 6
11 1 17 -2 13 -5z"/>
<path d="M770 2144 c-21 -57 -21 -55 0 -42 14 9 22 9 35 -2 16 -13 16 -12 1
25 -22 52 -24 53 -36 19z m24 -9 c3 -9 0 -15 -9 -15 -9 0 -12 6 -9 15 4 8 7
15 9 15 2 0 5 -7 9 -15z"/>
<path d="M932 2130 c1 -29 3 -35 5 -17 5 33 25 31 34 -4 4 -14 7 -17 8 -7 2
25 -10 48 -24 48 -7 0 -16 6 -18 13 -3 6 -5 -8 -5 -33z"/>
<path d="M1211 2128 c1 -24 4 -33 6 -21 2 12 12 24 21 26 15 4 15 5 0 6 -10 0
-18 5 -18 10 0 5 8 12 18 14 13 4 11 5 -5 6 -21 1 -23 -3 -22 -41z"/>
<path d="M892 2128 c2 -17 9 -33 16 -34 7 -1 8 0 2 3 -14 7 -13 40 2 45 7 3 5
7 -6 11 -15 6 -17 2 -14 -25z"/>
<path d="M831 2118 c2 -31 2 -31 6 -5 2 15 8 27 13 27 5 0 11 -12 13 -27 4
-26 4 -26 6 5 1 26 -3 32 -19 32 -16 0 -20 -6 -19 -32z"/>
<path d="M994 2136 c-9 -24 4 -48 23 -44 12 2 18 12 18 28 0 29 -32 41 -41 16z
m36 -16 c0 -11 -7 -20 -15 -20 -8 0 -15 9 -15 20 0 11 7 20 15 20 8 0 15 -9
15 -20z"/>
<path d="M1051 2118 c1 -29 2 -30 8 -9 9 34 29 37 34 6 4 -24 4 -24 3 2 -1 21
-7 29 -23 31 -20 3 -23 -1 -22 -30z"/>
<path d="M1116 2137 c3 -10 9 -15 12 -12 3 3 0 11 -7 18 -10 9 -11 8 -5 -6z"/>
<path d="M1147 2135 c-4 -11 -11 -30 -17 -42 -14 -34 -3 -28 15 8 9 17 14 36
12 42 -2 6 -6 3 -10 -8z"/>
<path d="M1275 2141 c16 -8 17 -10 4 -10 -18 -1 -32 -25 -22 -35 4 -3 15 -6
25 -6 28 0 21 54 -7 57 l-20 3 20 -9z m15 -31 c0 -5 -7 -10 -16 -10 -8 0 -12
5 -9 10 3 6 10 10 16 10 5 0 9 -4 9 -10z"/>
<path d="M1321 2123 c-1 -27 3 -33 19 -33 16 0 20 6 19 33 -2 30 -2 30 -6 5
-2 -16 -8 -28 -13 -28 -5 0 -11 12 -13 28 -4 25 -4 25 -6 -5z"/>
<path d="M1384 2135 c-9 -23 3 -45 23 -44 17 1 17 2 1 6 -10 2 -18 13 -18 23
0 10 8 21 18 23 16 4 16 5 -1 6 -10 0 -20 -6 -23 -14z"/>
<path d="M1442 2120 c0 -19 2 -27 5 -17 2 9 2 25 0 35 -3 9 -5 1 -5 -18z"/>
<path d="M671 1998 c1 -24 3 -35 6 -25 2 9 10 17 18 17 7 0 15 6 17 13 8 20
-2 37 -23 37 -16 0 -19 -7 -18 -42z m31 17 c0 -5 -5 -11 -11 -13 -6 -2 -11 4
-11 13 0 9 5 15 11 13 6 -2 11 -8 11 -13z"/>
<path d="M990 2020 c-15 -28 4 -60 33 -59 l22 2 -22 4 c-12 2 -24 11 -27 19
-8 22 3 42 27 47 l22 4 -22 2 c-13 0 -27 -7 -33 -19z"/>
<path d="M1062 2000 c1 -28 3 -34 5 -17 2 15 8 27 13 27 5 0 11 -12 13 -27 4
-26 4 -26 6 5 1 22 -4 32 -13 32 -8 0 -17 6 -19 13 -3 6 -5 -8 -5 -33z"/>
<path d="M1281 2003 c-1 -36 2 -43 18 -43 10 0 21 7 25 15 7 20 -3 45 -19 45
-7 0 -16 6 -18 13 -3 6 -6 -7 -6 -30z m34 -13 c0 -7 -6 -15 -12 -17 -8 -3 -13
4 -13 17 0 13 5 20 13 18 6 -3 12 -11 12 -18z"/>
<path d="M732 1990 c0 -19 2 -27 5 -17 2 9 2 25 0 35 -3 9 -5 1 -5 -18z"/>
<path d="M754 2006 c-10 -25 3 -46 28 -45 23 0 23 0 -2 11 l-25 11 23 5 c13 2
21 9 19 15 -6 19 -36 20 -43 3z m33 -2 c-3 -3 -12 -4 -19 -1 -8 3 -5 6 6 6 11
1 17 -2 13 -5z"/>
<path d="M821 1988 c2 -28 2 -29 6 -8 3 14 10 28 17 32 7 5 5 8 -6 8 -14 0
-18 -8 -17 -32z"/>
<path d="M861 1987 c2 -30 2 -30 6 -4 5 33 20 36 25 5 2 -16 11 -24 28 -25
l25 -3 -25 12 -25 11 23 5 c35 6 20 27 -21 29 -36 2 -37 1 -36 -30z m66 17
c-3 -3 -12 -4 -19 -1 -8 3 -5 6 6 6 11 1 17 -2 13 -5z"/>
<path d="M1134 2011 c18 -7 18 -8 3 -14 -24 -9 -21 -37 3 -37 16 0 20 7 20 30
0 25 -4 30 -22 29 -21 0 -21 -1 -4 -8z m16 -31 c0 -5 -4 -10 -10 -10 -5 0 -10
5 -10 10 0 6 5 10 10 10 6 0 10 -4 10 -10z"/>
<path d="M1181 1988 c2 -31 2 -32 6 -5 5 33 25 31 34 -4 7 -24 7 -24 8 4 1 34
18 36 24 2 4 -23 4 -23 3 2 -1 25 -5 28 -38 31 -37 2 -38 1 -37 -30z"/>
<path d="M1344 2005 c-8 -21 2 -45 20 -45 17 0 28 24 20 45 -4 8 -13 15 -20
15 -8 0 -17 -7 -20 -15z m31 -15 c0 -7 -6 -15 -12 -17 -8 -3 -13 4 -13 17 0
13 5 20 13 18 6 -3 12 -11 12 -18z"/>
<path d="M1401 1988 c2 -32 2 -32 6 -5 5 33 25 31 34 -4 4 -14 7 -17 8 -7 2
28 -10 48 -30 48 -15 0 -19 -7 -18 -32z"/>
<path d="M952 1873 c-2 -39 0 -43 21 -42 16 1 17 3 5 6 -11 3 -18 17 -21 41
l-4 37 -1 -42z"/>
<path d="M1085 1892 c-11 -10 -21 -28 -22 -42 -1 -14 0 -18 3 -7 6 20 23 22
30 4 3 -8 20 -14 42 -14 20 0 27 2 15 4 -29 5 -30 23 -2 23 12 0 19 5 17 13
-8 22 -42 14 -48 -12 -5 -21 -7 -22 -19 -7 -11 13 -11 19 -1 31 18 22 9 26
-15 7z m72 -18 c-3 -3 -12 -4 -19 -1 -8 3 -5 6 6 6 11 1 17 -2 13 -5z"/>
<path d="M1187 1883 c-13 -13 -7 -44 11 -50 9 -4 20 -11 24 -17 4 -6 8 8 8 32
0 34 -3 42 -18 42 -10 0 -22 -3 -25 -7z m33 -23 c0 -11 -7 -20 -15 -20 -8 0
-15 9 -15 20 0 11 7 20 15 20 8 0 15 -9 15 -20z"/>
<path d="M1252 1860 c0 -19 2 -27 5 -17 2 9 2 25 0 35 -3 9 -5 1 -5 -18z"/>
<path d="M1295 1881 c17 -8 18 -10 3 -10 -27 -1 -24 -41 3 -41 16 0 20 5 17
27 -2 19 -9 29 -23 30 l-20 3 20 -9z m15 -31 c0 -5 -4 -10 -10 -10 -5 0 -10 5
-10 10 0 6 5 10 10 10 6 0 10 -4 10 -10z"/>
<path d="M1341 1858 c2 -32 2 -32 6 -5 3 20 9 27 19 23 8 -3 14 -1 14 4 0 6
-9 10 -20 10 -16 0 -20 -6 -19 -32z"/>
<path d="M1407 1883 c-15 -15 -6 -45 15 -51 21 -5 21 -6 2 -14 -18 -8 -18 -8
1 -5 29 3 36 77 7 77 -10 0 -22 -3 -25 -7z m28 -23 c0 -7 -6 -15 -12 -17 -8
-3 -13 4 -13 17 0 13 5 20 13 18 6 -3 12 -11 12 -18z"/>
<path d="M540 1740 c0 -37 2 -40 28 -39 23 2 24 2 5 6 -27 5 -31 30 -5 36 16
4 16 5 0 6 -10 0 -18 5 -18 10 0 5 8 12 18 14 13 4 11 5 -5 6 -20 1 -23 -4
-23 -39z"/>
<path d="M1117 1750 c17 -30 33 -39 33 -20 0 6 -4 10 -9 10 -5 0 -13 9 -16 20
-3 11 -11 20 -16 20 -6 0 -2 -13 8 -30z"/>
<path d="M1156 1772 c-2 -4 -1 -23 4 -42 l8 -35 1 43 c1 41 -3 50 -13 34z"/>
<path d="M601 1728 c2 -31 2 -32 6 -5 5 33 25 31 34 -4 7 -24 7 -24 8 4 1 34
18 36 24 2 4 -23 4 -23 3 2 -1 25 -5 28 -38 31 -37 2 -38 1 -37 -30z"/>
<path d="M701 1728 c2 -31 2 -31 6 -5 2 15 8 27 13 27 5 0 11 -12 13 -27 4
-26 4 -26 6 5 1 26 -3 32 -19 32 -16 0 -20 -6 -19 -32z"/>
<path d="M756 1753 c7 -4 14 -19 17 -33 4 -22 5 -21 4 4 -1 17 -9 31 -17 33
-10 3 -11 2 -4 -4z"/>
<path d="M814 1752 c19 -8 19 -9 -3 -15 -28 -7 -23 -31 8 -35 19 -3 22 0 19
25 -2 19 -9 29 -23 30 -19 3 -19 3 -1 -5z m11 -32 c-3 -5 -10 -10 -16 -10 -5
0 -9 5 -9 10 0 6 7 10 16 10 8 0 12 -4 9 -10z"/>
<path d="M853 1745 c0 -11 4 -12 11 -5 16 16 24 12 29 -15 4 -23 4 -23 3 2 -1
20 -7 29 -22 31 -13 2 -21 -3 -21 -13z"/>
<path d="M924 1730 c1 -18 7 -26 25 -28 14 -2 21 0 17 7 -4 5 -13 8 -21 5 -9
-4 -15 3 -18 18 -4 21 -4 21 -3 -2z"/>
<path d="M961 1744 c0 -11 3 -14 6 -6 3 7 2 16 -1 19 -3 4 -6 -2 -5 -13z"/>
<path d="M984 1746 c-10 -25 3 -46 28 -45 l23 2 -22 4 c-29 6 -30 23 -2 23 12
0 19 5 17 13 -7 18 -37 21 -44 3z m33 -2 c-3 -3 -12 -4 -19 -1 -8 3 -5 6 6 6
11 1 17 -2 13 -5z"/>
<path d="M1204 1751 c18 -7 18 -8 3 -14 -24 -9 -21 -37 3 -37 16 0 20 7 20 30
0 25 -4 30 -22 29 -21 0 -21 -1 -4 -8z m16 -31 c0 -5 -4 -10 -10 -10 -5 0 -10
5 -10 10 0 6 5 10 10 10 6 0 10 -4 10 -10z"/>
<path d="M1254 1745 c-9 -23 3 -45 23 -44 17 1 17 2 1 6 -10 2 -18 13 -18 23
0 10 8 21 18 23 16 4 16 5 -1 6 -10 0 -20 -6 -23 -14z"/>
<path d="M1311 1727 c2 -30 2 -30 6 -4 5 33 20 36 25 5 5 -34 43 -31 43 2 0
22 -5 25 -37 27 -37 2 -38 1 -37 -30z m69 3 c0 -11 -7 -20 -15 -20 -8 0 -15 9
-15 20 0 11 7 20 15 20 8 0 15 -9 15 -20z"/>
<path d="M1403 1745 c0 -11 4 -12 11 -5 16 16 24 12 29 -15 4 -23 4 -23 3 2
-1 20 -7 29 -22 31 -13 2 -21 -3 -21 -13z"/>
<path d="M1102 1720 c0 -14 2 -19 5 -12 2 6 2 18 0 25 -3 6 -5 1 -5 -13z"/>
<path d="M6210 1635 l0 -25 340 0 340 0 0 25 0 25 -340 0 -340 0 0 -25z"/>
<path d="M830 1610 c0 -37 2 -40 28 -39 23 2 24 2 5 6 -27 5 -31 30 -5 36 16
4 16 5 0 6 -10 0 -18 5 -18 10 0 5 8 12 18 14 13 4 11 5 -5 6 -20 1 -23 -4
-23 -39z"/>
<path d="M1090 1632 c0 -11 10 -24 23 -29 l22 -11 -25 -10 c-23 -10 -23 -11
-4 -11 30 -1 38 26 14 41 -25 16 -25 25 -2 31 13 4 11 5 -5 6 -16 1 -23 -5
-23 -17z"/>
<path d="M1213 1610 c0 -25 2 -35 4 -22 2 12 2 32 0 45 -2 12 -4 2 -4 -23z"/>
<path d="M1241 1613 c-1 -36 2 -43 18 -43 10 0 21 7 25 15 7 20 -3 45 -19 45
-7 0 -16 6 -18 13 -3 6 -6 -7 -6 -30z m34 -13 c0 -7 -6 -15 -12 -17 -8 -3 -13
4 -13 17 0 13 5 20 13 18 6 -3 12 -11 12 -18z"/>
<path d="M891 1598 c2 -28 2 -29 6 -8 3 14 10 28 17 32 7 5 5 8 -6 8 -14 0
-18 -8 -17 -32z"/>
<path d="M931 1598 c2 -30 2 -31 6 -5 5 34 30 36 36 2 4 -23 4 -23 3 2 -1 21
-7 29 -23 31 -20 3 -23 -1 -22 -30z"/>
<path d="M1014 1622 c19 -8 19 -9 -3 -15 -28 -7 -23 -31 8 -35 19 -3 22 0 19
25 -2 19 -9 29 -23 30 -19 3 -19 3 -1 -5z m16 -32 c0 -5 -7 -10 -15 -10 -8 0
-15 5 -15 10 0 6 7 10 15 10 8 0 15 -4 15 -10z"/>
<path d="M1154 1615 c-8 -21 2 -45 20 -45 17 0 28 24 20 45 -4 8 -13 15 -20
15 -8 0 -17 -7 -20 -15z m31 -15 c0 -7 -6 -15 -12 -17 -8 -3 -13 4 -13 17 0
13 5 20 13 18 6 -3 12 -11 12 -18z"/>
<path d="M1304 1616 c-9 -23 3 -46 23 -45 17 1 17 2 1 6 -25 6 -22 23 3 23 12
0 19 5 17 13 -7 18 -37 21 -44 3z m33 -2 c-3 -3 -12 -4 -19 -1 -8 3 -5 6 6 6
11 1 17 -2 13 -5z"/>
<path d="M1361 1598 c1 -22 3 -26 6 -13 3 11 10 26 15 33 8 9 6 12 -6 12 -12
0 -16 -9 -15 -32z"/>
<path d="M1407 1623 c-15 -15 -6 -45 15 -51 21 -5 21 -6 2 -14 -18 -8 -18 -8
1 -5 29 3 36 77 7 77 -10 0 -22 -3 -25 -7z m28 -23 c0 -7 -6 -15 -12 -17 -8
-3 -13 4 -13 17 0 13 5 20 13 18 6 -3 12 -11 12 -18z"/>
<path d="M6200 1505 l0 -25 345 0 345 0 0 25 0 25 -345 0 -345 0 0 -25z"/>
<path d="M552 1480 c0 -25 2 -37 5 -27 5 18 5 18 26 0 l21 -18 -21 30 c-11 17
-23 37 -26 45 -3 8 -5 -5 -5 -30z"/>
<path d="M579 1503 c-13 -16 -12 -17 4 -4 9 7 17 15 17 17 0 8 -8 3 -21 -13z"/>
<path d="M882 1478 c-1 -26 -7 -49 -14 -51 -10 -4 -10 -6 0 -6 18 -1 24 20 19
65 -4 38 -4 37 -5 -8z"/>
<path d="M972 1480 c0 -25 2 -39 5 -32 4 10 8 10 21 0 15 -12 16 -11 3 5 -11
14 -11 20 0 35 13 15 12 16 -3 4 -14 -11 -17 -10 -21 10 -2 13 -5 3 -5 -22z"/>
<path d="M1080 1482 c0 -39 2 -43 23 -40 28 4 36 45 10 55 -10 4 -21 11 -25
17 -4 6 -8 -8 -8 -32z m40 -12 c0 -11 -7 -20 -15 -20 -8 0 -15 9 -15 20 0 11
7 20 15 20 8 0 15 -9 15 -20z"/>
<path d="M1230 1510 c0 -5 -6 -10 -14 -10 -8 0 -16 -7 -20 -15 -8 -23 4 -45
25 -45 15 0 19 7 19 40 0 22 -2 40 -5 40 -3 0 -5 -4 -5 -10z m0 -40 c0 -21
-15 -27 -25 -10 -7 12 2 30 16 30 5 0 9 -9 9 -20z"/>
<path d="M672 1478 c2 -17 9 -33 16 -34 7 -1 8 0 2 3 -14 7 -13 40 2 45 7 3 5
7 -6 11 -15 6 -17 2 -14 -25z"/>
<path d="M1316 1503 c-1 -2 -1 -16 2 -33 3 -20 10 -30 21 -29 10 0 11 2 4 6
-18 7 -16 43 2 43 9 0 15 -9 15 -25 0 -17 5 -25 18 -24 10 0 12 3 5 6 -16 6
-17 43 -1 43 6 0 9 3 5 6 -6 6 -65 12 -71 7z"/>
<path d="M628 1493 c10 -4 9 -8 -4 -17 -9 -7 -14 -18 -10 -24 10 -17 46 -15
46 2 0 27 -12 46 -29 45 -11 0 -12 -2 -3 -6z m17 -33 c-3 -5 -10 -10 -16 -10
-5 0 -9 5 -9 10 0 6 7 10 16 10 8 0 12 -4 9 -10z"/>
<path d="M711 1468 c1 -22 3 -26 6 -13 3 11 10 26 15 33 8 9 6 12 -6 12 -12 0
-16 -9 -15 -32z"/>
<path d="M781 1468 c1 -29 2 -30 8 -9 9 34 29 37 34 6 4 -24 4 -24 3 2 -1 21
-7 29 -23 31 -20 3 -23 -1 -22 -30z"/>
<path d="M925 1491 c16 -8 17 -10 4 -10 -18 -1 -32 -25 -22 -35 4 -3 15 -6 25
-6 28 0 21 54 -7 57 l-20 3 20 -9z m15 -31 c0 -5 -7 -10 -16 -10 -8 0 -12 5
-9 10 3 6 10 10 16 10 5 0 9 -4 9 -10z"/>
<path d="M1024 1485 c-8 -21 2 -45 20 -45 17 0 28 24 20 45 -4 8 -13 15 -20
15 -8 0 -17 -7 -20 -15z m31 -15 c0 -7 -6 -15 -12 -17 -8 -3 -13 4 -13 17 0
13 5 20 13 18 6 -3 12 -11 12 -18z"/>
<path d="M1144 1489 c-4 -7 1 -16 12 -22 17 -10 17 -11 -1 -18 -19 -7 -18 -8
3 -8 26 -1 30 24 5 34 -17 7 -16 8 2 15 16 7 17 9 3 9 -9 1 -20 -4 -24 -10z"/>
<path d="M1264 1485 c-8 -21 2 -45 20 -45 7 0 16 7 20 15 8 21 -3 45 -20 45
-8 0 -17 -7 -20 -15z m31 -15 c0 -7 -6 -15 -12 -17 -8 -3 -13 4 -13 17 0 13 5
20 13 18 6 -3 12 -11 12 -18z"/>
<path d="M1402 1470 c0 -19 2 -27 5 -17 2 9 2 25 0 35 -3 9 -5 1 -5 -18z"/>
<path d="M1431 1468 c2 -28 2 -29 6 -8 3 14 10 28 17 32 7 5 5 8 -6 8 -14 0
-18 -8 -17 -32z"/>
<path d="M599 1342 c-2 -28 -3 -52 -1 -52 10 0 19 53 13 77 -7 25 -9 22 -12
-25z"/>
<path d="M682 1350 c1 -28 3 -34 5 -17 2 15 8 27 13 27 5 0 11 -12 13 -27 4
-26 4 -26 6 5 1 22 -4 32 -13 32 -8 0 -17 6 -19 13 -3 6 -5 -8 -5 -33z"/>
<path d="M837 1382 c6 -4 13 -23 16 -42 l4 -35 1 37 c2 25 7 38 20 41 9 3 1 5
-18 6 -19 0 -30 -3 -23 -7z"/>
<path d="M943 1350 c0 -25 2 -35 4 -22 2 12 2 32 0 45 -2 12 -4 2 -4 -23z"/>
<path d="M1100 1350 c0 -36 3 -40 25 -40 23 0 25 4 25 40 0 36 -2 40 -25 40
-22 0 -25 -4 -25 -40z m40 20 c0 -5 -7 -10 -15 -10 -8 0 -15 5 -15 10 0 6 7
10 15 10 8 0 15 -4 15 -10z m0 -35 c0 -8 -7 -15 -15 -15 -8 0 -15 7 -15 15 0
8 7 15 15 15 8 0 15 -7 15 -15z"/>
<path d="M620 1361 c0 -6 7 -8 15 -5 11 4 15 0 15 -16 0 -16 -4 -20 -15 -16
-8 3 -15 1 -15 -5 0 -6 8 -9 18 -7 11 2 17 12 17 28 0 16 -6 26 -17 28 -10 2
-18 -1 -18 -7z"/>
<path d="M741 1338 c2 -30 2 -31 6 -5 5 34 30 36 36 2 4 -23 4 -23 3 2 -1 21
-7 29 -23 31 -20 3 -23 -1 -22 -30z"/>
<path d="M913 1350 c-3 -11 -10 -17 -16 -13 -6 4 -8 0 -4 -9 3 -9 0 -21 -6
-27 -8 -8 -8 -11 1 -11 7 0 12 2 12 4 0 2 7 20 15 40 8 20 13 36 9 36 -3 0 -8
-9 -11 -20z"/>
<path d="M974 1355 c-9 -23 3 -45 23 -44 17 1 17 2 1 6 -22 5 -24 23 -3 23 8
0 15 7 15 15 0 8 -7 15 -15 15 -9 0 -18 -7 -21 -15z"/>
<path d="M1031 1338 c2 -28 2 -29 6 -8 3 14 10 28 17 32 7 5 5 8 -6 8 -14 0
-18 -8 -17 -32z"/>
<path d="M1174 1355 c-8 -21 2 -45 20 -45 17 0 28 24 20 45 -4 8 -13 15 -20
15 -8 0 -17 -7 -20 -15z m31 -15 c0 -7 -6 -15 -12 -17 -8 -3 -13 4 -13 17 0
13 5 20 13 18 6 -3 12 -11 12 -18z"/>
<path d="M1231 1338 c2 -30 2 -31 6 -5 5 34 30 36 36 2 4 -23 4 -23 3 2 -1 21
-7 29 -23 31 -20 3 -23 -1 -22 -30z"/>
<path d="M1295 1359 c-5 -8 -1 -9 13 -5 17 6 21 2 25 -19 4 -24 4 -24 3 2 -1
29 -28 44 -41 22z"/>
<path d="M1364 1355 c-9 -23 3 -45 23 -44 17 1 17 2 1 6 -24 6 -23 23 2 23 13
0 18 5 14 15 -4 8 -13 15 -20 15 -8 0 -17 -7 -20 -15z"/>
<path d="M1421 1338 c2 -28 2 -29 6 -8 3 14 10 28 17 32 7 5 5 8 -6 8 -14 0
-18 -8 -17 -32z"/>
<path d="M570 1234 c-21 -57 -21 -55 0 -42 14 9 22 9 34 -1 14 -12 15 -10 5
20 -17 50 -27 56 -39 23z m24 -9 c3 -9 0 -15 -9 -15 -9 0 -12 6 -9 15 4 8 7
15 9 15 2 0 5 -7 9 -15z"/>
<path d="M633 1220 c0 -25 2 -35 4 -22 2 12 2 32 0 45 -2 12 -4 2 -4 -23z"/>
<path d="M661 1222 c-1 -36 2 -43 17 -40 22 4 30 58 8 58 -8 0 -17 6 -19 13
-3 6 -6 -7 -6 -31z m29 -12 c0 -11 -4 -20 -10 -20 -5 0 -10 9 -10 20 0 11 5
20 10 20 6 0 10 -9 10 -20z"/>
<path d="M951 1218 c1 -24 4 -33 6 -21 2 12 12 24 21 26 15 4 15 5 0 6 -10 0
-18 5 -18 10 0 5 8 12 18 14 13 4 11 5 -5 6 -21 1 -23 -3 -22 -41z"/>
<path d="M1330 1251 c0 -5 -9 -11 -21 -14 -29 -8 -22 -51 9 -55 20 -3 22 1 22
37 0 23 -2 41 -5 41 -3 0 -5 -4 -5 -9z m0 -41 c0 -11 -7 -20 -15 -20 -8 0 -15
9 -15 20 0 11 7 20 15 20 8 0 15 -9 15 -20z"/>
<path d="M803 1242 c-19 -3 -23 -9 -22 -35 2 -30 2 -31 6 -4 5 32 30 36 35 5
2 -12 9 -23 16 -24 7 -1 8 0 2 3 -14 7 -13 40 2 45 19 7 -13 15 -39 10z"/>
<path d="M724 1225 c-9 -23 3 -45 23 -44 17 1 17 2 1 6 -24 6 -23 23 2 23 13
0 18 5 14 15 -4 8 -13 15 -20 15 -8 0 -17 -7 -20 -15z"/>
<path d="M864 1225 c-8 -21 2 -45 20 -45 7 0 16 7 20 15 8 21 -3 45 -20 45 -8
0 -17 -7 -20 -15z m31 -15 c0 -7 -6 -15 -12 -17 -8 -3 -13 4 -13 17 0 13 5 20
13 18 6 -3 12 -11 12 -18z"/>
<path d="M1004 1226 c-10 -25 3 -46 28 -45 l23 2 -22 4 c-29 6 -30 23 -2 23
12 0 19 5 17 13 -7 18 -37 21 -44 3z m33 -2 c-3 -3 -12 -4 -19 -1 -8 3 -5 6 6
6 11 1 17 -2 13 -5z"/>
<path d="M1066 1233 c-3 -4 -6 -11 -6 -17 0 -6 5 -5 12 2 17 17 28 15 28 -5 1
-17 1 -17 11 0 14 24 27 21 32 -8 4 -23 4 -23 3 2 -1 25 -5 28 -37 30 -20 1
-39 -1 -43 -4z"/>
<path d="M1184 1232 c18 -8 18 -9 3 -15 -24 -9 -21 -37 4 -37 16 0 20 5 17 27
-2 19 -9 29 -23 30 -19 3 -19 3 -1 -5z m16 -32 c0 -5 -4 -10 -10 -10 -5 0 -10
5 -10 10 0 6 5 10 10 10 6 0 10 -4 10 -10z"/>
<path d="M1231 1208 c2 -32 2 -32 6 -5 5 33 25 31 34 -4 4 -14 7 -17 8 -7 2
28 -10 48 -30 48 -15 0 -19 -7 -18 -32z"/>
<path d="M1360 1225 c-15 -18 3 -45 29 -44 10 0 7 4 -9 11 -25 11 -25 11 -2
15 12 3 22 11 22 19 0 18 -24 18 -40 -1z"/>
<path d="M1428 1233 c10 -4 10 -10 -3 -29 -15 -23 -15 -24 12 -23 17 1 21 3
11 6 -16 4 -16 6 -2 29 16 23 15 24 -7 23 -13 0 -18 -3 -11 -6z"/>
<path d="M901 1088 c1 -24 3 -35 6 -25 2 9 11 17 19 17 8 0 14 6 15 13 1 6 4
1 8 -13 5 -17 15 -26 31 -27 l25 -3 -25 12 -25 11 23 5 c29 5 23 27 -8 27 -13
0 -25 6 -28 13 -2 6 -12 12 -23 12 -16 0 -19 -7 -18 -42z m31 17 c0 -5 -5 -11
-11 -13 -6 -2 -11 4 -11 13 0 9 5 15 11 13 6 -2 11 -8 11 -13z m55 -11 c-3 -3
-12 -4 -19 -1 -8 3 -5 6 6 6 11 1 17 -2 13 -5z"/>
<path d="M1193 1090 c0 -25 2 -35 4 -22 3 13 12 22 23 22 11 0 20 -9 23 -22 2
-13 4 -3 4 22 1 25 -1 37 -4 28 -2 -10 -13 -18 -23 -18 -10 0 -21 8 -23 18 -3
9 -5 -3 -4 -28z"/>
<path d="M1018 1115 c-6 -7 3 -65 11 -65 7 0 7 58 -1 65 -2 3 -7 3 -10 0z"/>
<path d="M1054 1096 c-10 -25 3 -46 28 -45 23 0 23 0 -2 11 l-25 11 23 5 c13
2 21 9 19 15 -6 19 -36 20 -43 3z m33 -2 c-3 -3 -12 -4 -19 -1 -8 3 -5 6 6 6
11 1 17 -2 13 -5z"/>
<path d="M1121 1078 c2 -28 2 -29 6 -8 3 14 10 28 17 32 7 5 5 8 -6 8 -14 0
-18 -8 -17 -32z"/>
<path d="M1297 1103 c-15 -15 -6 -45 15 -51 21 -5 21 -6 2 -14 -18 -8 -18 -8
1 -5 29 3 36 77 7 77 -10 0 -22 -3 -25 -7z m28 -23 c0 -7 -6 -15 -12 -17 -8
-3 -13 4 -13 17 0 13 5 20 13 18 6 -3 12 -11 12 -18z"/>
<path d="M1356 1095 c-8 -22 3 -45 23 -46 13 0 12 -2 -4 -10 l-20 -9 20 3 c15
2 21 11 23 40 3 31 0 37 -16 37 -11 0 -22 -7 -26 -15z m34 -15 c0 -11 -4 -20
-9 -20 -14 0 -23 18 -16 30 10 17 25 11 25 -10z"/>
<path d="M1420 1096 c0 -8 8 -17 18 -21 16 -7 15 -8 -3 -15 -16 -7 -17 -9 -3
-9 25 -1 34 20 13 31 -14 8 -15 12 -4 19 11 7 10 9 -3 9 -10 0 -18 -6 -18 -14z"/>
<path d="M757 993 c-13 -13 -7 -30 16 -40 l22 -11 -25 -10 c-24 -10 -24 -11
-3 -11 32 -1 40 19 15 40 -27 21 -27 26 -4 32 14 4 14 5 1 6 -9 0 -19 -2 -22
-6z"/>
<path d="M1041 960 l1 -45 10 34 c6 23 6 37 -1 44 -8 8 -11 -2 -10 -33z"/>
<path d="M1085 988 c-3 -7 -1 -26 4 -43 9 -29 9 -29 10 13 1 41 -5 54 -14 30z"/>
<path d="M928 985 c-6 -7 3 -65 11 -65 7 0 7 58 -1 65 -2 3 -7 3 -10 0z"/>
<path d="M814 965 c-9 -23 3 -45 23 -44 17 1 17 2 1 6 -10 2 -18 13 -18 23 0
10 8 21 18 23 16 4 16 5 -1 6 -10 0 -20 -6 -23 -14z"/>
<path d="M867 965 c-9 -22 3 -46 22 -43 10 2 16 13 16 28 0 28 -29 40 -38 15z
m33 -15 c0 -21 -15 -27 -25 -10 -7 12 2 30 16 30 5 0 9 -9 9 -20z"/>
<path d="M960 970 c0 -5 7 -7 15 -4 8 4 15 8 15 10 0 2 -7 4 -15 4 -8 0 -15
-4 -15 -10z"/>
<path d="M1124 965 c-8 -21 2 -45 20 -45 17 0 28 24 20 45 -4 8 -13 15 -20 15
-8 0 -17 -7 -20 -15z m31 -15 c0 -7 -6 -15 -12 -17 -8 -3 -13 4 -13 17 0 13 5
20 13 18 6 -3 12 -11 12 -18z"/>
<path d="M1181 948 c2 -28 2 -29 6 -8 3 14 10 28 17 32 7 5 5 8 -6 8 -14 0
-18 -8 -17 -32z"/>
<path d="M1221 948 c2 -28 2 -29 6 -8 3 14 10 28 17 32 7 5 5 8 -6 8 -14 0
-18 -8 -17 -32z"/>
<path d="M1262 950 c0 -19 2 -27 5 -17 2 9 2 25 0 35 -3 9 -5 1 -5 -18z"/>
<path d="M1290 966 c0 -8 8 -17 18 -21 16 -7 15 -8 -3 -15 -16 -7 -17 -9 -3
-9 25 -1 33 20 12 32 -17 10 -17 11 1 18 19 7 18 8 -2 8 -13 1 -23 -5 -23 -13z"/>
<path d="M1344 966 c-9 -24 4 -48 23 -44 12 2 18 12 18 28 0 29 -32 41 -41 16z
m36 -16 c0 -11 -7 -20 -15 -20 -8 0 -15 9 -15 20 0 11 7 20 15 20 8 0 15 -9
15 -20z"/>
<path d="M1401 948 c1 -29 2 -30 8 -9 9 34 29 37 34 6 4 -24 4 -24 3 2 -1 21
-7 29 -23 31 -20 3 -23 -1 -22 -30z"/>
<path d="M1060 950 c0 -5 5 -10 10 -10 6 0 10 5 10 10 0 6 -4 10 -10 10 -5 0
-10 -4 -10 -10z"/>
<path d="M5930 865 l0 -25 480 0 480 0 0 25 0 25 -480 0 -480 0 0 -25z"/>
<path d="M850 833 c-3 -29 -1 -48 3 -44 5 5 7 28 5 52 l-3 44 -5 -52z"/>
<path d="M1092 868 c-27 -27 -2 -73 35 -66 21 4 25 30 5 34 -7 1 -8 0 -2 -3
19 -9 10 -24 -12 -21 -34 5 -32 50 2 59 21 6 22 7 5 8 -12 1 -26 -4 -33 -11z"/>
<path d="M1320 871 c0 -5 -9 -11 -21 -14 -29 -8 -22 -51 9 -55 20 -3 22 1 22
37 0 23 -2 41 -5 41 -3 0 -5 -4 -5 -9z m-5 -41 c0 -7 -6 -15 -12 -17 -8 -3
-13 4 -13 17 0 13 5 20 13 18 6 -3 12 -11 12 -18z"/>
<path d="M1413 840 c0 -25 2 -35 4 -22 2 12 2 32 0 45 -2 12 -4 2 -4 -23z"/>
<path d="M1443 840 c0 -25 2 -35 4 -22 2 12 2 32 0 45 -2 12 -4 2 -4 -23z"/>
<path d="M885 851 c17 -8 18 -10 3 -10 -27 -1 -24 -41 3 -41 16 0 20 5 17 27
-2 19 -9 29 -23 30 l-20 3 20 -9z m15 -31 c0 -5 -4 -10 -10 -10 -5 0 -10 5
-10 10 0 6 5 10 10 10 6 0 10 -4 10 -10z"/>
<path d="M931 828 c2 -32 2 -32 6 -5 3 20 9 27 19 23 8 -3 14 -1 14 4 0 6 -9
10 -20 10 -16 0 -20 -6 -19 -32z"/>
<path d="M994 846 c-10 -25 3 -46 28 -45 l23 2 -22 4 c-29 6 -30 23 -2 23 12
0 19 5 17 13 -7 18 -37 21 -44 3z m33 -2 c-3 -3 -12 -4 -19 -1 -8 3 -5 6 6 6
11 1 17 -2 13 -5z"/>
<path d="M1164 846 c-9 -24 4 -48 23 -44 12 2 18 12 18 28 0 29 -32 41 -41 16z
m31 -16 c0 -7 -6 -15 -12 -17 -8 -3 -13 4 -13 17 0 13 5 20 13 18 6 -3 12 -11
12 -18z"/>
<path d="M1224 846 c-9 -24 4 -48 23 -44 12 2 18 12 18 28 0 29 -32 41 -41 16z
m34 -19 c2 -10 -3 -17 -12 -17 -10 0 -16 9 -16 21 0 24 23 21 28 -4z"/>
<path d="M1364 852 c19 -8 19 -9 -3 -15 -28 -7 -23 -31 8 -35 19 -3 22 0 19
25 -2 19 -9 29 -23 30 -19 3 -19 3 -1 -5z m16 -32 c0 -5 -7 -10 -16 -10 -8 0
-12 5 -9 10 3 6 10 10 16 10 5 0 9 -4 9 -10z"/>
<path d="M670 710 c0 -41 9 -47 44 -34 21 8 21 60 0 68 -35 13 -44 7 -44 -34z
m45 0 c0 -16 -6 -26 -17 -28 -14 -3 -18 3 -18 28 0 25 4 31 18 28 11 -2 17
-12 17 -28z"/>
<path d="M930 741 c0 -5 -9 -11 -21 -14 -29 -8 -22 -51 9 -55 20 -3 22 1 22
37 0 23 -2 41 -5 41 -3 0 -5 -4 -5 -9z m0 -41 c0 -11 -7 -20 -15 -20 -8 0 -15
9 -15 20 0 11 7 20 15 20 8 0 15 -9 15 -20z"/>
<path d="M990 710 c0 -37 2 -41 23 -38 18 2 22 9 22 38 0 29 -4 36 -22 38 -21
3 -23 -1 -23 -38z m40 20 c0 -5 -7 -10 -15 -10 -8 0 -15 5 -15 10 0 6 7 10 15
10 8 0 15 -4 15 -10z m0 -35 c0 -8 -7 -15 -15 -15 -8 0 -15 7 -15 15 0 8 7 15
15 15 8 0 15 -7 15 -15z"/>
<path d="M1123 710 c0 -25 2 -35 4 -22 2 12 2 32 0 45 -2 12 -4 2 -4 -23z"/>
<path d="M1148 734 c-3 -2 -3 -17 0 -34 3 -20 10 -30 21 -29 10 0 11 2 4 6
-16 6 -17 40 -1 45 8 3 6 6 -4 10 -9 4 -18 5 -20 2z"/>
<path d="M765 721 c16 -8 17 -10 4 -10 -18 -1 -32 -25 -22 -35 4 -3 15 -6 25
-6 28 0 21 54 -7 57 l-20 3 20 -9z m15 -31 c0 -5 -7 -10 -16 -10 -8 0 -12 5
-9 10 3 6 10 10 16 10 5 0 9 -4 9 -10z"/>
<path d="M811 700 c13 -36 24 -38 33 -7 9 34 6 45 -6 17 l-10 -25 -9 23 c-13
33 -20 27 -8 -8z"/>
<path d="M872 700 c0 -19 2 -27 5 -17 2 9 2 25 0 35 -3 9 -5 1 -5 -18z"/>
<path d="M1074 722 c18 -8 18 -9 3 -15 -24 -9 -21 -37 4 -37 16 0 20 5 17 27
-2 19 -9 29 -23 30 -19 3 -19 3 -1 -5z m16 -32 c0 -5 -4 -10 -10 -10 -5 0 -10
5 -10 10 0 6 5 10 10 10 6 0 10 -4 10 -10z"/>
<path d="M1192 700 c0 -19 2 -27 5 -17 2 9 2 25 0 35 -3 9 -5 1 -5 -18z"/>
<path d="M1221 698 c2 -30 2 -31 6 -5 5 34 20 35 26 2 4 -23 4 -23 3 2 -1 18
-7 29 -18 31 -15 3 -18 -3 -17 -30z"/>
<path d="M1278 718 c7 -7 12 -21 12 -32 0 -10 3 -17 6 -13 10 10 -5 57 -18 57
-9 0 -9 -3 0 -12z"/>
<path d="M1314 716 c-9 -24 4 -48 23 -44 12 2 18 12 18 28 0 29 -32 41 -41 16z
m34 -13 c-5 -25 -28 -28 -28 -4 0 12 6 21 16 21 9 0 14 -7 12 -17z"/>
<path d="M1371 698 c1 -22 3 -26 6 -13 3 11 10 26 15 33 8 9 6 12 -6 12 -12 0
-16 -9 -15 -32z"/>
<path d="M1414 716 c-9 -23 3 -46 23 -45 17 1 17 2 1 6 -25 6 -22 23 3 23 12
0 19 5 17 13 -7 18 -37 21 -44 3z m33 -2 c-3 -3 -12 -4 -19 -1 -8 3 -5 6 6 6
11 1 17 -2 13 -5z"/>
<path d="M540 594 c-21 -57 -21 -55 0 -42 14 9 22 9 34 -1 14 -12 15 -10 5 20
-17 50 -27 56 -39 23z m24 -9 c3 -9 0 -15 -9 -15 -9 0 -12 6 -9 15 4 8 7 15 9
15 2 0 5 -7 9 -15z"/>
<path d="M603 580 c0 -25 2 -35 4 -22 2 12 2 32 0 45 -2 12 -4 2 -4 -23z"/>
<path d="M910 611 c0 -5 -9 -11 -21 -14 -29 -8 -22 -51 9 -55 20 -3 22 1 22
37 0 23 -2 41 -5 41 -3 0 -5 -4 -5 -9z m-5 -41 c0 -7 -6 -15 -12 -17 -8 -3
-13 4 -13 17 0 13 5 20 13 18 6 -3 12 -11 12 -18z"/>
<path d="M1070 580 c0 -37 2 -41 21 -38 12 2 27 11 33 21 14 22 -3 51 -33 55
-19 3 -21 -1 -21 -38z m45 0 c0 -16 -6 -26 -17 -28 -14 -3 -18 3 -18 28 0 25
4 31 18 28 11 -2 17 -12 17 -28z"/>
<path d="M1240 600 c-15 -28 4 -60 33 -59 l22 2 -22 4 c-24 5 -35 25 -27 47 3
8 15 17 27 19 l22 4 -22 2 c-13 0 -27 -7 -33 -19z"/>
<path d="M645 591 c19 -9 19 -10 -4 -10 -17 -1 -22 -5 -17 -17 3 -9 6 -18 6
-20 0 -2 10 -4 23 -3 21 0 21 1 -3 11 l-25 11 23 5 c27 4 24 26 -4 29 -18 3
-18 2 1 -6z"/>
<path d="M697 581 c2 -7 -2 -21 -9 -30 -11 -14 -11 -14 3 -4 9 8 19 9 25 3 5
-5 9 2 9 20 0 20 -3 26 -12 19 -6 -6 -13 -6 -15 -2 -3 4 -3 2 -1 -6z"/>
<path d="M764 592 c19 -8 19 -9 -3 -15 -28 -7 -23 -31 8 -35 19 -3 22 0 19 25
-2 19 -9 29 -23 30 -19 3 -19 3 -1 -5z m11 -32 c-3 -5 -10 -10 -16 -10 -5 0
-9 5 -9 10 0 6 7 10 16 10 8 0 12 -4 9 -10z"/>
<path d="M811 568 c2 -31 2 -31 6 -5 2 15 8 27 13 27 5 0 11 -12 13 -27 4 -26
4 -26 6 5 1 26 -3 32 -19 32 -16 0 -20 -6 -19 -32z"/>
<path d="M934 586 c-10 -25 3 -46 28 -45 l23 2 -22 4 c-29 6 -30 23 -2 23 12
0 19 5 17 13 -7 18 -37 21 -44 3z m33 -2 c-3 -3 -12 -4 -19 -1 -8 3 -5 6 6 6
11 1 17 -2 13 -5z"/>
<path d="M990 585 c0 -8 3 -15 6 -15 3 0 12 7 20 15 14 13 13 15 -5 15 -12 0
-21 -6 -21 -15z"/>
<path d="M1144 586 c-10 -25 3 -46 28 -45 23 0 23 0 -2 11 l-25 11 23 5 c13 2
21 9 19 15 -6 19 -36 20 -43 3z m33 -2 c-3 -3 -12 -4 -19 -1 -8 3 -5 6 6 6 11
1 17 -2 13 -5z"/>
<path d="M1311 567 c2 -30 2 -30 6 -4 5 33 20 36 25 5 5 -34 43 -31 43 2 0 22
-5 25 -37 27 -37 2 -38 1 -37 -30z m69 3 c0 -11 -7 -20 -15 -20 -8 0 -15 9
-15 20 0 11 7 20 15 20 8 0 15 -9 15 -20z"/>
<path d="M1404 586 c-9 -24 4 -48 23 -44 24 4 24 52 0 56 -9 2 -20 -4 -23 -12z
m36 -16 c0 -11 -7 -20 -15 -20 -8 0 -15 9 -15 20 0 11 7 20 15 20 8 0 15 -9
15 -20z"/>
<path d="M651 448 c1 -24 3 -35 6 -25 6 22 19 22 31 0 8 -13 9 -8 7 18 -2 18
-4 37 -4 42 -1 4 -10 7 -21 7 -17 0 -20 -6 -19 -42z m31 17 c0 -5 -5 -11 -11
-13 -6 -2 -11 4 -11 13 0 9 5 15 11 13 6 -2 11 -8 11 -13z"/>
<path d="M903 450 c0 -25 2 -35 4 -22 2 12 2 32 0 45 -2 12 -4 2 -4 -23z"/>
<path d="M960 480 c0 -5 -6 -10 -14 -10 -8 0 -16 -7 -20 -15 -8 -23 4 -45 25
-45 15 0 19 7 19 40 0 22 -2 40 -5 40 -3 0 -5 -4 -5 -10z m0 -40 c0 -11 -4
-20 -9 -20 -14 0 -23 18 -16 30 10 17 25 11 25 -10z"/>
<path d="M1021 448 l2 -43 6 35 c6 32 7 33 13 11 7 -23 28 -21 28 2 0 8 -3 8
-9 -1 -6 -10 -10 -7 -15 12 -10 41 -26 30 -25 -16z"/>
<path d="M1077 453 c8 -52 13 -54 13 -5 0 23 -4 42 -9 42 -6 0 -7 -17 -4 -37z"/>
<path d="M1170 450 c0 -37 2 -40 28 -39 23 2 24 2 5 6 -13 2 -23 11 -23 18 0
7 10 16 23 18 l22 4 -22 2 c-13 0 -23 5 -23 10 0 5 10 12 23 14 19 4 18 4 -5
6 -26 1 -28 -2 -28 -39z"/>
<path d="M714 456 c-9 -24 4 -48 23 -44 12 2 18 12 18 28 0 29 -32 41 -41 16z
m34 -19 c2 -10 -3 -17 -12 -17 -10 0 -16 9 -16 21 0 24 23 21 28 -4z"/>
<path d="M771 438 c1 -29 2 -30 8 -9 9 34 29 37 34 6 4 -24 4 -24 3 2 -1 21
-7 29 -23 31 -20 3 -23 -1 -22 -30z"/>
<path d="M854 462 c19 -8 19 -9 -3 -15 -28 -7 -23 -31 8 -35 19 -3 22 0 19 25
-2 19 -9 29 -23 30 -19 3 -19 3 -1 -5z m16 -32 c0 -5 -7 -10 -16 -10 -8 0 -12
5 -9 10 3 6 10 10 16 10 5 0 9 -4 9 -10z"/>
<path d="M1236 450 c10 -40 22 -46 34 -15 6 15 9 30 6 32 -2 3 -7 -6 -11 -18
l-7 -22 -15 24 -14 24 7 -25z"/>
<path d="M1308 463 c10 -4 9 -8 -4 -17 -9 -7 -14 -18 -10 -24 10 -17 46 -15
46 2 0 27 -12 46 -29 45 -11 0 -12 -2 -3 -6z m17 -33 c-3 -5 -10 -10 -16 -10
-5 0 -9 5 -9 10 0 6 7 10 16 10 8 0 12 -4 9 -10z"/>
<path d="M1351 438 c1 -29 2 -30 8 -9 9 34 29 37 34 6 4 -24 4 -24 3 2 -1 21
-7 29 -23 31 -20 3 -23 -1 -22 -30z"/>
<path d="M1428 463 c7 -3 16 -2 19 1 4 3 -2 6 -13 5 -11 0 -14 -3 -6 -6z"/>
<path d="M1436 435 c19 -14 19 -14 0 -15 -11 0 -17 -3 -13 -6 3 -4 14 -4 23 0
13 5 14 9 4 21 -7 8 -17 15 -23 15 -6 0 -2 -7 9 -15z"/>
<path d="M1475 270 c0 -34 3 -40 20 -39 11 0 14 3 8 6 -7 2 -13 20 -13 39 0
19 -3 34 -7 34 -5 0 -8 -18 -8 -40z"/>
<path d="M1560 290 c0 -11 7 -20 15 -20 21 0 19 -28 -2 -33 -17 -4 -17 -5 0
-6 25 -1 34 29 14 44 -22 16 -21 22 1 28 13 4 11 5 -5 6 -17 1 -23 -5 -23 -19z"/>
<path d="M1624 296 c-11 -28 0 -61 21 -61 16 0 20 7 20 35 0 25 -5 36 -18 38
-9 2 -20 -3 -23 -12z m36 -26 c0 -20 -5 -30 -15 -30 -10 0 -15 10 -15 30 0 20
5 30 15 30 10 0 15 -10 15 -30z"/>
<path d="M2375 270 c0 -34 3 -40 20 -39 11 0 14 3 8 6 -7 2 -13 20 -13 39 0
19 -3 34 -7 34 -5 0 -8 -18 -8 -40z"/>
<path d="M2473 303 c21 -6 22 -26 2 -43 -22 -18 -18 -30 8 -30 17 0 19 2 8 9
-12 8 -12 12 -2 25 17 20 7 46 -16 45 -17 -1 -17 -2 0 -6z"/>
<path d="M2526 301 c-4 -5 3 -7 14 -4 23 6 26 13 6 13 -8 0 -17 -4 -20 -9z"/>
<path d="M3265 270 c0 -34 3 -40 20 -39 11 0 14 3 8 6 -7 2 -13 20 -13 39 0
19 -3 34 -7 34 -5 0 -8 -18 -8 -40z"/>
<path d="M3357 303 c-11 -10 -8 -61 4 -69 6 -3 16 -1 22 5 9 9 8 11 -5 6 -15
-6 -18 -1 -18 25 0 25 3 31 16 26 8 -3 12 -2 9 4 -7 12 -19 13 -28 3z"/>
<path d="M3414 296 c-10 -25 0 -61 18 -64 19 -4 32 29 23 58 -7 23 -33 27 -41
6z m31 -26 c0 -13 -6 -25 -12 -27 -9 -3 -13 6 -13 27 0 21 4 30 13 28 6 -3 12
-15 12 -28z"/>
<path d="M4144 296 c-11 -28 0 -61 21 -61 16 0 20 7 20 35 0 25 -5 36 -18 38
-9 2 -20 -3 -23 -12z m36 -26 c0 -20 -5 -30 -15 -30 -10 0 -15 10 -15 30 0 20
5 30 15 30 10 0 15 -10 15 -30z"/>
<path d="M4253 303 c13 -3 16 -10 11 -26 -14 -45 -14 -51 0 -22 21 42 19 55
-6 54 -18 -1 -19 -2 -5 -6z"/>
<path d="M4300 290 c0 -11 6 -20 14 -20 26 0 28 -20 4 -29 -23 -10 -23 -10 -1
-10 12 -1 24 3 27 8 9 14 -4 41 -20 41 -20 0 -17 18 4 23 13 4 11 5 -5 6 -17
1 -23 -5 -23 -19z"/>
<path d="M5044 296 c-11 -28 0 -61 21 -61 16 0 20 7 20 35 0 25 -5 36 -18 38
-9 2 -20 -3 -23 -12z m36 -26 c0 -20 -5 -30 -15 -30 -10 0 -15 10 -15 30 0 20
5 30 15 30 10 0 15 -10 15 -30z"/>
<path d="M5140 290 c0 -11 7 -20 15 -20 21 0 19 -28 -2 -33 -17 -4 -17 -5 0
-6 25 -1 34 29 14 44 -22 16 -21 22 1 28 13 4 11 5 -5 6 -17 1 -23 -5 -23 -19z"/>
<path d="M5204 296 c-10 -25 0 -61 18 -64 19 -4 32 29 23 58 -7 23 -33 27 -41
6z m31 -26 c0 -13 -6 -25 -12 -27 -9 -3 -13 6 -13 27 0 21 4 30 13 28 6 -3 12
-15 12 -28z"/>
<path d="M5934 296 c-11 -28 0 -61 21 -61 16 0 20 7 20 35 0 25 -5 36 -18 38
-9 2 -20 -3 -23 -12z m36 -26 c0 -20 -5 -30 -15 -30 -10 0 -15 10 -15 30 0 20
5 30 15 30 10 0 15 -10 15 -30z"/>
<path d="M6043 303 c21 -6 22 -26 2 -43 -22 -18 -18 -30 8 -29 18 1 18 2 4 6
-17 4 -18 6 -2 24 20 22 13 49 -12 48 -17 -1 -17 -2 0 -6z"/>
<path d="M6090 290 c0 -11 6 -20 14 -20 26 0 28 -20 4 -29 -23 -10 -23 -10 -1
-10 12 -1 24 3 27 8 9 14 -4 41 -20 41 -20 0 -17 18 4 23 13 4 11 5 -5 6 -17
1 -23 -5 -23 -19z"/>
<path d="M6807 303 c-11 -10 -8 -61 4 -69 6 -3 16 -1 22 5 9 9 8 11 -5 6 -15
-6 -18 -1 -18 25 0 25 3 31 16 26 8 -3 12 -2 9 4 -7 12 -19 13 -28 3z"/>
<path d="M6885 291 c-9 -30 4 -63 23 -59 12 2 17 14 17 38 0 40 -29 55 -40 21z
m35 -21 c0 -31 -16 -41 -26 -15 -8 19 2 45 16 45 5 0 10 -13 10 -30z"/>
<path d="M6955 301 c-3 -7 0 -8 9 -5 13 5 16 -1 16 -26 0 -26 -3 -31 -17 -25
-15 5 -16 4 -5 -6 17 -18 34 2 30 37 -3 29 -21 43 -33 25z"/>
<path d="M7697 303 c-11 -10 -8 -61 4 -69 6 -3 16 -1 22 5 9 9 8 11 -5 6 -15
-6 -18 -1 -18 25 0 25 3 31 16 26 8 -3 12 -2 9 4 -7 12 -19 13 -28 3z"/>
<path d="M7793 303 c22 -6 22 -15 -4 -47 l-20 -26 28 1 c16 1 21 3 11 6 -16 4
-16 6 -2 28 18 27 11 46 -14 44 -15 -1 -15 -2 1 -6z"/>
<path d="M7840 290 c0 -11 7 -20 15 -20 21 0 19 -28 -2 -33 -17 -4 -17 -5 0
-6 25 -1 34 29 14 44 -22 16 -21 22 1 28 13 4 11 5 -5 6 -17 1 -23 -5 -23 -19z"/>
<path d="M2543 270 c9 -6 17 -15 17 -20 0 -5 -8 -10 -17 -13 -14 -3 -13 -4 2
-3 13 1 20 8 20 21 0 12 -8 21 -20 23 -18 2 -18 2 -2 -8z"/>
<path d="M1403 263 c9 -2 25 -2 35 0 9 3 1 5 -18 5 -19 0 -27 -2 -17 -5z"/>
<path d="M2303 263 c9 -2 25 -2 35 0 9 3 1 5 -18 5 -19 0 -27 -2 -17 -5z"/>
<path d="M3193 263 c9 -2 25 -2 35 0 9 3 1 5 -18 5 -19 0 -27 -2 -17 -5z"/>
<path d="M4083 263 c9 -2 25 -2 35 0 9 3 1 5 -18 5 -19 0 -27 -2 -17 -5z"/>
<path d="M4983 263 c9 -2 25 -2 35 0 9 3 1 5 -18 5 -19 0 -27 -2 -17 -5z"/>
<path d="M5873 263 c9 -2 25 -2 35 0 9 3 1 5 -18 5 -19 0 -27 -2 -17 -5z"/>
<path d="M4671 120 c10 -28 29 -42 29 -21 0 5 3 18 6 28 6 16 5 16 -9 -2 -14
-17 -16 -18 -17 -3 0 9 -4 19 -10 23 -5 3 -5 -7 1 -25z"/>
<path d="M4735 141 c17 -8 18 -10 3 -10 -27 -1 -24 -41 3 -41 16 0 20 5 17 27
-2 19 -9 29 -23 30 l-20 3 20 -9z m15 -31 c0 -5 -4 -10 -10 -10 -5 0 -10 5
-10 10 0 6 5 10 10 10 6 0 10 -4 10 -10z"/>
<path d="M4781 118 c2 -28 2 -29 6 -8 3 14 10 28 17 32 7 5 5 8 -6 8 -14 0
-18 -8 -17 -32z"/>
<path d="M4822 120 c0 -19 2 -27 5 -17 2 9 2 25 0 35 -3 9 -5 1 -5 -18z"/>
<path d="M4865 141 c17 -8 18 -10 3 -10 -27 -1 -24 -41 3 -41 16 0 20 5 17 27
-2 19 -9 29 -23 30 l-20 3 20 -9z m15 -31 c0 -5 -4 -10 -10 -10 -5 0 -10 5
-10 10 0 6 5 10 10 10 6 0 10 -4 10 -10z"/>
<path d="M4911 118 c2 -32 2 -32 6 -5 5 33 25 31 34 -4 4 -14 7 -17 8 -7 2 28
-10 48 -30 48 -15 0 -19 -7 -18 -32z"/>
<path d="M4974 135 c-9 -23 3 -45 23 -44 17 1 17 2 1 6 -10 2 -18 13 -18 23 0
10 8 21 18 23 16 4 16 5 -1 6 -10 0 -20 -6 -23 -14z"/>
<path d="M5034 135 c-9 -23 3 -45 23 -44 17 1 17 2 1 6 -22 5 -24 23 -3 23 8
0 15 7 15 15 0 8 -7 15 -15 15 -9 0 -18 -7 -21 -15z"/>
</g>
</svg>
